<?xml version="1.0" encoding="utf-8" standalone="no"?>
<!DOCTYPE svg PUBLIC "-//W3C//DTD SVG 1.1//EN"
  "http://www.w3.org/Graphics/SVG/1.1/DTD/svg11.dtd">
<!-- Created with matplotlib (http://matplotlib.org/) -->
<svg height="432pt" version="1.1" viewBox="0 0 576 432" width="576pt" xmlns="http://www.w3.org/2000/svg" xmlns:xlink="http://www.w3.org/1999/xlink">
 <defs>
  <style type="text/css">
*{stroke-linecap:butt;stroke-linejoin:round;stroke-miterlimit:100000;}
  </style>
 </defs>
 <g id="figure_1">
  <g id="patch_1">
   <path d="M 0 432 
L 576 432 
L 576 0 
L 0 0 
z
" style="fill:#ffffff;"/>
  </g>
  <g id="axes_1">
   <g id="patch_2">
    <path d="M 72 388.8 
L 518.4 388.8 
L 518.4 43.2 
L 72 43.2 
z
" style="fill:#ffffff;"/>
   </g>
   <g id="line2d_1">
    <path clip-path="url(#p4afe336888)" d="M 74.043992 211.60678 
L 74.414595 212.323404 
L 75.323484 211.569231 
L 75.838129 210.808584 
L 77.783471 210.041379 
L 78.310347 209.267532 
L 79.144409 207.699563 
L 79.800806 206.905263 
L 80.221025 204.48 
L 80.383231 203.657143 
L 80.710371 202.826906 
L 81.069849 201.143891 
L 82.085224 199.430137 
L 82.405008 198.561468 
L 84.095729 197.684793 
L 84.301699 196.8 
L 85.91795 197.514419 
L 85.965224 196.620561 
L 86.319572 197.340845 
L 86.643238 196.437736 
L 86.685972 195.526066 
L 87.751088 194.605714 
L 87.846074 193.676555 
L 88.000453 194.4 
L 88.076143 193.46087 
L 89.141923 192.512621 
L 89.81392 191.555122 
L 90.149769 190.588235 
L 90.616621 189.611823 
L 90.636002 190.336634 
L 91.387717 189.349254 
L 93.5596 188.352 
L 93.985083 187.344724 
L 94.480835 188.072727 
L 95.268149 187.053807 
L 95.356012 186.02449 
L 95.796525 184.984615 
L 95.798923 183.934021 
L 96.353819 182.872539 
L 96.44153 181.8 
L 96.694579 180.71623 
L 97.930937 179.621053 
L 98.554685 178.514286 
L 98.967572 177.395745 
L 101.304987 176.265241 
L 102.279437 175.122581 
L 102.402595 175.835676 
L 103.215624 174.678261 
L 104.733487 175.396721 
L 105.042942 176.123077 
L 105.10068 174.948066 
L 105.577784 172.558659 
L 106.399407 173.285393 
L 107.649312 174.020339 
L 107.650623 174.763636 
L 108.036248 173.540571 
L 108.267456 172.303448 
L 108.436288 173.049711 
L 108.858798 173.804651 
L 109.595765 174.568421 
L 110.988115 173.308235 
L 111.273415 172.033136 
L 113.713375 172.8 
L 114.553586 173.576048 
L 115.654165 174.361446 
L 116.441439 175.156364 
L 116.754588 175.960976 
L 116.809178 174.655215 
L 117.006086 175.466667 
L 117.675958 172.8 
L 118.962768 171.441509 
L 120.042076 173.075159 
L 120.204333 171.692308 
L 120.712955 170.291613 
L 121.434303 168.872727 
L 121.818692 170.526316 
L 121.946793 169.080795 
L 122.425609 167.616 
L 125.393994 168.451007 
L 125.959851 165.453061 
L 126.007183 163.923288 
L 127.147829 164.755862 
L 130.398037 165.6 
L 131.43821 164.039161 
L 131.914637 162.456338 
L 133.079036 163.302128 
L 133.079113 161.691429 
L 133.22198 160.057554 
L 133.699942 160.904348 
L 134.046871 157.552941 
L 135.873362 155.84 
L 136.423716 154.101493 
L 138.322204 152.336842 
L 140.872539 153.163636 
L 141.033873 151.364885 
L 141.835072 152.196923 
L 141.95106 150.362791 
L 142.767178 151.2 
L 145.104528 149.329134 
L 145.106853 147.428571 
L 145.36508 148.2624 
L 147.159469 149.109677 
L 147.71945 149.970732 
L 149.39123 148.013115 
L 151.25517 149.76 
L 153.86242 150.655462 
L 155.253761 151.566102 
L 156.648442 149.538462 
L 157.34031 147.475862 
L 158.205633 145.377391 
L 159.714263 146.273684 
L 159.799667 144.127434 
L 161.42659 141.942857 
L 163.428258 139.718919 
L 165.1204 135.148624 
L 165.74726 132.8 
L 168.554132 130.407477 
L 168.977177 127.969811 
L 172.828894 128.777143 
L 173.647067 129.6 
L 175.976194 127.083495 
L 176.002179 124.517647 
L 180.205679 125.322772 
L 180.49888 126.144 
L 184.535563 123.490909 
L 189.324588 124.310204 
L 189.847296 125.146392 
L 194.258452 122.4 
L 196.583038 123.233684 
L 197.92648 124.085106 
L 200.753532 121.23871 
L 201.777443 122.086957 
L 202.234865 122.953846 
L 202.634659 120 
L 202.790604 120.862921 
L 203.309254 121.745455 
L 203.348044 122.648276 
L 205.940801 119.553488 
L 208.951816 120.451765 
L 210.594009 121.371429 
L 210.914541 118.149398 
L 212.879935 114.84878 
L 214.176165 115.733333 
L 217.389745 112.32 
L 218.677398 108.820253 
L 218.786428 105.230769 
L 222.669726 106.036364 
L 223.258415 106.863158 
L 226.914268 107.712 
L 227.469786 103.913514 
L 227.620803 104.745205 
L 228.985858 105.6 
L 229.843945 106.478873 
L 230.21157 102.445714 
L 231.598994 103.304348 
L 232.780671 99.105882 
L 232.831919 99.940299 
L 236.928564 95.563636 
L 238.572625 96.369231 
L 238.786519 97.2 
L 245.042712 98.057143 
L 248.819963 98.941935 
L 253.973404 100.8 
L 254.577263 101.776271 
L 259.051304 102.786207 
L 260.008203 103.831579 
L 262.780496 104.914286 
L 270.38519 106.036364 
L 270.542684 107.2 
L 271.518758 108.407547 
L 273.357557 103.015385 
L 273.524733 97.411765 
L 276.244165 91.584 
L 286.58263 86.4 
L 288.237107 87.319149 
L 288.872014 89.28 
L 293.168265 90.327273 
L 299.856162 83.386047 
L 303.855916 84.342857 
L 307.528531 76.917073 
L 310.452976 77.76 
L 312.14172 78.646154 
L 312.290618 79.578947 
L 313.283618 80.562162 
L 313.966531 72 
L 315.079794 72.822857 
L 315.532132 63.529412 
L 316.72962 64.145455 
L 321.025931 64.8 
L 329.872574 65.496774 
L 333.607963 66.24 
L 343.475863 67.034483 
L 348.643652 67.885714 
L 349.939232 69.784615 
L 350.225063 70.848 
L 356.388311 72 
L 356.471271 73.252174 
L 357.515232 58.909091 
L 360.555026 59.657143 
L 361.271527 60.48 
L 365.401603 61.389474 
L 369.198394 62.4 
L 370.795574 43.2 
L 518.157021 43.2 
L 518.157021 43.2 
" style="fill:none;stroke:#ff0000;stroke-linecap:square;stroke-width:5.0;"/>
   </g>
   <g id="line2d_2">
    <path clip-path="url(#p4afe336888)" d="M 74.043992 43.2 
L 74.414595 46.056198 
L 84.301699 46.056198 
L 85.965224 48.912397 
L 86.319572 51.768595 
L 87.846074 51.768595 
L 88.076143 54.624793 
L 90.616621 54.624793 
L 90.636002 57.480992 
L 93.985083 57.480992 
L 94.480835 60.33719 
L 102.279437 60.33719 
L 102.402595 63.193388 
L 103.215624 63.193388 
L 104.733487 66.049587 
L 105.10068 68.905785 
L 105.577784 68.905785 
L 106.399407 71.761983 
L 107.649312 74.618182 
L 107.650623 77.47438 
L 108.267456 77.47438 
L 108.436288 80.330579 
L 108.858798 83.186777 
L 109.595765 86.042975 
L 111.273415 86.042975 
L 113.713375 88.899174 
L 114.553586 91.755372 
L 115.654165 94.61157 
L 116.441439 97.467769 
L 117.006086 103.180165 
L 118.962768 103.180165 
L 120.042076 108.892562 
L 121.434303 108.892562 
L 121.818692 114.604959 
L 122.425609 114.604959 
L 125.393994 117.461157 
L 126.007183 117.461157 
L 127.147829 120.317355 
L 130.398037 123.173554 
L 131.914637 123.173554 
L 133.079113 126.029752 
L 133.22198 126.029752 
L 133.699942 128.88595 
L 138.322204 128.88595 
L 140.872539 131.742149 
L 141.033873 131.742149 
L 141.835072 134.598347 
L 141.95106 134.598347 
L 142.767178 137.454545 
L 145.106853 137.454545 
L 145.36508 140.310744 
L 147.159469 143.166942 
L 147.71945 146.02314 
L 149.39123 146.02314 
L 151.25517 151.735537 
L 153.86242 154.591736 
L 155.253761 157.447934 
L 158.205633 157.447934 
L 159.799667 160.304132 
L 168.977177 160.304132 
L 172.828894 163.160331 
L 173.647067 166.016529 
L 176.002179 166.016529 
L 180.205679 168.872727 
L 180.49888 171.728926 
L 184.535563 171.728926 
L 189.324588 174.585124 
L 189.847296 177.441322 
L 194.258452 177.441322 
L 196.583038 180.297521 
L 197.92648 183.153719 
L 200.753532 183.153719 
L 201.777443 186.009917 
L 202.234865 188.866116 
L 202.634659 188.866116 
L 202.790604 191.722314 
L 203.309254 194.578512 
L 203.348044 197.434711 
L 205.940801 197.434711 
L 208.951816 200.290909 
L 210.594009 203.147107 
L 212.879935 203.147107 
L 214.176165 206.003306 
L 218.786428 206.003306 
L 222.669726 208.859504 
L 223.258415 211.715702 
L 226.914268 214.571901 
L 227.469786 214.571901 
L 227.620803 217.428099 
L 228.985858 220.284298 
L 229.843945 223.140496 
L 230.21157 223.140496 
L 231.598994 225.996694 
L 232.780671 225.996694 
L 232.831919 228.852893 
L 236.928564 228.852893 
L 238.572625 231.709091 
L 238.786519 234.565289 
L 245.042712 237.421488 
L 248.819963 240.277686 
L 253.973404 245.990083 
L 254.577263 248.846281 
L 259.051304 251.702479 
L 260.008203 254.558678 
L 262.780496 257.414876 
L 270.38519 260.271074 
L 270.542684 263.127273 
L 271.518758 265.983471 
L 276.244165 265.983471 
L 286.58263 268.839669 
L 288.237107 271.695868 
L 288.872014 277.408264 
L 293.168265 280.264463 
L 299.856162 280.264463 
L 303.855916 283.120661 
L 307.528531 283.120661 
L 310.452976 285.97686 
L 312.14172 288.833058 
L 312.290618 291.689256 
L 313.283618 294.545455 
L 313.966531 294.545455 
L 315.079794 297.401653 
L 315.532132 297.401653 
L 316.72962 300.257851 
L 321.025931 303.11405 
L 329.872574 305.970248 
L 333.607963 308.826446 
L 343.475863 311.682645 
L 348.643652 314.538843 
L 349.939232 320.25124 
L 350.225063 323.107438 
L 356.388311 325.963636 
L 356.471271 328.819835 
L 357.515232 328.819835 
L 360.555026 331.676033 
L 361.271527 334.532231 
L 365.401603 337.38843 
L 369.198394 340.244628 
L 370.795574 340.244628 
L 378.308456 343.100826 
L 386.435596 345.957025 
L 389.585781 348.813223 
L 391.430863 351.669421 
L 395.486245 354.52562 
L 414.177651 357.381818 
L 417.001335 360.238017 
L 420.829028 363.094215 
L 448.4435 365.950413 
L 456.212901 368.806612 
L 456.539057 371.66281 
L 486.777427 374.519008 
L 493.970032 377.375207 
L 495.949878 380.231405 
L 513.558016 383.087603 
L 518.157021 385.943802 
L 518.157021 385.943802 
" style="fill:none;stroke:#0000ff;stroke-linecap:square;stroke-width:5.0;"/>
   </g>
   <g id="patch_3">
    <path d="M 72 43.2 
L 518.4 43.2 
" style="fill:none;stroke:#000000;stroke-linecap:square;stroke-linejoin:miter;"/>
   </g>
   <g id="patch_4">
    <path d="M 518.4 388.8 
L 518.4 43.2 
" style="fill:none;stroke:#000000;stroke-linecap:square;stroke-linejoin:miter;"/>
   </g>
   <g id="patch_5">
    <path d="M 72 388.8 
L 518.4 388.8 
" style="fill:none;stroke:#000000;stroke-linecap:square;stroke-linejoin:miter;"/>
   </g>
   <g id="patch_6">
    <path d="M 72 388.8 
L 72 43.2 
" style="fill:none;stroke:#000000;stroke-linecap:square;stroke-linejoin:miter;"/>
   </g>
   <g id="matplotlib.axis_1">
    <g id="xtick_1">
     <g id="line2d_3">
      <defs>
       <path d="M 0 0 
L 0 -4 
" id="m5bd4580e64" style="stroke:#000000;stroke-width:0.5;"/>
      </defs>
      <g>
       <use style="stroke:#000000;stroke-width:0.5;" x="72.0" xlink:href="#m5bd4580e64" y="388.8"/>
      </g>
     </g>
     <g id="line2d_4">
      <defs>
       <path d="M 0 0 
L 0 4 
" id="mf6e2b5879c" style="stroke:#000000;stroke-width:0.5;"/>
      </defs>
      <g>
       <use style="stroke:#000000;stroke-width:0.5;" x="72.0" xlink:href="#mf6e2b5879c" y="43.2"/>
      </g>
     </g>
     <g id="text_1">
      <!-- 0.40 -->
      <defs>
       <path d="M 31.78125 66.40625 
Q 24.171875 66.40625 20.328125 58.90625 
Q 16.5 51.421875 16.5 36.375 
Q 16.5 21.390625 20.328125 13.890625 
Q 24.171875 6.390625 31.78125 6.390625 
Q 39.453125 6.390625 43.28125 13.890625 
Q 47.125 21.390625 47.125 36.375 
Q 47.125 51.421875 43.28125 58.90625 
Q 39.453125 66.40625 31.78125 66.40625 
M 31.78125 74.21875 
Q 44.046875 74.21875 50.515625 64.515625 
Q 56.984375 54.828125 56.984375 36.375 
Q 56.984375 17.96875 50.515625 8.265625 
Q 44.046875 -1.421875 31.78125 -1.421875 
Q 19.53125 -1.421875 13.0625 8.265625 
Q 6.59375 17.96875 6.59375 36.375 
Q 6.59375 54.828125 13.0625 64.515625 
Q 19.53125 74.21875 31.78125 74.21875 
" id="BitstreamVeraSans-Roman-30"/>
       <path d="M 10.6875 12.40625 
L 21 12.40625 
L 21 0 
L 10.6875 0 
z
" id="BitstreamVeraSans-Roman-2e"/>
       <path d="M 37.796875 64.3125 
L 12.890625 25.390625 
L 37.796875 25.390625 
z
M 35.203125 72.90625 
L 47.609375 72.90625 
L 47.609375 25.390625 
L 58.015625 25.390625 
L 58.015625 17.1875 
L 47.609375 17.1875 
L 47.609375 0 
L 37.796875 0 
L 37.796875 17.1875 
L 4.890625 17.1875 
L 4.890625 26.703125 
z
" id="BitstreamVeraSans-Roman-34"/>
      </defs>
      <g transform="translate(58.640625 401.918125)scale(0.12 -0.12)">
       <use xlink:href="#BitstreamVeraSans-Roman-30"/>
       <use x="63.623046875" xlink:href="#BitstreamVeraSans-Roman-2e"/>
       <use x="95.41015625" xlink:href="#BitstreamVeraSans-Roman-34"/>
       <use x="159.033203125" xlink:href="#BitstreamVeraSans-Roman-30"/>
      </g>
     </g>
    </g>
    <g id="xtick_2">
     <g id="line2d_5">
      <g>
       <use style="stroke:#000000;stroke-width:0.5;" x="146.4" xlink:href="#m5bd4580e64" y="388.8"/>
      </g>
     </g>
     <g id="line2d_6">
      <g>
       <use style="stroke:#000000;stroke-width:0.5;" x="146.4" xlink:href="#mf6e2b5879c" y="43.2"/>
      </g>
     </g>
     <g id="text_2">
      <!-- 0.45 -->
      <defs>
       <path d="M 10.796875 72.90625 
L 49.515625 72.90625 
L 49.515625 64.59375 
L 19.828125 64.59375 
L 19.828125 46.734375 
Q 21.96875 47.46875 24.109375 47.828125 
Q 26.265625 48.1875 28.421875 48.1875 
Q 40.625 48.1875 47.75 41.5 
Q 54.890625 34.8125 54.890625 23.390625 
Q 54.890625 11.625 47.5625 5.09375 
Q 40.234375 -1.421875 26.90625 -1.421875 
Q 22.3125 -1.421875 17.546875 -0.640625 
Q 12.796875 0.140625 7.71875 1.703125 
L 7.71875 11.625 
Q 12.109375 9.234375 16.796875 8.0625 
Q 21.484375 6.890625 26.703125 6.890625 
Q 35.15625 6.890625 40.078125 11.328125 
Q 45.015625 15.765625 45.015625 23.390625 
Q 45.015625 31 40.078125 35.4375 
Q 35.15625 39.890625 26.703125 39.890625 
Q 22.75 39.890625 18.8125 39.015625 
Q 14.890625 38.140625 10.796875 36.28125 
z
" id="BitstreamVeraSans-Roman-35"/>
      </defs>
      <g transform="translate(133.040625 401.918125)scale(0.12 -0.12)">
       <use xlink:href="#BitstreamVeraSans-Roman-30"/>
       <use x="63.623046875" xlink:href="#BitstreamVeraSans-Roman-2e"/>
       <use x="95.41015625" xlink:href="#BitstreamVeraSans-Roman-34"/>
       <use x="159.033203125" xlink:href="#BitstreamVeraSans-Roman-35"/>
      </g>
     </g>
    </g>
    <g id="xtick_3">
     <g id="line2d_7">
      <g>
       <use style="stroke:#000000;stroke-width:0.5;" x="220.8" xlink:href="#m5bd4580e64" y="388.8"/>
      </g>
     </g>
     <g id="line2d_8">
      <g>
       <use style="stroke:#000000;stroke-width:0.5;" x="220.8" xlink:href="#mf6e2b5879c" y="43.2"/>
      </g>
     </g>
     <g id="text_3">
      <!-- 0.50 -->
      <g transform="translate(207.440625 401.918125)scale(0.12 -0.12)">
       <use xlink:href="#BitstreamVeraSans-Roman-30"/>
       <use x="63.623046875" xlink:href="#BitstreamVeraSans-Roman-2e"/>
       <use x="95.41015625" xlink:href="#BitstreamVeraSans-Roman-35"/>
       <use x="159.033203125" xlink:href="#BitstreamVeraSans-Roman-30"/>
      </g>
     </g>
    </g>
    <g id="xtick_4">
     <g id="line2d_9">
      <g>
       <use style="stroke:#000000;stroke-width:0.5;" x="295.2" xlink:href="#m5bd4580e64" y="388.8"/>
      </g>
     </g>
     <g id="line2d_10">
      <g>
       <use style="stroke:#000000;stroke-width:0.5;" x="295.2" xlink:href="#mf6e2b5879c" y="43.2"/>
      </g>
     </g>
     <g id="text_4">
      <!-- 0.55 -->
      <g transform="translate(281.840625 401.918125)scale(0.12 -0.12)">
       <use xlink:href="#BitstreamVeraSans-Roman-30"/>
       <use x="63.623046875" xlink:href="#BitstreamVeraSans-Roman-2e"/>
       <use x="95.41015625" xlink:href="#BitstreamVeraSans-Roman-35"/>
       <use x="159.033203125" xlink:href="#BitstreamVeraSans-Roman-35"/>
      </g>
     </g>
    </g>
    <g id="xtick_5">
     <g id="line2d_11">
      <g>
       <use style="stroke:#000000;stroke-width:0.5;" x="369.6" xlink:href="#m5bd4580e64" y="388.8"/>
      </g>
     </g>
     <g id="line2d_12">
      <g>
       <use style="stroke:#000000;stroke-width:0.5;" x="369.6" xlink:href="#mf6e2b5879c" y="43.2"/>
      </g>
     </g>
     <g id="text_5">
      <!-- 0.60 -->
      <defs>
       <path d="M 33.015625 40.375 
Q 26.375 40.375 22.484375 35.828125 
Q 18.609375 31.296875 18.609375 23.390625 
Q 18.609375 15.53125 22.484375 10.953125 
Q 26.375 6.390625 33.015625 6.390625 
Q 39.65625 6.390625 43.53125 10.953125 
Q 47.40625 15.53125 47.40625 23.390625 
Q 47.40625 31.296875 43.53125 35.828125 
Q 39.65625 40.375 33.015625 40.375 
M 52.59375 71.296875 
L 52.59375 62.3125 
Q 48.875 64.0625 45.09375 64.984375 
Q 41.3125 65.921875 37.59375 65.921875 
Q 27.828125 65.921875 22.671875 59.328125 
Q 17.53125 52.734375 16.796875 39.40625 
Q 19.671875 43.65625 24.015625 45.921875 
Q 28.375 48.1875 33.59375 48.1875 
Q 44.578125 48.1875 50.953125 41.515625 
Q 57.328125 34.859375 57.328125 23.390625 
Q 57.328125 12.15625 50.6875 5.359375 
Q 44.046875 -1.421875 33.015625 -1.421875 
Q 20.359375 -1.421875 13.671875 8.265625 
Q 6.984375 17.96875 6.984375 36.375 
Q 6.984375 53.65625 15.1875 63.9375 
Q 23.390625 74.21875 37.203125 74.21875 
Q 40.921875 74.21875 44.703125 73.484375 
Q 48.484375 72.75 52.59375 71.296875 
" id="BitstreamVeraSans-Roman-36"/>
      </defs>
      <g transform="translate(356.240625 401.918125)scale(0.12 -0.12)">
       <use xlink:href="#BitstreamVeraSans-Roman-30"/>
       <use x="63.623046875" xlink:href="#BitstreamVeraSans-Roman-2e"/>
       <use x="95.41015625" xlink:href="#BitstreamVeraSans-Roman-36"/>
       <use x="159.033203125" xlink:href="#BitstreamVeraSans-Roman-30"/>
      </g>
     </g>
    </g>
    <g id="xtick_6">
     <g id="line2d_13">
      <g>
       <use style="stroke:#000000;stroke-width:0.5;" x="444.0" xlink:href="#m5bd4580e64" y="388.8"/>
      </g>
     </g>
     <g id="line2d_14">
      <g>
       <use style="stroke:#000000;stroke-width:0.5;" x="444.0" xlink:href="#mf6e2b5879c" y="43.2"/>
      </g>
     </g>
     <g id="text_6">
      <!-- 0.65 -->
      <g transform="translate(430.640625 401.918125)scale(0.12 -0.12)">
       <use xlink:href="#BitstreamVeraSans-Roman-30"/>
       <use x="63.623046875" xlink:href="#BitstreamVeraSans-Roman-2e"/>
       <use x="95.41015625" xlink:href="#BitstreamVeraSans-Roman-36"/>
       <use x="159.033203125" xlink:href="#BitstreamVeraSans-Roman-35"/>
      </g>
     </g>
    </g>
    <g id="xtick_7">
     <g id="line2d_15">
      <g>
       <use style="stroke:#000000;stroke-width:0.5;" x="518.4" xlink:href="#m5bd4580e64" y="388.8"/>
      </g>
     </g>
     <g id="line2d_16">
      <g>
       <use style="stroke:#000000;stroke-width:0.5;" x="518.4" xlink:href="#mf6e2b5879c" y="43.2"/>
      </g>
     </g>
     <g id="text_7">
      <!-- 0.70 -->
      <defs>
       <path d="M 8.203125 72.90625 
L 55.078125 72.90625 
L 55.078125 68.703125 
L 28.609375 0 
L 18.3125 0 
L 43.21875 64.59375 
L 8.203125 64.59375 
z
" id="BitstreamVeraSans-Roman-37"/>
      </defs>
      <g transform="translate(505.040625 401.918125)scale(0.12 -0.12)">
       <use xlink:href="#BitstreamVeraSans-Roman-30"/>
       <use x="63.623046875" xlink:href="#BitstreamVeraSans-Roman-2e"/>
       <use x="95.41015625" xlink:href="#BitstreamVeraSans-Roman-37"/>
       <use x="159.033203125" xlink:href="#BitstreamVeraSans-Roman-30"/>
      </g>
     </g>
    </g>
    <g id="text_8">
     <!-- threshold -->
     <defs>
      <path d="M 30.609375 48.390625 
Q 23.390625 48.390625 19.1875 42.75 
Q 14.984375 37.109375 14.984375 27.296875 
Q 14.984375 17.484375 19.15625 11.84375 
Q 23.34375 6.203125 30.609375 6.203125 
Q 37.796875 6.203125 41.984375 11.859375 
Q 46.1875 17.53125 46.1875 27.296875 
Q 46.1875 37.015625 41.984375 42.703125 
Q 37.796875 48.390625 30.609375 48.390625 
M 30.609375 56 
Q 42.328125 56 49.015625 48.375 
Q 55.71875 40.765625 55.71875 27.296875 
Q 55.71875 13.875 49.015625 6.21875 
Q 42.328125 -1.421875 30.609375 -1.421875 
Q 18.84375 -1.421875 12.171875 6.21875 
Q 5.515625 13.875 5.515625 27.296875 
Q 5.515625 40.765625 12.171875 48.375 
Q 18.84375 56 30.609375 56 
" id="BitstreamVeraSans-Roman-6f"/>
      <path d="M 9.421875 75.984375 
L 18.40625 75.984375 
L 18.40625 0 
L 9.421875 0 
z
" id="BitstreamVeraSans-Roman-6c"/>
      <path d="M 54.890625 33.015625 
L 54.890625 0 
L 45.90625 0 
L 45.90625 32.71875 
Q 45.90625 40.484375 42.875 44.328125 
Q 39.84375 48.1875 33.796875 48.1875 
Q 26.515625 48.1875 22.3125 43.546875 
Q 18.109375 38.921875 18.109375 30.90625 
L 18.109375 0 
L 9.078125 0 
L 9.078125 75.984375 
L 18.109375 75.984375 
L 18.109375 46.1875 
Q 21.34375 51.125 25.703125 53.5625 
Q 30.078125 56 35.796875 56 
Q 45.21875 56 50.046875 50.171875 
Q 54.890625 44.34375 54.890625 33.015625 
" id="BitstreamVeraSans-Roman-68"/>
      <path d="M 56.203125 29.59375 
L 56.203125 25.203125 
L 14.890625 25.203125 
Q 15.484375 15.921875 20.484375 11.0625 
Q 25.484375 6.203125 34.421875 6.203125 
Q 39.59375 6.203125 44.453125 7.46875 
Q 49.3125 8.734375 54.109375 11.28125 
L 54.109375 2.78125 
Q 49.265625 0.734375 44.1875 -0.34375 
Q 39.109375 -1.421875 33.890625 -1.421875 
Q 20.796875 -1.421875 13.15625 6.1875 
Q 5.515625 13.8125 5.515625 26.8125 
Q 5.515625 40.234375 12.765625 48.109375 
Q 20.015625 56 32.328125 56 
Q 43.359375 56 49.78125 48.890625 
Q 56.203125 41.796875 56.203125 29.59375 
M 47.21875 32.234375 
Q 47.125 39.59375 43.09375 43.984375 
Q 39.0625 48.390625 32.421875 48.390625 
Q 24.90625 48.390625 20.390625 44.140625 
Q 15.875 39.890625 15.1875 32.171875 
z
" id="BitstreamVeraSans-Roman-65"/>
      <path d="M 45.40625 46.390625 
L 45.40625 75.984375 
L 54.390625 75.984375 
L 54.390625 0 
L 45.40625 0 
L 45.40625 8.203125 
Q 42.578125 3.328125 38.25 0.953125 
Q 33.9375 -1.421875 27.875 -1.421875 
Q 17.96875 -1.421875 11.734375 6.484375 
Q 5.515625 14.40625 5.515625 27.296875 
Q 5.515625 40.1875 11.734375 48.09375 
Q 17.96875 56 27.875 56 
Q 33.9375 56 38.25 53.625 
Q 42.578125 51.265625 45.40625 46.390625 
M 14.796875 27.296875 
Q 14.796875 17.390625 18.875 11.75 
Q 22.953125 6.109375 30.078125 6.109375 
Q 37.203125 6.109375 41.296875 11.75 
Q 45.40625 17.390625 45.40625 27.296875 
Q 45.40625 37.203125 41.296875 42.84375 
Q 37.203125 48.484375 30.078125 48.484375 
Q 22.953125 48.484375 18.875 42.84375 
Q 14.796875 37.203125 14.796875 27.296875 
" id="BitstreamVeraSans-Roman-64"/>
      <path d="M 18.3125 70.21875 
L 18.3125 54.6875 
L 36.8125 54.6875 
L 36.8125 47.703125 
L 18.3125 47.703125 
L 18.3125 18.015625 
Q 18.3125 11.328125 20.140625 9.421875 
Q 21.96875 7.515625 27.59375 7.515625 
L 36.8125 7.515625 
L 36.8125 0 
L 27.59375 0 
Q 17.1875 0 13.234375 3.875 
Q 9.28125 7.765625 9.28125 18.015625 
L 9.28125 47.703125 
L 2.6875 47.703125 
L 2.6875 54.6875 
L 9.28125 54.6875 
L 9.28125 70.21875 
z
" id="BitstreamVeraSans-Roman-74"/>
      <path d="M 41.109375 46.296875 
Q 39.59375 47.171875 37.8125 47.578125 
Q 36.03125 48 33.890625 48 
Q 26.265625 48 22.1875 43.046875 
Q 18.109375 38.09375 18.109375 28.8125 
L 18.109375 0 
L 9.078125 0 
L 9.078125 54.6875 
L 18.109375 54.6875 
L 18.109375 46.1875 
Q 20.953125 51.171875 25.484375 53.578125 
Q 30.03125 56 36.53125 56 
Q 37.453125 56 38.578125 55.875 
Q 39.703125 55.765625 41.0625 55.515625 
z
" id="BitstreamVeraSans-Roman-72"/>
      <path d="M 44.28125 53.078125 
L 44.28125 44.578125 
Q 40.484375 46.53125 36.375 47.5 
Q 32.28125 48.484375 27.875 48.484375 
Q 21.1875 48.484375 17.84375 46.4375 
Q 14.5 44.390625 14.5 40.28125 
Q 14.5 37.15625 16.890625 35.375 
Q 19.28125 33.59375 26.515625 31.984375 
L 29.59375 31.296875 
Q 39.15625 29.25 43.1875 25.515625 
Q 47.21875 21.78125 47.21875 15.09375 
Q 47.21875 7.46875 41.1875 3.015625 
Q 35.15625 -1.421875 24.609375 -1.421875 
Q 20.21875 -1.421875 15.453125 -0.5625 
Q 10.6875 0.296875 5.421875 2 
L 5.421875 11.28125 
Q 10.40625 8.6875 15.234375 7.390625 
Q 20.0625 6.109375 24.8125 6.109375 
Q 31.15625 6.109375 34.5625 8.28125 
Q 37.984375 10.453125 37.984375 14.40625 
Q 37.984375 18.0625 35.515625 20.015625 
Q 33.0625 21.96875 24.703125 23.78125 
L 21.578125 24.515625 
Q 13.234375 26.265625 9.515625 29.90625 
Q 5.8125 33.546875 5.8125 39.890625 
Q 5.8125 47.609375 11.28125 51.796875 
Q 16.75 56 26.8125 56 
Q 31.78125 56 36.171875 55.265625 
Q 40.578125 54.546875 44.28125 53.078125 
" id="BitstreamVeraSans-Roman-73"/>
     </defs>
     <g transform="translate(250.254609375 423.85078125)scale(0.19 -0.19)">
      <use xlink:href="#BitstreamVeraSans-Roman-74"/>
      <use x="39.208984375" xlink:href="#BitstreamVeraSans-Roman-68"/>
      <use x="102.587890625" xlink:href="#BitstreamVeraSans-Roman-72"/>
      <use x="143.669921875" xlink:href="#BitstreamVeraSans-Roman-65"/>
      <use x="205.193359375" xlink:href="#BitstreamVeraSans-Roman-73"/>
      <use x="257.29296875" xlink:href="#BitstreamVeraSans-Roman-68"/>
      <use x="320.671875" xlink:href="#BitstreamVeraSans-Roman-6f"/>
      <use x="381.853515625" xlink:href="#BitstreamVeraSans-Roman-6c"/>
      <use x="409.63671875" xlink:href="#BitstreamVeraSans-Roman-64"/>
     </g>
    </g>
   </g>
   <g id="matplotlib.axis_2">
    <g id="ytick_1">
     <g id="line2d_17">
      <defs>
       <path d="M 0 0 
L 4 0 
" id="m90b851376a" style="stroke:#000000;stroke-width:0.5;"/>
      </defs>
      <g>
       <use style="stroke:#000000;stroke-width:0.5;" x="72.0" xlink:href="#m90b851376a" y="388.8"/>
      </g>
     </g>
     <g id="line2d_18">
      <defs>
       <path d="M 0 0 
L -4 0 
" id="mcac6f05ca3" style="stroke:#000000;stroke-width:0.5;"/>
      </defs>
      <g>
       <use style="stroke:#000000;stroke-width:0.5;" x="518.4" xlink:href="#mcac6f05ca3" y="388.8"/>
      </g>
     </g>
     <g id="text_9">
      <!-- 0.0 -->
      <g transform="translate(48.91625 392.11125)scale(0.12 -0.12)">
       <use xlink:href="#BitstreamVeraSans-Roman-30"/>
       <use x="63.623046875" xlink:href="#BitstreamVeraSans-Roman-2e"/>
       <use x="95.41015625" xlink:href="#BitstreamVeraSans-Roman-30"/>
      </g>
     </g>
    </g>
    <g id="ytick_2">
     <g id="line2d_19">
      <g>
       <use style="stroke:#000000;stroke-width:0.5;" x="72.0" xlink:href="#m90b851376a" y="319.68"/>
      </g>
     </g>
     <g id="line2d_20">
      <g>
       <use style="stroke:#000000;stroke-width:0.5;" x="518.4" xlink:href="#mcac6f05ca3" y="319.68"/>
      </g>
     </g>
     <g id="text_10">
      <!-- 0.2 -->
      <defs>
       <path d="M 19.1875 8.296875 
L 53.609375 8.296875 
L 53.609375 0 
L 7.328125 0 
L 7.328125 8.296875 
Q 12.9375 14.109375 22.625 23.890625 
Q 32.328125 33.6875 34.8125 36.53125 
Q 39.546875 41.84375 41.421875 45.53125 
Q 43.3125 49.21875 43.3125 52.78125 
Q 43.3125 58.59375 39.234375 62.25 
Q 35.15625 65.921875 28.609375 65.921875 
Q 23.96875 65.921875 18.8125 64.3125 
Q 13.671875 62.703125 7.8125 59.421875 
L 7.8125 69.390625 
Q 13.765625 71.78125 18.9375 73 
Q 24.125 74.21875 28.421875 74.21875 
Q 39.75 74.21875 46.484375 68.546875 
Q 53.21875 62.890625 53.21875 53.421875 
Q 53.21875 48.921875 51.53125 44.890625 
Q 49.859375 40.875 45.40625 35.40625 
Q 44.1875 33.984375 37.640625 27.21875 
Q 31.109375 20.453125 19.1875 8.296875 
" id="BitstreamVeraSans-Roman-32"/>
      </defs>
      <g transform="translate(48.91625 322.99125)scale(0.12 -0.12)">
       <use xlink:href="#BitstreamVeraSans-Roman-30"/>
       <use x="63.623046875" xlink:href="#BitstreamVeraSans-Roman-2e"/>
       <use x="95.41015625" xlink:href="#BitstreamVeraSans-Roman-32"/>
      </g>
     </g>
    </g>
    <g id="ytick_3">
     <g id="line2d_21">
      <g>
       <use style="stroke:#000000;stroke-width:0.5;" x="72.0" xlink:href="#m90b851376a" y="250.56"/>
      </g>
     </g>
     <g id="line2d_22">
      <g>
       <use style="stroke:#000000;stroke-width:0.5;" x="518.4" xlink:href="#mcac6f05ca3" y="250.56"/>
      </g>
     </g>
     <g id="text_11">
      <!-- 0.4 -->
      <g transform="translate(48.91625 253.87125)scale(0.12 -0.12)">
       <use xlink:href="#BitstreamVeraSans-Roman-30"/>
       <use x="63.623046875" xlink:href="#BitstreamVeraSans-Roman-2e"/>
       <use x="95.41015625" xlink:href="#BitstreamVeraSans-Roman-34"/>
      </g>
     </g>
    </g>
    <g id="ytick_4">
     <g id="line2d_23">
      <g>
       <use style="stroke:#000000;stroke-width:0.5;" x="72.0" xlink:href="#m90b851376a" y="181.44"/>
      </g>
     </g>
     <g id="line2d_24">
      <g>
       <use style="stroke:#000000;stroke-width:0.5;" x="518.4" xlink:href="#mcac6f05ca3" y="181.44"/>
      </g>
     </g>
     <g id="text_12">
      <!-- 0.6 -->
      <g transform="translate(48.91625 184.75125)scale(0.12 -0.12)">
       <use xlink:href="#BitstreamVeraSans-Roman-30"/>
       <use x="63.623046875" xlink:href="#BitstreamVeraSans-Roman-2e"/>
       <use x="95.41015625" xlink:href="#BitstreamVeraSans-Roman-36"/>
      </g>
     </g>
    </g>
    <g id="ytick_5">
     <g id="line2d_25">
      <g>
       <use style="stroke:#000000;stroke-width:0.5;" x="72.0" xlink:href="#m90b851376a" y="112.32"/>
      </g>
     </g>
     <g id="line2d_26">
      <g>
       <use style="stroke:#000000;stroke-width:0.5;" x="518.4" xlink:href="#mcac6f05ca3" y="112.32"/>
      </g>
     </g>
     <g id="text_13">
      <!-- 0.8 -->
      <defs>
       <path d="M 31.78125 34.625 
Q 24.75 34.625 20.71875 30.859375 
Q 16.703125 27.09375 16.703125 20.515625 
Q 16.703125 13.921875 20.71875 10.15625 
Q 24.75 6.390625 31.78125 6.390625 
Q 38.8125 6.390625 42.859375 10.171875 
Q 46.921875 13.96875 46.921875 20.515625 
Q 46.921875 27.09375 42.890625 30.859375 
Q 38.875 34.625 31.78125 34.625 
M 21.921875 38.8125 
Q 15.578125 40.375 12.03125 44.71875 
Q 8.5 49.078125 8.5 55.328125 
Q 8.5 64.0625 14.71875 69.140625 
Q 20.953125 74.21875 31.78125 74.21875 
Q 42.671875 74.21875 48.875 69.140625 
Q 55.078125 64.0625 55.078125 55.328125 
Q 55.078125 49.078125 51.53125 44.71875 
Q 48 40.375 41.703125 38.8125 
Q 48.828125 37.15625 52.796875 32.3125 
Q 56.78125 27.484375 56.78125 20.515625 
Q 56.78125 9.90625 50.3125 4.234375 
Q 43.84375 -1.421875 31.78125 -1.421875 
Q 19.734375 -1.421875 13.25 4.234375 
Q 6.78125 9.90625 6.78125 20.515625 
Q 6.78125 27.484375 10.78125 32.3125 
Q 14.796875 37.15625 21.921875 38.8125 
M 18.3125 54.390625 
Q 18.3125 48.734375 21.84375 45.5625 
Q 25.390625 42.390625 31.78125 42.390625 
Q 38.140625 42.390625 41.71875 45.5625 
Q 45.3125 48.734375 45.3125 54.390625 
Q 45.3125 60.0625 41.71875 63.234375 
Q 38.140625 66.40625 31.78125 66.40625 
Q 25.390625 66.40625 21.84375 63.234375 
Q 18.3125 60.0625 18.3125 54.390625 
" id="BitstreamVeraSans-Roman-38"/>
      </defs>
      <g transform="translate(48.91625 115.63125)scale(0.12 -0.12)">
       <use xlink:href="#BitstreamVeraSans-Roman-30"/>
       <use x="63.623046875" xlink:href="#BitstreamVeraSans-Roman-2e"/>
       <use x="95.41015625" xlink:href="#BitstreamVeraSans-Roman-38"/>
      </g>
     </g>
    </g>
    <g id="ytick_6">
     <g id="line2d_27">
      <g>
       <use style="stroke:#000000;stroke-width:0.5;" x="72.0" xlink:href="#m90b851376a" y="43.2"/>
      </g>
     </g>
     <g id="line2d_28">
      <g>
       <use style="stroke:#000000;stroke-width:0.5;" x="518.4" xlink:href="#mcac6f05ca3" y="43.2"/>
      </g>
     </g>
     <g id="text_14">
      <!-- 1.0 -->
      <defs>
       <path d="M 12.40625 8.296875 
L 28.515625 8.296875 
L 28.515625 63.921875 
L 10.984375 60.40625 
L 10.984375 69.390625 
L 28.421875 72.90625 
L 38.28125 72.90625 
L 38.28125 8.296875 
L 54.390625 8.296875 
L 54.390625 0 
L 12.40625 0 
z
" id="BitstreamVeraSans-Roman-31"/>
      </defs>
      <g transform="translate(48.91625 46.51125)scale(0.12 -0.12)">
       <use xlink:href="#BitstreamVeraSans-Roman-31"/>
       <use x="63.623046875" xlink:href="#BitstreamVeraSans-Roman-2e"/>
       <use x="95.41015625" xlink:href="#BitstreamVeraSans-Roman-30"/>
      </g>
     </g>
    </g>
   </g>
   <g id="legend_1">
    <g id="patch_7">
     <path d="M 354.373594 114.176875 
L 508.9 114.176875 
L 508.9 52.7 
L 354.373594 52.7 
z
" style="fill:#ffffff;stroke:#000000;stroke-linejoin:miter;"/>
    </g>
    <g id="line2d_29">
     <path d="M 367.673594 68.087031 
L 394.273594 68.087031 
" style="fill:none;stroke:#ff0000;stroke-linecap:square;stroke-width:5.0;"/>
    </g>
    <g id="line2d_30"/>
    <g id="text_15">
     <!-- precision -->
     <defs>
      <path d="M 54.890625 33.015625 
L 54.890625 0 
L 45.90625 0 
L 45.90625 32.71875 
Q 45.90625 40.484375 42.875 44.328125 
Q 39.84375 48.1875 33.796875 48.1875 
Q 26.515625 48.1875 22.3125 43.546875 
Q 18.109375 38.921875 18.109375 30.90625 
L 18.109375 0 
L 9.078125 0 
L 9.078125 54.6875 
L 18.109375 54.6875 
L 18.109375 46.1875 
Q 21.34375 51.125 25.703125 53.5625 
Q 30.078125 56 35.796875 56 
Q 45.21875 56 50.046875 50.171875 
Q 54.890625 44.34375 54.890625 33.015625 
" id="BitstreamVeraSans-Roman-6e"/>
      <path d="M 9.421875 54.6875 
L 18.40625 54.6875 
L 18.40625 0 
L 9.421875 0 
z
M 9.421875 75.984375 
L 18.40625 75.984375 
L 18.40625 64.59375 
L 9.421875 64.59375 
z
" id="BitstreamVeraSans-Roman-69"/>
      <path d="M 48.78125 52.59375 
L 48.78125 44.1875 
Q 44.96875 46.296875 41.140625 47.34375 
Q 37.3125 48.390625 33.40625 48.390625 
Q 24.65625 48.390625 19.8125 42.84375 
Q 14.984375 37.3125 14.984375 27.296875 
Q 14.984375 17.28125 19.8125 11.734375 
Q 24.65625 6.203125 33.40625 6.203125 
Q 37.3125 6.203125 41.140625 7.25 
Q 44.96875 8.296875 48.78125 10.40625 
L 48.78125 2.09375 
Q 45.015625 0.34375 40.984375 -0.53125 
Q 36.96875 -1.421875 32.421875 -1.421875 
Q 20.0625 -1.421875 12.78125 6.34375 
Q 5.515625 14.109375 5.515625 27.296875 
Q 5.515625 40.671875 12.859375 48.328125 
Q 20.21875 56 33.015625 56 
Q 37.15625 56 41.109375 55.140625 
Q 45.0625 54.296875 48.78125 52.59375 
" id="BitstreamVeraSans-Roman-63"/>
      <path d="M 18.109375 8.203125 
L 18.109375 -20.796875 
L 9.078125 -20.796875 
L 9.078125 54.6875 
L 18.109375 54.6875 
L 18.109375 46.390625 
Q 20.953125 51.265625 25.265625 53.625 
Q 29.59375 56 35.59375 56 
Q 45.5625 56 51.78125 48.09375 
Q 58.015625 40.1875 58.015625 27.296875 
Q 58.015625 14.40625 51.78125 6.484375 
Q 45.5625 -1.421875 35.59375 -1.421875 
Q 29.59375 -1.421875 25.265625 0.953125 
Q 20.953125 3.328125 18.109375 8.203125 
M 48.6875 27.296875 
Q 48.6875 37.203125 44.609375 42.84375 
Q 40.53125 48.484375 33.40625 48.484375 
Q 26.265625 48.484375 22.1875 42.84375 
Q 18.109375 37.203125 18.109375 27.296875 
Q 18.109375 17.390625 22.1875 11.75 
Q 26.265625 6.109375 33.40625 6.109375 
Q 40.53125 6.109375 44.609375 11.75 
Q 48.6875 17.390625 48.6875 27.296875 
" id="BitstreamVeraSans-Roman-70"/>
     </defs>
     <g transform="translate(415.17359375 74.73703125)scale(0.19 -0.19)">
      <use xlink:href="#BitstreamVeraSans-Roman-70"/>
      <use x="63.4765625" xlink:href="#BitstreamVeraSans-Roman-72"/>
      <use x="104.55859375" xlink:href="#BitstreamVeraSans-Roman-65"/>
      <use x="166.08203125" xlink:href="#BitstreamVeraSans-Roman-63"/>
      <use x="221.0625" xlink:href="#BitstreamVeraSans-Roman-69"/>
      <use x="248.845703125" xlink:href="#BitstreamVeraSans-Roman-73"/>
      <use x="300.9453125" xlink:href="#BitstreamVeraSans-Roman-69"/>
      <use x="328.728515625" xlink:href="#BitstreamVeraSans-Roman-6f"/>
      <use x="389.91015625" xlink:href="#BitstreamVeraSans-Roman-6e"/>
     </g>
    </g>
    <g id="line2d_31">
     <path d="M 367.673594 95.975469 
L 394.273594 95.975469 
" style="fill:none;stroke:#0000ff;stroke-linecap:square;stroke-width:5.0;"/>
    </g>
    <g id="line2d_32"/>
    <g id="text_16">
     <!-- recall -->
     <defs>
      <path d="M 34.28125 27.484375 
Q 23.390625 27.484375 19.1875 25 
Q 14.984375 22.515625 14.984375 16.5 
Q 14.984375 11.71875 18.140625 8.90625 
Q 21.296875 6.109375 26.703125 6.109375 
Q 34.1875 6.109375 38.703125 11.40625 
Q 43.21875 16.703125 43.21875 25.484375 
L 43.21875 27.484375 
z
M 52.203125 31.203125 
L 52.203125 0 
L 43.21875 0 
L 43.21875 8.296875 
Q 40.140625 3.328125 35.546875 0.953125 
Q 30.953125 -1.421875 24.3125 -1.421875 
Q 15.921875 -1.421875 10.953125 3.296875 
Q 6 8.015625 6 15.921875 
Q 6 25.140625 12.171875 29.828125 
Q 18.359375 34.515625 30.609375 34.515625 
L 43.21875 34.515625 
L 43.21875 35.40625 
Q 43.21875 41.609375 39.140625 45 
Q 35.0625 48.390625 27.6875 48.390625 
Q 23 48.390625 18.546875 47.265625 
Q 14.109375 46.140625 10.015625 43.890625 
L 10.015625 52.203125 
Q 14.9375 54.109375 19.578125 55.046875 
Q 24.21875 56 28.609375 56 
Q 40.484375 56 46.34375 49.84375 
Q 52.203125 43.703125 52.203125 31.203125 
" id="BitstreamVeraSans-Roman-61"/>
     </defs>
     <g transform="translate(415.17359375 102.62546875)scale(0.19 -0.19)">
      <use xlink:href="#BitstreamVeraSans-Roman-72"/>
      <use x="41.08203125" xlink:href="#BitstreamVeraSans-Roman-65"/>
      <use x="102.60546875" xlink:href="#BitstreamVeraSans-Roman-63"/>
      <use x="157.5859375" xlink:href="#BitstreamVeraSans-Roman-61"/>
      <use x="218.865234375" xlink:href="#BitstreamVeraSans-Roman-6c"/>
      <use x="246.6484375" xlink:href="#BitstreamVeraSans-Roman-6c"/>
     </g>
    </g>
   </g>
  </g>
 </g>
 <defs>
  <clipPath id="p4afe336888">
   <rect height="345.6" width="446.4" x="72.0" y="43.2"/>
  </clipPath>
 </defs>
</svg>
