<?xml version="1.0" encoding="utf-8" standalone="no"?>
<!DOCTYPE svg PUBLIC "-//W3C//DTD SVG 1.1//EN"
  "http://www.w3.org/Graphics/SVG/1.1/DTD/svg11.dtd">
<!-- Created with matplotlib (http://matplotlib.org/) -->
<svg height="720pt" version="1.1" viewBox="0 0 1440 720" width="1440pt" xmlns="http://www.w3.org/2000/svg" xmlns:xlink="http://www.w3.org/1999/xlink">
 <defs>
  <style type="text/css">
*{stroke-linecap:butt;stroke-linejoin:round;stroke-miterlimit:100000;}
  </style>
 </defs>
 <g id="figure_1">
  <g id="patch_1">
   <path d="M 0 720 
L 1440 720 
L 1440 0 
L 0 0 
z
" style="fill:#ffffff;"/>
  </g>
  <g id="axes_1">
   <g id="patch_2">
    <path d="M 180 648 
L 1296 648 
L 1296 72 
L 180 72 
z
" style="fill:#ffffff;"/>
   </g>
   <g id="PolyCollection_1">
    <defs>
     <path d="M 230.727273 -98.181818 
L 230.727273 -98.181818 
L 240.975207 -113.305927 
L 251.22314 -119.674943 
L 261.471074 -125.868005 
L 271.719008 -131.889629 
L 281.966942 -137.745209 
L 292.214876 -143.440868 
L 302.46281 -148.983297 
L 312.710744 -154.379597 
L 322.958678 -159.63713 
L 333.206612 -164.763383 
L 343.454545 -169.765848 
L 353.702479 -174.651923 
L 363.950413 -179.428828 
L 374.198347 -184.103544 
L 384.446281 -188.682763 
L 394.694215 -193.172856 
L 404.942149 -197.579852 
L 415.190083 -201.909432 
L 425.438017 -206.166921 
L 435.68595 -210.357299 
L 445.933884 -214.485206 
L 456.181818 -218.554957 
L 466.429752 -222.570558 
L 476.677686 -226.535721 
L 486.92562 -230.453883 
L 497.173554 -234.328224 
L 507.421488 -238.161684 
L 517.669421 -241.95698 
L 527.917355 -245.716624 
L 538.165289 -249.442936 
L 548.413223 -253.138062 
L 558.661157 -256.803985 
L 568.909091 -276.153813 
L 579.157025 -278.548818 
L 589.404959 -280.935103 
L 599.652893 -283.312524 
L 609.900826 -285.680931 
L 620.14876 -288.040176 
L 630.396694 -290.390106 
L 640.644628 -292.730569 
L 650.892562 -295.061409 
L 661.140496 -297.382471 
L 671.38843 -299.693597 
L 681.636364 -301.994628 
L 691.884298 -304.285402 
L 702.132231 -306.565759 
L 712.380165 -308.835536 
L 722.628099 -311.094567 
L 732.876033 -313.342689 
L 743.123967 -315.579734 
L 753.371901 -317.805537 
L 763.619835 -320.019929 
L 773.867769 -322.222743 
L 784.115702 -324.413808 
L 794.363636 -326.592958 
L 804.61157 -328.760021 
L 814.859504 -330.91483 
L 825.107438 -333.057213 
L 835.355372 -335.187003 
L 845.603306 -337.304031 
L 855.85124 -339.408127 
L 866.099174 -341.499126 
L 876.347107 -343.57686 
L 886.595041 -345.641162 
L 896.842975 -347.69187 
L 907.090909 -349.728821 
L 917.338843 -355.190222 
L 927.586777 -360.641467 
L 937.834711 -366.0819 
L 948.082645 -371.510807 
L 958.330579 -376.927417 
L 968.578512 -382.330889 
L 978.826446 -387.720312 
L 989.07438 -393.094691 
L 999.322314 -398.452943 
L 1009.570248 -403.793885 
L 1019.818182 -409.116225 
L 1030.066116 -414.418549 
L 1040.31405 -419.69931 
L 1050.561983 -424.95681 
L 1060.809917 -430.189188 
L 1071.057851 -435.394399 
L 1081.305785 -440.570195 
L 1091.553719 -445.714107 
L 1101.801653 -450.823417 
L 1112.049587 -455.895134 
L 1122.297521 -460.925968 
L 1132.545455 -465.912302 
L 1142.793388 -470.850161 
L 1153.041322 -475.735182 
L 1163.289256 -480.562584 
L 1173.53719 -485.327144 
L 1183.785124 -490.023172 
L 1194.033058 -494.644494 
L 1204.280992 -499.184448 
L 1214.528926 -503.635889 
L 1224.77686 -507.991221 
L 1235.024793 -512.242442 
L 1245.272727 -621.818182 
L 1245.272727 -621.818182 
L 1245.272727 -621.818182 
L 1235.024793 -621.818182 
L 1224.77686 -621.818182 
L 1214.528926 -621.818182 
L 1204.280992 -621.818182 
L 1194.033058 -621.818182 
L 1183.785124 -621.818182 
L 1173.53719 -621.818182 
L 1163.289256 -621.818182 
L 1153.041322 -621.818182 
L 1142.793388 -621.818182 
L 1132.545455 -621.818182 
L 1122.297521 -621.818182 
L 1112.049587 -621.818182 
L 1101.801653 -621.818182 
L 1091.553719 -621.818182 
L 1081.305785 -621.818182 
L 1071.057851 -621.818182 
L 1060.809917 -621.818182 
L 1050.561983 -621.818182 
L 1040.31405 -621.781682 
L 1030.066116 -621.667401 
L 1019.818182 -621.574684 
L 1009.570248 -621.501983 
L 999.322314 -621.447884 
L 989.07438 -621.411094 
L 978.826446 -621.390432 
L 968.578512 -621.384813 
L 958.330579 -621.393245 
L 948.082645 -621.414813 
L 937.834711 -621.448679 
L 927.586777 -621.49407 
L 917.338843 -621.550274 
L 907.090909 -621.616634 
L 896.842975 -620.638708 
L 886.595041 -619.67454 
L 876.347107 -618.723967 
L 866.099174 -617.786824 
L 855.85124 -616.862947 
L 845.603306 -615.952168 
L 835.355372 -615.054319 
L 825.107438 -614.169233 
L 814.859504 -613.296741 
L 804.61157 -612.436673 
L 794.363636 -611.58886 
L 784.115702 -610.753134 
L 773.867769 -609.929324 
L 763.619835 -609.117261 
L 753.371901 -608.316777 
L 743.123967 -607.527704 
L 732.876033 -606.749873 
L 722.628099 -605.983119 
L 712.380165 -605.227274 
L 702.132231 -604.482175 
L 691.884298 -603.747655 
L 681.636364 -603.023554 
L 671.38843 -602.309709 
L 661.140496 -601.605959 
L 650.892562 -600.912145 
L 640.644628 -600.228109 
L 630.396694 -599.553696 
L 620.14876 -598.88875 
L 609.900826 -598.233118 
L 599.652893 -597.58665 
L 589.404959 -596.949194 
L 579.157025 -596.320604 
L 568.909091 -595.700732 
L 558.661157 -559.354692 
L 548.413223 -549.215657 
L 538.165289 -539.105825 
L 527.917355 -529.027178 
L 517.669421 -518.981863 
L 507.421488 -508.9722 
L 497.173554 -499.000702 
L 486.92562 -489.070084 
L 476.677686 -479.183287 
L 466.429752 -469.343491 
L 456.181818 -459.554134 
L 445.933884 -449.818926 
L 435.68595 -440.141874 
L 425.438017 -430.527294 
L 415.190083 -420.979824 
L 404.942149 -411.504445 
L 394.694215 -402.106483 
L 384.446281 -392.791617 
L 374.198347 -383.565877 
L 363.950413 -374.435635 
L 353.702479 -365.407582 
L 343.454545 -356.488698 
L 333.206612 -347.686204 
L 322.958678 -339.007498 
L 312.710744 -330.460072 
L 302.46281 -322.051413 
L 292.214876 -313.788884 
L 281.966942 -305.679585 
L 271.719008 -297.730206 
L 261.471074 -289.946871 
L 251.22314 -282.334974 
L 240.975207 -274.899032 
L 230.727273 -98.181818 
z
" id="mabb95e1513" style="stroke:#808080;stroke-opacity:0.2;"/>
    </defs>
    <g clip-path="url(#pacbae4bc64)">
     <use style="fill:#808080;fill-opacity:0.2;stroke:#808080;stroke-opacity:0.2;" x="0.0" xlink:href="#mabb95e1513" y="720.0"/>
    </g>
   </g>
   <g id="line2d_1">
    <path clip-path="url(#pacbae4bc64)" d="M 230.727273 412.363636 
L 568.909091 202.909091 
L 1245.272727 202.909091 
L 1245.272727 98.181818 
" style="fill:none;opacity:0.3;stroke:#0000ff;stroke-linecap:square;"/>
   </g>
   <g id="line2d_2">
    <path clip-path="url(#pacbae4bc64)" d="M 230.727273 517.090909 
L 568.909091 98.181818 
L 1245.272727 98.181818 
" style="fill:none;opacity:0.3;stroke:#008000;stroke-linecap:square;"/>
   </g>
   <g id="line2d_3">
    <path clip-path="url(#pacbae4bc64)" d="M 230.727273 621.818182 
L 568.909091 307.636364 
L 568.909091 202.909091 
L 1245.272727 98.181818 
" style="fill:none;opacity:0.3;stroke:#ff0000;stroke-linecap:square;"/>
   </g>
   <g id="line2d_4">
    <path clip-path="url(#pacbae4bc64)" d="M 230.727273 490.909091 
L 568.909091 360 
L 1245.272727 98.181818 
" style="fill:none;opacity:0.3;stroke:#00bfbf;stroke-linecap:square;"/>
   </g>
   <g id="line2d_5">
    <path clip-path="url(#pacbae4bc64)" d="M 230.727273 621.818182 
L 907.090909 490.909091 
L 1245.272727 229.090909 
L 1245.272727 98.181818 
" style="fill:none;opacity:0.3;stroke:#bf00bf;stroke-linecap:square;"/>
   </g>
   <g id="line2d_6">
    <path clip-path="url(#pacbae4bc64)" d="M 230.727273 621.818182 
L 1245.272727 98.181818 
" style="fill:none;opacity:0.8;stroke:#ff0000;stroke-dasharray:6.000000,6.000000;stroke-dashoffset:0.0;stroke-width:2.0;"/>
   </g>
   <g id="line2d_7">
    <path clip-path="url(#pacbae4bc64)" d="M 230.727273 621.818182 
L 240.975207 525.897521 
L 251.22314 518.995041 
L 261.471074 512.092562 
L 271.719008 505.190083 
L 281.966942 498.287603 
L 292.214876 491.385124 
L 302.46281 484.482645 
L 312.710744 477.580165 
L 322.958678 470.677686 
L 333.206612 463.775207 
L 343.454545 456.872727 
L 353.702479 449.970248 
L 363.950413 443.067769 
L 374.198347 436.165289 
L 384.446281 429.26281 
L 394.694215 422.360331 
L 404.942149 415.457851 
L 415.190083 408.555372 
L 425.438017 401.652893 
L 435.68595 394.750413 
L 445.933884 387.847934 
L 456.181818 380.945455 
L 466.429752 374.042975 
L 476.677686 367.140496 
L 486.92562 360.238017 
L 497.173554 353.335537 
L 507.421488 346.433058 
L 517.669421 339.530579 
L 527.917355 332.628099 
L 538.165289 325.72562 
L 548.413223 318.82314 
L 558.661157 311.920661 
L 568.909091 284.072727 
L 579.157025 282.565289 
L 589.404959 281.057851 
L 599.652893 279.550413 
L 609.900826 278.042975 
L 620.14876 276.535537 
L 630.396694 275.028099 
L 640.644628 273.520661 
L 650.892562 272.013223 
L 661.140496 270.505785 
L 671.38843 268.998347 
L 681.636364 267.490909 
L 691.884298 265.983471 
L 702.132231 264.476033 
L 712.380165 262.968595 
L 722.628099 261.461157 
L 732.876033 259.953719 
L 743.123967 258.446281 
L 753.371901 256.938843 
L 763.619835 255.431405 
L 773.867769 253.923967 
L 784.115702 252.416529 
L 794.363636 250.909091 
L 804.61157 249.401653 
L 814.859504 247.894215 
L 825.107438 246.386777 
L 835.355372 244.879339 
L 845.603306 243.371901 
L 855.85124 241.864463 
L 866.099174 240.357025 
L 876.347107 238.849587 
L 886.595041 237.342149 
L 896.842975 235.834711 
L 907.090909 234.327273 
L 917.338843 231.629752 
L 927.586777 228.932231 
L 937.834711 226.234711 
L 948.082645 223.53719 
L 958.330579 220.839669 
L 968.578512 218.142149 
L 978.826446 215.444628 
L 989.07438 212.747107 
L 999.322314 210.049587 
L 1009.570248 207.352066 
L 1019.818182 204.654545 
L 1030.066116 201.957025 
L 1040.31405 199.259504 
L 1050.561983 196.561983 
L 1060.809917 193.864463 
L 1071.057851 191.166942 
L 1081.305785 188.469421 
L 1091.553719 185.771901 
L 1101.801653 183.07438 
L 1112.049587 180.37686 
L 1122.297521 177.679339 
L 1132.545455 174.981818 
L 1142.793388 172.284298 
L 1153.041322 169.586777 
L 1163.289256 166.889256 
L 1173.53719 164.191736 
L 1183.785124 161.494215 
L 1194.033058 158.796694 
L 1204.280992 156.099174 
L 1214.528926 153.401653 
L 1224.77686 150.704132 
L 1235.024793 148.006612 
L 1245.272727 98.181818 
" style="fill:none;opacity:0.8;stroke:#0000ff;stroke-linecap:square;stroke-width:2.0;"/>
   </g>
   <g id="patch_3">
    <path d="M 180 72 
L 1296 72 
" style="fill:none;stroke:#000000;stroke-linecap:square;stroke-linejoin:miter;"/>
   </g>
   <g id="patch_4">
    <path d="M 1296 648 
L 1296 72 
" style="fill:none;stroke:#000000;stroke-linecap:square;stroke-linejoin:miter;"/>
   </g>
   <g id="patch_5">
    <path d="M 180 648 
L 1296 648 
" style="fill:none;stroke:#000000;stroke-linecap:square;stroke-linejoin:miter;"/>
   </g>
   <g id="patch_6">
    <path d="M 180 648 
L 180 72 
" style="fill:none;stroke:#000000;stroke-linecap:square;stroke-linejoin:miter;"/>
   </g>
   <g id="matplotlib.axis_1">
    <g id="xtick_1">
     <g id="line2d_8">
      <defs>
       <path d="M 0 0 
L 0 -4 
" id="me7e08a417b" style="stroke:#000000;stroke-width:0.5;"/>
      </defs>
      <g>
       <use style="stroke:#000000;stroke-width:0.5;" x="230.727272727" xlink:href="#me7e08a417b" y="648.0"/>
      </g>
     </g>
     <g id="line2d_9">
      <defs>
       <path d="M 0 0 
L 0 4 
" id="mc6d7ae9d3f" style="stroke:#000000;stroke-width:0.5;"/>
      </defs>
      <g>
       <use style="stroke:#000000;stroke-width:0.5;" x="230.727272727" xlink:href="#mc6d7ae9d3f" y="72.0"/>
      </g>
     </g>
     <g id="text_1">
      <!-- 0.0 -->
      <defs>
       <path d="M 31.78125 66.40625 
Q 24.171875 66.40625 20.328125 58.90625 
Q 16.5 51.421875 16.5 36.375 
Q 16.5 21.390625 20.328125 13.890625 
Q 24.171875 6.390625 31.78125 6.390625 
Q 39.453125 6.390625 43.28125 13.890625 
Q 47.125 21.390625 47.125 36.375 
Q 47.125 51.421875 43.28125 58.90625 
Q 39.453125 66.40625 31.78125 66.40625 
M 31.78125 74.21875 
Q 44.046875 74.21875 50.515625 64.515625 
Q 56.984375 54.828125 56.984375 36.375 
Q 56.984375 17.96875 50.515625 8.265625 
Q 44.046875 -1.421875 31.78125 -1.421875 
Q 19.53125 -1.421875 13.0625 8.265625 
Q 6.59375 17.96875 6.59375 36.375 
Q 6.59375 54.828125 13.0625 64.515625 
Q 19.53125 74.21875 31.78125 74.21875 
" id="BitstreamVeraSans-Roman-30"/>
       <path d="M 10.6875 12.40625 
L 21 12.40625 
L 21 0 
L 10.6875 0 
z
" id="BitstreamVeraSans-Roman-2e"/>
      </defs>
      <g transform="translate(221.185397727 661.118125)scale(0.12 -0.12)">
       <use xlink:href="#BitstreamVeraSans-Roman-30"/>
       <use x="63.623046875" xlink:href="#BitstreamVeraSans-Roman-2e"/>
       <use x="95.41015625" xlink:href="#BitstreamVeraSans-Roman-30"/>
      </g>
     </g>
    </g>
    <g id="xtick_2">
     <g id="line2d_10">
      <g>
       <use style="stroke:#000000;stroke-width:0.5;" x="433.636363636" xlink:href="#me7e08a417b" y="648.0"/>
      </g>
     </g>
     <g id="line2d_11">
      <g>
       <use style="stroke:#000000;stroke-width:0.5;" x="433.636363636" xlink:href="#mc6d7ae9d3f" y="72.0"/>
      </g>
     </g>
     <g id="text_2">
      <!-- 0.2 -->
      <defs>
       <path d="M 19.1875 8.296875 
L 53.609375 8.296875 
L 53.609375 0 
L 7.328125 0 
L 7.328125 8.296875 
Q 12.9375 14.109375 22.625 23.890625 
Q 32.328125 33.6875 34.8125 36.53125 
Q 39.546875 41.84375 41.421875 45.53125 
Q 43.3125 49.21875 43.3125 52.78125 
Q 43.3125 58.59375 39.234375 62.25 
Q 35.15625 65.921875 28.609375 65.921875 
Q 23.96875 65.921875 18.8125 64.3125 
Q 13.671875 62.703125 7.8125 59.421875 
L 7.8125 69.390625 
Q 13.765625 71.78125 18.9375 73 
Q 24.125 74.21875 28.421875 74.21875 
Q 39.75 74.21875 46.484375 68.546875 
Q 53.21875 62.890625 53.21875 53.421875 
Q 53.21875 48.921875 51.53125 44.890625 
Q 49.859375 40.875 45.40625 35.40625 
Q 44.1875 33.984375 37.640625 27.21875 
Q 31.109375 20.453125 19.1875 8.296875 
" id="BitstreamVeraSans-Roman-32"/>
      </defs>
      <g transform="translate(424.094488636 661.118125)scale(0.12 -0.12)">
       <use xlink:href="#BitstreamVeraSans-Roman-30"/>
       <use x="63.623046875" xlink:href="#BitstreamVeraSans-Roman-2e"/>
       <use x="95.41015625" xlink:href="#BitstreamVeraSans-Roman-32"/>
      </g>
     </g>
    </g>
    <g id="xtick_3">
     <g id="line2d_12">
      <g>
       <use style="stroke:#000000;stroke-width:0.5;" x="636.545454545" xlink:href="#me7e08a417b" y="648.0"/>
      </g>
     </g>
     <g id="line2d_13">
      <g>
       <use style="stroke:#000000;stroke-width:0.5;" x="636.545454545" xlink:href="#mc6d7ae9d3f" y="72.0"/>
      </g>
     </g>
     <g id="text_3">
      <!-- 0.4 -->
      <defs>
       <path d="M 37.796875 64.3125 
L 12.890625 25.390625 
L 37.796875 25.390625 
z
M 35.203125 72.90625 
L 47.609375 72.90625 
L 47.609375 25.390625 
L 58.015625 25.390625 
L 58.015625 17.1875 
L 47.609375 17.1875 
L 47.609375 0 
L 37.796875 0 
L 37.796875 17.1875 
L 4.890625 17.1875 
L 4.890625 26.703125 
z
" id="BitstreamVeraSans-Roman-34"/>
      </defs>
      <g transform="translate(627.003579545 661.118125)scale(0.12 -0.12)">
       <use xlink:href="#BitstreamVeraSans-Roman-30"/>
       <use x="63.623046875" xlink:href="#BitstreamVeraSans-Roman-2e"/>
       <use x="95.41015625" xlink:href="#BitstreamVeraSans-Roman-34"/>
      </g>
     </g>
    </g>
    <g id="xtick_4">
     <g id="line2d_14">
      <g>
       <use style="stroke:#000000;stroke-width:0.5;" x="839.454545455" xlink:href="#me7e08a417b" y="648.0"/>
      </g>
     </g>
     <g id="line2d_15">
      <g>
       <use style="stroke:#000000;stroke-width:0.5;" x="839.454545455" xlink:href="#mc6d7ae9d3f" y="72.0"/>
      </g>
     </g>
     <g id="text_4">
      <!-- 0.6 -->
      <defs>
       <path d="M 33.015625 40.375 
Q 26.375 40.375 22.484375 35.828125 
Q 18.609375 31.296875 18.609375 23.390625 
Q 18.609375 15.53125 22.484375 10.953125 
Q 26.375 6.390625 33.015625 6.390625 
Q 39.65625 6.390625 43.53125 10.953125 
Q 47.40625 15.53125 47.40625 23.390625 
Q 47.40625 31.296875 43.53125 35.828125 
Q 39.65625 40.375 33.015625 40.375 
M 52.59375 71.296875 
L 52.59375 62.3125 
Q 48.875 64.0625 45.09375 64.984375 
Q 41.3125 65.921875 37.59375 65.921875 
Q 27.828125 65.921875 22.671875 59.328125 
Q 17.53125 52.734375 16.796875 39.40625 
Q 19.671875 43.65625 24.015625 45.921875 
Q 28.375 48.1875 33.59375 48.1875 
Q 44.578125 48.1875 50.953125 41.515625 
Q 57.328125 34.859375 57.328125 23.390625 
Q 57.328125 12.15625 50.6875 5.359375 
Q 44.046875 -1.421875 33.015625 -1.421875 
Q 20.359375 -1.421875 13.671875 8.265625 
Q 6.984375 17.96875 6.984375 36.375 
Q 6.984375 53.65625 15.1875 63.9375 
Q 23.390625 74.21875 37.203125 74.21875 
Q 40.921875 74.21875 44.703125 73.484375 
Q 48.484375 72.75 52.59375 71.296875 
" id="BitstreamVeraSans-Roman-36"/>
      </defs>
      <g transform="translate(829.912670455 661.118125)scale(0.12 -0.12)">
       <use xlink:href="#BitstreamVeraSans-Roman-30"/>
       <use x="63.623046875" xlink:href="#BitstreamVeraSans-Roman-2e"/>
       <use x="95.41015625" xlink:href="#BitstreamVeraSans-Roman-36"/>
      </g>
     </g>
    </g>
    <g id="xtick_5">
     <g id="line2d_16">
      <g>
       <use style="stroke:#000000;stroke-width:0.5;" x="1042.36363636" xlink:href="#me7e08a417b" y="648.0"/>
      </g>
     </g>
     <g id="line2d_17">
      <g>
       <use style="stroke:#000000;stroke-width:0.5;" x="1042.36363636" xlink:href="#mc6d7ae9d3f" y="72.0"/>
      </g>
     </g>
     <g id="text_5">
      <!-- 0.8 -->
      <defs>
       <path d="M 31.78125 34.625 
Q 24.75 34.625 20.71875 30.859375 
Q 16.703125 27.09375 16.703125 20.515625 
Q 16.703125 13.921875 20.71875 10.15625 
Q 24.75 6.390625 31.78125 6.390625 
Q 38.8125 6.390625 42.859375 10.171875 
Q 46.921875 13.96875 46.921875 20.515625 
Q 46.921875 27.09375 42.890625 30.859375 
Q 38.875 34.625 31.78125 34.625 
M 21.921875 38.8125 
Q 15.578125 40.375 12.03125 44.71875 
Q 8.5 49.078125 8.5 55.328125 
Q 8.5 64.0625 14.71875 69.140625 
Q 20.953125 74.21875 31.78125 74.21875 
Q 42.671875 74.21875 48.875 69.140625 
Q 55.078125 64.0625 55.078125 55.328125 
Q 55.078125 49.078125 51.53125 44.71875 
Q 48 40.375 41.703125 38.8125 
Q 48.828125 37.15625 52.796875 32.3125 
Q 56.78125 27.484375 56.78125 20.515625 
Q 56.78125 9.90625 50.3125 4.234375 
Q 43.84375 -1.421875 31.78125 -1.421875 
Q 19.734375 -1.421875 13.25 4.234375 
Q 6.78125 9.90625 6.78125 20.515625 
Q 6.78125 27.484375 10.78125 32.3125 
Q 14.796875 37.15625 21.921875 38.8125 
M 18.3125 54.390625 
Q 18.3125 48.734375 21.84375 45.5625 
Q 25.390625 42.390625 31.78125 42.390625 
Q 38.140625 42.390625 41.71875 45.5625 
Q 45.3125 48.734375 45.3125 54.390625 
Q 45.3125 60.0625 41.71875 63.234375 
Q 38.140625 66.40625 31.78125 66.40625 
Q 25.390625 66.40625 21.84375 63.234375 
Q 18.3125 60.0625 18.3125 54.390625 
" id="BitstreamVeraSans-Roman-38"/>
      </defs>
      <g transform="translate(1032.82176136 661.118125)scale(0.12 -0.12)">
       <use xlink:href="#BitstreamVeraSans-Roman-30"/>
       <use x="63.623046875" xlink:href="#BitstreamVeraSans-Roman-2e"/>
       <use x="95.41015625" xlink:href="#BitstreamVeraSans-Roman-38"/>
      </g>
     </g>
    </g>
    <g id="xtick_6">
     <g id="line2d_18">
      <g>
       <use style="stroke:#000000;stroke-width:0.5;" x="1245.27272727" xlink:href="#me7e08a417b" y="648.0"/>
      </g>
     </g>
     <g id="line2d_19">
      <g>
       <use style="stroke:#000000;stroke-width:0.5;" x="1245.27272727" xlink:href="#mc6d7ae9d3f" y="72.0"/>
      </g>
     </g>
     <g id="text_6">
      <!-- 1.0 -->
      <defs>
       <path d="M 12.40625 8.296875 
L 28.515625 8.296875 
L 28.515625 63.921875 
L 10.984375 60.40625 
L 10.984375 69.390625 
L 28.421875 72.90625 
L 38.28125 72.90625 
L 38.28125 8.296875 
L 54.390625 8.296875 
L 54.390625 0 
L 12.40625 0 
z
" id="BitstreamVeraSans-Roman-31"/>
      </defs>
      <g transform="translate(1235.73085227 661.118125)scale(0.12 -0.12)">
       <use xlink:href="#BitstreamVeraSans-Roman-31"/>
       <use x="63.623046875" xlink:href="#BitstreamVeraSans-Roman-2e"/>
       <use x="95.41015625" xlink:href="#BitstreamVeraSans-Roman-30"/>
      </g>
     </g>
    </g>
    <g id="text_7">
     <!-- False Positive Rate -->
     <defs>
      <path id="BitstreamVeraSans-Roman-20"/>
      <path d="M 30.609375 48.390625 
Q 23.390625 48.390625 19.1875 42.75 
Q 14.984375 37.109375 14.984375 27.296875 
Q 14.984375 17.484375 19.15625 11.84375 
Q 23.34375 6.203125 30.609375 6.203125 
Q 37.796875 6.203125 41.984375 11.859375 
Q 46.1875 17.53125 46.1875 27.296875 
Q 46.1875 37.015625 41.984375 42.703125 
Q 37.796875 48.390625 30.609375 48.390625 
M 30.609375 56 
Q 42.328125 56 49.015625 48.375 
Q 55.71875 40.765625 55.71875 27.296875 
Q 55.71875 13.875 49.015625 6.21875 
Q 42.328125 -1.421875 30.609375 -1.421875 
Q 18.84375 -1.421875 12.171875 6.21875 
Q 5.515625 13.875 5.515625 27.296875 
Q 5.515625 40.765625 12.171875 48.375 
Q 18.84375 56 30.609375 56 
" id="BitstreamVeraSans-Roman-6f"/>
      <path d="M 9.421875 75.984375 
L 18.40625 75.984375 
L 18.40625 0 
L 9.421875 0 
z
" id="BitstreamVeraSans-Roman-6c"/>
      <path d="M 19.671875 64.796875 
L 19.671875 37.40625 
L 32.078125 37.40625 
Q 38.96875 37.40625 42.71875 40.96875 
Q 46.484375 44.53125 46.484375 51.125 
Q 46.484375 57.671875 42.71875 61.234375 
Q 38.96875 64.796875 32.078125 64.796875 
z
M 9.8125 72.90625 
L 32.078125 72.90625 
Q 44.34375 72.90625 50.609375 67.359375 
Q 56.890625 61.8125 56.890625 51.125 
Q 56.890625 40.328125 50.609375 34.8125 
Q 44.34375 29.296875 32.078125 29.296875 
L 19.671875 29.296875 
L 19.671875 0 
L 9.8125 0 
z
" id="BitstreamVeraSans-Roman-50"/>
      <path d="M 9.8125 72.90625 
L 51.703125 72.90625 
L 51.703125 64.59375 
L 19.671875 64.59375 
L 19.671875 43.109375 
L 48.578125 43.109375 
L 48.578125 34.8125 
L 19.671875 34.8125 
L 19.671875 0 
L 9.8125 0 
z
" id="BitstreamVeraSans-Roman-46"/>
      <path d="M 44.390625 34.1875 
Q 47.5625 33.109375 50.5625 29.59375 
Q 53.5625 26.078125 56.59375 19.921875 
L 66.609375 0 
L 56 0 
L 46.6875 18.703125 
Q 43.0625 26.03125 39.671875 28.421875 
Q 36.28125 30.8125 30.421875 30.8125 
L 19.671875 30.8125 
L 19.671875 0 
L 9.8125 0 
L 9.8125 72.90625 
L 32.078125 72.90625 
Q 44.578125 72.90625 50.734375 67.671875 
Q 56.890625 62.453125 56.890625 51.90625 
Q 56.890625 45.015625 53.6875 40.46875 
Q 50.484375 35.9375 44.390625 34.1875 
M 19.671875 64.796875 
L 19.671875 38.921875 
L 32.078125 38.921875 
Q 39.203125 38.921875 42.84375 42.21875 
Q 46.484375 45.515625 46.484375 51.90625 
Q 46.484375 58.296875 42.84375 61.546875 
Q 39.203125 64.796875 32.078125 64.796875 
z
" id="BitstreamVeraSans-Roman-52"/>
      <path d="M 9.421875 54.6875 
L 18.40625 54.6875 
L 18.40625 0 
L 9.421875 0 
z
M 9.421875 75.984375 
L 18.40625 75.984375 
L 18.40625 64.59375 
L 9.421875 64.59375 
z
" id="BitstreamVeraSans-Roman-69"/>
      <path d="M 56.203125 29.59375 
L 56.203125 25.203125 
L 14.890625 25.203125 
Q 15.484375 15.921875 20.484375 11.0625 
Q 25.484375 6.203125 34.421875 6.203125 
Q 39.59375 6.203125 44.453125 7.46875 
Q 49.3125 8.734375 54.109375 11.28125 
L 54.109375 2.78125 
Q 49.265625 0.734375 44.1875 -0.34375 
Q 39.109375 -1.421875 33.890625 -1.421875 
Q 20.796875 -1.421875 13.15625 6.1875 
Q 5.515625 13.8125 5.515625 26.8125 
Q 5.515625 40.234375 12.765625 48.109375 
Q 20.015625 56 32.328125 56 
Q 43.359375 56 49.78125 48.890625 
Q 56.203125 41.796875 56.203125 29.59375 
M 47.21875 32.234375 
Q 47.125 39.59375 43.09375 43.984375 
Q 39.0625 48.390625 32.421875 48.390625 
Q 24.90625 48.390625 20.390625 44.140625 
Q 15.875 39.890625 15.1875 32.171875 
z
" id="BitstreamVeraSans-Roman-65"/>
      <path d="M 18.3125 70.21875 
L 18.3125 54.6875 
L 36.8125 54.6875 
L 36.8125 47.703125 
L 18.3125 47.703125 
L 18.3125 18.015625 
Q 18.3125 11.328125 20.140625 9.421875 
Q 21.96875 7.515625 27.59375 7.515625 
L 36.8125 7.515625 
L 36.8125 0 
L 27.59375 0 
Q 17.1875 0 13.234375 3.875 
Q 9.28125 7.765625 9.28125 18.015625 
L 9.28125 47.703125 
L 2.6875 47.703125 
L 2.6875 54.6875 
L 9.28125 54.6875 
L 9.28125 70.21875 
z
" id="BitstreamVeraSans-Roman-74"/>
      <path d="M 34.28125 27.484375 
Q 23.390625 27.484375 19.1875 25 
Q 14.984375 22.515625 14.984375 16.5 
Q 14.984375 11.71875 18.140625 8.90625 
Q 21.296875 6.109375 26.703125 6.109375 
Q 34.1875 6.109375 38.703125 11.40625 
Q 43.21875 16.703125 43.21875 25.484375 
L 43.21875 27.484375 
z
M 52.203125 31.203125 
L 52.203125 0 
L 43.21875 0 
L 43.21875 8.296875 
Q 40.140625 3.328125 35.546875 0.953125 
Q 30.953125 -1.421875 24.3125 -1.421875 
Q 15.921875 -1.421875 10.953125 3.296875 
Q 6 8.015625 6 15.921875 
Q 6 25.140625 12.171875 29.828125 
Q 18.359375 34.515625 30.609375 34.515625 
L 43.21875 34.515625 
L 43.21875 35.40625 
Q 43.21875 41.609375 39.140625 45 
Q 35.0625 48.390625 27.6875 48.390625 
Q 23 48.390625 18.546875 47.265625 
Q 14.109375 46.140625 10.015625 43.890625 
L 10.015625 52.203125 
Q 14.9375 54.109375 19.578125 55.046875 
Q 24.21875 56 28.609375 56 
Q 40.484375 56 46.34375 49.84375 
Q 52.203125 43.703125 52.203125 31.203125 
" id="BitstreamVeraSans-Roman-61"/>
      <path d="M 44.28125 53.078125 
L 44.28125 44.578125 
Q 40.484375 46.53125 36.375 47.5 
Q 32.28125 48.484375 27.875 48.484375 
Q 21.1875 48.484375 17.84375 46.4375 
Q 14.5 44.390625 14.5 40.28125 
Q 14.5 37.15625 16.890625 35.375 
Q 19.28125 33.59375 26.515625 31.984375 
L 29.59375 31.296875 
Q 39.15625 29.25 43.1875 25.515625 
Q 47.21875 21.78125 47.21875 15.09375 
Q 47.21875 7.46875 41.1875 3.015625 
Q 35.15625 -1.421875 24.609375 -1.421875 
Q 20.21875 -1.421875 15.453125 -0.5625 
Q 10.6875 0.296875 5.421875 2 
L 5.421875 11.28125 
Q 10.40625 8.6875 15.234375 7.390625 
Q 20.0625 6.109375 24.8125 6.109375 
Q 31.15625 6.109375 34.5625 8.28125 
Q 37.984375 10.453125 37.984375 14.40625 
Q 37.984375 18.0625 35.515625 20.015625 
Q 33.0625 21.96875 24.703125 23.78125 
L 21.578125 24.515625 
Q 13.234375 26.265625 9.515625 29.90625 
Q 5.8125 33.546875 5.8125 39.890625 
Q 5.8125 47.609375 11.28125 51.796875 
Q 16.75 56 26.8125 56 
Q 31.78125 56 36.171875 55.265625 
Q 40.578125 54.546875 44.28125 53.078125 
" id="BitstreamVeraSans-Roman-73"/>
      <path d="M 2.984375 54.6875 
L 12.5 54.6875 
L 29.59375 8.796875 
L 46.6875 54.6875 
L 56.203125 54.6875 
L 35.6875 0 
L 23.484375 0 
z
" id="BitstreamVeraSans-Roman-76"/>
     </defs>
     <g transform="translate(681.3534375 677.731875)scale(0.12 -0.12)">
      <use xlink:href="#BitstreamVeraSans-Roman-46"/>
      <use x="57.37890625" xlink:href="#BitstreamVeraSans-Roman-61"/>
      <use x="118.658203125" xlink:href="#BitstreamVeraSans-Roman-6c"/>
      <use x="146.44140625" xlink:href="#BitstreamVeraSans-Roman-73"/>
      <use x="198.541015625" xlink:href="#BitstreamVeraSans-Roman-65"/>
      <use x="260.064453125" xlink:href="#BitstreamVeraSans-Roman-20"/>
      <use x="291.8515625" xlink:href="#BitstreamVeraSans-Roman-50"/>
      <use x="352.107421875" xlink:href="#BitstreamVeraSans-Roman-6f"/>
      <use x="413.2890625" xlink:href="#BitstreamVeraSans-Roman-73"/>
      <use x="465.388671875" xlink:href="#BitstreamVeraSans-Roman-69"/>
      <use x="493.171875" xlink:href="#BitstreamVeraSans-Roman-74"/>
      <use x="532.380859375" xlink:href="#BitstreamVeraSans-Roman-69"/>
      <use x="560.1640625" xlink:href="#BitstreamVeraSans-Roman-76"/>
      <use x="619.34375" xlink:href="#BitstreamVeraSans-Roman-65"/>
      <use x="680.8671875" xlink:href="#BitstreamVeraSans-Roman-20"/>
      <use x="712.654296875" xlink:href="#BitstreamVeraSans-Roman-52"/>
      <use x="782.10546875" xlink:href="#BitstreamVeraSans-Roman-61"/>
      <use x="843.384765625" xlink:href="#BitstreamVeraSans-Roman-74"/>
      <use x="882.59375" xlink:href="#BitstreamVeraSans-Roman-65"/>
     </g>
    </g>
   </g>
   <g id="matplotlib.axis_2">
    <g id="ytick_1">
     <g id="line2d_20">
      <defs>
       <path d="M 0 0 
L 4 0 
" id="m389e769334" style="stroke:#000000;stroke-width:0.5;"/>
      </defs>
      <g>
       <use style="stroke:#000000;stroke-width:0.5;" x="180.0" xlink:href="#m389e769334" y="621.818181818"/>
      </g>
     </g>
     <g id="line2d_21">
      <defs>
       <path d="M 0 0 
L -4 0 
" id="ma872ee7deb" style="stroke:#000000;stroke-width:0.5;"/>
      </defs>
      <g>
       <use style="stroke:#000000;stroke-width:0.5;" x="1296.0" xlink:href="#ma872ee7deb" y="621.818181818"/>
      </g>
     </g>
     <g id="text_8">
      <!-- 0.0 -->
      <g transform="translate(156.91625 625.129431818)scale(0.12 -0.12)">
       <use xlink:href="#BitstreamVeraSans-Roman-30"/>
       <use x="63.623046875" xlink:href="#BitstreamVeraSans-Roman-2e"/>
       <use x="95.41015625" xlink:href="#BitstreamVeraSans-Roman-30"/>
      </g>
     </g>
    </g>
    <g id="ytick_2">
     <g id="line2d_22">
      <g>
       <use style="stroke:#000000;stroke-width:0.5;" x="180.0" xlink:href="#m389e769334" y="517.090909091"/>
      </g>
     </g>
     <g id="line2d_23">
      <g>
       <use style="stroke:#000000;stroke-width:0.5;" x="1296.0" xlink:href="#ma872ee7deb" y="517.090909091"/>
      </g>
     </g>
     <g id="text_9">
      <!-- 0.2 -->
      <g transform="translate(156.91625 520.402159091)scale(0.12 -0.12)">
       <use xlink:href="#BitstreamVeraSans-Roman-30"/>
       <use x="63.623046875" xlink:href="#BitstreamVeraSans-Roman-2e"/>
       <use x="95.41015625" xlink:href="#BitstreamVeraSans-Roman-32"/>
      </g>
     </g>
    </g>
    <g id="ytick_3">
     <g id="line2d_24">
      <g>
       <use style="stroke:#000000;stroke-width:0.5;" x="180.0" xlink:href="#m389e769334" y="412.363636364"/>
      </g>
     </g>
     <g id="line2d_25">
      <g>
       <use style="stroke:#000000;stroke-width:0.5;" x="1296.0" xlink:href="#ma872ee7deb" y="412.363636364"/>
      </g>
     </g>
     <g id="text_10">
      <!-- 0.4 -->
      <g transform="translate(156.91625 415.674886364)scale(0.12 -0.12)">
       <use xlink:href="#BitstreamVeraSans-Roman-30"/>
       <use x="63.623046875" xlink:href="#BitstreamVeraSans-Roman-2e"/>
       <use x="95.41015625" xlink:href="#BitstreamVeraSans-Roman-34"/>
      </g>
     </g>
    </g>
    <g id="ytick_4">
     <g id="line2d_26">
      <g>
       <use style="stroke:#000000;stroke-width:0.5;" x="180.0" xlink:href="#m389e769334" y="307.636363636"/>
      </g>
     </g>
     <g id="line2d_27">
      <g>
       <use style="stroke:#000000;stroke-width:0.5;" x="1296.0" xlink:href="#ma872ee7deb" y="307.636363636"/>
      </g>
     </g>
     <g id="text_11">
      <!-- 0.6 -->
      <g transform="translate(156.91625 310.947613636)scale(0.12 -0.12)">
       <use xlink:href="#BitstreamVeraSans-Roman-30"/>
       <use x="63.623046875" xlink:href="#BitstreamVeraSans-Roman-2e"/>
       <use x="95.41015625" xlink:href="#BitstreamVeraSans-Roman-36"/>
      </g>
     </g>
    </g>
    <g id="ytick_5">
     <g id="line2d_28">
      <g>
       <use style="stroke:#000000;stroke-width:0.5;" x="180.0" xlink:href="#m389e769334" y="202.909090909"/>
      </g>
     </g>
     <g id="line2d_29">
      <g>
       <use style="stroke:#000000;stroke-width:0.5;" x="1296.0" xlink:href="#ma872ee7deb" y="202.909090909"/>
      </g>
     </g>
     <g id="text_12">
      <!-- 0.8 -->
      <g transform="translate(156.91625 206.220340909)scale(0.12 -0.12)">
       <use xlink:href="#BitstreamVeraSans-Roman-30"/>
       <use x="63.623046875" xlink:href="#BitstreamVeraSans-Roman-2e"/>
       <use x="95.41015625" xlink:href="#BitstreamVeraSans-Roman-38"/>
      </g>
     </g>
    </g>
    <g id="ytick_6">
     <g id="line2d_30">
      <g>
       <use style="stroke:#000000;stroke-width:0.5;" x="180.0" xlink:href="#m389e769334" y="98.1818181818"/>
      </g>
     </g>
     <g id="line2d_31">
      <g>
       <use style="stroke:#000000;stroke-width:0.5;" x="1296.0" xlink:href="#ma872ee7deb" y="98.1818181818"/>
      </g>
     </g>
     <g id="text_13">
      <!-- 1.0 -->
      <g transform="translate(156.91625 101.493068182)scale(0.12 -0.12)">
       <use xlink:href="#BitstreamVeraSans-Roman-31"/>
       <use x="63.623046875" xlink:href="#BitstreamVeraSans-Roman-2e"/>
       <use x="95.41015625" xlink:href="#BitstreamVeraSans-Roman-30"/>
      </g>
     </g>
    </g>
    <g id="text_14">
     <!-- True Positive Rate -->
     <defs>
      <path d="M 41.109375 46.296875 
Q 39.59375 47.171875 37.8125 47.578125 
Q 36.03125 48 33.890625 48 
Q 26.265625 48 22.1875 43.046875 
Q 18.109375 38.09375 18.109375 28.8125 
L 18.109375 0 
L 9.078125 0 
L 9.078125 54.6875 
L 18.109375 54.6875 
L 18.109375 46.1875 
Q 20.953125 51.171875 25.484375 53.578125 
Q 30.03125 56 36.53125 56 
Q 37.453125 56 38.578125 55.875 
Q 39.703125 55.765625 41.0625 55.515625 
z
" id="BitstreamVeraSans-Roman-72"/>
      <path d="M 8.5 21.578125 
L 8.5 54.6875 
L 17.484375 54.6875 
L 17.484375 21.921875 
Q 17.484375 14.15625 20.5 10.265625 
Q 23.53125 6.390625 29.59375 6.390625 
Q 36.859375 6.390625 41.078125 11.03125 
Q 45.3125 15.671875 45.3125 23.6875 
L 45.3125 54.6875 
L 54.296875 54.6875 
L 54.296875 0 
L 45.3125 0 
L 45.3125 8.40625 
Q 42.046875 3.421875 37.71875 1 
Q 33.40625 -1.421875 27.6875 -1.421875 
Q 18.265625 -1.421875 13.375 4.4375 
Q 8.5 10.296875 8.5 21.578125 
" id="BitstreamVeraSans-Roman-75"/>
      <path d="M -0.296875 72.90625 
L 61.375 72.90625 
L 61.375 64.59375 
L 35.5 64.59375 
L 35.5 0 
L 25.59375 0 
L 25.59375 64.59375 
L -0.296875 64.59375 
z
" id="BitstreamVeraSans-Roman-54"/>
     </defs>
     <g transform="translate(149.420625 414.6553125)rotate(-90.0)scale(0.12 -0.12)">
      <use xlink:href="#BitstreamVeraSans-Roman-54"/>
      <use x="60.865234375" xlink:href="#BitstreamVeraSans-Roman-72"/>
      <use x="101.978515625" xlink:href="#BitstreamVeraSans-Roman-75"/>
      <use x="165.357421875" xlink:href="#BitstreamVeraSans-Roman-65"/>
      <use x="226.880859375" xlink:href="#BitstreamVeraSans-Roman-20"/>
      <use x="258.66796875" xlink:href="#BitstreamVeraSans-Roman-50"/>
      <use x="318.923828125" xlink:href="#BitstreamVeraSans-Roman-6f"/>
      <use x="380.10546875" xlink:href="#BitstreamVeraSans-Roman-73"/>
      <use x="432.205078125" xlink:href="#BitstreamVeraSans-Roman-69"/>
      <use x="459.98828125" xlink:href="#BitstreamVeraSans-Roman-74"/>
      <use x="499.197265625" xlink:href="#BitstreamVeraSans-Roman-69"/>
      <use x="526.98046875" xlink:href="#BitstreamVeraSans-Roman-76"/>
      <use x="586.16015625" xlink:href="#BitstreamVeraSans-Roman-65"/>
      <use x="647.68359375" xlink:href="#BitstreamVeraSans-Roman-20"/>
      <use x="679.470703125" xlink:href="#BitstreamVeraSans-Roman-52"/>
      <use x="748.921875" xlink:href="#BitstreamVeraSans-Roman-61"/>
      <use x="810.201171875" xlink:href="#BitstreamVeraSans-Roman-74"/>
      <use x="849.41015625" xlink:href="#BitstreamVeraSans-Roman-65"/>
     </g>
    </g>
   </g>
   <g id="text_15">
    <!-- Receiver operating characteristic example -->
    <defs>
     <path d="M 54.890625 33.015625 
L 54.890625 0 
L 45.90625 0 
L 45.90625 32.71875 
Q 45.90625 40.484375 42.875 44.328125 
Q 39.84375 48.1875 33.796875 48.1875 
Q 26.515625 48.1875 22.3125 43.546875 
Q 18.109375 38.921875 18.109375 30.90625 
L 18.109375 0 
L 9.078125 0 
L 9.078125 54.6875 
L 18.109375 54.6875 
L 18.109375 46.1875 
Q 21.34375 51.125 25.703125 53.5625 
Q 30.078125 56 35.796875 56 
Q 45.21875 56 50.046875 50.171875 
Q 54.890625 44.34375 54.890625 33.015625 
" id="BitstreamVeraSans-Roman-6e"/>
     <path d="M 52 44.1875 
Q 55.375 50.25 60.0625 53.125 
Q 64.75 56 71.09375 56 
Q 79.640625 56 84.28125 50.015625 
Q 88.921875 44.046875 88.921875 33.015625 
L 88.921875 0 
L 79.890625 0 
L 79.890625 32.71875 
Q 79.890625 40.578125 77.09375 44.375 
Q 74.3125 48.1875 68.609375 48.1875 
Q 61.625 48.1875 57.5625 43.546875 
Q 53.515625 38.921875 53.515625 30.90625 
L 53.515625 0 
L 44.484375 0 
L 44.484375 32.71875 
Q 44.484375 40.625 41.703125 44.40625 
Q 38.921875 48.1875 33.109375 48.1875 
Q 26.21875 48.1875 22.15625 43.53125 
Q 18.109375 38.875 18.109375 30.90625 
L 18.109375 0 
L 9.078125 0 
L 9.078125 54.6875 
L 18.109375 54.6875 
L 18.109375 46.1875 
Q 21.1875 51.21875 25.484375 53.609375 
Q 29.78125 56 35.6875 56 
Q 41.65625 56 45.828125 52.96875 
Q 50 49.953125 52 44.1875 
" id="BitstreamVeraSans-Roman-6d"/>
     <path d="M 48.78125 52.59375 
L 48.78125 44.1875 
Q 44.96875 46.296875 41.140625 47.34375 
Q 37.3125 48.390625 33.40625 48.390625 
Q 24.65625 48.390625 19.8125 42.84375 
Q 14.984375 37.3125 14.984375 27.296875 
Q 14.984375 17.28125 19.8125 11.734375 
Q 24.65625 6.203125 33.40625 6.203125 
Q 37.3125 6.203125 41.140625 7.25 
Q 44.96875 8.296875 48.78125 10.40625 
L 48.78125 2.09375 
Q 45.015625 0.34375 40.984375 -0.53125 
Q 36.96875 -1.421875 32.421875 -1.421875 
Q 20.0625 -1.421875 12.78125 6.34375 
Q 5.515625 14.109375 5.515625 27.296875 
Q 5.515625 40.671875 12.859375 48.328125 
Q 20.21875 56 33.015625 56 
Q 37.15625 56 41.109375 55.140625 
Q 45.0625 54.296875 48.78125 52.59375 
" id="BitstreamVeraSans-Roman-63"/>
     <path d="M 54.890625 54.6875 
L 35.109375 28.078125 
L 55.90625 0 
L 45.3125 0 
L 29.390625 21.484375 
L 13.484375 0 
L 2.875 0 
L 24.125 28.609375 
L 4.6875 54.6875 
L 15.28125 54.6875 
L 29.78125 35.203125 
L 44.28125 54.6875 
z
" id="BitstreamVeraSans-Roman-78"/>
     <path d="M 45.40625 27.984375 
Q 45.40625 37.75 41.375 43.109375 
Q 37.359375 48.484375 30.078125 48.484375 
Q 22.859375 48.484375 18.828125 43.109375 
Q 14.796875 37.75 14.796875 27.984375 
Q 14.796875 18.265625 18.828125 12.890625 
Q 22.859375 7.515625 30.078125 7.515625 
Q 37.359375 7.515625 41.375 12.890625 
Q 45.40625 18.265625 45.40625 27.984375 
M 54.390625 6.78125 
Q 54.390625 -7.171875 48.1875 -13.984375 
Q 42 -20.796875 29.203125 -20.796875 
Q 24.46875 -20.796875 20.265625 -20.09375 
Q 16.0625 -19.390625 12.109375 -17.921875 
L 12.109375 -9.1875 
Q 16.0625 -11.328125 19.921875 -12.34375 
Q 23.78125 -13.375 27.78125 -13.375 
Q 36.625 -13.375 41.015625 -8.765625 
Q 45.40625 -4.15625 45.40625 5.171875 
L 45.40625 9.625 
Q 42.625 4.78125 38.28125 2.390625 
Q 33.9375 0 27.875 0 
Q 17.828125 0 11.671875 7.65625 
Q 5.515625 15.328125 5.515625 27.984375 
Q 5.515625 40.671875 11.671875 48.328125 
Q 17.828125 56 27.875 56 
Q 33.9375 56 38.28125 53.609375 
Q 42.625 51.21875 45.40625 46.390625 
L 45.40625 54.6875 
L 54.390625 54.6875 
z
" id="BitstreamVeraSans-Roman-67"/>
     <path d="M 18.109375 8.203125 
L 18.109375 -20.796875 
L 9.078125 -20.796875 
L 9.078125 54.6875 
L 18.109375 54.6875 
L 18.109375 46.390625 
Q 20.953125 51.265625 25.265625 53.625 
Q 29.59375 56 35.59375 56 
Q 45.5625 56 51.78125 48.09375 
Q 58.015625 40.1875 58.015625 27.296875 
Q 58.015625 14.40625 51.78125 6.484375 
Q 45.5625 -1.421875 35.59375 -1.421875 
Q 29.59375 -1.421875 25.265625 0.953125 
Q 20.953125 3.328125 18.109375 8.203125 
M 48.6875 27.296875 
Q 48.6875 37.203125 44.609375 42.84375 
Q 40.53125 48.484375 33.40625 48.484375 
Q 26.265625 48.484375 22.1875 42.84375 
Q 18.109375 37.203125 18.109375 27.296875 
Q 18.109375 17.390625 22.1875 11.75 
Q 26.265625 6.109375 33.40625 6.109375 
Q 40.53125 6.109375 44.609375 11.75 
Q 48.6875 17.390625 48.6875 27.296875 
" id="BitstreamVeraSans-Roman-70"/>
     <path d="M 54.890625 33.015625 
L 54.890625 0 
L 45.90625 0 
L 45.90625 32.71875 
Q 45.90625 40.484375 42.875 44.328125 
Q 39.84375 48.1875 33.796875 48.1875 
Q 26.515625 48.1875 22.3125 43.546875 
Q 18.109375 38.921875 18.109375 30.90625 
L 18.109375 0 
L 9.078125 0 
L 9.078125 75.984375 
L 18.109375 75.984375 
L 18.109375 46.1875 
Q 21.34375 51.125 25.703125 53.5625 
Q 30.078125 56 35.796875 56 
Q 45.21875 56 50.046875 50.171875 
Q 54.890625 44.34375 54.890625 33.015625 
" id="BitstreamVeraSans-Roman-68"/>
    </defs>
    <g transform="translate(472.03125 67.0)scale(0.25 -0.25)">
     <use xlink:href="#BitstreamVeraSans-Roman-52"/>
     <use x="69.419921875" xlink:href="#BitstreamVeraSans-Roman-65"/>
     <use x="130.943359375" xlink:href="#BitstreamVeraSans-Roman-63"/>
     <use x="185.923828125" xlink:href="#BitstreamVeraSans-Roman-65"/>
     <use x="247.447265625" xlink:href="#BitstreamVeraSans-Roman-69"/>
     <use x="275.23046875" xlink:href="#BitstreamVeraSans-Roman-76"/>
     <use x="334.41015625" xlink:href="#BitstreamVeraSans-Roman-65"/>
     <use x="395.93359375" xlink:href="#BitstreamVeraSans-Roman-72"/>
     <use x="437.046875" xlink:href="#BitstreamVeraSans-Roman-20"/>
     <use x="468.833984375" xlink:href="#BitstreamVeraSans-Roman-6f"/>
     <use x="530.015625" xlink:href="#BitstreamVeraSans-Roman-70"/>
     <use x="593.4921875" xlink:href="#BitstreamVeraSans-Roman-65"/>
     <use x="655.015625" xlink:href="#BitstreamVeraSans-Roman-72"/>
     <use x="696.12890625" xlink:href="#BitstreamVeraSans-Roman-61"/>
     <use x="757.408203125" xlink:href="#BitstreamVeraSans-Roman-74"/>
     <use x="796.6171875" xlink:href="#BitstreamVeraSans-Roman-69"/>
     <use x="824.400390625" xlink:href="#BitstreamVeraSans-Roman-6e"/>
     <use x="887.779296875" xlink:href="#BitstreamVeraSans-Roman-67"/>
     <use x="951.255859375" xlink:href="#BitstreamVeraSans-Roman-20"/>
     <use x="983.04296875" xlink:href="#BitstreamVeraSans-Roman-63"/>
     <use x="1038.0234375" xlink:href="#BitstreamVeraSans-Roman-68"/>
     <use x="1101.40234375" xlink:href="#BitstreamVeraSans-Roman-61"/>
     <use x="1162.68164062" xlink:href="#BitstreamVeraSans-Roman-72"/>
     <use x="1203.79492188" xlink:href="#BitstreamVeraSans-Roman-61"/>
     <use x="1265.07421875" xlink:href="#BitstreamVeraSans-Roman-63"/>
     <use x="1320.0546875" xlink:href="#BitstreamVeraSans-Roman-74"/>
     <use x="1359.26367188" xlink:href="#BitstreamVeraSans-Roman-65"/>
     <use x="1420.78710938" xlink:href="#BitstreamVeraSans-Roman-72"/>
     <use x="1461.90039062" xlink:href="#BitstreamVeraSans-Roman-69"/>
     <use x="1489.68359375" xlink:href="#BitstreamVeraSans-Roman-73"/>
     <use x="1541.78320312" xlink:href="#BitstreamVeraSans-Roman-74"/>
     <use x="1580.9921875" xlink:href="#BitstreamVeraSans-Roman-69"/>
     <use x="1608.77539062" xlink:href="#BitstreamVeraSans-Roman-63"/>
     <use x="1663.75585938" xlink:href="#BitstreamVeraSans-Roman-20"/>
     <use x="1695.54296875" xlink:href="#BitstreamVeraSans-Roman-65"/>
     <use x="1757.05078125" xlink:href="#BitstreamVeraSans-Roman-78"/>
     <use x="1816.23046875" xlink:href="#BitstreamVeraSans-Roman-61"/>
     <use x="1877.50976562" xlink:href="#BitstreamVeraSans-Roman-6d"/>
     <use x="1974.921875" xlink:href="#BitstreamVeraSans-Roman-70"/>
     <use x="2038.3984375" xlink:href="#BitstreamVeraSans-Roman-6c"/>
     <use x="2066.18164062" xlink:href="#BitstreamVeraSans-Roman-65"/>
    </g>
   </g>
   <g id="legend_1">
    <g id="patch_7">
     <path d="M 1009.728 640.8 
L 1288.8 640.8 
L 1288.8 467.388 
L 1009.728 467.388 
z
" style="fill:#ffffff;stroke:#000000;stroke-linejoin:miter;"/>
    </g>
    <g id="line2d_32">
     <path d="M 1019.808 479.04975 
L 1039.968 479.04975 
" style="fill:none;opacity:0.3;stroke:#0000ff;stroke-linecap:square;"/>
    </g>
    <g id="line2d_33"/>
    <g id="text_16">
     <!-- ROC fold 0 (AUC = 0.73) -->
     <defs>
      <path d="M 39.40625 66.21875 
Q 28.65625 66.21875 22.328125 58.203125 
Q 16.015625 50.203125 16.015625 36.375 
Q 16.015625 22.609375 22.328125 14.59375 
Q 28.65625 6.59375 39.40625 6.59375 
Q 50.140625 6.59375 56.421875 14.59375 
Q 62.703125 22.609375 62.703125 36.375 
Q 62.703125 50.203125 56.421875 58.203125 
Q 50.140625 66.21875 39.40625 66.21875 
M 39.40625 74.21875 
Q 54.734375 74.21875 63.90625 63.9375 
Q 73.09375 53.65625 73.09375 36.375 
Q 73.09375 19.140625 63.90625 8.859375 
Q 54.734375 -1.421875 39.40625 -1.421875 
Q 24.03125 -1.421875 14.8125 8.828125 
Q 5.609375 19.09375 5.609375 36.375 
Q 5.609375 53.65625 14.8125 63.9375 
Q 24.03125 74.21875 39.40625 74.21875 
" id="BitstreamVeraSans-Roman-4f"/>
      <path d="M 10.59375 45.40625 
L 73.1875 45.40625 
L 73.1875 37.203125 
L 10.59375 37.203125 
z
M 10.59375 25.484375 
L 73.1875 25.484375 
L 73.1875 17.1875 
L 10.59375 17.1875 
z
" id="BitstreamVeraSans-Roman-3d"/>
      <path d="M 40.578125 39.3125 
Q 47.65625 37.796875 51.625 33 
Q 55.609375 28.21875 55.609375 21.1875 
Q 55.609375 10.40625 48.1875 4.484375 
Q 40.765625 -1.421875 27.09375 -1.421875 
Q 22.515625 -1.421875 17.65625 -0.515625 
Q 12.796875 0.390625 7.625 2.203125 
L 7.625 11.71875 
Q 11.71875 9.328125 16.59375 8.109375 
Q 21.484375 6.890625 26.8125 6.890625 
Q 36.078125 6.890625 40.9375 10.546875 
Q 45.796875 14.203125 45.796875 21.1875 
Q 45.796875 27.640625 41.28125 31.265625 
Q 36.765625 34.90625 28.71875 34.90625 
L 20.21875 34.90625 
L 20.21875 43.015625 
L 29.109375 43.015625 
Q 36.375 43.015625 40.234375 45.921875 
Q 44.09375 48.828125 44.09375 54.296875 
Q 44.09375 59.90625 40.109375 62.90625 
Q 36.140625 65.921875 28.71875 65.921875 
Q 24.65625 65.921875 20.015625 65.03125 
Q 15.375 64.15625 9.8125 62.3125 
L 9.8125 71.09375 
Q 15.4375 72.65625 20.34375 73.4375 
Q 25.25 74.21875 29.59375 74.21875 
Q 40.828125 74.21875 47.359375 69.109375 
Q 53.90625 64.015625 53.90625 55.328125 
Q 53.90625 49.265625 50.4375 45.09375 
Q 46.96875 40.921875 40.578125 39.3125 
" id="BitstreamVeraSans-Roman-33"/>
      <path d="M 8.015625 75.875 
L 15.828125 75.875 
Q 23.140625 64.359375 26.78125 53.3125 
Q 30.421875 42.28125 30.421875 31.390625 
Q 30.421875 20.453125 26.78125 9.375 
Q 23.140625 -1.703125 15.828125 -13.1875 
L 8.015625 -13.1875 
Q 14.5 -2 17.703125 9.0625 
Q 20.90625 20.125 20.90625 31.390625 
Q 20.90625 42.671875 17.703125 53.65625 
Q 14.5 64.65625 8.015625 75.875 
" id="BitstreamVeraSans-Roman-29"/>
      <path d="M 31 75.875 
Q 24.46875 64.65625 21.28125 53.65625 
Q 18.109375 42.671875 18.109375 31.390625 
Q 18.109375 20.125 21.3125 9.0625 
Q 24.515625 -2 31 -13.1875 
L 23.1875 -13.1875 
Q 15.875 -1.703125 12.234375 9.375 
Q 8.59375 20.453125 8.59375 31.390625 
Q 8.59375 42.28125 12.203125 53.3125 
Q 15.828125 64.359375 23.1875 75.875 
z
" id="BitstreamVeraSans-Roman-28"/>
      <path d="M 64.40625 67.28125 
L 64.40625 56.890625 
Q 59.421875 61.53125 53.78125 63.8125 
Q 48.140625 66.109375 41.796875 66.109375 
Q 29.296875 66.109375 22.65625 58.46875 
Q 16.015625 50.828125 16.015625 36.375 
Q 16.015625 21.96875 22.65625 14.328125 
Q 29.296875 6.6875 41.796875 6.6875 
Q 48.140625 6.6875 53.78125 8.984375 
Q 59.421875 11.28125 64.40625 15.921875 
L 64.40625 5.609375 
Q 59.234375 2.09375 53.4375 0.328125 
Q 47.65625 -1.421875 41.21875 -1.421875 
Q 24.65625 -1.421875 15.125 8.703125 
Q 5.609375 18.84375 5.609375 36.375 
Q 5.609375 53.953125 15.125 64.078125 
Q 24.65625 74.21875 41.21875 74.21875 
Q 47.75 74.21875 53.53125 72.484375 
Q 59.328125 70.75 64.40625 67.28125 
" id="BitstreamVeraSans-Roman-43"/>
      <path d="M 8.6875 72.90625 
L 18.609375 72.90625 
L 18.609375 28.609375 
Q 18.609375 16.890625 22.84375 11.734375 
Q 27.09375 6.59375 36.625 6.59375 
Q 46.09375 6.59375 50.34375 11.734375 
Q 54.59375 16.890625 54.59375 28.609375 
L 54.59375 72.90625 
L 64.5 72.90625 
L 64.5 27.390625 
Q 64.5 13.140625 57.4375 5.859375 
Q 50.390625 -1.421875 36.625 -1.421875 
Q 22.796875 -1.421875 15.734375 5.859375 
Q 8.6875 13.140625 8.6875 27.390625 
z
" id="BitstreamVeraSans-Roman-55"/>
      <path d="M 34.1875 63.1875 
L 20.796875 26.90625 
L 47.609375 26.90625 
z
M 28.609375 72.90625 
L 39.796875 72.90625 
L 67.578125 0 
L 57.328125 0 
L 50.6875 18.703125 
L 17.828125 18.703125 
L 11.1875 0 
L 0.78125 0 
z
" id="BitstreamVeraSans-Roman-41"/>
      <path d="M 45.40625 46.390625 
L 45.40625 75.984375 
L 54.390625 75.984375 
L 54.390625 0 
L 45.40625 0 
L 45.40625 8.203125 
Q 42.578125 3.328125 38.25 0.953125 
Q 33.9375 -1.421875 27.875 -1.421875 
Q 17.96875 -1.421875 11.734375 6.484375 
Q 5.515625 14.40625 5.515625 27.296875 
Q 5.515625 40.1875 11.734375 48.09375 
Q 17.96875 56 27.875 56 
Q 33.9375 56 38.25 53.625 
Q 42.578125 51.265625 45.40625 46.390625 
M 14.796875 27.296875 
Q 14.796875 17.390625 18.875 11.75 
Q 22.953125 6.109375 30.078125 6.109375 
Q 37.203125 6.109375 41.296875 11.75 
Q 45.40625 17.390625 45.40625 27.296875 
Q 45.40625 37.203125 41.296875 42.84375 
Q 37.203125 48.484375 30.078125 48.484375 
Q 22.953125 48.484375 18.875 42.84375 
Q 14.796875 37.203125 14.796875 27.296875 
" id="BitstreamVeraSans-Roman-64"/>
      <path d="M 37.109375 75.984375 
L 37.109375 68.5 
L 28.515625 68.5 
Q 23.6875 68.5 21.796875 66.546875 
Q 19.921875 64.59375 19.921875 59.515625 
L 19.921875 54.6875 
L 34.71875 54.6875 
L 34.71875 47.703125 
L 19.921875 47.703125 
L 19.921875 0 
L 10.890625 0 
L 10.890625 47.703125 
L 2.296875 47.703125 
L 2.296875 54.6875 
L 10.890625 54.6875 
L 10.890625 58.5 
Q 10.890625 67.625 15.140625 71.796875 
Q 19.390625 75.984375 28.609375 75.984375 
z
" id="BitstreamVeraSans-Roman-66"/>
      <path d="M 8.203125 72.90625 
L 55.078125 72.90625 
L 55.078125 68.703125 
L 28.609375 0 
L 18.3125 0 
L 43.21875 64.59375 
L 8.203125 64.59375 
z
" id="BitstreamVeraSans-Roman-37"/>
     </defs>
     <g transform="translate(1055.808 484.08975)scale(0.144 -0.144)">
      <use xlink:href="#BitstreamVeraSans-Roman-52"/>
      <use x="69.482421875" xlink:href="#BitstreamVeraSans-Roman-4f"/>
      <use x="148.193359375" xlink:href="#BitstreamVeraSans-Roman-43"/>
      <use x="218.017578125" xlink:href="#BitstreamVeraSans-Roman-20"/>
      <use x="249.8046875" xlink:href="#BitstreamVeraSans-Roman-66"/>
      <use x="285.009765625" xlink:href="#BitstreamVeraSans-Roman-6f"/>
      <use x="346.19140625" xlink:href="#BitstreamVeraSans-Roman-6c"/>
      <use x="373.974609375" xlink:href="#BitstreamVeraSans-Roman-64"/>
      <use x="437.451171875" xlink:href="#BitstreamVeraSans-Roman-20"/>
      <use x="469.23828125" xlink:href="#BitstreamVeraSans-Roman-30"/>
      <use x="532.861328125" xlink:href="#BitstreamVeraSans-Roman-20"/>
      <use x="564.6484375" xlink:href="#BitstreamVeraSans-Roman-28"/>
      <use x="603.662109375" xlink:href="#BitstreamVeraSans-Roman-41"/>
      <use x="672.0703125" xlink:href="#BitstreamVeraSans-Roman-55"/>
      <use x="745.263671875" xlink:href="#BitstreamVeraSans-Roman-43"/>
      <use x="815.087890625" xlink:href="#BitstreamVeraSans-Roman-20"/>
      <use x="846.875" xlink:href="#BitstreamVeraSans-Roman-3d"/>
      <use x="930.6640625" xlink:href="#BitstreamVeraSans-Roman-20"/>
      <use x="962.451171875" xlink:href="#BitstreamVeraSans-Roman-30"/>
      <use x="1026.07421875" xlink:href="#BitstreamVeraSans-Roman-2e"/>
      <use x="1057.86132812" xlink:href="#BitstreamVeraSans-Roman-37"/>
      <use x="1121.484375" xlink:href="#BitstreamVeraSans-Roman-33"/>
      <use x="1185.10742188" xlink:href="#BitstreamVeraSans-Roman-29"/>
     </g>
    </g>
    <g id="line2d_34">
     <path d="M 1019.808 500.18625 
L 1039.968 500.18625 
" style="fill:none;opacity:0.3;stroke:#008000;stroke-linecap:square;"/>
    </g>
    <g id="line2d_35"/>
    <g id="text_17">
     <!-- ROC fold 1 (AUC = 0.87) -->
     <g transform="translate(1055.808 505.22625)scale(0.144 -0.144)">
      <use xlink:href="#BitstreamVeraSans-Roman-52"/>
      <use x="69.482421875" xlink:href="#BitstreamVeraSans-Roman-4f"/>
      <use x="148.193359375" xlink:href="#BitstreamVeraSans-Roman-43"/>
      <use x="218.017578125" xlink:href="#BitstreamVeraSans-Roman-20"/>
      <use x="249.8046875" xlink:href="#BitstreamVeraSans-Roman-66"/>
      <use x="285.009765625" xlink:href="#BitstreamVeraSans-Roman-6f"/>
      <use x="346.19140625" xlink:href="#BitstreamVeraSans-Roman-6c"/>
      <use x="373.974609375" xlink:href="#BitstreamVeraSans-Roman-64"/>
      <use x="437.451171875" xlink:href="#BitstreamVeraSans-Roman-20"/>
      <use x="469.23828125" xlink:href="#BitstreamVeraSans-Roman-31"/>
      <use x="532.861328125" xlink:href="#BitstreamVeraSans-Roman-20"/>
      <use x="564.6484375" xlink:href="#BitstreamVeraSans-Roman-28"/>
      <use x="603.662109375" xlink:href="#BitstreamVeraSans-Roman-41"/>
      <use x="672.0703125" xlink:href="#BitstreamVeraSans-Roman-55"/>
      <use x="745.263671875" xlink:href="#BitstreamVeraSans-Roman-43"/>
      <use x="815.087890625" xlink:href="#BitstreamVeraSans-Roman-20"/>
      <use x="846.875" xlink:href="#BitstreamVeraSans-Roman-3d"/>
      <use x="930.6640625" xlink:href="#BitstreamVeraSans-Roman-20"/>
      <use x="962.451171875" xlink:href="#BitstreamVeraSans-Roman-30"/>
      <use x="1026.07421875" xlink:href="#BitstreamVeraSans-Roman-2e"/>
      <use x="1057.86132812" xlink:href="#BitstreamVeraSans-Roman-38"/>
      <use x="1121.484375" xlink:href="#BitstreamVeraSans-Roman-37"/>
      <use x="1185.10742188" xlink:href="#BitstreamVeraSans-Roman-29"/>
     </g>
    </g>
    <g id="line2d_36">
     <path d="M 1019.808 521.32275 
L 1039.968 521.32275 
" style="fill:none;opacity:0.3;stroke:#ff0000;stroke-linecap:square;"/>
    </g>
    <g id="line2d_37"/>
    <g id="text_18">
     <!-- ROC fold 2 (AUC = 0.70) -->
     <g transform="translate(1055.808 526.36275)scale(0.144 -0.144)">
      <use xlink:href="#BitstreamVeraSans-Roman-52"/>
      <use x="69.482421875" xlink:href="#BitstreamVeraSans-Roman-4f"/>
      <use x="148.193359375" xlink:href="#BitstreamVeraSans-Roman-43"/>
      <use x="218.017578125" xlink:href="#BitstreamVeraSans-Roman-20"/>
      <use x="249.8046875" xlink:href="#BitstreamVeraSans-Roman-66"/>
      <use x="285.009765625" xlink:href="#BitstreamVeraSans-Roman-6f"/>
      <use x="346.19140625" xlink:href="#BitstreamVeraSans-Roman-6c"/>
      <use x="373.974609375" xlink:href="#BitstreamVeraSans-Roman-64"/>
      <use x="437.451171875" xlink:href="#BitstreamVeraSans-Roman-20"/>
      <use x="469.23828125" xlink:href="#BitstreamVeraSans-Roman-32"/>
      <use x="532.861328125" xlink:href="#BitstreamVeraSans-Roman-20"/>
      <use x="564.6484375" xlink:href="#BitstreamVeraSans-Roman-28"/>
      <use x="603.662109375" xlink:href="#BitstreamVeraSans-Roman-41"/>
      <use x="672.0703125" xlink:href="#BitstreamVeraSans-Roman-55"/>
      <use x="745.263671875" xlink:href="#BitstreamVeraSans-Roman-43"/>
      <use x="815.087890625" xlink:href="#BitstreamVeraSans-Roman-20"/>
      <use x="846.875" xlink:href="#BitstreamVeraSans-Roman-3d"/>
      <use x="930.6640625" xlink:href="#BitstreamVeraSans-Roman-20"/>
      <use x="962.451171875" xlink:href="#BitstreamVeraSans-Roman-30"/>
      <use x="1026.07421875" xlink:href="#BitstreamVeraSans-Roman-2e"/>
      <use x="1057.86132812" xlink:href="#BitstreamVeraSans-Roman-37"/>
      <use x="1121.484375" xlink:href="#BitstreamVeraSans-Roman-30"/>
      <use x="1185.10742188" xlink:href="#BitstreamVeraSans-Roman-29"/>
     </g>
    </g>
    <g id="line2d_38">
     <path d="M 1019.808 542.45925 
L 1039.968 542.45925 
" style="fill:none;opacity:0.3;stroke:#00bfbf;stroke-linecap:square;"/>
    </g>
    <g id="line2d_39"/>
    <g id="text_19">
     <!-- ROC fold 3 (AUC = 0.62) -->
     <g transform="translate(1055.808 547.49925)scale(0.144 -0.144)">
      <use xlink:href="#BitstreamVeraSans-Roman-52"/>
      <use x="69.482421875" xlink:href="#BitstreamVeraSans-Roman-4f"/>
      <use x="148.193359375" xlink:href="#BitstreamVeraSans-Roman-43"/>
      <use x="218.017578125" xlink:href="#BitstreamVeraSans-Roman-20"/>
      <use x="249.8046875" xlink:href="#BitstreamVeraSans-Roman-66"/>
      <use x="285.009765625" xlink:href="#BitstreamVeraSans-Roman-6f"/>
      <use x="346.19140625" xlink:href="#BitstreamVeraSans-Roman-6c"/>
      <use x="373.974609375" xlink:href="#BitstreamVeraSans-Roman-64"/>
      <use x="437.451171875" xlink:href="#BitstreamVeraSans-Roman-20"/>
      <use x="469.23828125" xlink:href="#BitstreamVeraSans-Roman-33"/>
      <use x="532.861328125" xlink:href="#BitstreamVeraSans-Roman-20"/>
      <use x="564.6484375" xlink:href="#BitstreamVeraSans-Roman-28"/>
      <use x="603.662109375" xlink:href="#BitstreamVeraSans-Roman-41"/>
      <use x="672.0703125" xlink:href="#BitstreamVeraSans-Roman-55"/>
      <use x="745.263671875" xlink:href="#BitstreamVeraSans-Roman-43"/>
      <use x="815.087890625" xlink:href="#BitstreamVeraSans-Roman-20"/>
      <use x="846.875" xlink:href="#BitstreamVeraSans-Roman-3d"/>
      <use x="930.6640625" xlink:href="#BitstreamVeraSans-Roman-20"/>
      <use x="962.451171875" xlink:href="#BitstreamVeraSans-Roman-30"/>
      <use x="1026.07421875" xlink:href="#BitstreamVeraSans-Roman-2e"/>
      <use x="1057.86132812" xlink:href="#BitstreamVeraSans-Roman-36"/>
      <use x="1121.484375" xlink:href="#BitstreamVeraSans-Roman-32"/>
      <use x="1185.10742188" xlink:href="#BitstreamVeraSans-Roman-29"/>
     </g>
    </g>
    <g id="line2d_40">
     <path d="M 1019.808 563.59575 
L 1039.968 563.59575 
" style="fill:none;opacity:0.3;stroke:#bf00bf;stroke-linecap:square;"/>
    </g>
    <g id="line2d_41"/>
    <g id="text_20">
     <!-- ROC fold 4 (AUC = 0.25) -->
     <defs>
      <path d="M 10.796875 72.90625 
L 49.515625 72.90625 
L 49.515625 64.59375 
L 19.828125 64.59375 
L 19.828125 46.734375 
Q 21.96875 47.46875 24.109375 47.828125 
Q 26.265625 48.1875 28.421875 48.1875 
Q 40.625 48.1875 47.75 41.5 
Q 54.890625 34.8125 54.890625 23.390625 
Q 54.890625 11.625 47.5625 5.09375 
Q 40.234375 -1.421875 26.90625 -1.421875 
Q 22.3125 -1.421875 17.546875 -0.640625 
Q 12.796875 0.140625 7.71875 1.703125 
L 7.71875 11.625 
Q 12.109375 9.234375 16.796875 8.0625 
Q 21.484375 6.890625 26.703125 6.890625 
Q 35.15625 6.890625 40.078125 11.328125 
Q 45.015625 15.765625 45.015625 23.390625 
Q 45.015625 31 40.078125 35.4375 
Q 35.15625 39.890625 26.703125 39.890625 
Q 22.75 39.890625 18.8125 39.015625 
Q 14.890625 38.140625 10.796875 36.28125 
z
" id="BitstreamVeraSans-Roman-35"/>
     </defs>
     <g transform="translate(1055.808 568.63575)scale(0.144 -0.144)">
      <use xlink:href="#BitstreamVeraSans-Roman-52"/>
      <use x="69.482421875" xlink:href="#BitstreamVeraSans-Roman-4f"/>
      <use x="148.193359375" xlink:href="#BitstreamVeraSans-Roman-43"/>
      <use x="218.017578125" xlink:href="#BitstreamVeraSans-Roman-20"/>
      <use x="249.8046875" xlink:href="#BitstreamVeraSans-Roman-66"/>
      <use x="285.009765625" xlink:href="#BitstreamVeraSans-Roman-6f"/>
      <use x="346.19140625" xlink:href="#BitstreamVeraSans-Roman-6c"/>
      <use x="373.974609375" xlink:href="#BitstreamVeraSans-Roman-64"/>
      <use x="437.451171875" xlink:href="#BitstreamVeraSans-Roman-20"/>
      <use x="469.23828125" xlink:href="#BitstreamVeraSans-Roman-34"/>
      <use x="532.861328125" xlink:href="#BitstreamVeraSans-Roman-20"/>
      <use x="564.6484375" xlink:href="#BitstreamVeraSans-Roman-28"/>
      <use x="603.662109375" xlink:href="#BitstreamVeraSans-Roman-41"/>
      <use x="672.0703125" xlink:href="#BitstreamVeraSans-Roman-55"/>
      <use x="745.263671875" xlink:href="#BitstreamVeraSans-Roman-43"/>
      <use x="815.087890625" xlink:href="#BitstreamVeraSans-Roman-20"/>
      <use x="846.875" xlink:href="#BitstreamVeraSans-Roman-3d"/>
      <use x="930.6640625" xlink:href="#BitstreamVeraSans-Roman-20"/>
      <use x="962.451171875" xlink:href="#BitstreamVeraSans-Roman-30"/>
      <use x="1026.07421875" xlink:href="#BitstreamVeraSans-Roman-2e"/>
      <use x="1057.86132812" xlink:href="#BitstreamVeraSans-Roman-32"/>
      <use x="1121.484375" xlink:href="#BitstreamVeraSans-Roman-35"/>
      <use x="1185.10742188" xlink:href="#BitstreamVeraSans-Roman-29"/>
     </g>
    </g>
    <g id="line2d_42">
     <path d="M 1019.808 584.73225 
L 1039.968 584.73225 
" style="fill:none;opacity:0.8;stroke:#ff0000;stroke-dasharray:6.000000,6.000000;stroke-dashoffset:0.0;stroke-width:2.0;"/>
    </g>
    <g id="line2d_43"/>
    <g id="text_21">
     <!-- Luck -->
     <defs>
      <path d="M 9.8125 72.90625 
L 19.671875 72.90625 
L 19.671875 8.296875 
L 55.171875 8.296875 
L 55.171875 0 
L 9.8125 0 
z
" id="BitstreamVeraSans-Roman-4c"/>
      <path d="M 9.078125 75.984375 
L 18.109375 75.984375 
L 18.109375 31.109375 
L 44.921875 54.6875 
L 56.390625 54.6875 
L 27.390625 29.109375 
L 57.625 0 
L 45.90625 0 
L 18.109375 26.703125 
L 18.109375 0 
L 9.078125 0 
z
" id="BitstreamVeraSans-Roman-6b"/>
     </defs>
     <g transform="translate(1055.808 589.77225)scale(0.144 -0.144)">
      <use xlink:href="#BitstreamVeraSans-Roman-4c"/>
      <use x="55.697265625" xlink:href="#BitstreamVeraSans-Roman-75"/>
      <use x="119.076171875" xlink:href="#BitstreamVeraSans-Roman-63"/>
      <use x="174.056640625" xlink:href="#BitstreamVeraSans-Roman-6b"/>
     </g>
    </g>
    <g id="line2d_44">
     <path d="M 1019.808 605.86875 
L 1039.968 605.86875 
" style="fill:none;opacity:0.8;stroke:#0000ff;stroke-linecap:square;stroke-width:2.0;"/>
    </g>
    <g id="line2d_45"/>
    <g id="text_22">
     <!-- Mean ROC (AUC = 0.63 $\pm$ 0.21) -->
     <defs>
      <path d="M 9.8125 72.90625 
L 24.515625 72.90625 
L 43.109375 23.296875 
L 61.8125 72.90625 
L 76.515625 72.90625 
L 76.515625 0 
L 66.890625 0 
L 66.890625 64.015625 
L 48.09375 14.015625 
L 38.1875 14.015625 
L 19.390625 64.015625 
L 19.390625 0 
L 9.8125 0 
z
" id="BitstreamVeraSans-Roman-4d"/>
      <path d="M 7.515625 0 
Q 6.6875 0 6.140625 0.578125 
Q 5.609375 1.171875 5.609375 2 
Q 5.609375 2.734375 6.140625 3.359375 
Q 6.6875 4 7.515625 4 
L 36.921875 4 
L 36.921875 31.296875 
L 7.515625 31.296875 
Q 6.6875 31.296875 6.140625 31.921875 
Q 5.609375 32.5625 5.609375 33.296875 
Q 5.609375 34.03125 6.140625 34.65625 
Q 6.6875 35.296875 7.515625 35.296875 
L 36.921875 35.296875 
L 36.921875 64.796875 
Q 36.921875 65.578125 37.5 66.09375 
Q 38.09375 66.609375 38.921875 66.609375 
Q 39.59375 66.609375 40.25 66.09375 
Q 40.921875 65.578125 40.921875 64.796875 
L 40.921875 35.296875 
L 70.3125 35.296875 
Q 71.046875 35.296875 71.578125 34.65625 
Q 72.125 34.03125 72.125 33.296875 
Q 72.125 32.5625 71.578125 31.921875 
Q 71.046875 31.296875 70.3125 31.296875 
L 40.921875 31.296875 
L 40.921875 4 
L 70.3125 4 
Q 71.046875 4 71.578125 3.359375 
Q 72.125 2.734375 72.125 2 
Q 72.125 1.171875 71.578125 0.578125 
Q 71.046875 0 70.3125 0 
z
" id="Cmsy10-a7"/>
     </defs>
     <g transform="translate(1055.808 610.90875)scale(0.144 -0.144)">
      <use transform="translate(0.0 0.125)" xlink:href="#BitstreamVeraSans-Roman-4d"/>
      <use transform="translate(86.279296875 0.125)" xlink:href="#BitstreamVeraSans-Roman-65"/>
      <use transform="translate(147.802734375 0.125)" xlink:href="#BitstreamVeraSans-Roman-61"/>
      <use transform="translate(209.08203125 0.125)" xlink:href="#BitstreamVeraSans-Roman-6e"/>
      <use transform="translate(272.4609375 0.125)" xlink:href="#BitstreamVeraSans-Roman-20"/>
      <use transform="translate(304.248046875 0.125)" xlink:href="#BitstreamVeraSans-Roman-52"/>
      <use transform="translate(373.73046875 0.125)" xlink:href="#BitstreamVeraSans-Roman-4f"/>
      <use transform="translate(452.44140625 0.125)" xlink:href="#BitstreamVeraSans-Roman-43"/>
      <use transform="translate(522.265625 0.125)" xlink:href="#BitstreamVeraSans-Roman-20"/>
      <use transform="translate(554.052734375 0.125)" xlink:href="#BitstreamVeraSans-Roman-28"/>
      <use transform="translate(593.06640625 0.125)" xlink:href="#BitstreamVeraSans-Roman-41"/>
      <use transform="translate(661.474609375 0.125)" xlink:href="#BitstreamVeraSans-Roman-55"/>
      <use transform="translate(734.66796875 0.125)" xlink:href="#BitstreamVeraSans-Roman-43"/>
      <use transform="translate(804.4921875 0.125)" xlink:href="#BitstreamVeraSans-Roman-20"/>
      <use transform="translate(836.279296875 0.125)" xlink:href="#BitstreamVeraSans-Roman-3d"/>
      <use transform="translate(920.068359375 0.125)" xlink:href="#BitstreamVeraSans-Roman-20"/>
      <use transform="translate(951.85546875 0.125)" xlink:href="#BitstreamVeraSans-Roman-30"/>
      <use transform="translate(1015.47851562 0.125)" xlink:href="#BitstreamVeraSans-Roman-2e"/>
      <use transform="translate(1047.265625 0.125)" xlink:href="#BitstreamVeraSans-Roman-36"/>
      <use transform="translate(1110.88867188 0.125)" xlink:href="#BitstreamVeraSans-Roman-33"/>
      <use transform="translate(1174.51171875 0.125)" xlink:href="#BitstreamVeraSans-Roman-20"/>
      <use transform="translate(1206.29882812 0.125)" xlink:href="#Cmsy10-a7"/>
      <use transform="translate(1283.984375 0.125)" xlink:href="#BitstreamVeraSans-Roman-20"/>
      <use transform="translate(1315.77148438 0.125)" xlink:href="#BitstreamVeraSans-Roman-30"/>
      <use transform="translate(1379.39453125 0.125)" xlink:href="#BitstreamVeraSans-Roman-2e"/>
      <use transform="translate(1411.10351562 0.125)" xlink:href="#BitstreamVeraSans-Roman-32"/>
      <use transform="translate(1474.7265625 0.125)" xlink:href="#BitstreamVeraSans-Roman-31"/>
      <use transform="translate(1538.34960938 0.125)" xlink:href="#BitstreamVeraSans-Roman-29"/>
     </g>
    </g>
    <g id="patch_8">
     <path d="M 1015.488 632.04525 
L 1044.288 632.04525 
L 1044.288 621.96525 
L 1015.488 621.96525 
z
" style="fill:#808080;opacity:0.2;stroke:#808080;stroke-linejoin:miter;"/>
    </g>
    <g id="text_23">
     <!-- $\pm$ 1 std. dev. -->
     <g transform="translate(1055.808 632.04525)scale(0.144 -0.144)">
      <use transform="translate(0.0 0.015625)" xlink:href="#Cmsy10-a7"/>
      <use transform="translate(77.685546875 0.015625)" xlink:href="#BitstreamVeraSans-Roman-20"/>
      <use transform="translate(109.47265625 0.015625)" xlink:href="#BitstreamVeraSans-Roman-31"/>
      <use transform="translate(173.095703125 0.015625)" xlink:href="#BitstreamVeraSans-Roman-20"/>
      <use transform="translate(204.8828125 0.015625)" xlink:href="#BitstreamVeraSans-Roman-73"/>
      <use transform="translate(256.982421875 0.015625)" xlink:href="#BitstreamVeraSans-Roman-74"/>
      <use transform="translate(296.19140625 0.015625)" xlink:href="#BitstreamVeraSans-Roman-64"/>
      <use transform="translate(359.66796875 0.015625)" xlink:href="#BitstreamVeraSans-Roman-2e"/>
      <use transform="translate(391.455078125 0.015625)" xlink:href="#BitstreamVeraSans-Roman-20"/>
      <use transform="translate(423.2421875 0.015625)" xlink:href="#BitstreamVeraSans-Roman-64"/>
      <use transform="translate(486.71875 0.015625)" xlink:href="#BitstreamVeraSans-Roman-65"/>
      <use transform="translate(548.2421875 0.015625)" xlink:href="#BitstreamVeraSans-Roman-76"/>
      <use transform="translate(607.421875 0.015625)" xlink:href="#BitstreamVeraSans-Roman-2e"/>
     </g>
    </g>
   </g>
  </g>
 </g>
 <defs>
  <clipPath id="pacbae4bc64">
   <rect height="576.0" width="1116.0" x="180.0" y="72.0"/>
  </clipPath>
 </defs>
</svg>
