<?xml version="1.0" encoding="utf-8" standalone="no"?>
<!DOCTYPE svg PUBLIC "-//W3C//DTD SVG 1.1//EN"
  "http://www.w3.org/Graphics/SVG/1.1/DTD/svg11.dtd">
<!-- Created with matplotlib (http://matplotlib.org/) -->
<svg height="432pt" version="1.1" viewBox="0 0 576 432" width="576pt" xmlns="http://www.w3.org/2000/svg" xmlns:xlink="http://www.w3.org/1999/xlink">
 <defs>
  <style type="text/css">
*{stroke-linecap:butt;stroke-linejoin:round;stroke-miterlimit:100000;}
  </style>
 </defs>
 <g id="figure_1">
  <g id="patch_1">
   <path d="M 0 432 
L 576 432 
L 576 0 
L 0 0 
z
" style="fill:#ffffff;"/>
  </g>
  <g id="axes_1">
   <g id="patch_2">
    <path d="M 72 388.8 
L 518.4 388.8 
L 518.4 43.2 
L 72 43.2 
z
" style="fill:#ffffff;"/>
   </g>
   <g id="line2d_1">
    <path clip-path="url(#p65769cd669)" d="M 122.441628 214.56 
L 122.85062 215.276987 
L 123.207909 214.547899 
L 123.247881 213.812658 
L 125.785798 213.071186 
L 126.226853 212.323404 
L 127.157359 213.046154 
L 128.032045 211.531034 
L 128.931486 211.492174 
L 129.669996 209.936842 
L 130.821709 209.148899 
L 131.336807 208.353982 
L 132.019656 206.742857 
L 132.217964 205.926457 
L 132.881275 205.102703 
L 133.081521 205.835294 
L 133.433546 205.003636 
L 134.023824 204.164384 
L 134.030088 203.317431 
L 134.379967 202.462673 
L 135.273741 201.6 
L 136.797363 200.729302 
L 137.653268 199.850467 
L 138.254382 198.96338 
L 138.622138 198.067925 
L 138.847708 197.163981 
L 139.407831 196.983732 
L 140.040045 196.061538 
L 140.927551 195.130435 
L 142.440941 194.190291 
L 142.482234 193.240976 
L 142.809742 192.282353 
L 142.893307 191.314286 
L 142.934925 192.047525 
L 143.130811 192.78806 
L 143.598711 191.808 
L 143.654721 190.81809 
L 144.204009 189.818182 
L 144.60348 188.808122 
L 144.764898 187.787755 
L 144.786418 186.756923 
L 145.941546 187.496907 
L 145.941969 186.453886 
L 146.17813 187.953927 
L 146.783118 186.896842 
L 147.197145 187.657143 
L 147.332711 188.425532 
L 147.734821 189.202139 
L 147.955132 189.987097 
L 148.183421 187.826087 
L 148.471523 186.727869 
L 148.631116 184.495028 
L 149.0191 183.36 
L 150.69494 182.212291 
L 151.838571 181.051685 
L 151.933748 179.877966 
L 152.241973 178.690909 
L 153.869953 177.490286 
L 155.888775 176.275862 
L 156.789296 175.047399 
L 157.293135 172.547368 
L 158.146842 172.033136 
L 158.373175 170.742857 
L 159.713534 169.437126 
L 159.986277 168.115663 
L 160.006983 168.872727 
L 161.883402 167.531707 
L 164.05064 164.8 
L 165.35385 165.55528 
L 165.623835 166.32 
L 166.36357 167.09434 
L 166.384951 167.878481 
L 166.654696 168.672611 
L 167.419559 169.476923 
L 167.848363 170.291613 
L 168.090195 171.116883 
L 169.270707 169.694118 
L 170.134023 168.252632 
L 171.268785 166.792053 
L 171.271546 167.616 
L 171.397962 168.451007 
L 171.510244 166.962162 
L 172.619386 165.453061 
L 173.642584 166.290411 
L 175.164038 163.2 
L 176.394169 161.622378 
L 176.607467 162.456338 
L 178.768853 164.16 
L 178.867354 165.030216 
L 179.342912 161.763504 
L 180.023407 162.635294 
L 180.269572 160.96 
L 181.740633 161.838806 
L 183.251776 160.132331 
L 186.423186 161.018182 
L 186.622858 159.279389 
L 186.701564 157.513846 
L 187.345344 155.72093 
L 187.612833 153.9 
L 189.383796 152.050394 
L 190.14666 152.914286 
L 194.153081 151.0272 
L 196.574778 152.780488 
L 197.36603 153.678689 
L 197.778141 154.591736 
L 197.884427 152.64 
L 199.114754 150.655462 
L 201.72257 148.637288 
L 203.193982 149.538462 
L 203.424875 150.455172 
L 207.28112 151.387826 
L 209.901056 152.336842 
L 213.032672 150.244248 
L 214.627642 148.114286 
L 214.836169 145.945946 
L 215.453212 143.738182 
L 216.636589 141.489908 
L 218.321894 139.2 
L 218.876947 136.86729 
L 220.21392 134.490566 
L 223.598712 132.068571 
L 223.870468 132.923077 
L 226.311797 130.438835 
L 228.083019 127.905882 
L 232.411847 125.322772 
L 233.730994 122.688 
L 237.238488 123.490909 
L 239.666761 124.310204 
L 244.896517 121.583505 
L 245.663251 122.4 
L 249.253012 123.233684 
L 250.095804 124.085106 
L 250.4696 125.843478 
L 252.584167 122.953846 
L 253.097431 123.84 
L 253.377751 124.746067 
L 254.152787 121.745455 
L 259.970675 122.648276 
L 260.270729 123.572093 
L 262.879228 120.451765 
L 263.337898 121.371429 
L 264.475822 118.149398 
L 267.127149 119.063415 
L 270.826571 120 
L 272.040338 116.64 
L 273.951251 113.194937 
L 274.217881 109.661538 
L 275.341079 110.524675 
L 276.007867 111.410526 
L 277.277976 107.712 
L 283.360288 103.913514 
L 285.039491 100.010959 
L 286.869316 100.8 
L 288.201254 96.743662 
L 292.695445 98.295652 
L 292.714385 94.023529 
L 294.415764 94.78209 
L 295.75027 95.563636 
L 295.923595 96.369231 
L 301.73579 97.2 
L 302.39158 98.057143 
L 308.848265 99.855738 
L 309.512997 100.8 
L 309.576904 101.776271 
L 311.190782 102.786207 
L 320.409379 98.742857 
L 323.156143 93.469091 
L 325.383046 88 
L 325.616222 88.845283 
L 326.400669 89.723077 
L 328.253939 90.635294 
L 331.483819 84.672 
L 331.556204 85.518367 
L 334.638773 79.2 
L 335.689259 79.965957 
L 337.97161 80.765217 
L 339.77569 81.6 
L 341.321034 82.472727 
L 343.244136 75.348837 
L 347.436315 76.114286 
L 349.365821 76.917073 
L 350.01125 77.76 
L 351.829016 78.646154 
L 354.894599 80.562162 
L 361.602622 81.6 
L 361.751717 72.822857 
L 362.425239 63.529412 
L 366.745088 64.8 
L 369.046449 65.496774 
L 370.46319 66.24 
L 372.156531 55.117241 
L 374.535222 55.542857 
L 381.794661 56 
L 383.889792 56.492308 
L 386.070981 57.6 
L 386.25124 58.226087 
L 386.299361 58.909091 
L 388.940303 59.657143 
L 390.061559 60.48 
L 390.491018 61.389474 
L 393.792504 63.529412 
L 395.041903 64.8 
L 395.620811 66.24 
L 397.755611 43.2 
L 509.333351 43.2 
L 509.333351 43.2 
" style="fill:none;stroke:#ff0000;stroke-linecap:square;stroke-width:5.0;"/>
   </g>
   <g id="line2d_2">
    <path clip-path="url(#p65769cd669)" d="M 122.441628 43.2 
L 122.85062 46.056198 
L 126.226853 46.056198 
L 127.157359 48.912397 
L 128.032045 48.912397 
L 128.931486 51.768595 
L 132.881275 51.768595 
L 133.081521 54.624793 
L 138.847708 54.624793 
L 139.407831 57.480992 
L 142.893307 57.480992 
L 142.934925 60.33719 
L 143.130811 63.193388 
L 144.786418 63.193388 
L 145.941969 66.049587 
L 146.17813 71.761983 
L 146.783118 71.761983 
L 147.197145 74.618182 
L 147.332711 77.47438 
L 147.734821 80.330579 
L 147.955132 83.186777 
L 157.293135 83.186777 
L 158.146842 86.042975 
L 159.986277 86.042975 
L 160.006983 88.899174 
L 164.05064 88.899174 
L 165.35385 91.755372 
L 165.623835 94.61157 
L 166.36357 97.467769 
L 166.384951 100.323967 
L 166.654696 103.180165 
L 167.419559 106.036364 
L 167.848363 108.892562 
L 168.090195 111.74876 
L 171.268785 111.74876 
L 171.271546 114.604959 
L 171.397962 117.461157 
L 172.619386 117.461157 
L 173.642584 120.317355 
L 176.394169 120.317355 
L 176.607467 123.173554 
L 178.768853 128.88595 
L 178.867354 131.742149 
L 179.342912 131.742149 
L 180.023407 134.598347 
L 180.269572 134.598347 
L 181.740633 137.454545 
L 183.251776 137.454545 
L 186.423186 140.310744 
L 189.383796 140.310744 
L 190.14666 143.166942 
L 194.153081 143.166942 
L 195.303988 146.02314 
L 196.574778 148.879339 
L 197.36603 151.735537 
L 197.884427 154.591736 
L 201.72257 154.591736 
L 203.193982 157.447934 
L 203.424875 160.304132 
L 207.28112 163.160331 
L 209.901056 166.016529 
L 223.598712 166.016529 
L 223.870468 168.872727 
L 233.730994 168.872727 
L 237.238488 171.728926 
L 239.666761 174.585124 
L 244.896517 174.585124 
L 245.663251 177.441322 
L 249.253012 180.297521 
L 250.095804 183.153719 
L 250.4696 188.866116 
L 252.584167 188.866116 
L 253.097431 191.722314 
L 253.377751 194.578512 
L 254.152787 194.578512 
L 259.970675 197.434711 
L 260.270729 200.290909 
L 262.879228 200.290909 
L 263.337898 203.147107 
L 264.475822 203.147107 
L 267.127149 206.003306 
L 270.826571 208.859504 
L 274.217881 208.859504 
L 275.341079 211.715702 
L 276.007867 214.571901 
L 285.039491 214.571901 
L 286.869316 217.428099 
L 288.201254 217.428099 
L 292.714385 223.140496 
L 294.415764 225.996694 
L 295.75027 228.852893 
L 295.923595 231.709091 
L 301.73579 234.565289 
L 302.39158 237.421488 
L 305.525711 240.277686 
L 308.848265 243.133884 
L 309.512997 245.990083 
L 309.576904 248.846281 
L 311.190782 251.702479 
L 320.409379 254.558678 
L 325.383046 254.558678 
L 325.616222 257.414876 
L 326.400669 260.271074 
L 328.253939 263.127273 
L 331.483819 263.127273 
L 331.556204 265.983471 
L 334.638773 265.983471 
L 335.689259 268.839669 
L 337.97161 271.695868 
L 339.77569 274.552066 
L 341.321034 277.408264 
L 343.244136 277.408264 
L 347.436315 280.264463 
L 349.365821 283.120661 
L 350.01125 285.97686 
L 351.829016 288.833058 
L 354.894599 294.545455 
L 361.751717 297.401653 
L 362.425239 297.401653 
L 364.684898 300.257851 
L 366.745088 303.11405 
L 369.046449 305.970248 
L 370.46319 308.826446 
L 372.156531 308.826446 
L 374.535222 311.682645 
L 381.794661 314.538843 
L 383.889792 317.395041 
L 384.905593 320.25124 
L 386.070981 323.107438 
L 386.25124 325.963636 
L 386.299361 328.819835 
L 388.940303 331.676033 
L 390.061559 334.532231 
L 390.491018 337.38843 
L 393.792504 343.100826 
L 395.041903 345.957025 
L 395.620811 348.813223 
L 397.755611 348.813223 
L 402.932354 351.669421 
L 407.411049 354.52562 
L 420.325267 357.381818 
L 422.216563 360.238017 
L 422.453257 363.094215 
L 434.16516 365.950413 
L 434.518859 368.806612 
L 457.03135 371.66281 
L 467.601389 374.519008 
L 491.158225 377.375207 
L 497.270762 380.231405 
L 500.798357 383.087603 
L 509.333351 385.943802 
L 509.333351 385.943802 
" style="fill:none;stroke:#0000ff;stroke-linecap:square;stroke-width:5.0;"/>
   </g>
   <g id="patch_3">
    <path d="M 72 43.2 
L 518.4 43.2 
" style="fill:none;stroke:#000000;stroke-linecap:square;stroke-linejoin:miter;"/>
   </g>
   <g id="patch_4">
    <path d="M 518.4 388.8 
L 518.4 43.2 
" style="fill:none;stroke:#000000;stroke-linecap:square;stroke-linejoin:miter;"/>
   </g>
   <g id="patch_5">
    <path d="M 72 388.8 
L 518.4 388.8 
" style="fill:none;stroke:#000000;stroke-linecap:square;stroke-linejoin:miter;"/>
   </g>
   <g id="patch_6">
    <path d="M 72 388.8 
L 72 43.2 
" style="fill:none;stroke:#000000;stroke-linecap:square;stroke-linejoin:miter;"/>
   </g>
   <g id="matplotlib.axis_1">
    <g id="xtick_1">
     <g id="line2d_3">
      <defs>
       <path d="M 0 0 
L 0 -4 
" id="m3280884898" style="stroke:#000000;stroke-width:0.5;"/>
      </defs>
      <g>
       <use style="stroke:#000000;stroke-width:0.5;" x="72.0" xlink:href="#m3280884898" y="388.8"/>
      </g>
     </g>
     <g id="line2d_4">
      <defs>
       <path d="M 0 0 
L 0 4 
" id="m090076cdfa" style="stroke:#000000;stroke-width:0.5;"/>
      </defs>
      <g>
       <use style="stroke:#000000;stroke-width:0.5;" x="72.0" xlink:href="#m090076cdfa" y="43.2"/>
      </g>
     </g>
     <g id="text_1">
      <!-- 0.35 -->
      <defs>
       <path d="M 40.578125 39.3125 
Q 47.65625 37.796875 51.625 33 
Q 55.609375 28.21875 55.609375 21.1875 
Q 55.609375 10.40625 48.1875 4.484375 
Q 40.765625 -1.421875 27.09375 -1.421875 
Q 22.515625 -1.421875 17.65625 -0.515625 
Q 12.796875 0.390625 7.625 2.203125 
L 7.625 11.71875 
Q 11.71875 9.328125 16.59375 8.109375 
Q 21.484375 6.890625 26.8125 6.890625 
Q 36.078125 6.890625 40.9375 10.546875 
Q 45.796875 14.203125 45.796875 21.1875 
Q 45.796875 27.640625 41.28125 31.265625 
Q 36.765625 34.90625 28.71875 34.90625 
L 20.21875 34.90625 
L 20.21875 43.015625 
L 29.109375 43.015625 
Q 36.375 43.015625 40.234375 45.921875 
Q 44.09375 48.828125 44.09375 54.296875 
Q 44.09375 59.90625 40.109375 62.90625 
Q 36.140625 65.921875 28.71875 65.921875 
Q 24.65625 65.921875 20.015625 65.03125 
Q 15.375 64.15625 9.8125 62.3125 
L 9.8125 71.09375 
Q 15.4375 72.65625 20.34375 73.4375 
Q 25.25 74.21875 29.59375 74.21875 
Q 40.828125 74.21875 47.359375 69.109375 
Q 53.90625 64.015625 53.90625 55.328125 
Q 53.90625 49.265625 50.4375 45.09375 
Q 46.96875 40.921875 40.578125 39.3125 
" id="BitstreamVeraSans-Roman-33"/>
       <path d="M 31.78125 66.40625 
Q 24.171875 66.40625 20.328125 58.90625 
Q 16.5 51.421875 16.5 36.375 
Q 16.5 21.390625 20.328125 13.890625 
Q 24.171875 6.390625 31.78125 6.390625 
Q 39.453125 6.390625 43.28125 13.890625 
Q 47.125 21.390625 47.125 36.375 
Q 47.125 51.421875 43.28125 58.90625 
Q 39.453125 66.40625 31.78125 66.40625 
M 31.78125 74.21875 
Q 44.046875 74.21875 50.515625 64.515625 
Q 56.984375 54.828125 56.984375 36.375 
Q 56.984375 17.96875 50.515625 8.265625 
Q 44.046875 -1.421875 31.78125 -1.421875 
Q 19.53125 -1.421875 13.0625 8.265625 
Q 6.59375 17.96875 6.59375 36.375 
Q 6.59375 54.828125 13.0625 64.515625 
Q 19.53125 74.21875 31.78125 74.21875 
" id="BitstreamVeraSans-Roman-30"/>
       <path d="M 10.6875 12.40625 
L 21 12.40625 
L 21 0 
L 10.6875 0 
z
" id="BitstreamVeraSans-Roman-2e"/>
       <path d="M 10.796875 72.90625 
L 49.515625 72.90625 
L 49.515625 64.59375 
L 19.828125 64.59375 
L 19.828125 46.734375 
Q 21.96875 47.46875 24.109375 47.828125 
Q 26.265625 48.1875 28.421875 48.1875 
Q 40.625 48.1875 47.75 41.5 
Q 54.890625 34.8125 54.890625 23.390625 
Q 54.890625 11.625 47.5625 5.09375 
Q 40.234375 -1.421875 26.90625 -1.421875 
Q 22.3125 -1.421875 17.546875 -0.640625 
Q 12.796875 0.140625 7.71875 1.703125 
L 7.71875 11.625 
Q 12.109375 9.234375 16.796875 8.0625 
Q 21.484375 6.890625 26.703125 6.890625 
Q 35.15625 6.890625 40.078125 11.328125 
Q 45.015625 15.765625 45.015625 23.390625 
Q 45.015625 31 40.078125 35.4375 
Q 35.15625 39.890625 26.703125 39.890625 
Q 22.75 39.890625 18.8125 39.015625 
Q 14.890625 38.140625 10.796875 36.28125 
z
" id="BitstreamVeraSans-Roman-35"/>
      </defs>
      <g transform="translate(58.640625 401.918125)scale(0.12 -0.12)">
       <use xlink:href="#BitstreamVeraSans-Roman-30"/>
       <use x="63.623046875" xlink:href="#BitstreamVeraSans-Roman-2e"/>
       <use x="95.41015625" xlink:href="#BitstreamVeraSans-Roman-33"/>
       <use x="159.033203125" xlink:href="#BitstreamVeraSans-Roman-35"/>
      </g>
     </g>
    </g>
    <g id="xtick_2">
     <g id="line2d_5">
      <g>
       <use style="stroke:#000000;stroke-width:0.5;" x="135.771428571" xlink:href="#m3280884898" y="388.8"/>
      </g>
     </g>
     <g id="line2d_6">
      <g>
       <use style="stroke:#000000;stroke-width:0.5;" x="135.771428571" xlink:href="#m090076cdfa" y="43.2"/>
      </g>
     </g>
     <g id="text_2">
      <!-- 0.40 -->
      <defs>
       <path d="M 37.796875 64.3125 
L 12.890625 25.390625 
L 37.796875 25.390625 
z
M 35.203125 72.90625 
L 47.609375 72.90625 
L 47.609375 25.390625 
L 58.015625 25.390625 
L 58.015625 17.1875 
L 47.609375 17.1875 
L 47.609375 0 
L 37.796875 0 
L 37.796875 17.1875 
L 4.890625 17.1875 
L 4.890625 26.703125 
z
" id="BitstreamVeraSans-Roman-34"/>
      </defs>
      <g transform="translate(122.412053571 401.918125)scale(0.12 -0.12)">
       <use xlink:href="#BitstreamVeraSans-Roman-30"/>
       <use x="63.623046875" xlink:href="#BitstreamVeraSans-Roman-2e"/>
       <use x="95.41015625" xlink:href="#BitstreamVeraSans-Roman-34"/>
       <use x="159.033203125" xlink:href="#BitstreamVeraSans-Roman-30"/>
      </g>
     </g>
    </g>
    <g id="xtick_3">
     <g id="line2d_7">
      <g>
       <use style="stroke:#000000;stroke-width:0.5;" x="199.542857143" xlink:href="#m3280884898" y="388.8"/>
      </g>
     </g>
     <g id="line2d_8">
      <g>
       <use style="stroke:#000000;stroke-width:0.5;" x="199.542857143" xlink:href="#m090076cdfa" y="43.2"/>
      </g>
     </g>
     <g id="text_3">
      <!-- 0.45 -->
      <g transform="translate(186.183482143 401.918125)scale(0.12 -0.12)">
       <use xlink:href="#BitstreamVeraSans-Roman-30"/>
       <use x="63.623046875" xlink:href="#BitstreamVeraSans-Roman-2e"/>
       <use x="95.41015625" xlink:href="#BitstreamVeraSans-Roman-34"/>
       <use x="159.033203125" xlink:href="#BitstreamVeraSans-Roman-35"/>
      </g>
     </g>
    </g>
    <g id="xtick_4">
     <g id="line2d_9">
      <g>
       <use style="stroke:#000000;stroke-width:0.5;" x="263.314285714" xlink:href="#m3280884898" y="388.8"/>
      </g>
     </g>
     <g id="line2d_10">
      <g>
       <use style="stroke:#000000;stroke-width:0.5;" x="263.314285714" xlink:href="#m090076cdfa" y="43.2"/>
      </g>
     </g>
     <g id="text_4">
      <!-- 0.50 -->
      <g transform="translate(249.954910714 401.918125)scale(0.12 -0.12)">
       <use xlink:href="#BitstreamVeraSans-Roman-30"/>
       <use x="63.623046875" xlink:href="#BitstreamVeraSans-Roman-2e"/>
       <use x="95.41015625" xlink:href="#BitstreamVeraSans-Roman-35"/>
       <use x="159.033203125" xlink:href="#BitstreamVeraSans-Roman-30"/>
      </g>
     </g>
    </g>
    <g id="xtick_5">
     <g id="line2d_11">
      <g>
       <use style="stroke:#000000;stroke-width:0.5;" x="327.085714286" xlink:href="#m3280884898" y="388.8"/>
      </g>
     </g>
     <g id="line2d_12">
      <g>
       <use style="stroke:#000000;stroke-width:0.5;" x="327.085714286" xlink:href="#m090076cdfa" y="43.2"/>
      </g>
     </g>
     <g id="text_5">
      <!-- 0.55 -->
      <g transform="translate(313.726339286 401.918125)scale(0.12 -0.12)">
       <use xlink:href="#BitstreamVeraSans-Roman-30"/>
       <use x="63.623046875" xlink:href="#BitstreamVeraSans-Roman-2e"/>
       <use x="95.41015625" xlink:href="#BitstreamVeraSans-Roman-35"/>
       <use x="159.033203125" xlink:href="#BitstreamVeraSans-Roman-35"/>
      </g>
     </g>
    </g>
    <g id="xtick_6">
     <g id="line2d_13">
      <g>
       <use style="stroke:#000000;stroke-width:0.5;" x="390.857142857" xlink:href="#m3280884898" y="388.8"/>
      </g>
     </g>
     <g id="line2d_14">
      <g>
       <use style="stroke:#000000;stroke-width:0.5;" x="390.857142857" xlink:href="#m090076cdfa" y="43.2"/>
      </g>
     </g>
     <g id="text_6">
      <!-- 0.60 -->
      <defs>
       <path d="M 33.015625 40.375 
Q 26.375 40.375 22.484375 35.828125 
Q 18.609375 31.296875 18.609375 23.390625 
Q 18.609375 15.53125 22.484375 10.953125 
Q 26.375 6.390625 33.015625 6.390625 
Q 39.65625 6.390625 43.53125 10.953125 
Q 47.40625 15.53125 47.40625 23.390625 
Q 47.40625 31.296875 43.53125 35.828125 
Q 39.65625 40.375 33.015625 40.375 
M 52.59375 71.296875 
L 52.59375 62.3125 
Q 48.875 64.0625 45.09375 64.984375 
Q 41.3125 65.921875 37.59375 65.921875 
Q 27.828125 65.921875 22.671875 59.328125 
Q 17.53125 52.734375 16.796875 39.40625 
Q 19.671875 43.65625 24.015625 45.921875 
Q 28.375 48.1875 33.59375 48.1875 
Q 44.578125 48.1875 50.953125 41.515625 
Q 57.328125 34.859375 57.328125 23.390625 
Q 57.328125 12.15625 50.6875 5.359375 
Q 44.046875 -1.421875 33.015625 -1.421875 
Q 20.359375 -1.421875 13.671875 8.265625 
Q 6.984375 17.96875 6.984375 36.375 
Q 6.984375 53.65625 15.1875 63.9375 
Q 23.390625 74.21875 37.203125 74.21875 
Q 40.921875 74.21875 44.703125 73.484375 
Q 48.484375 72.75 52.59375 71.296875 
" id="BitstreamVeraSans-Roman-36"/>
      </defs>
      <g transform="translate(377.497767857 401.918125)scale(0.12 -0.12)">
       <use xlink:href="#BitstreamVeraSans-Roman-30"/>
       <use x="63.623046875" xlink:href="#BitstreamVeraSans-Roman-2e"/>
       <use x="95.41015625" xlink:href="#BitstreamVeraSans-Roman-36"/>
       <use x="159.033203125" xlink:href="#BitstreamVeraSans-Roman-30"/>
      </g>
     </g>
    </g>
    <g id="xtick_7">
     <g id="line2d_15">
      <g>
       <use style="stroke:#000000;stroke-width:0.5;" x="454.628571429" xlink:href="#m3280884898" y="388.8"/>
      </g>
     </g>
     <g id="line2d_16">
      <g>
       <use style="stroke:#000000;stroke-width:0.5;" x="454.628571429" xlink:href="#m090076cdfa" y="43.2"/>
      </g>
     </g>
     <g id="text_7">
      <!-- 0.65 -->
      <g transform="translate(441.269196429 401.918125)scale(0.12 -0.12)">
       <use xlink:href="#BitstreamVeraSans-Roman-30"/>
       <use x="63.623046875" xlink:href="#BitstreamVeraSans-Roman-2e"/>
       <use x="95.41015625" xlink:href="#BitstreamVeraSans-Roman-36"/>
       <use x="159.033203125" xlink:href="#BitstreamVeraSans-Roman-35"/>
      </g>
     </g>
    </g>
    <g id="xtick_8">
     <g id="line2d_17">
      <g>
       <use style="stroke:#000000;stroke-width:0.5;" x="518.4" xlink:href="#m3280884898" y="388.8"/>
      </g>
     </g>
     <g id="line2d_18">
      <g>
       <use style="stroke:#000000;stroke-width:0.5;" x="518.4" xlink:href="#m090076cdfa" y="43.2"/>
      </g>
     </g>
     <g id="text_8">
      <!-- 0.70 -->
      <defs>
       <path d="M 8.203125 72.90625 
L 55.078125 72.90625 
L 55.078125 68.703125 
L 28.609375 0 
L 18.3125 0 
L 43.21875 64.59375 
L 8.203125 64.59375 
z
" id="BitstreamVeraSans-Roman-37"/>
      </defs>
      <g transform="translate(505.040625 401.918125)scale(0.12 -0.12)">
       <use xlink:href="#BitstreamVeraSans-Roman-30"/>
       <use x="63.623046875" xlink:href="#BitstreamVeraSans-Roman-2e"/>
       <use x="95.41015625" xlink:href="#BitstreamVeraSans-Roman-37"/>
       <use x="159.033203125" xlink:href="#BitstreamVeraSans-Roman-30"/>
      </g>
     </g>
    </g>
    <g id="text_9">
     <!-- threshold -->
     <defs>
      <path d="M 30.609375 48.390625 
Q 23.390625 48.390625 19.1875 42.75 
Q 14.984375 37.109375 14.984375 27.296875 
Q 14.984375 17.484375 19.15625 11.84375 
Q 23.34375 6.203125 30.609375 6.203125 
Q 37.796875 6.203125 41.984375 11.859375 
Q 46.1875 17.53125 46.1875 27.296875 
Q 46.1875 37.015625 41.984375 42.703125 
Q 37.796875 48.390625 30.609375 48.390625 
M 30.609375 56 
Q 42.328125 56 49.015625 48.375 
Q 55.71875 40.765625 55.71875 27.296875 
Q 55.71875 13.875 49.015625 6.21875 
Q 42.328125 -1.421875 30.609375 -1.421875 
Q 18.84375 -1.421875 12.171875 6.21875 
Q 5.515625 13.875 5.515625 27.296875 
Q 5.515625 40.765625 12.171875 48.375 
Q 18.84375 56 30.609375 56 
" id="BitstreamVeraSans-Roman-6f"/>
      <path d="M 9.421875 75.984375 
L 18.40625 75.984375 
L 18.40625 0 
L 9.421875 0 
z
" id="BitstreamVeraSans-Roman-6c"/>
      <path d="M 54.890625 33.015625 
L 54.890625 0 
L 45.90625 0 
L 45.90625 32.71875 
Q 45.90625 40.484375 42.875 44.328125 
Q 39.84375 48.1875 33.796875 48.1875 
Q 26.515625 48.1875 22.3125 43.546875 
Q 18.109375 38.921875 18.109375 30.90625 
L 18.109375 0 
L 9.078125 0 
L 9.078125 75.984375 
L 18.109375 75.984375 
L 18.109375 46.1875 
Q 21.34375 51.125 25.703125 53.5625 
Q 30.078125 56 35.796875 56 
Q 45.21875 56 50.046875 50.171875 
Q 54.890625 44.34375 54.890625 33.015625 
" id="BitstreamVeraSans-Roman-68"/>
      <path d="M 56.203125 29.59375 
L 56.203125 25.203125 
L 14.890625 25.203125 
Q 15.484375 15.921875 20.484375 11.0625 
Q 25.484375 6.203125 34.421875 6.203125 
Q 39.59375 6.203125 44.453125 7.46875 
Q 49.3125 8.734375 54.109375 11.28125 
L 54.109375 2.78125 
Q 49.265625 0.734375 44.1875 -0.34375 
Q 39.109375 -1.421875 33.890625 -1.421875 
Q 20.796875 -1.421875 13.15625 6.1875 
Q 5.515625 13.8125 5.515625 26.8125 
Q 5.515625 40.234375 12.765625 48.109375 
Q 20.015625 56 32.328125 56 
Q 43.359375 56 49.78125 48.890625 
Q 56.203125 41.796875 56.203125 29.59375 
M 47.21875 32.234375 
Q 47.125 39.59375 43.09375 43.984375 
Q 39.0625 48.390625 32.421875 48.390625 
Q 24.90625 48.390625 20.390625 44.140625 
Q 15.875 39.890625 15.1875 32.171875 
z
" id="BitstreamVeraSans-Roman-65"/>
      <path d="M 45.40625 46.390625 
L 45.40625 75.984375 
L 54.390625 75.984375 
L 54.390625 0 
L 45.40625 0 
L 45.40625 8.203125 
Q 42.578125 3.328125 38.25 0.953125 
Q 33.9375 -1.421875 27.875 -1.421875 
Q 17.96875 -1.421875 11.734375 6.484375 
Q 5.515625 14.40625 5.515625 27.296875 
Q 5.515625 40.1875 11.734375 48.09375 
Q 17.96875 56 27.875 56 
Q 33.9375 56 38.25 53.625 
Q 42.578125 51.265625 45.40625 46.390625 
M 14.796875 27.296875 
Q 14.796875 17.390625 18.875 11.75 
Q 22.953125 6.109375 30.078125 6.109375 
Q 37.203125 6.109375 41.296875 11.75 
Q 45.40625 17.390625 45.40625 27.296875 
Q 45.40625 37.203125 41.296875 42.84375 
Q 37.203125 48.484375 30.078125 48.484375 
Q 22.953125 48.484375 18.875 42.84375 
Q 14.796875 37.203125 14.796875 27.296875 
" id="BitstreamVeraSans-Roman-64"/>
      <path d="M 18.3125 70.21875 
L 18.3125 54.6875 
L 36.8125 54.6875 
L 36.8125 47.703125 
L 18.3125 47.703125 
L 18.3125 18.015625 
Q 18.3125 11.328125 20.140625 9.421875 
Q 21.96875 7.515625 27.59375 7.515625 
L 36.8125 7.515625 
L 36.8125 0 
L 27.59375 0 
Q 17.1875 0 13.234375 3.875 
Q 9.28125 7.765625 9.28125 18.015625 
L 9.28125 47.703125 
L 2.6875 47.703125 
L 2.6875 54.6875 
L 9.28125 54.6875 
L 9.28125 70.21875 
z
" id="BitstreamVeraSans-Roman-74"/>
      <path d="M 41.109375 46.296875 
Q 39.59375 47.171875 37.8125 47.578125 
Q 36.03125 48 33.890625 48 
Q 26.265625 48 22.1875 43.046875 
Q 18.109375 38.09375 18.109375 28.8125 
L 18.109375 0 
L 9.078125 0 
L 9.078125 54.6875 
L 18.109375 54.6875 
L 18.109375 46.1875 
Q 20.953125 51.171875 25.484375 53.578125 
Q 30.03125 56 36.53125 56 
Q 37.453125 56 38.578125 55.875 
Q 39.703125 55.765625 41.0625 55.515625 
z
" id="BitstreamVeraSans-Roman-72"/>
      <path d="M 44.28125 53.078125 
L 44.28125 44.578125 
Q 40.484375 46.53125 36.375 47.5 
Q 32.28125 48.484375 27.875 48.484375 
Q 21.1875 48.484375 17.84375 46.4375 
Q 14.5 44.390625 14.5 40.28125 
Q 14.5 37.15625 16.890625 35.375 
Q 19.28125 33.59375 26.515625 31.984375 
L 29.59375 31.296875 
Q 39.15625 29.25 43.1875 25.515625 
Q 47.21875 21.78125 47.21875 15.09375 
Q 47.21875 7.46875 41.1875 3.015625 
Q 35.15625 -1.421875 24.609375 -1.421875 
Q 20.21875 -1.421875 15.453125 -0.5625 
Q 10.6875 0.296875 5.421875 2 
L 5.421875 11.28125 
Q 10.40625 8.6875 15.234375 7.390625 
Q 20.0625 6.109375 24.8125 6.109375 
Q 31.15625 6.109375 34.5625 8.28125 
Q 37.984375 10.453125 37.984375 14.40625 
Q 37.984375 18.0625 35.515625 20.015625 
Q 33.0625 21.96875 24.703125 23.78125 
L 21.578125 24.515625 
Q 13.234375 26.265625 9.515625 29.90625 
Q 5.8125 33.546875 5.8125 39.890625 
Q 5.8125 47.609375 11.28125 51.796875 
Q 16.75 56 26.8125 56 
Q 31.78125 56 36.171875 55.265625 
Q 40.578125 54.546875 44.28125 53.078125 
" id="BitstreamVeraSans-Roman-73"/>
     </defs>
     <g transform="translate(250.254609375 423.85078125)scale(0.19 -0.19)">
      <use xlink:href="#BitstreamVeraSans-Roman-74"/>
      <use x="39.208984375" xlink:href="#BitstreamVeraSans-Roman-68"/>
      <use x="102.587890625" xlink:href="#BitstreamVeraSans-Roman-72"/>
      <use x="143.669921875" xlink:href="#BitstreamVeraSans-Roman-65"/>
      <use x="205.193359375" xlink:href="#BitstreamVeraSans-Roman-73"/>
      <use x="257.29296875" xlink:href="#BitstreamVeraSans-Roman-68"/>
      <use x="320.671875" xlink:href="#BitstreamVeraSans-Roman-6f"/>
      <use x="381.853515625" xlink:href="#BitstreamVeraSans-Roman-6c"/>
      <use x="409.63671875" xlink:href="#BitstreamVeraSans-Roman-64"/>
     </g>
    </g>
   </g>
   <g id="matplotlib.axis_2">
    <g id="ytick_1">
     <g id="line2d_19">
      <defs>
       <path d="M 0 0 
L 4 0 
" id="mfe493ea05a" style="stroke:#000000;stroke-width:0.5;"/>
      </defs>
      <g>
       <use style="stroke:#000000;stroke-width:0.5;" x="72.0" xlink:href="#mfe493ea05a" y="388.8"/>
      </g>
     </g>
     <g id="line2d_20">
      <defs>
       <path d="M 0 0 
L -4 0 
" id="m3ea06b2413" style="stroke:#000000;stroke-width:0.5;"/>
      </defs>
      <g>
       <use style="stroke:#000000;stroke-width:0.5;" x="518.4" xlink:href="#m3ea06b2413" y="388.8"/>
      </g>
     </g>
     <g id="text_10">
      <!-- 0.0 -->
      <g transform="translate(48.91625 392.11125)scale(0.12 -0.12)">
       <use xlink:href="#BitstreamVeraSans-Roman-30"/>
       <use x="63.623046875" xlink:href="#BitstreamVeraSans-Roman-2e"/>
       <use x="95.41015625" xlink:href="#BitstreamVeraSans-Roman-30"/>
      </g>
     </g>
    </g>
    <g id="ytick_2">
     <g id="line2d_21">
      <g>
       <use style="stroke:#000000;stroke-width:0.5;" x="72.0" xlink:href="#mfe493ea05a" y="319.68"/>
      </g>
     </g>
     <g id="line2d_22">
      <g>
       <use style="stroke:#000000;stroke-width:0.5;" x="518.4" xlink:href="#m3ea06b2413" y="319.68"/>
      </g>
     </g>
     <g id="text_11">
      <!-- 0.2 -->
      <defs>
       <path d="M 19.1875 8.296875 
L 53.609375 8.296875 
L 53.609375 0 
L 7.328125 0 
L 7.328125 8.296875 
Q 12.9375 14.109375 22.625 23.890625 
Q 32.328125 33.6875 34.8125 36.53125 
Q 39.546875 41.84375 41.421875 45.53125 
Q 43.3125 49.21875 43.3125 52.78125 
Q 43.3125 58.59375 39.234375 62.25 
Q 35.15625 65.921875 28.609375 65.921875 
Q 23.96875 65.921875 18.8125 64.3125 
Q 13.671875 62.703125 7.8125 59.421875 
L 7.8125 69.390625 
Q 13.765625 71.78125 18.9375 73 
Q 24.125 74.21875 28.421875 74.21875 
Q 39.75 74.21875 46.484375 68.546875 
Q 53.21875 62.890625 53.21875 53.421875 
Q 53.21875 48.921875 51.53125 44.890625 
Q 49.859375 40.875 45.40625 35.40625 
Q 44.1875 33.984375 37.640625 27.21875 
Q 31.109375 20.453125 19.1875 8.296875 
" id="BitstreamVeraSans-Roman-32"/>
      </defs>
      <g transform="translate(48.91625 322.99125)scale(0.12 -0.12)">
       <use xlink:href="#BitstreamVeraSans-Roman-30"/>
       <use x="63.623046875" xlink:href="#BitstreamVeraSans-Roman-2e"/>
       <use x="95.41015625" xlink:href="#BitstreamVeraSans-Roman-32"/>
      </g>
     </g>
    </g>
    <g id="ytick_3">
     <g id="line2d_23">
      <g>
       <use style="stroke:#000000;stroke-width:0.5;" x="72.0" xlink:href="#mfe493ea05a" y="250.56"/>
      </g>
     </g>
     <g id="line2d_24">
      <g>
       <use style="stroke:#000000;stroke-width:0.5;" x="518.4" xlink:href="#m3ea06b2413" y="250.56"/>
      </g>
     </g>
     <g id="text_12">
      <!-- 0.4 -->
      <g transform="translate(48.91625 253.87125)scale(0.12 -0.12)">
       <use xlink:href="#BitstreamVeraSans-Roman-30"/>
       <use x="63.623046875" xlink:href="#BitstreamVeraSans-Roman-2e"/>
       <use x="95.41015625" xlink:href="#BitstreamVeraSans-Roman-34"/>
      </g>
     </g>
    </g>
    <g id="ytick_4">
     <g id="line2d_25">
      <g>
       <use style="stroke:#000000;stroke-width:0.5;" x="72.0" xlink:href="#mfe493ea05a" y="181.44"/>
      </g>
     </g>
     <g id="line2d_26">
      <g>
       <use style="stroke:#000000;stroke-width:0.5;" x="518.4" xlink:href="#m3ea06b2413" y="181.44"/>
      </g>
     </g>
     <g id="text_13">
      <!-- 0.6 -->
      <g transform="translate(48.91625 184.75125)scale(0.12 -0.12)">
       <use xlink:href="#BitstreamVeraSans-Roman-30"/>
       <use x="63.623046875" xlink:href="#BitstreamVeraSans-Roman-2e"/>
       <use x="95.41015625" xlink:href="#BitstreamVeraSans-Roman-36"/>
      </g>
     </g>
    </g>
    <g id="ytick_5">
     <g id="line2d_27">
      <g>
       <use style="stroke:#000000;stroke-width:0.5;" x="72.0" xlink:href="#mfe493ea05a" y="112.32"/>
      </g>
     </g>
     <g id="line2d_28">
      <g>
       <use style="stroke:#000000;stroke-width:0.5;" x="518.4" xlink:href="#m3ea06b2413" y="112.32"/>
      </g>
     </g>
     <g id="text_14">
      <!-- 0.8 -->
      <defs>
       <path d="M 31.78125 34.625 
Q 24.75 34.625 20.71875 30.859375 
Q 16.703125 27.09375 16.703125 20.515625 
Q 16.703125 13.921875 20.71875 10.15625 
Q 24.75 6.390625 31.78125 6.390625 
Q 38.8125 6.390625 42.859375 10.171875 
Q 46.921875 13.96875 46.921875 20.515625 
Q 46.921875 27.09375 42.890625 30.859375 
Q 38.875 34.625 31.78125 34.625 
M 21.921875 38.8125 
Q 15.578125 40.375 12.03125 44.71875 
Q 8.5 49.078125 8.5 55.328125 
Q 8.5 64.0625 14.71875 69.140625 
Q 20.953125 74.21875 31.78125 74.21875 
Q 42.671875 74.21875 48.875 69.140625 
Q 55.078125 64.0625 55.078125 55.328125 
Q 55.078125 49.078125 51.53125 44.71875 
Q 48 40.375 41.703125 38.8125 
Q 48.828125 37.15625 52.796875 32.3125 
Q 56.78125 27.484375 56.78125 20.515625 
Q 56.78125 9.90625 50.3125 4.234375 
Q 43.84375 -1.421875 31.78125 -1.421875 
Q 19.734375 -1.421875 13.25 4.234375 
Q 6.78125 9.90625 6.78125 20.515625 
Q 6.78125 27.484375 10.78125 32.3125 
Q 14.796875 37.15625 21.921875 38.8125 
M 18.3125 54.390625 
Q 18.3125 48.734375 21.84375 45.5625 
Q 25.390625 42.390625 31.78125 42.390625 
Q 38.140625 42.390625 41.71875 45.5625 
Q 45.3125 48.734375 45.3125 54.390625 
Q 45.3125 60.0625 41.71875 63.234375 
Q 38.140625 66.40625 31.78125 66.40625 
Q 25.390625 66.40625 21.84375 63.234375 
Q 18.3125 60.0625 18.3125 54.390625 
" id="BitstreamVeraSans-Roman-38"/>
      </defs>
      <g transform="translate(48.91625 115.63125)scale(0.12 -0.12)">
       <use xlink:href="#BitstreamVeraSans-Roman-30"/>
       <use x="63.623046875" xlink:href="#BitstreamVeraSans-Roman-2e"/>
       <use x="95.41015625" xlink:href="#BitstreamVeraSans-Roman-38"/>
      </g>
     </g>
    </g>
    <g id="ytick_6">
     <g id="line2d_29">
      <g>
       <use style="stroke:#000000;stroke-width:0.5;" x="72.0" xlink:href="#mfe493ea05a" y="43.2"/>
      </g>
     </g>
     <g id="line2d_30">
      <g>
       <use style="stroke:#000000;stroke-width:0.5;" x="518.4" xlink:href="#m3ea06b2413" y="43.2"/>
      </g>
     </g>
     <g id="text_15">
      <!-- 1.0 -->
      <defs>
       <path d="M 12.40625 8.296875 
L 28.515625 8.296875 
L 28.515625 63.921875 
L 10.984375 60.40625 
L 10.984375 69.390625 
L 28.421875 72.90625 
L 38.28125 72.90625 
L 38.28125 8.296875 
L 54.390625 8.296875 
L 54.390625 0 
L 12.40625 0 
z
" id="BitstreamVeraSans-Roman-31"/>
      </defs>
      <g transform="translate(48.91625 46.51125)scale(0.12 -0.12)">
       <use xlink:href="#BitstreamVeraSans-Roman-31"/>
       <use x="63.623046875" xlink:href="#BitstreamVeraSans-Roman-2e"/>
       <use x="95.41015625" xlink:href="#BitstreamVeraSans-Roman-30"/>
      </g>
     </g>
    </g>
   </g>
   <g id="legend_1">
    <g id="patch_7">
     <path d="M 354.373594 114.176875 
L 508.9 114.176875 
L 508.9 52.7 
L 354.373594 52.7 
z
" style="fill:#ffffff;stroke:#000000;stroke-linejoin:miter;"/>
    </g>
    <g id="line2d_31">
     <path d="M 367.673594 68.087031 
L 394.273594 68.087031 
" style="fill:none;stroke:#ff0000;stroke-linecap:square;stroke-width:5.0;"/>
    </g>
    <g id="line2d_32"/>
    <g id="text_16">
     <!-- precision -->
     <defs>
      <path d="M 54.890625 33.015625 
L 54.890625 0 
L 45.90625 0 
L 45.90625 32.71875 
Q 45.90625 40.484375 42.875 44.328125 
Q 39.84375 48.1875 33.796875 48.1875 
Q 26.515625 48.1875 22.3125 43.546875 
Q 18.109375 38.921875 18.109375 30.90625 
L 18.109375 0 
L 9.078125 0 
L 9.078125 54.6875 
L 18.109375 54.6875 
L 18.109375 46.1875 
Q 21.34375 51.125 25.703125 53.5625 
Q 30.078125 56 35.796875 56 
Q 45.21875 56 50.046875 50.171875 
Q 54.890625 44.34375 54.890625 33.015625 
" id="BitstreamVeraSans-Roman-6e"/>
      <path d="M 9.421875 54.6875 
L 18.40625 54.6875 
L 18.40625 0 
L 9.421875 0 
z
M 9.421875 75.984375 
L 18.40625 75.984375 
L 18.40625 64.59375 
L 9.421875 64.59375 
z
" id="BitstreamVeraSans-Roman-69"/>
      <path d="M 48.78125 52.59375 
L 48.78125 44.1875 
Q 44.96875 46.296875 41.140625 47.34375 
Q 37.3125 48.390625 33.40625 48.390625 
Q 24.65625 48.390625 19.8125 42.84375 
Q 14.984375 37.3125 14.984375 27.296875 
Q 14.984375 17.28125 19.8125 11.734375 
Q 24.65625 6.203125 33.40625 6.203125 
Q 37.3125 6.203125 41.140625 7.25 
Q 44.96875 8.296875 48.78125 10.40625 
L 48.78125 2.09375 
Q 45.015625 0.34375 40.984375 -0.53125 
Q 36.96875 -1.421875 32.421875 -1.421875 
Q 20.0625 -1.421875 12.78125 6.34375 
Q 5.515625 14.109375 5.515625 27.296875 
Q 5.515625 40.671875 12.859375 48.328125 
Q 20.21875 56 33.015625 56 
Q 37.15625 56 41.109375 55.140625 
Q 45.0625 54.296875 48.78125 52.59375 
" id="BitstreamVeraSans-Roman-63"/>
      <path d="M 18.109375 8.203125 
L 18.109375 -20.796875 
L 9.078125 -20.796875 
L 9.078125 54.6875 
L 18.109375 54.6875 
L 18.109375 46.390625 
Q 20.953125 51.265625 25.265625 53.625 
Q 29.59375 56 35.59375 56 
Q 45.5625 56 51.78125 48.09375 
Q 58.015625 40.1875 58.015625 27.296875 
Q 58.015625 14.40625 51.78125 6.484375 
Q 45.5625 -1.421875 35.59375 -1.421875 
Q 29.59375 -1.421875 25.265625 0.953125 
Q 20.953125 3.328125 18.109375 8.203125 
M 48.6875 27.296875 
Q 48.6875 37.203125 44.609375 42.84375 
Q 40.53125 48.484375 33.40625 48.484375 
Q 26.265625 48.484375 22.1875 42.84375 
Q 18.109375 37.203125 18.109375 27.296875 
Q 18.109375 17.390625 22.1875 11.75 
Q 26.265625 6.109375 33.40625 6.109375 
Q 40.53125 6.109375 44.609375 11.75 
Q 48.6875 17.390625 48.6875 27.296875 
" id="BitstreamVeraSans-Roman-70"/>
     </defs>
     <g transform="translate(415.17359375 74.73703125)scale(0.19 -0.19)">
      <use xlink:href="#BitstreamVeraSans-Roman-70"/>
      <use x="63.4765625" xlink:href="#BitstreamVeraSans-Roman-72"/>
      <use x="104.55859375" xlink:href="#BitstreamVeraSans-Roman-65"/>
      <use x="166.08203125" xlink:href="#BitstreamVeraSans-Roman-63"/>
      <use x="221.0625" xlink:href="#BitstreamVeraSans-Roman-69"/>
      <use x="248.845703125" xlink:href="#BitstreamVeraSans-Roman-73"/>
      <use x="300.9453125" xlink:href="#BitstreamVeraSans-Roman-69"/>
      <use x="328.728515625" xlink:href="#BitstreamVeraSans-Roman-6f"/>
      <use x="389.91015625" xlink:href="#BitstreamVeraSans-Roman-6e"/>
     </g>
    </g>
    <g id="line2d_33">
     <path d="M 367.673594 95.975469 
L 394.273594 95.975469 
" style="fill:none;stroke:#0000ff;stroke-linecap:square;stroke-width:5.0;"/>
    </g>
    <g id="line2d_34"/>
    <g id="text_17">
     <!-- recall -->
     <defs>
      <path d="M 34.28125 27.484375 
Q 23.390625 27.484375 19.1875 25 
Q 14.984375 22.515625 14.984375 16.5 
Q 14.984375 11.71875 18.140625 8.90625 
Q 21.296875 6.109375 26.703125 6.109375 
Q 34.1875 6.109375 38.703125 11.40625 
Q 43.21875 16.703125 43.21875 25.484375 
L 43.21875 27.484375 
z
M 52.203125 31.203125 
L 52.203125 0 
L 43.21875 0 
L 43.21875 8.296875 
Q 40.140625 3.328125 35.546875 0.953125 
Q 30.953125 -1.421875 24.3125 -1.421875 
Q 15.921875 -1.421875 10.953125 3.296875 
Q 6 8.015625 6 15.921875 
Q 6 25.140625 12.171875 29.828125 
Q 18.359375 34.515625 30.609375 34.515625 
L 43.21875 34.515625 
L 43.21875 35.40625 
Q 43.21875 41.609375 39.140625 45 
Q 35.0625 48.390625 27.6875 48.390625 
Q 23 48.390625 18.546875 47.265625 
Q 14.109375 46.140625 10.015625 43.890625 
L 10.015625 52.203125 
Q 14.9375 54.109375 19.578125 55.046875 
Q 24.21875 56 28.609375 56 
Q 40.484375 56 46.34375 49.84375 
Q 52.203125 43.703125 52.203125 31.203125 
" id="BitstreamVeraSans-Roman-61"/>
     </defs>
     <g transform="translate(415.17359375 102.62546875)scale(0.19 -0.19)">
      <use xlink:href="#BitstreamVeraSans-Roman-72"/>
      <use x="41.08203125" xlink:href="#BitstreamVeraSans-Roman-65"/>
      <use x="102.60546875" xlink:href="#BitstreamVeraSans-Roman-63"/>
      <use x="157.5859375" xlink:href="#BitstreamVeraSans-Roman-61"/>
      <use x="218.865234375" xlink:href="#BitstreamVeraSans-Roman-6c"/>
      <use x="246.6484375" xlink:href="#BitstreamVeraSans-Roman-6c"/>
     </g>
    </g>
   </g>
  </g>
 </g>
 <defs>
  <clipPath id="p65769cd669">
   <rect height="345.6" width="446.4" x="72.0" y="43.2"/>
  </clipPath>
 </defs>
</svg>
