<?xml version="1.0" encoding="utf-8" standalone="no"?>
<!DOCTYPE svg PUBLIC "-//W3C//DTD SVG 1.1//EN"
  "http://www.w3.org/Graphics/SVG/1.1/DTD/svg11.dtd">
<!-- Created with matplotlib (http://matplotlib.org/) -->
<svg height="432pt" version="1.1" viewBox="0 0 576 432" width="576pt" xmlns="http://www.w3.org/2000/svg" xmlns:xlink="http://www.w3.org/1999/xlink">
 <defs>
  <style type="text/css">
*{stroke-linecap:butt;stroke-linejoin:round;stroke-miterlimit:100000;}
  </style>
 </defs>
 <g id="figure_1">
  <g id="patch_1">
   <path d="M 0 432 
L 576 432 
L 576 0 
L 0 0 
z
" style="fill:#ffffff;"/>
  </g>
  <g id="axes_1">
   <g id="patch_2">
    <path d="M 72 388.8 
L 518.4 388.8 
L 518.4 43.2 
L 72 43.2 
z
" style="fill:#ffffff;"/>
   </g>
   <g id="line2d_1">
    <path clip-path="url(#p01d77a5c73)" d="M 111.14245 218.115918 
L 113.971786 218.832787 
L 115.808981 218.133333 
L 115.951209 217.428099 
L 116.652877 216.717012 
L 117.016806 216 
L 117.181124 215.276987 
L 117.576288 214.547899 
L 118.165875 213.812658 
L 118.372184 213.071186 
L 119.311139 212.323404 
L 119.402212 211.569231 
L 120.727933 210.041379 
L 121.845272 209.267532 
L 122.285832 207.699563 
L 122.527304 206.905263 
L 123.301591 207.626432 
L 123.935804 206.824779 
L 124.093191 206.016 
L 124.99214 203.545946 
L 125.062878 202.707692 
L 125.663054 201.861818 
L 125.752238 201.008219 
L 126.863068 200.146789 
L 127.205756 200.870046 
L 128.190121 200 
L 128.590276 200.729302 
L 128.617705 199.850467 
L 128.922544 198.96338 
L 129.714571 198.067925 
L 130.21364 197.163981 
L 131.315994 196.251429 
L 131.427628 194.4 
L 132.758905 193.46087 
L 132.995114 192.512621 
L 133.712676 193.240976 
L 134.181155 193.976471 
L 134.396002 192.047525 
L 135.485499 191.068657 
L 137.277049 187.053807 
L 137.612317 186.02449 
L 137.820333 184.984615 
L 139.1333 183.934021 
L 141.00537 184.663212 
L 141.149385 183.6 
L 141.662911 184.335079 
L 141.939678 183.258947 
L 143.098472 182.171429 
L 143.276742 178.83871 
L 143.508261 179.571892 
L 144.002759 180.313043 
L 144.488775 179.17377 
L 144.634318 178.021978 
L 144.749872 179.52 
L 145.567982 178.350838 
L 145.808558 177.168539 
L 145.821454 175.972881 
L 145.964209 176.727273 
L 146.306945 177.490286 
L 147.754821 178.262069 
L 147.857294 177.045087 
L 148.443397 175.813953 
L 148.728956 174.568421 
L 149.752297 175.341176 
L 150.296086 176.123077 
L 151.407475 176.914286 
L 151.65266 177.71497 
L 152.657781 176.443373 
L 152.695109 175.156364 
L 153.372217 173.853659 
L 153.586234 172.534969 
L 154.027963 171.2 
L 154.999167 172.8 
L 155.082996 171.441509 
L 155.697937 172.253165 
L 156.318469 170.873885 
L 156.403235 169.476923 
L 157.038054 170.291613 
L 157.480037 171.116883 
L 157.884427 169.694118 
L 158.488283 168.252632 
L 159.396399 166.792053 
L 159.412303 167.616 
L 160.571895 166.131544 
L 161.517846 166.962162 
L 161.727778 165.453061 
L 162.148745 166.290411 
L 162.284235 164.755862 
L 163.117486 163.2 
L 163.433774 161.622378 
L 163.481178 160.022535 
L 167.156518 160.851064 
L 168.182189 161.691429 
L 168.262039 162.543885 
L 168.810243 159.240876 
L 169.787231 157.552941 
L 172.355652 155.84 
L 172.387586 154.101493 
L 174.154589 154.935338 
L 174.524282 156.641221 
L 176.086929 154.855385 
L 176.142931 153.04186 
L 178.359887 151.2 
L 178.417893 152.050394 
L 178.671033 150.171429 
L 178.994697 151.0272 
L 179.347395 149.109677 
L 181.213225 149.970732 
L 181.897632 148.013115 
L 184.224449 146.02314 
L 184.879714 144 
L 185.723783 144.847059 
L 185.984307 142.779661 
L 186.692333 143.630769 
L 188.082497 144.496552 
L 189.219738 145.377391 
L 189.793284 143.242105 
L 189.99112 144.127434 
L 191.544888 139.718919 
L 193.107546 137.454545 
L 195.428689 135.148624 
L 195.674116 136 
L 195.68616 133.637383 
L 196.57591 131.230189 
L 196.932666 128.777143 
L 197.713522 126.276923 
L 198.45172 127.083495 
L 198.905362 124.517647 
L 199.586502 121.90099 
L 205.355805 122.688 
L 208.115221 123.490909 
L 210.126059 120.783673 
L 210.279669 121.583505 
L 211.7984 122.4 
L 214.765736 123.233684 
L 217.067114 124.085106 
L 219.175833 121.23871 
L 219.615156 122.086957 
L 219.86815 122.953846 
L 221.656114 123.84 
L 221.912714 124.746067 
L 232.133842 127.590698 
L 232.761398 124.517647 
L 234.136139 121.371429 
L 237.410113 118.149398 
L 239.04776 119.063415 
L 239.123713 120 
L 239.427335 116.64 
L 240.374232 117.56962 
L 242.450285 114.092308 
L 243.11413 110.524675 
L 246.194304 106.863158 
L 250.780818 107.712 
L 252.176838 108.583784 
L 252.228101 109.479452 
L 253.356183 110.4 
L 255.816365 111.346479 
L 256.164766 107.382857 
L 256.821279 103.304348 
L 257.201492 99.105882 
L 258.390788 99.940299 
L 259.077394 100.8 
L 260.058227 96.369231 
L 262.524191 97.2 
L 264.510688 98.057143 
L 264.695186 98.941935 
L 264.706302 99.855738 
L 267.814613 100.8 
L 269.153777 101.776271 
L 276.392274 102.786207 
L 278.486604 103.831579 
L 281.5432 104.914286 
L 283.839817 106.036364 
L 283.903379 107.2 
L 290.827316 108.407547 
L 292.559704 103.015385 
L 295.260983 97.411765 
L 298.932019 91.584 
L 300.057796 92.571429 
L 300.288484 93.6 
L 301.505303 88.278261 
L 301.970638 81.6 
L 303.341333 83.386047 
L 306.104157 84.342857 
L 306.767464 85.346341 
L 309.59489 77.76 
L 314.945684 78.646154 
L 317.217818 79.578947 
L 317.872247 71.221622 
L 318.254219 72 
L 324.527203 62.948571 
L 329.478944 63.529412 
L 332.322901 64.145455 
L 333.321254 65.496774 
L 343.495698 67.885714 
L 345.641127 68.8 
L 350.08164 69.784615 
L 351.176186 70.848 
L 352.825014 72 
L 356.066138 73.252174 
L 357.305313 74.618182 
L 358.544293 59.657143 
L 362.280845 60.48 
L 365.152739 61.389474 
L 370.417127 62.4 
L 371.785681 63.529412 
L 377.290555 43.2 
L 478.294031 43.2 
L 478.294031 43.2 
" style="fill:none;stroke:#ff0000;stroke-linecap:square;stroke-width:5.0;"/>
   </g>
   <g id="line2d_2">
    <path clip-path="url(#p01d77a5c73)" d="M 111.14245 43.2 
L 113.971786 46.056198 
L 122.527304 46.056198 
L 123.301591 48.912397 
L 126.863068 48.912397 
L 127.205756 51.768595 
L 128.190121 51.768595 
L 128.617705 54.624793 
L 132.995114 54.624793 
L 133.712676 57.480992 
L 134.235218 60.33719 
L 139.1333 60.33719 
L 141.00537 63.193388 
L 141.149385 63.193388 
L 141.662911 66.049587 
L 143.276742 66.049587 
L 143.508261 68.905785 
L 144.002759 71.761983 
L 144.634318 71.761983 
L 144.749872 77.47438 
L 145.821454 77.47438 
L 145.964209 80.330579 
L 146.306945 83.186777 
L 147.857294 86.042975 
L 148.728956 86.042975 
L 149.752297 88.899174 
L 150.296086 91.755372 
L 151.407475 94.61157 
L 151.65266 97.467769 
L 154.027963 97.467769 
L 154.999167 103.180165 
L 155.082996 103.180165 
L 155.697937 106.036364 
L 156.403235 106.036364 
L 157.038054 108.892562 
L 157.480037 111.74876 
L 159.396399 111.74876 
L 159.412303 114.604959 
L 160.571895 114.604959 
L 161.517846 117.461157 
L 161.727778 117.461157 
L 162.148745 120.317355 
L 163.481178 120.317355 
L 167.156518 123.173554 
L 168.182189 126.029752 
L 168.262039 128.88595 
L 172.387586 128.88595 
L 174.154589 131.742149 
L 174.524282 137.454545 
L 178.359887 137.454545 
L 178.417893 140.310744 
L 178.671033 140.310744 
L 178.994697 143.166942 
L 179.347395 143.166942 
L 181.213225 146.02314 
L 184.879714 146.02314 
L 185.723783 148.879339 
L 185.984307 148.879339 
L 186.692333 151.735537 
L 188.082497 154.591736 
L 189.219738 157.447934 
L 189.793284 157.447934 
L 189.99112 160.304132 
L 195.428689 160.304132 
L 195.68616 163.160331 
L 197.713522 163.160331 
L 198.45172 166.016529 
L 199.586502 166.016529 
L 205.355805 168.872727 
L 208.115221 171.728926 
L 210.126059 171.728926 
L 210.279669 174.585124 
L 211.7984 177.441322 
L 214.765736 180.297521 
L 217.067114 183.153719 
L 219.175833 183.153719 
L 219.615156 186.009917 
L 219.86815 188.866116 
L 221.656114 191.722314 
L 221.912714 194.578512 
L 228.459162 200.290909 
L 232.133842 203.147107 
L 237.410113 203.147107 
L 239.04776 206.003306 
L 239.123713 208.859504 
L 239.427335 208.859504 
L 240.374232 211.715702 
L 246.194304 211.715702 
L 250.780818 214.571901 
L 252.176838 217.428099 
L 252.228101 220.284298 
L 253.356183 223.140496 
L 255.816365 225.996694 
L 257.201492 225.996694 
L 258.390788 228.852893 
L 259.077394 231.709091 
L 260.058227 231.709091 
L 262.524191 234.565289 
L 264.510688 237.421488 
L 264.695186 240.277686 
L 264.706302 243.133884 
L 267.814613 245.990083 
L 269.153777 248.846281 
L 276.392274 251.702479 
L 278.486604 254.558678 
L 281.5432 257.414876 
L 283.839817 260.271074 
L 283.903379 263.127273 
L 290.827316 265.983471 
L 298.932019 265.983471 
L 300.057796 268.839669 
L 300.288484 271.695868 
L 301.505303 274.552066 
L 301.970638 274.552066 
L 303.341333 280.264463 
L 306.104157 283.120661 
L 306.767464 285.97686 
L 309.59489 285.97686 
L 314.945684 288.833058 
L 317.217818 291.689256 
L 317.872247 291.689256 
L 318.254219 294.545455 
L 324.527203 294.545455 
L 329.478944 297.401653 
L 332.322901 300.257851 
L 333.321254 305.970248 
L 339.391254 311.682645 
L 343.495698 314.538843 
L 345.641127 317.395041 
L 350.08164 320.25124 
L 351.176186 323.107438 
L 352.825014 325.963636 
L 356.066138 328.819835 
L 357.305313 331.676033 
L 358.544293 331.676033 
L 362.280845 334.532231 
L 365.152739 337.38843 
L 370.417127 340.244628 
L 371.785681 343.100826 
L 377.290555 343.100826 
L 378.944879 345.957025 
L 384.198567 348.813223 
L 385.139642 351.669421 
L 390.754554 354.52562 
L 399.006716 357.381818 
L 413.178337 363.094215 
L 417.723183 365.950413 
L 423.002262 368.806612 
L 423.433135 371.66281 
L 450.002351 374.519008 
L 452.115126 377.375207 
L 456.269084 380.231405 
L 457.945381 383.087603 
L 478.294031 385.943802 
L 478.294031 385.943802 
" style="fill:none;stroke:#0000ff;stroke-linecap:square;stroke-width:5.0;"/>
   </g>
   <g id="patch_3">
    <path d="M 72 43.2 
L 518.4 43.2 
" style="fill:none;stroke:#000000;stroke-linecap:square;stroke-linejoin:miter;"/>
   </g>
   <g id="patch_4">
    <path d="M 518.4 388.8 
L 518.4 43.2 
" style="fill:none;stroke:#000000;stroke-linecap:square;stroke-linejoin:miter;"/>
   </g>
   <g id="patch_5">
    <path d="M 72 388.8 
L 518.4 388.8 
" style="fill:none;stroke:#000000;stroke-linecap:square;stroke-linejoin:miter;"/>
   </g>
   <g id="patch_6">
    <path d="M 72 388.8 
L 72 43.2 
" style="fill:none;stroke:#000000;stroke-linecap:square;stroke-linejoin:miter;"/>
   </g>
   <g id="matplotlib.axis_1">
    <g id="xtick_1">
     <g id="line2d_3">
      <defs>
       <path d="M 0 0 
L 0 -4 
" id="m80a6e86fac" style="stroke:#000000;stroke-width:0.5;"/>
      </defs>
      <g>
       <use style="stroke:#000000;stroke-width:0.5;" x="72.0" xlink:href="#m80a6e86fac" y="388.8"/>
      </g>
     </g>
     <g id="line2d_4">
      <defs>
       <path d="M 0 0 
L 0 4 
" id="mea8f19e62e" style="stroke:#000000;stroke-width:0.5;"/>
      </defs>
      <g>
       <use style="stroke:#000000;stroke-width:0.5;" x="72.0" xlink:href="#mea8f19e62e" y="43.2"/>
      </g>
     </g>
     <g id="text_1">
      <!-- 0.35 -->
      <defs>
       <path d="M 40.578125 39.3125 
Q 47.65625 37.796875 51.625 33 
Q 55.609375 28.21875 55.609375 21.1875 
Q 55.609375 10.40625 48.1875 4.484375 
Q 40.765625 -1.421875 27.09375 -1.421875 
Q 22.515625 -1.421875 17.65625 -0.515625 
Q 12.796875 0.390625 7.625 2.203125 
L 7.625 11.71875 
Q 11.71875 9.328125 16.59375 8.109375 
Q 21.484375 6.890625 26.8125 6.890625 
Q 36.078125 6.890625 40.9375 10.546875 
Q 45.796875 14.203125 45.796875 21.1875 
Q 45.796875 27.640625 41.28125 31.265625 
Q 36.765625 34.90625 28.71875 34.90625 
L 20.21875 34.90625 
L 20.21875 43.015625 
L 29.109375 43.015625 
Q 36.375 43.015625 40.234375 45.921875 
Q 44.09375 48.828125 44.09375 54.296875 
Q 44.09375 59.90625 40.109375 62.90625 
Q 36.140625 65.921875 28.71875 65.921875 
Q 24.65625 65.921875 20.015625 65.03125 
Q 15.375 64.15625 9.8125 62.3125 
L 9.8125 71.09375 
Q 15.4375 72.65625 20.34375 73.4375 
Q 25.25 74.21875 29.59375 74.21875 
Q 40.828125 74.21875 47.359375 69.109375 
Q 53.90625 64.015625 53.90625 55.328125 
Q 53.90625 49.265625 50.4375 45.09375 
Q 46.96875 40.921875 40.578125 39.3125 
" id="BitstreamVeraSans-Roman-33"/>
       <path d="M 31.78125 66.40625 
Q 24.171875 66.40625 20.328125 58.90625 
Q 16.5 51.421875 16.5 36.375 
Q 16.5 21.390625 20.328125 13.890625 
Q 24.171875 6.390625 31.78125 6.390625 
Q 39.453125 6.390625 43.28125 13.890625 
Q 47.125 21.390625 47.125 36.375 
Q 47.125 51.421875 43.28125 58.90625 
Q 39.453125 66.40625 31.78125 66.40625 
M 31.78125 74.21875 
Q 44.046875 74.21875 50.515625 64.515625 
Q 56.984375 54.828125 56.984375 36.375 
Q 56.984375 17.96875 50.515625 8.265625 
Q 44.046875 -1.421875 31.78125 -1.421875 
Q 19.53125 -1.421875 13.0625 8.265625 
Q 6.59375 17.96875 6.59375 36.375 
Q 6.59375 54.828125 13.0625 64.515625 
Q 19.53125 74.21875 31.78125 74.21875 
" id="BitstreamVeraSans-Roman-30"/>
       <path d="M 10.6875 12.40625 
L 21 12.40625 
L 21 0 
L 10.6875 0 
z
" id="BitstreamVeraSans-Roman-2e"/>
       <path d="M 10.796875 72.90625 
L 49.515625 72.90625 
L 49.515625 64.59375 
L 19.828125 64.59375 
L 19.828125 46.734375 
Q 21.96875 47.46875 24.109375 47.828125 
Q 26.265625 48.1875 28.421875 48.1875 
Q 40.625 48.1875 47.75 41.5 
Q 54.890625 34.8125 54.890625 23.390625 
Q 54.890625 11.625 47.5625 5.09375 
Q 40.234375 -1.421875 26.90625 -1.421875 
Q 22.3125 -1.421875 17.546875 -0.640625 
Q 12.796875 0.140625 7.71875 1.703125 
L 7.71875 11.625 
Q 12.109375 9.234375 16.796875 8.0625 
Q 21.484375 6.890625 26.703125 6.890625 
Q 35.15625 6.890625 40.078125 11.328125 
Q 45.015625 15.765625 45.015625 23.390625 
Q 45.015625 31 40.078125 35.4375 
Q 35.15625 39.890625 26.703125 39.890625 
Q 22.75 39.890625 18.8125 39.015625 
Q 14.890625 38.140625 10.796875 36.28125 
z
" id="BitstreamVeraSans-Roman-35"/>
      </defs>
      <g transform="translate(58.640625 401.918125)scale(0.12 -0.12)">
       <use xlink:href="#BitstreamVeraSans-Roman-30"/>
       <use x="63.623046875" xlink:href="#BitstreamVeraSans-Roman-2e"/>
       <use x="95.41015625" xlink:href="#BitstreamVeraSans-Roman-33"/>
       <use x="159.033203125" xlink:href="#BitstreamVeraSans-Roman-35"/>
      </g>
     </g>
    </g>
    <g id="xtick_2">
     <g id="line2d_5">
      <g>
       <use style="stroke:#000000;stroke-width:0.5;" x="127.8" xlink:href="#m80a6e86fac" y="388.8"/>
      </g>
     </g>
     <g id="line2d_6">
      <g>
       <use style="stroke:#000000;stroke-width:0.5;" x="127.8" xlink:href="#mea8f19e62e" y="43.2"/>
      </g>
     </g>
     <g id="text_2">
      <!-- 0.40 -->
      <defs>
       <path d="M 37.796875 64.3125 
L 12.890625 25.390625 
L 37.796875 25.390625 
z
M 35.203125 72.90625 
L 47.609375 72.90625 
L 47.609375 25.390625 
L 58.015625 25.390625 
L 58.015625 17.1875 
L 47.609375 17.1875 
L 47.609375 0 
L 37.796875 0 
L 37.796875 17.1875 
L 4.890625 17.1875 
L 4.890625 26.703125 
z
" id="BitstreamVeraSans-Roman-34"/>
      </defs>
      <g transform="translate(114.440625 401.918125)scale(0.12 -0.12)">
       <use xlink:href="#BitstreamVeraSans-Roman-30"/>
       <use x="63.623046875" xlink:href="#BitstreamVeraSans-Roman-2e"/>
       <use x="95.41015625" xlink:href="#BitstreamVeraSans-Roman-34"/>
       <use x="159.033203125" xlink:href="#BitstreamVeraSans-Roman-30"/>
      </g>
     </g>
    </g>
    <g id="xtick_3">
     <g id="line2d_7">
      <g>
       <use style="stroke:#000000;stroke-width:0.5;" x="183.6" xlink:href="#m80a6e86fac" y="388.8"/>
      </g>
     </g>
     <g id="line2d_8">
      <g>
       <use style="stroke:#000000;stroke-width:0.5;" x="183.6" xlink:href="#mea8f19e62e" y="43.2"/>
      </g>
     </g>
     <g id="text_3">
      <!-- 0.45 -->
      <g transform="translate(170.240625 401.918125)scale(0.12 -0.12)">
       <use xlink:href="#BitstreamVeraSans-Roman-30"/>
       <use x="63.623046875" xlink:href="#BitstreamVeraSans-Roman-2e"/>
       <use x="95.41015625" xlink:href="#BitstreamVeraSans-Roman-34"/>
       <use x="159.033203125" xlink:href="#BitstreamVeraSans-Roman-35"/>
      </g>
     </g>
    </g>
    <g id="xtick_4">
     <g id="line2d_9">
      <g>
       <use style="stroke:#000000;stroke-width:0.5;" x="239.4" xlink:href="#m80a6e86fac" y="388.8"/>
      </g>
     </g>
     <g id="line2d_10">
      <g>
       <use style="stroke:#000000;stroke-width:0.5;" x="239.4" xlink:href="#mea8f19e62e" y="43.2"/>
      </g>
     </g>
     <g id="text_4">
      <!-- 0.50 -->
      <g transform="translate(226.040625 401.918125)scale(0.12 -0.12)">
       <use xlink:href="#BitstreamVeraSans-Roman-30"/>
       <use x="63.623046875" xlink:href="#BitstreamVeraSans-Roman-2e"/>
       <use x="95.41015625" xlink:href="#BitstreamVeraSans-Roman-35"/>
       <use x="159.033203125" xlink:href="#BitstreamVeraSans-Roman-30"/>
      </g>
     </g>
    </g>
    <g id="xtick_5">
     <g id="line2d_11">
      <g>
       <use style="stroke:#000000;stroke-width:0.5;" x="295.2" xlink:href="#m80a6e86fac" y="388.8"/>
      </g>
     </g>
     <g id="line2d_12">
      <g>
       <use style="stroke:#000000;stroke-width:0.5;" x="295.2" xlink:href="#mea8f19e62e" y="43.2"/>
      </g>
     </g>
     <g id="text_5">
      <!-- 0.55 -->
      <g transform="translate(281.840625 401.918125)scale(0.12 -0.12)">
       <use xlink:href="#BitstreamVeraSans-Roman-30"/>
       <use x="63.623046875" xlink:href="#BitstreamVeraSans-Roman-2e"/>
       <use x="95.41015625" xlink:href="#BitstreamVeraSans-Roman-35"/>
       <use x="159.033203125" xlink:href="#BitstreamVeraSans-Roman-35"/>
      </g>
     </g>
    </g>
    <g id="xtick_6">
     <g id="line2d_13">
      <g>
       <use style="stroke:#000000;stroke-width:0.5;" x="351.0" xlink:href="#m80a6e86fac" y="388.8"/>
      </g>
     </g>
     <g id="line2d_14">
      <g>
       <use style="stroke:#000000;stroke-width:0.5;" x="351.0" xlink:href="#mea8f19e62e" y="43.2"/>
      </g>
     </g>
     <g id="text_6">
      <!-- 0.60 -->
      <defs>
       <path d="M 33.015625 40.375 
Q 26.375 40.375 22.484375 35.828125 
Q 18.609375 31.296875 18.609375 23.390625 
Q 18.609375 15.53125 22.484375 10.953125 
Q 26.375 6.390625 33.015625 6.390625 
Q 39.65625 6.390625 43.53125 10.953125 
Q 47.40625 15.53125 47.40625 23.390625 
Q 47.40625 31.296875 43.53125 35.828125 
Q 39.65625 40.375 33.015625 40.375 
M 52.59375 71.296875 
L 52.59375 62.3125 
Q 48.875 64.0625 45.09375 64.984375 
Q 41.3125 65.921875 37.59375 65.921875 
Q 27.828125 65.921875 22.671875 59.328125 
Q 17.53125 52.734375 16.796875 39.40625 
Q 19.671875 43.65625 24.015625 45.921875 
Q 28.375 48.1875 33.59375 48.1875 
Q 44.578125 48.1875 50.953125 41.515625 
Q 57.328125 34.859375 57.328125 23.390625 
Q 57.328125 12.15625 50.6875 5.359375 
Q 44.046875 -1.421875 33.015625 -1.421875 
Q 20.359375 -1.421875 13.671875 8.265625 
Q 6.984375 17.96875 6.984375 36.375 
Q 6.984375 53.65625 15.1875 63.9375 
Q 23.390625 74.21875 37.203125 74.21875 
Q 40.921875 74.21875 44.703125 73.484375 
Q 48.484375 72.75 52.59375 71.296875 
" id="BitstreamVeraSans-Roman-36"/>
      </defs>
      <g transform="translate(337.640625 401.918125)scale(0.12 -0.12)">
       <use xlink:href="#BitstreamVeraSans-Roman-30"/>
       <use x="63.623046875" xlink:href="#BitstreamVeraSans-Roman-2e"/>
       <use x="95.41015625" xlink:href="#BitstreamVeraSans-Roman-36"/>
       <use x="159.033203125" xlink:href="#BitstreamVeraSans-Roman-30"/>
      </g>
     </g>
    </g>
    <g id="xtick_7">
     <g id="line2d_15">
      <g>
       <use style="stroke:#000000;stroke-width:0.5;" x="406.8" xlink:href="#m80a6e86fac" y="388.8"/>
      </g>
     </g>
     <g id="line2d_16">
      <g>
       <use style="stroke:#000000;stroke-width:0.5;" x="406.8" xlink:href="#mea8f19e62e" y="43.2"/>
      </g>
     </g>
     <g id="text_7">
      <!-- 0.65 -->
      <g transform="translate(393.440625 401.918125)scale(0.12 -0.12)">
       <use xlink:href="#BitstreamVeraSans-Roman-30"/>
       <use x="63.623046875" xlink:href="#BitstreamVeraSans-Roman-2e"/>
       <use x="95.41015625" xlink:href="#BitstreamVeraSans-Roman-36"/>
       <use x="159.033203125" xlink:href="#BitstreamVeraSans-Roman-35"/>
      </g>
     </g>
    </g>
    <g id="xtick_8">
     <g id="line2d_17">
      <g>
       <use style="stroke:#000000;stroke-width:0.5;" x="462.6" xlink:href="#m80a6e86fac" y="388.8"/>
      </g>
     </g>
     <g id="line2d_18">
      <g>
       <use style="stroke:#000000;stroke-width:0.5;" x="462.6" xlink:href="#mea8f19e62e" y="43.2"/>
      </g>
     </g>
     <g id="text_8">
      <!-- 0.70 -->
      <defs>
       <path d="M 8.203125 72.90625 
L 55.078125 72.90625 
L 55.078125 68.703125 
L 28.609375 0 
L 18.3125 0 
L 43.21875 64.59375 
L 8.203125 64.59375 
z
" id="BitstreamVeraSans-Roman-37"/>
      </defs>
      <g transform="translate(449.240625 401.918125)scale(0.12 -0.12)">
       <use xlink:href="#BitstreamVeraSans-Roman-30"/>
       <use x="63.623046875" xlink:href="#BitstreamVeraSans-Roman-2e"/>
       <use x="95.41015625" xlink:href="#BitstreamVeraSans-Roman-37"/>
       <use x="159.033203125" xlink:href="#BitstreamVeraSans-Roman-30"/>
      </g>
     </g>
    </g>
    <g id="xtick_9">
     <g id="line2d_19">
      <g>
       <use style="stroke:#000000;stroke-width:0.5;" x="518.4" xlink:href="#m80a6e86fac" y="388.8"/>
      </g>
     </g>
     <g id="line2d_20">
      <g>
       <use style="stroke:#000000;stroke-width:0.5;" x="518.4" xlink:href="#mea8f19e62e" y="43.2"/>
      </g>
     </g>
     <g id="text_9">
      <!-- 0.75 -->
      <g transform="translate(505.040625 401.918125)scale(0.12 -0.12)">
       <use xlink:href="#BitstreamVeraSans-Roman-30"/>
       <use x="63.623046875" xlink:href="#BitstreamVeraSans-Roman-2e"/>
       <use x="95.41015625" xlink:href="#BitstreamVeraSans-Roman-37"/>
       <use x="159.033203125" xlink:href="#BitstreamVeraSans-Roman-35"/>
      </g>
     </g>
    </g>
    <g id="text_10">
     <!-- threshold -->
     <defs>
      <path d="M 30.609375 48.390625 
Q 23.390625 48.390625 19.1875 42.75 
Q 14.984375 37.109375 14.984375 27.296875 
Q 14.984375 17.484375 19.15625 11.84375 
Q 23.34375 6.203125 30.609375 6.203125 
Q 37.796875 6.203125 41.984375 11.859375 
Q 46.1875 17.53125 46.1875 27.296875 
Q 46.1875 37.015625 41.984375 42.703125 
Q 37.796875 48.390625 30.609375 48.390625 
M 30.609375 56 
Q 42.328125 56 49.015625 48.375 
Q 55.71875 40.765625 55.71875 27.296875 
Q 55.71875 13.875 49.015625 6.21875 
Q 42.328125 -1.421875 30.609375 -1.421875 
Q 18.84375 -1.421875 12.171875 6.21875 
Q 5.515625 13.875 5.515625 27.296875 
Q 5.515625 40.765625 12.171875 48.375 
Q 18.84375 56 30.609375 56 
" id="BitstreamVeraSans-Roman-6f"/>
      <path d="M 9.421875 75.984375 
L 18.40625 75.984375 
L 18.40625 0 
L 9.421875 0 
z
" id="BitstreamVeraSans-Roman-6c"/>
      <path d="M 54.890625 33.015625 
L 54.890625 0 
L 45.90625 0 
L 45.90625 32.71875 
Q 45.90625 40.484375 42.875 44.328125 
Q 39.84375 48.1875 33.796875 48.1875 
Q 26.515625 48.1875 22.3125 43.546875 
Q 18.109375 38.921875 18.109375 30.90625 
L 18.109375 0 
L 9.078125 0 
L 9.078125 75.984375 
L 18.109375 75.984375 
L 18.109375 46.1875 
Q 21.34375 51.125 25.703125 53.5625 
Q 30.078125 56 35.796875 56 
Q 45.21875 56 50.046875 50.171875 
Q 54.890625 44.34375 54.890625 33.015625 
" id="BitstreamVeraSans-Roman-68"/>
      <path d="M 56.203125 29.59375 
L 56.203125 25.203125 
L 14.890625 25.203125 
Q 15.484375 15.921875 20.484375 11.0625 
Q 25.484375 6.203125 34.421875 6.203125 
Q 39.59375 6.203125 44.453125 7.46875 
Q 49.3125 8.734375 54.109375 11.28125 
L 54.109375 2.78125 
Q 49.265625 0.734375 44.1875 -0.34375 
Q 39.109375 -1.421875 33.890625 -1.421875 
Q 20.796875 -1.421875 13.15625 6.1875 
Q 5.515625 13.8125 5.515625 26.8125 
Q 5.515625 40.234375 12.765625 48.109375 
Q 20.015625 56 32.328125 56 
Q 43.359375 56 49.78125 48.890625 
Q 56.203125 41.796875 56.203125 29.59375 
M 47.21875 32.234375 
Q 47.125 39.59375 43.09375 43.984375 
Q 39.0625 48.390625 32.421875 48.390625 
Q 24.90625 48.390625 20.390625 44.140625 
Q 15.875 39.890625 15.1875 32.171875 
z
" id="BitstreamVeraSans-Roman-65"/>
      <path d="M 45.40625 46.390625 
L 45.40625 75.984375 
L 54.390625 75.984375 
L 54.390625 0 
L 45.40625 0 
L 45.40625 8.203125 
Q 42.578125 3.328125 38.25 0.953125 
Q 33.9375 -1.421875 27.875 -1.421875 
Q 17.96875 -1.421875 11.734375 6.484375 
Q 5.515625 14.40625 5.515625 27.296875 
Q 5.515625 40.1875 11.734375 48.09375 
Q 17.96875 56 27.875 56 
Q 33.9375 56 38.25 53.625 
Q 42.578125 51.265625 45.40625 46.390625 
M 14.796875 27.296875 
Q 14.796875 17.390625 18.875 11.75 
Q 22.953125 6.109375 30.078125 6.109375 
Q 37.203125 6.109375 41.296875 11.75 
Q 45.40625 17.390625 45.40625 27.296875 
Q 45.40625 37.203125 41.296875 42.84375 
Q 37.203125 48.484375 30.078125 48.484375 
Q 22.953125 48.484375 18.875 42.84375 
Q 14.796875 37.203125 14.796875 27.296875 
" id="BitstreamVeraSans-Roman-64"/>
      <path d="M 18.3125 70.21875 
L 18.3125 54.6875 
L 36.8125 54.6875 
L 36.8125 47.703125 
L 18.3125 47.703125 
L 18.3125 18.015625 
Q 18.3125 11.328125 20.140625 9.421875 
Q 21.96875 7.515625 27.59375 7.515625 
L 36.8125 7.515625 
L 36.8125 0 
L 27.59375 0 
Q 17.1875 0 13.234375 3.875 
Q 9.28125 7.765625 9.28125 18.015625 
L 9.28125 47.703125 
L 2.6875 47.703125 
L 2.6875 54.6875 
L 9.28125 54.6875 
L 9.28125 70.21875 
z
" id="BitstreamVeraSans-Roman-74"/>
      <path d="M 41.109375 46.296875 
Q 39.59375 47.171875 37.8125 47.578125 
Q 36.03125 48 33.890625 48 
Q 26.265625 48 22.1875 43.046875 
Q 18.109375 38.09375 18.109375 28.8125 
L 18.109375 0 
L 9.078125 0 
L 9.078125 54.6875 
L 18.109375 54.6875 
L 18.109375 46.1875 
Q 20.953125 51.171875 25.484375 53.578125 
Q 30.03125 56 36.53125 56 
Q 37.453125 56 38.578125 55.875 
Q 39.703125 55.765625 41.0625 55.515625 
z
" id="BitstreamVeraSans-Roman-72"/>
      <path d="M 44.28125 53.078125 
L 44.28125 44.578125 
Q 40.484375 46.53125 36.375 47.5 
Q 32.28125 48.484375 27.875 48.484375 
Q 21.1875 48.484375 17.84375 46.4375 
Q 14.5 44.390625 14.5 40.28125 
Q 14.5 37.15625 16.890625 35.375 
Q 19.28125 33.59375 26.515625 31.984375 
L 29.59375 31.296875 
Q 39.15625 29.25 43.1875 25.515625 
Q 47.21875 21.78125 47.21875 15.09375 
Q 47.21875 7.46875 41.1875 3.015625 
Q 35.15625 -1.421875 24.609375 -1.421875 
Q 20.21875 -1.421875 15.453125 -0.5625 
Q 10.6875 0.296875 5.421875 2 
L 5.421875 11.28125 
Q 10.40625 8.6875 15.234375 7.390625 
Q 20.0625 6.109375 24.8125 6.109375 
Q 31.15625 6.109375 34.5625 8.28125 
Q 37.984375 10.453125 37.984375 14.40625 
Q 37.984375 18.0625 35.515625 20.015625 
Q 33.0625 21.96875 24.703125 23.78125 
L 21.578125 24.515625 
Q 13.234375 26.265625 9.515625 29.90625 
Q 5.8125 33.546875 5.8125 39.890625 
Q 5.8125 47.609375 11.28125 51.796875 
Q 16.75 56 26.8125 56 
Q 31.78125 56 36.171875 55.265625 
Q 40.578125 54.546875 44.28125 53.078125 
" id="BitstreamVeraSans-Roman-73"/>
     </defs>
     <g transform="translate(250.254609375 423.85078125)scale(0.19 -0.19)">
      <use xlink:href="#BitstreamVeraSans-Roman-74"/>
      <use x="39.208984375" xlink:href="#BitstreamVeraSans-Roman-68"/>
      <use x="102.587890625" xlink:href="#BitstreamVeraSans-Roman-72"/>
      <use x="143.669921875" xlink:href="#BitstreamVeraSans-Roman-65"/>
      <use x="205.193359375" xlink:href="#BitstreamVeraSans-Roman-73"/>
      <use x="257.29296875" xlink:href="#BitstreamVeraSans-Roman-68"/>
      <use x="320.671875" xlink:href="#BitstreamVeraSans-Roman-6f"/>
      <use x="381.853515625" xlink:href="#BitstreamVeraSans-Roman-6c"/>
      <use x="409.63671875" xlink:href="#BitstreamVeraSans-Roman-64"/>
     </g>
    </g>
   </g>
   <g id="matplotlib.axis_2">
    <g id="ytick_1">
     <g id="line2d_21">
      <defs>
       <path d="M 0 0 
L 4 0 
" id="m389e1f18d8" style="stroke:#000000;stroke-width:0.5;"/>
      </defs>
      <g>
       <use style="stroke:#000000;stroke-width:0.5;" x="72.0" xlink:href="#m389e1f18d8" y="388.8"/>
      </g>
     </g>
     <g id="line2d_22">
      <defs>
       <path d="M 0 0 
L -4 0 
" id="ma472155376" style="stroke:#000000;stroke-width:0.5;"/>
      </defs>
      <g>
       <use style="stroke:#000000;stroke-width:0.5;" x="518.4" xlink:href="#ma472155376" y="388.8"/>
      </g>
     </g>
     <g id="text_11">
      <!-- 0.0 -->
      <g transform="translate(48.91625 392.11125)scale(0.12 -0.12)">
       <use xlink:href="#BitstreamVeraSans-Roman-30"/>
       <use x="63.623046875" xlink:href="#BitstreamVeraSans-Roman-2e"/>
       <use x="95.41015625" xlink:href="#BitstreamVeraSans-Roman-30"/>
      </g>
     </g>
    </g>
    <g id="ytick_2">
     <g id="line2d_23">
      <g>
       <use style="stroke:#000000;stroke-width:0.5;" x="72.0" xlink:href="#m389e1f18d8" y="319.68"/>
      </g>
     </g>
     <g id="line2d_24">
      <g>
       <use style="stroke:#000000;stroke-width:0.5;" x="518.4" xlink:href="#ma472155376" y="319.68"/>
      </g>
     </g>
     <g id="text_12">
      <!-- 0.2 -->
      <defs>
       <path d="M 19.1875 8.296875 
L 53.609375 8.296875 
L 53.609375 0 
L 7.328125 0 
L 7.328125 8.296875 
Q 12.9375 14.109375 22.625 23.890625 
Q 32.328125 33.6875 34.8125 36.53125 
Q 39.546875 41.84375 41.421875 45.53125 
Q 43.3125 49.21875 43.3125 52.78125 
Q 43.3125 58.59375 39.234375 62.25 
Q 35.15625 65.921875 28.609375 65.921875 
Q 23.96875 65.921875 18.8125 64.3125 
Q 13.671875 62.703125 7.8125 59.421875 
L 7.8125 69.390625 
Q 13.765625 71.78125 18.9375 73 
Q 24.125 74.21875 28.421875 74.21875 
Q 39.75 74.21875 46.484375 68.546875 
Q 53.21875 62.890625 53.21875 53.421875 
Q 53.21875 48.921875 51.53125 44.890625 
Q 49.859375 40.875 45.40625 35.40625 
Q 44.1875 33.984375 37.640625 27.21875 
Q 31.109375 20.453125 19.1875 8.296875 
" id="BitstreamVeraSans-Roman-32"/>
      </defs>
      <g transform="translate(48.91625 322.99125)scale(0.12 -0.12)">
       <use xlink:href="#BitstreamVeraSans-Roman-30"/>
       <use x="63.623046875" xlink:href="#BitstreamVeraSans-Roman-2e"/>
       <use x="95.41015625" xlink:href="#BitstreamVeraSans-Roman-32"/>
      </g>
     </g>
    </g>
    <g id="ytick_3">
     <g id="line2d_25">
      <g>
       <use style="stroke:#000000;stroke-width:0.5;" x="72.0" xlink:href="#m389e1f18d8" y="250.56"/>
      </g>
     </g>
     <g id="line2d_26">
      <g>
       <use style="stroke:#000000;stroke-width:0.5;" x="518.4" xlink:href="#ma472155376" y="250.56"/>
      </g>
     </g>
     <g id="text_13">
      <!-- 0.4 -->
      <g transform="translate(48.91625 253.87125)scale(0.12 -0.12)">
       <use xlink:href="#BitstreamVeraSans-Roman-30"/>
       <use x="63.623046875" xlink:href="#BitstreamVeraSans-Roman-2e"/>
       <use x="95.41015625" xlink:href="#BitstreamVeraSans-Roman-34"/>
      </g>
     </g>
    </g>
    <g id="ytick_4">
     <g id="line2d_27">
      <g>
       <use style="stroke:#000000;stroke-width:0.5;" x="72.0" xlink:href="#m389e1f18d8" y="181.44"/>
      </g>
     </g>
     <g id="line2d_28">
      <g>
       <use style="stroke:#000000;stroke-width:0.5;" x="518.4" xlink:href="#ma472155376" y="181.44"/>
      </g>
     </g>
     <g id="text_14">
      <!-- 0.6 -->
      <g transform="translate(48.91625 184.75125)scale(0.12 -0.12)">
       <use xlink:href="#BitstreamVeraSans-Roman-30"/>
       <use x="63.623046875" xlink:href="#BitstreamVeraSans-Roman-2e"/>
       <use x="95.41015625" xlink:href="#BitstreamVeraSans-Roman-36"/>
      </g>
     </g>
    </g>
    <g id="ytick_5">
     <g id="line2d_29">
      <g>
       <use style="stroke:#000000;stroke-width:0.5;" x="72.0" xlink:href="#m389e1f18d8" y="112.32"/>
      </g>
     </g>
     <g id="line2d_30">
      <g>
       <use style="stroke:#000000;stroke-width:0.5;" x="518.4" xlink:href="#ma472155376" y="112.32"/>
      </g>
     </g>
     <g id="text_15">
      <!-- 0.8 -->
      <defs>
       <path d="M 31.78125 34.625 
Q 24.75 34.625 20.71875 30.859375 
Q 16.703125 27.09375 16.703125 20.515625 
Q 16.703125 13.921875 20.71875 10.15625 
Q 24.75 6.390625 31.78125 6.390625 
Q 38.8125 6.390625 42.859375 10.171875 
Q 46.921875 13.96875 46.921875 20.515625 
Q 46.921875 27.09375 42.890625 30.859375 
Q 38.875 34.625 31.78125 34.625 
M 21.921875 38.8125 
Q 15.578125 40.375 12.03125 44.71875 
Q 8.5 49.078125 8.5 55.328125 
Q 8.5 64.0625 14.71875 69.140625 
Q 20.953125 74.21875 31.78125 74.21875 
Q 42.671875 74.21875 48.875 69.140625 
Q 55.078125 64.0625 55.078125 55.328125 
Q 55.078125 49.078125 51.53125 44.71875 
Q 48 40.375 41.703125 38.8125 
Q 48.828125 37.15625 52.796875 32.3125 
Q 56.78125 27.484375 56.78125 20.515625 
Q 56.78125 9.90625 50.3125 4.234375 
Q 43.84375 -1.421875 31.78125 -1.421875 
Q 19.734375 -1.421875 13.25 4.234375 
Q 6.78125 9.90625 6.78125 20.515625 
Q 6.78125 27.484375 10.78125 32.3125 
Q 14.796875 37.15625 21.921875 38.8125 
M 18.3125 54.390625 
Q 18.3125 48.734375 21.84375 45.5625 
Q 25.390625 42.390625 31.78125 42.390625 
Q 38.140625 42.390625 41.71875 45.5625 
Q 45.3125 48.734375 45.3125 54.390625 
Q 45.3125 60.0625 41.71875 63.234375 
Q 38.140625 66.40625 31.78125 66.40625 
Q 25.390625 66.40625 21.84375 63.234375 
Q 18.3125 60.0625 18.3125 54.390625 
" id="BitstreamVeraSans-Roman-38"/>
      </defs>
      <g transform="translate(48.91625 115.63125)scale(0.12 -0.12)">
       <use xlink:href="#BitstreamVeraSans-Roman-30"/>
       <use x="63.623046875" xlink:href="#BitstreamVeraSans-Roman-2e"/>
       <use x="95.41015625" xlink:href="#BitstreamVeraSans-Roman-38"/>
      </g>
     </g>
    </g>
    <g id="ytick_6">
     <g id="line2d_31">
      <g>
       <use style="stroke:#000000;stroke-width:0.5;" x="72.0" xlink:href="#m389e1f18d8" y="43.2"/>
      </g>
     </g>
     <g id="line2d_32">
      <g>
       <use style="stroke:#000000;stroke-width:0.5;" x="518.4" xlink:href="#ma472155376" y="43.2"/>
      </g>
     </g>
     <g id="text_16">
      <!-- 1.0 -->
      <defs>
       <path d="M 12.40625 8.296875 
L 28.515625 8.296875 
L 28.515625 63.921875 
L 10.984375 60.40625 
L 10.984375 69.390625 
L 28.421875 72.90625 
L 38.28125 72.90625 
L 38.28125 8.296875 
L 54.390625 8.296875 
L 54.390625 0 
L 12.40625 0 
z
" id="BitstreamVeraSans-Roman-31"/>
      </defs>
      <g transform="translate(48.91625 46.51125)scale(0.12 -0.12)">
       <use xlink:href="#BitstreamVeraSans-Roman-31"/>
       <use x="63.623046875" xlink:href="#BitstreamVeraSans-Roman-2e"/>
       <use x="95.41015625" xlink:href="#BitstreamVeraSans-Roman-30"/>
      </g>
     </g>
    </g>
   </g>
   <g id="legend_1">
    <g id="patch_7">
     <path d="M 354.373594 114.176875 
L 508.9 114.176875 
L 508.9 52.7 
L 354.373594 52.7 
z
" style="fill:#ffffff;stroke:#000000;stroke-linejoin:miter;"/>
    </g>
    <g id="line2d_33">
     <path d="M 367.673594 68.087031 
L 394.273594 68.087031 
" style="fill:none;stroke:#ff0000;stroke-linecap:square;stroke-width:5.0;"/>
    </g>
    <g id="line2d_34"/>
    <g id="text_17">
     <!-- precision -->
     <defs>
      <path d="M 54.890625 33.015625 
L 54.890625 0 
L 45.90625 0 
L 45.90625 32.71875 
Q 45.90625 40.484375 42.875 44.328125 
Q 39.84375 48.1875 33.796875 48.1875 
Q 26.515625 48.1875 22.3125 43.546875 
Q 18.109375 38.921875 18.109375 30.90625 
L 18.109375 0 
L 9.078125 0 
L 9.078125 54.6875 
L 18.109375 54.6875 
L 18.109375 46.1875 
Q 21.34375 51.125 25.703125 53.5625 
Q 30.078125 56 35.796875 56 
Q 45.21875 56 50.046875 50.171875 
Q 54.890625 44.34375 54.890625 33.015625 
" id="BitstreamVeraSans-Roman-6e"/>
      <path d="M 9.421875 54.6875 
L 18.40625 54.6875 
L 18.40625 0 
L 9.421875 0 
z
M 9.421875 75.984375 
L 18.40625 75.984375 
L 18.40625 64.59375 
L 9.421875 64.59375 
z
" id="BitstreamVeraSans-Roman-69"/>
      <path d="M 48.78125 52.59375 
L 48.78125 44.1875 
Q 44.96875 46.296875 41.140625 47.34375 
Q 37.3125 48.390625 33.40625 48.390625 
Q 24.65625 48.390625 19.8125 42.84375 
Q 14.984375 37.3125 14.984375 27.296875 
Q 14.984375 17.28125 19.8125 11.734375 
Q 24.65625 6.203125 33.40625 6.203125 
Q 37.3125 6.203125 41.140625 7.25 
Q 44.96875 8.296875 48.78125 10.40625 
L 48.78125 2.09375 
Q 45.015625 0.34375 40.984375 -0.53125 
Q 36.96875 -1.421875 32.421875 -1.421875 
Q 20.0625 -1.421875 12.78125 6.34375 
Q 5.515625 14.109375 5.515625 27.296875 
Q 5.515625 40.671875 12.859375 48.328125 
Q 20.21875 56 33.015625 56 
Q 37.15625 56 41.109375 55.140625 
Q 45.0625 54.296875 48.78125 52.59375 
" id="BitstreamVeraSans-Roman-63"/>
      <path d="M 18.109375 8.203125 
L 18.109375 -20.796875 
L 9.078125 -20.796875 
L 9.078125 54.6875 
L 18.109375 54.6875 
L 18.109375 46.390625 
Q 20.953125 51.265625 25.265625 53.625 
Q 29.59375 56 35.59375 56 
Q 45.5625 56 51.78125 48.09375 
Q 58.015625 40.1875 58.015625 27.296875 
Q 58.015625 14.40625 51.78125 6.484375 
Q 45.5625 -1.421875 35.59375 -1.421875 
Q 29.59375 -1.421875 25.265625 0.953125 
Q 20.953125 3.328125 18.109375 8.203125 
M 48.6875 27.296875 
Q 48.6875 37.203125 44.609375 42.84375 
Q 40.53125 48.484375 33.40625 48.484375 
Q 26.265625 48.484375 22.1875 42.84375 
Q 18.109375 37.203125 18.109375 27.296875 
Q 18.109375 17.390625 22.1875 11.75 
Q 26.265625 6.109375 33.40625 6.109375 
Q 40.53125 6.109375 44.609375 11.75 
Q 48.6875 17.390625 48.6875 27.296875 
" id="BitstreamVeraSans-Roman-70"/>
     </defs>
     <g transform="translate(415.17359375 74.73703125)scale(0.19 -0.19)">
      <use xlink:href="#BitstreamVeraSans-Roman-70"/>
      <use x="63.4765625" xlink:href="#BitstreamVeraSans-Roman-72"/>
      <use x="104.55859375" xlink:href="#BitstreamVeraSans-Roman-65"/>
      <use x="166.08203125" xlink:href="#BitstreamVeraSans-Roman-63"/>
      <use x="221.0625" xlink:href="#BitstreamVeraSans-Roman-69"/>
      <use x="248.845703125" xlink:href="#BitstreamVeraSans-Roman-73"/>
      <use x="300.9453125" xlink:href="#BitstreamVeraSans-Roman-69"/>
      <use x="328.728515625" xlink:href="#BitstreamVeraSans-Roman-6f"/>
      <use x="389.91015625" xlink:href="#BitstreamVeraSans-Roman-6e"/>
     </g>
    </g>
    <g id="line2d_35">
     <path d="M 367.673594 95.975469 
L 394.273594 95.975469 
" style="fill:none;stroke:#0000ff;stroke-linecap:square;stroke-width:5.0;"/>
    </g>
    <g id="line2d_36"/>
    <g id="text_18">
     <!-- recall -->
     <defs>
      <path d="M 34.28125 27.484375 
Q 23.390625 27.484375 19.1875 25 
Q 14.984375 22.515625 14.984375 16.5 
Q 14.984375 11.71875 18.140625 8.90625 
Q 21.296875 6.109375 26.703125 6.109375 
Q 34.1875 6.109375 38.703125 11.40625 
Q 43.21875 16.703125 43.21875 25.484375 
L 43.21875 27.484375 
z
M 52.203125 31.203125 
L 52.203125 0 
L 43.21875 0 
L 43.21875 8.296875 
Q 40.140625 3.328125 35.546875 0.953125 
Q 30.953125 -1.421875 24.3125 -1.421875 
Q 15.921875 -1.421875 10.953125 3.296875 
Q 6 8.015625 6 15.921875 
Q 6 25.140625 12.171875 29.828125 
Q 18.359375 34.515625 30.609375 34.515625 
L 43.21875 34.515625 
L 43.21875 35.40625 
Q 43.21875 41.609375 39.140625 45 
Q 35.0625 48.390625 27.6875 48.390625 
Q 23 48.390625 18.546875 47.265625 
Q 14.109375 46.140625 10.015625 43.890625 
L 10.015625 52.203125 
Q 14.9375 54.109375 19.578125 55.046875 
Q 24.21875 56 28.609375 56 
Q 40.484375 56 46.34375 49.84375 
Q 52.203125 43.703125 52.203125 31.203125 
" id="BitstreamVeraSans-Roman-61"/>
     </defs>
     <g transform="translate(415.17359375 102.62546875)scale(0.19 -0.19)">
      <use xlink:href="#BitstreamVeraSans-Roman-72"/>
      <use x="41.08203125" xlink:href="#BitstreamVeraSans-Roman-65"/>
      <use x="102.60546875" xlink:href="#BitstreamVeraSans-Roman-63"/>
      <use x="157.5859375" xlink:href="#BitstreamVeraSans-Roman-61"/>
      <use x="218.865234375" xlink:href="#BitstreamVeraSans-Roman-6c"/>
      <use x="246.6484375" xlink:href="#BitstreamVeraSans-Roman-6c"/>
     </g>
    </g>
   </g>
  </g>
 </g>
 <defs>
  <clipPath id="p01d77a5c73">
   <rect height="345.6" width="446.4" x="72.0" y="43.2"/>
  </clipPath>
 </defs>
</svg>
