<?xml version="1.0" encoding="utf-8" standalone="no"?>
<!DOCTYPE svg PUBLIC "-//W3C//DTD SVG 1.1//EN"
  "http://www.w3.org/Graphics/SVG/1.1/DTD/svg11.dtd">
<!-- Created with matplotlib (http://matplotlib.org/) -->
<svg height="432pt" version="1.1" viewBox="0 0 576 432" width="576pt" xmlns="http://www.w3.org/2000/svg" xmlns:xlink="http://www.w3.org/1999/xlink">
 <defs>
  <style type="text/css">
*{stroke-linecap:butt;stroke-linejoin:round;stroke-miterlimit:100000;}
  </style>
 </defs>
 <g id="figure_1">
  <g id="patch_1">
   <path d="M 0 432 
L 576 432 
L 576 0 
L 0 0 
z
" style="fill:#ffffff;"/>
  </g>
  <g id="axes_1">
   <g id="patch_2">
    <path d="M 72 388.8 
L 518.4 388.8 
L 518.4 43.2 
L 72 43.2 
z
" style="fill:#ffffff;"/>
   </g>
   <g id="line2d_1">
    <path clip-path="url(#pf0c2b266be)" d="M 111.022799 218.809756 
L 113.402474 219.526531 
L 114.156518 218.832787 
L 115.917126 218.133333 
L 115.950087 217.428099 
L 116.250443 216.717012 
L 117.512305 216 
L 118.075004 215.276987 
L 118.258103 214.547899 
L 119.096345 213.812658 
L 119.640107 213.071186 
L 120.193431 210.808584 
L 120.91162 210.041379 
L 121.179001 209.267532 
L 122.314465 206.905263 
L 122.78951 205.295575 
L 123.370595 204.48 
L 123.629637 203.657143 
L 123.66079 202.826906 
L 125.292178 203.545946 
L 125.324646 204.271493 
L 125.445868 203.432727 
L 125.967822 202.586301 
L 126.36296 201.73211 
L 128.050188 200.870046 
L 128.142938 200 
L 128.523069 200.729302 
L 128.554578 199.850467 
L 128.782606 198.96338 
L 128.83124 198.067925 
L 129.193194 197.163981 
L 130.079341 196.251429 
L 131.449518 195.330144 
L 132.478981 194.4 
L 132.951222 193.46087 
L 133.556612 192.512621 
L 133.623732 191.555122 
L 134.510979 190.588235 
L 135.002748 191.314286 
L 135.499346 189.349254 
L 135.920925 190.08 
L 136.770769 189.081407 
L 137.162197 188.072727 
L 137.860435 187.053807 
L 137.888179 187.787755 
L 138.827962 185.715464 
L 139.883864 184.663212 
L 140.666355 183.6 
L 140.74175 182.525654 
L 140.953712 181.44 
L 141.46541 180.342857 
L 142.671808 179.234043 
L 143.39825 178.113369 
L 143.905771 178.83871 
L 144.052821 179.571892 
L 144.341262 180.313043 
L 144.493421 181.062295 
L 145.122252 181.81978 
L 146.055824 182.585635 
L 146.786133 181.44 
L 146.951614 180.281564 
L 147.405774 181.051685 
L 148.022399 178.690909 
L 148.043195 179.465143 
L 148.639168 178.262069 
L 149.745501 179.042775 
L 149.768679 177.823256 
L 149.945258 176.589474 
L 150.774917 175.341176 
L 151.125735 176.123077 
L 152.210449 176.914286 
L 152.410416 177.71497 
L 153.297245 176.443373 
L 153.360916 175.156364 
L 153.845243 173.853659 
L 154.3204 174.655215 
L 154.469334 173.333333 
L 155.066983 171.995031 
L 155.152116 172.8 
L 156.191674 173.615094 
L 156.589455 174.440506 
L 157.671544 175.276433 
L 157.818204 173.907692 
L 158.744921 172.52129 
L 158.849045 171.116883 
L 159.589541 169.694118 
L 159.711765 168.252632 
L 159.762832 169.080795 
L 160.88066 167.616 
L 161.275776 166.131544 
L 161.312247 164.627027 
L 162.498709 163.102041 
L 163.004998 161.556164 
L 163.875736 159.988966 
L 164.395144 160.8 
L 164.56909 161.622378 
L 165.659165 162.456338 
L 166.687469 160.851064 
L 167.003769 159.222857 
L 167.181859 157.571223 
L 168.192537 158.4 
L 168.729711 156.718248 
L 170.391621 155.011765 
L 174.770288 156.680597 
L 174.823326 154.935338 
L 175.019704 155.781818 
L 175.643219 154.003053 
L 176.015248 152.196923 
L 176.158867 150.362791 
L 177.224182 148.5 
L 177.589242 146.607874 
L 179.313883 147.428571 
L 180.109532 148.2624 
L 180.401602 144.35122 
L 183.349946 145.180328 
L 183.401064 146.02314 
L 184.680145 146.88 
L 186.369195 147.751261 
L 186.712086 145.708475 
L 187.141227 146.584615 
L 188.834374 147.475862 
L 188.917312 145.377391 
L 189.510753 143.242105 
L 189.820617 141.069027 
L 190.767046 141.942857 
L 191.131227 139.718919 
L 191.390818 140.596364 
L 192.398728 138.319266 
L 192.642403 136 
L 193.816132 133.637383 
L 196.387103 131.230189 
L 197.171458 128.777143 
L 197.375029 126.276923 
L 198.678817 127.083495 
L 199.272057 127.905882 
L 199.782584 125.322772 
L 203.158765 122.688 
L 206.860765 123.490909 
L 209.322491 120.783673 
L 216.110958 121.583505 
L 216.573067 122.4 
L 217.680415 123.233684 
L 217.838722 120.408511 
L 220.142741 121.23871 
L 220.574773 122.086957 
L 221.476495 122.953846 
L 224.278548 123.84 
L 224.685523 124.746067 
L 226.297413 125.672727 
L 226.578671 126.62069 
L 231.937739 127.590698 
L 232.011957 124.517647 
L 232.713258 121.371429 
L 233.628882 122.313253 
L 238.799078 119.063415 
L 240.514438 120 
L 240.600777 120.96 
L 241.764772 117.56962 
L 241.85846 114.092308 
L 242.663391 110.524675 
L 245.284357 106.863158 
L 245.964008 107.712 
L 249.307318 110.4 
L 250.633818 106.478873 
L 252.683008 102.445714 
L 253.31113 98.295652 
L 254.304634 94.023529 
L 256.540598 94.78209 
L 256.874346 95.563636 
L 257.559872 96.369231 
L 258.614996 97.2 
L 261.607309 98.057143 
L 262.77177 98.941935 
L 264.816403 99.855738 
L 273.324914 101.776271 
L 273.896428 102.786207 
L 276.512543 103.831579 
L 280.726344 104.914286 
L 280.895177 106.036364 
L 282.889988 107.2 
L 285.808872 108.407547 
L 288.908622 103.015385 
L 293.972643 97.411765 
L 295.50588 92.571429 
L 295.947265 86.4 
L 299.022038 88.278261 
L 299.517844 89.28 
L 299.644821 82.472727 
L 299.695228 83.386047 
L 300.348866 84.342857 
L 308.447885 85.346341 
L 308.471554 86.4 
L 310.866983 87.507692 
L 313.507658 79.578947 
L 318.894316 71.221622 
L 320.240517 72 
L 320.751461 72.822857 
L 325.949434 63.529412 
L 327.131923 64.145455 
L 334.04002 65.496774 
L 334.58559 66.24 
L 336.490821 67.034483 
L 339.789192 67.885714 
L 340.370933 68.8 
L 345.864392 69.784615 
L 351.149521 70.848 
L 353.667233 72 
L 354.12703 58.226087 
L 357.059724 58.909091 
L 364.610006 60.48 
L 365.789256 61.389474 
L 367.799171 62.4 
L 368.762089 43.2 
L 481.213192 43.2 
L 481.213192 43.2 
" style="fill:none;stroke:#ff0000;stroke-linecap:square;stroke-width:5.0;"/>
   </g>
   <g id="line2d_2">
    <path clip-path="url(#pf0c2b266be)" d="M 111.022799 43.2 
L 113.402474 46.056198 
L 123.66079 46.056198 
L 125.292178 48.912397 
L 125.324646 51.768595 
L 128.142938 51.768595 
L 128.554578 54.624793 
L 134.510979 54.624793 
L 135.002748 57.480992 
L 135.499346 57.480992 
L 135.920925 60.33719 
L 137.860435 60.33719 
L 137.888179 63.193388 
L 143.39825 63.193388 
L 143.905771 66.049587 
L 144.052821 68.905785 
L 144.341262 71.761983 
L 144.493421 74.618182 
L 145.122252 77.47438 
L 146.055824 80.330579 
L 146.951614 80.330579 
L 147.405774 83.186777 
L 148.022399 83.186777 
L 148.043195 86.042975 
L 148.639168 86.042975 
L 149.768679 88.899174 
L 150.774917 88.899174 
L 151.125735 91.755372 
L 152.210449 94.61157 
L 152.410416 97.467769 
L 153.845243 97.467769 
L 154.3204 100.323967 
L 155.066983 100.323967 
L 155.152116 103.180165 
L 156.191674 106.036364 
L 156.589455 108.892562 
L 157.671544 111.74876 
L 159.711765 111.74876 
L 159.762832 114.604959 
L 163.875736 114.604959 
L 164.395144 117.461157 
L 164.56909 120.317355 
L 165.659165 123.173554 
L 167.181859 123.173554 
L 168.192537 126.029752 
L 170.391621 126.029752 
L 174.770288 131.742149 
L 174.823326 131.742149 
L 175.019704 134.598347 
L 177.589242 134.598347 
L 179.313883 137.454545 
L 180.222762 140.310744 
L 180.401602 140.310744 
L 183.349946 143.166942 
L 183.401064 146.02314 
L 184.680145 148.879339 
L 186.369195 151.735537 
L 186.712086 151.735537 
L 187.141227 154.591736 
L 188.917312 157.447934 
L 189.820617 157.447934 
L 190.767046 160.304132 
L 191.131227 160.304132 
L 191.390818 163.160331 
L 197.375029 163.160331 
L 198.678817 166.016529 
L 199.272057 168.872727 
L 203.158765 168.872727 
L 206.860765 171.728926 
L 209.322491 171.728926 
L 216.110958 174.585124 
L 216.573067 177.441322 
L 217.680415 180.297521 
L 217.838722 180.297521 
L 220.142741 183.153719 
L 220.574773 186.009917 
L 221.476495 188.866116 
L 224.278548 191.722314 
L 224.685523 194.578512 
L 226.297413 197.434711 
L 226.578671 200.290909 
L 232.011957 203.147107 
L 232.713258 203.147107 
L 233.628882 206.003306 
L 238.799078 206.003306 
L 240.514438 208.859504 
L 240.600777 211.715702 
L 245.284357 211.715702 
L 245.964008 214.571901 
L 246.997469 217.428099 
L 248.223425 220.284298 
L 249.307318 223.140496 
L 254.304634 223.140496 
L 256.540598 225.996694 
L 256.874346 228.852893 
L 257.559872 231.709091 
L 258.614996 234.565289 
L 261.607309 237.421488 
L 262.77177 240.277686 
L 264.816403 243.133884 
L 268.821836 245.990083 
L 273.324914 248.846281 
L 273.896428 251.702479 
L 276.512543 254.558678 
L 280.726344 257.414876 
L 280.895177 260.271074 
L 282.889988 263.127273 
L 285.808872 265.983471 
L 293.972643 265.983471 
L 295.50588 268.839669 
L 295.947265 268.839669 
L 299.022038 274.552066 
L 299.517844 277.408264 
L 299.644821 277.408264 
L 299.695228 280.264463 
L 300.348866 283.120661 
L 308.447885 285.97686 
L 308.471554 288.833058 
L 310.866983 291.689256 
L 318.894316 291.689256 
L 320.240517 294.545455 
L 320.751461 297.401653 
L 325.949434 297.401653 
L 327.131923 300.257851 
L 330.379085 303.11405 
L 334.04002 305.970248 
L 334.58559 308.826446 
L 336.490821 311.682645 
L 339.789192 314.538843 
L 340.370933 317.395041 
L 351.149521 323.107438 
L 353.667233 325.963636 
L 354.12703 325.963636 
L 357.059724 328.819835 
L 364.610006 334.532231 
L 365.789256 337.38843 
L 367.799171 340.244628 
L 368.762089 340.244628 
L 370.183876 343.100826 
L 373.096385 345.957025 
L 382.717643 348.813223 
L 383.275889 351.669421 
L 387.82502 354.52562 
L 397.564983 357.381818 
L 405.602059 360.238017 
L 411.886233 363.094215 
L 412.35643 365.950413 
L 425.645596 368.806612 
L 425.79336 371.66281 
L 451.92052 374.519008 
L 452.724337 377.375207 
L 457.291172 380.231405 
L 459.44561 383.087603 
L 481.213192 385.943802 
L 481.213192 385.943802 
" style="fill:none;stroke:#0000ff;stroke-linecap:square;stroke-width:5.0;"/>
   </g>
   <g id="patch_3">
    <path d="M 72 43.2 
L 518.4 43.2 
" style="fill:none;stroke:#000000;stroke-linecap:square;stroke-linejoin:miter;"/>
   </g>
   <g id="patch_4">
    <path d="M 518.4 388.8 
L 518.4 43.2 
" style="fill:none;stroke:#000000;stroke-linecap:square;stroke-linejoin:miter;"/>
   </g>
   <g id="patch_5">
    <path d="M 72 388.8 
L 518.4 388.8 
" style="fill:none;stroke:#000000;stroke-linecap:square;stroke-linejoin:miter;"/>
   </g>
   <g id="patch_6">
    <path d="M 72 388.8 
L 72 43.2 
" style="fill:none;stroke:#000000;stroke-linecap:square;stroke-linejoin:miter;"/>
   </g>
   <g id="matplotlib.axis_1">
    <g id="xtick_1">
     <g id="line2d_3">
      <defs>
       <path d="M 0 0 
L 0 -4 
" id="m41d094445e" style="stroke:#000000;stroke-width:0.5;"/>
      </defs>
      <g>
       <use style="stroke:#000000;stroke-width:0.5;" x="72.0" xlink:href="#m41d094445e" y="388.8"/>
      </g>
     </g>
     <g id="line2d_4">
      <defs>
       <path d="M 0 0 
L 0 4 
" id="m9a6fea3f53" style="stroke:#000000;stroke-width:0.5;"/>
      </defs>
      <g>
       <use style="stroke:#000000;stroke-width:0.5;" x="72.0" xlink:href="#m9a6fea3f53" y="43.2"/>
      </g>
     </g>
     <g id="text_1">
      <!-- 0.35 -->
      <defs>
       <path d="M 40.578125 39.3125 
Q 47.65625 37.796875 51.625 33 
Q 55.609375 28.21875 55.609375 21.1875 
Q 55.609375 10.40625 48.1875 4.484375 
Q 40.765625 -1.421875 27.09375 -1.421875 
Q 22.515625 -1.421875 17.65625 -0.515625 
Q 12.796875 0.390625 7.625 2.203125 
L 7.625 11.71875 
Q 11.71875 9.328125 16.59375 8.109375 
Q 21.484375 6.890625 26.8125 6.890625 
Q 36.078125 6.890625 40.9375 10.546875 
Q 45.796875 14.203125 45.796875 21.1875 
Q 45.796875 27.640625 41.28125 31.265625 
Q 36.765625 34.90625 28.71875 34.90625 
L 20.21875 34.90625 
L 20.21875 43.015625 
L 29.109375 43.015625 
Q 36.375 43.015625 40.234375 45.921875 
Q 44.09375 48.828125 44.09375 54.296875 
Q 44.09375 59.90625 40.109375 62.90625 
Q 36.140625 65.921875 28.71875 65.921875 
Q 24.65625 65.921875 20.015625 65.03125 
Q 15.375 64.15625 9.8125 62.3125 
L 9.8125 71.09375 
Q 15.4375 72.65625 20.34375 73.4375 
Q 25.25 74.21875 29.59375 74.21875 
Q 40.828125 74.21875 47.359375 69.109375 
Q 53.90625 64.015625 53.90625 55.328125 
Q 53.90625 49.265625 50.4375 45.09375 
Q 46.96875 40.921875 40.578125 39.3125 
" id="BitstreamVeraSans-Roman-33"/>
       <path d="M 31.78125 66.40625 
Q 24.171875 66.40625 20.328125 58.90625 
Q 16.5 51.421875 16.5 36.375 
Q 16.5 21.390625 20.328125 13.890625 
Q 24.171875 6.390625 31.78125 6.390625 
Q 39.453125 6.390625 43.28125 13.890625 
Q 47.125 21.390625 47.125 36.375 
Q 47.125 51.421875 43.28125 58.90625 
Q 39.453125 66.40625 31.78125 66.40625 
M 31.78125 74.21875 
Q 44.046875 74.21875 50.515625 64.515625 
Q 56.984375 54.828125 56.984375 36.375 
Q 56.984375 17.96875 50.515625 8.265625 
Q 44.046875 -1.421875 31.78125 -1.421875 
Q 19.53125 -1.421875 13.0625 8.265625 
Q 6.59375 17.96875 6.59375 36.375 
Q 6.59375 54.828125 13.0625 64.515625 
Q 19.53125 74.21875 31.78125 74.21875 
" id="BitstreamVeraSans-Roman-30"/>
       <path d="M 10.6875 12.40625 
L 21 12.40625 
L 21 0 
L 10.6875 0 
z
" id="BitstreamVeraSans-Roman-2e"/>
       <path d="M 10.796875 72.90625 
L 49.515625 72.90625 
L 49.515625 64.59375 
L 19.828125 64.59375 
L 19.828125 46.734375 
Q 21.96875 47.46875 24.109375 47.828125 
Q 26.265625 48.1875 28.421875 48.1875 
Q 40.625 48.1875 47.75 41.5 
Q 54.890625 34.8125 54.890625 23.390625 
Q 54.890625 11.625 47.5625 5.09375 
Q 40.234375 -1.421875 26.90625 -1.421875 
Q 22.3125 -1.421875 17.546875 -0.640625 
Q 12.796875 0.140625 7.71875 1.703125 
L 7.71875 11.625 
Q 12.109375 9.234375 16.796875 8.0625 
Q 21.484375 6.890625 26.703125 6.890625 
Q 35.15625 6.890625 40.078125 11.328125 
Q 45.015625 15.765625 45.015625 23.390625 
Q 45.015625 31 40.078125 35.4375 
Q 35.15625 39.890625 26.703125 39.890625 
Q 22.75 39.890625 18.8125 39.015625 
Q 14.890625 38.140625 10.796875 36.28125 
z
" id="BitstreamVeraSans-Roman-35"/>
      </defs>
      <g transform="translate(58.640625 401.918125)scale(0.12 -0.12)">
       <use xlink:href="#BitstreamVeraSans-Roman-30"/>
       <use x="63.623046875" xlink:href="#BitstreamVeraSans-Roman-2e"/>
       <use x="95.41015625" xlink:href="#BitstreamVeraSans-Roman-33"/>
       <use x="159.033203125" xlink:href="#BitstreamVeraSans-Roman-35"/>
      </g>
     </g>
    </g>
    <g id="xtick_2">
     <g id="line2d_5">
      <g>
       <use style="stroke:#000000;stroke-width:0.5;" x="127.8" xlink:href="#m41d094445e" y="388.8"/>
      </g>
     </g>
     <g id="line2d_6">
      <g>
       <use style="stroke:#000000;stroke-width:0.5;" x="127.8" xlink:href="#m9a6fea3f53" y="43.2"/>
      </g>
     </g>
     <g id="text_2">
      <!-- 0.40 -->
      <defs>
       <path d="M 37.796875 64.3125 
L 12.890625 25.390625 
L 37.796875 25.390625 
z
M 35.203125 72.90625 
L 47.609375 72.90625 
L 47.609375 25.390625 
L 58.015625 25.390625 
L 58.015625 17.1875 
L 47.609375 17.1875 
L 47.609375 0 
L 37.796875 0 
L 37.796875 17.1875 
L 4.890625 17.1875 
L 4.890625 26.703125 
z
" id="BitstreamVeraSans-Roman-34"/>
      </defs>
      <g transform="translate(114.440625 401.918125)scale(0.12 -0.12)">
       <use xlink:href="#BitstreamVeraSans-Roman-30"/>
       <use x="63.623046875" xlink:href="#BitstreamVeraSans-Roman-2e"/>
       <use x="95.41015625" xlink:href="#BitstreamVeraSans-Roman-34"/>
       <use x="159.033203125" xlink:href="#BitstreamVeraSans-Roman-30"/>
      </g>
     </g>
    </g>
    <g id="xtick_3">
     <g id="line2d_7">
      <g>
       <use style="stroke:#000000;stroke-width:0.5;" x="183.6" xlink:href="#m41d094445e" y="388.8"/>
      </g>
     </g>
     <g id="line2d_8">
      <g>
       <use style="stroke:#000000;stroke-width:0.5;" x="183.6" xlink:href="#m9a6fea3f53" y="43.2"/>
      </g>
     </g>
     <g id="text_3">
      <!-- 0.45 -->
      <g transform="translate(170.240625 401.918125)scale(0.12 -0.12)">
       <use xlink:href="#BitstreamVeraSans-Roman-30"/>
       <use x="63.623046875" xlink:href="#BitstreamVeraSans-Roman-2e"/>
       <use x="95.41015625" xlink:href="#BitstreamVeraSans-Roman-34"/>
       <use x="159.033203125" xlink:href="#BitstreamVeraSans-Roman-35"/>
      </g>
     </g>
    </g>
    <g id="xtick_4">
     <g id="line2d_9">
      <g>
       <use style="stroke:#000000;stroke-width:0.5;" x="239.4" xlink:href="#m41d094445e" y="388.8"/>
      </g>
     </g>
     <g id="line2d_10">
      <g>
       <use style="stroke:#000000;stroke-width:0.5;" x="239.4" xlink:href="#m9a6fea3f53" y="43.2"/>
      </g>
     </g>
     <g id="text_4">
      <!-- 0.50 -->
      <g transform="translate(226.040625 401.918125)scale(0.12 -0.12)">
       <use xlink:href="#BitstreamVeraSans-Roman-30"/>
       <use x="63.623046875" xlink:href="#BitstreamVeraSans-Roman-2e"/>
       <use x="95.41015625" xlink:href="#BitstreamVeraSans-Roman-35"/>
       <use x="159.033203125" xlink:href="#BitstreamVeraSans-Roman-30"/>
      </g>
     </g>
    </g>
    <g id="xtick_5">
     <g id="line2d_11">
      <g>
       <use style="stroke:#000000;stroke-width:0.5;" x="295.2" xlink:href="#m41d094445e" y="388.8"/>
      </g>
     </g>
     <g id="line2d_12">
      <g>
       <use style="stroke:#000000;stroke-width:0.5;" x="295.2" xlink:href="#m9a6fea3f53" y="43.2"/>
      </g>
     </g>
     <g id="text_5">
      <!-- 0.55 -->
      <g transform="translate(281.840625 401.918125)scale(0.12 -0.12)">
       <use xlink:href="#BitstreamVeraSans-Roman-30"/>
       <use x="63.623046875" xlink:href="#BitstreamVeraSans-Roman-2e"/>
       <use x="95.41015625" xlink:href="#BitstreamVeraSans-Roman-35"/>
       <use x="159.033203125" xlink:href="#BitstreamVeraSans-Roman-35"/>
      </g>
     </g>
    </g>
    <g id="xtick_6">
     <g id="line2d_13">
      <g>
       <use style="stroke:#000000;stroke-width:0.5;" x="351.0" xlink:href="#m41d094445e" y="388.8"/>
      </g>
     </g>
     <g id="line2d_14">
      <g>
       <use style="stroke:#000000;stroke-width:0.5;" x="351.0" xlink:href="#m9a6fea3f53" y="43.2"/>
      </g>
     </g>
     <g id="text_6">
      <!-- 0.60 -->
      <defs>
       <path d="M 33.015625 40.375 
Q 26.375 40.375 22.484375 35.828125 
Q 18.609375 31.296875 18.609375 23.390625 
Q 18.609375 15.53125 22.484375 10.953125 
Q 26.375 6.390625 33.015625 6.390625 
Q 39.65625 6.390625 43.53125 10.953125 
Q 47.40625 15.53125 47.40625 23.390625 
Q 47.40625 31.296875 43.53125 35.828125 
Q 39.65625 40.375 33.015625 40.375 
M 52.59375 71.296875 
L 52.59375 62.3125 
Q 48.875 64.0625 45.09375 64.984375 
Q 41.3125 65.921875 37.59375 65.921875 
Q 27.828125 65.921875 22.671875 59.328125 
Q 17.53125 52.734375 16.796875 39.40625 
Q 19.671875 43.65625 24.015625 45.921875 
Q 28.375 48.1875 33.59375 48.1875 
Q 44.578125 48.1875 50.953125 41.515625 
Q 57.328125 34.859375 57.328125 23.390625 
Q 57.328125 12.15625 50.6875 5.359375 
Q 44.046875 -1.421875 33.015625 -1.421875 
Q 20.359375 -1.421875 13.671875 8.265625 
Q 6.984375 17.96875 6.984375 36.375 
Q 6.984375 53.65625 15.1875 63.9375 
Q 23.390625 74.21875 37.203125 74.21875 
Q 40.921875 74.21875 44.703125 73.484375 
Q 48.484375 72.75 52.59375 71.296875 
" id="BitstreamVeraSans-Roman-36"/>
      </defs>
      <g transform="translate(337.640625 401.918125)scale(0.12 -0.12)">
       <use xlink:href="#BitstreamVeraSans-Roman-30"/>
       <use x="63.623046875" xlink:href="#BitstreamVeraSans-Roman-2e"/>
       <use x="95.41015625" xlink:href="#BitstreamVeraSans-Roman-36"/>
       <use x="159.033203125" xlink:href="#BitstreamVeraSans-Roman-30"/>
      </g>
     </g>
    </g>
    <g id="xtick_7">
     <g id="line2d_15">
      <g>
       <use style="stroke:#000000;stroke-width:0.5;" x="406.8" xlink:href="#m41d094445e" y="388.8"/>
      </g>
     </g>
     <g id="line2d_16">
      <g>
       <use style="stroke:#000000;stroke-width:0.5;" x="406.8" xlink:href="#m9a6fea3f53" y="43.2"/>
      </g>
     </g>
     <g id="text_7">
      <!-- 0.65 -->
      <g transform="translate(393.440625 401.918125)scale(0.12 -0.12)">
       <use xlink:href="#BitstreamVeraSans-Roman-30"/>
       <use x="63.623046875" xlink:href="#BitstreamVeraSans-Roman-2e"/>
       <use x="95.41015625" xlink:href="#BitstreamVeraSans-Roman-36"/>
       <use x="159.033203125" xlink:href="#BitstreamVeraSans-Roman-35"/>
      </g>
     </g>
    </g>
    <g id="xtick_8">
     <g id="line2d_17">
      <g>
       <use style="stroke:#000000;stroke-width:0.5;" x="462.6" xlink:href="#m41d094445e" y="388.8"/>
      </g>
     </g>
     <g id="line2d_18">
      <g>
       <use style="stroke:#000000;stroke-width:0.5;" x="462.6" xlink:href="#m9a6fea3f53" y="43.2"/>
      </g>
     </g>
     <g id="text_8">
      <!-- 0.70 -->
      <defs>
       <path d="M 8.203125 72.90625 
L 55.078125 72.90625 
L 55.078125 68.703125 
L 28.609375 0 
L 18.3125 0 
L 43.21875 64.59375 
L 8.203125 64.59375 
z
" id="BitstreamVeraSans-Roman-37"/>
      </defs>
      <g transform="translate(449.240625 401.918125)scale(0.12 -0.12)">
       <use xlink:href="#BitstreamVeraSans-Roman-30"/>
       <use x="63.623046875" xlink:href="#BitstreamVeraSans-Roman-2e"/>
       <use x="95.41015625" xlink:href="#BitstreamVeraSans-Roman-37"/>
       <use x="159.033203125" xlink:href="#BitstreamVeraSans-Roman-30"/>
      </g>
     </g>
    </g>
    <g id="xtick_9">
     <g id="line2d_19">
      <g>
       <use style="stroke:#000000;stroke-width:0.5;" x="518.4" xlink:href="#m41d094445e" y="388.8"/>
      </g>
     </g>
     <g id="line2d_20">
      <g>
       <use style="stroke:#000000;stroke-width:0.5;" x="518.4" xlink:href="#m9a6fea3f53" y="43.2"/>
      </g>
     </g>
     <g id="text_9">
      <!-- 0.75 -->
      <g transform="translate(505.040625 401.918125)scale(0.12 -0.12)">
       <use xlink:href="#BitstreamVeraSans-Roman-30"/>
       <use x="63.623046875" xlink:href="#BitstreamVeraSans-Roman-2e"/>
       <use x="95.41015625" xlink:href="#BitstreamVeraSans-Roman-37"/>
       <use x="159.033203125" xlink:href="#BitstreamVeraSans-Roman-35"/>
      </g>
     </g>
    </g>
    <g id="text_10">
     <!-- threshold -->
     <defs>
      <path d="M 30.609375 48.390625 
Q 23.390625 48.390625 19.1875 42.75 
Q 14.984375 37.109375 14.984375 27.296875 
Q 14.984375 17.484375 19.15625 11.84375 
Q 23.34375 6.203125 30.609375 6.203125 
Q 37.796875 6.203125 41.984375 11.859375 
Q 46.1875 17.53125 46.1875 27.296875 
Q 46.1875 37.015625 41.984375 42.703125 
Q 37.796875 48.390625 30.609375 48.390625 
M 30.609375 56 
Q 42.328125 56 49.015625 48.375 
Q 55.71875 40.765625 55.71875 27.296875 
Q 55.71875 13.875 49.015625 6.21875 
Q 42.328125 -1.421875 30.609375 -1.421875 
Q 18.84375 -1.421875 12.171875 6.21875 
Q 5.515625 13.875 5.515625 27.296875 
Q 5.515625 40.765625 12.171875 48.375 
Q 18.84375 56 30.609375 56 
" id="BitstreamVeraSans-Roman-6f"/>
      <path d="M 9.421875 75.984375 
L 18.40625 75.984375 
L 18.40625 0 
L 9.421875 0 
z
" id="BitstreamVeraSans-Roman-6c"/>
      <path d="M 54.890625 33.015625 
L 54.890625 0 
L 45.90625 0 
L 45.90625 32.71875 
Q 45.90625 40.484375 42.875 44.328125 
Q 39.84375 48.1875 33.796875 48.1875 
Q 26.515625 48.1875 22.3125 43.546875 
Q 18.109375 38.921875 18.109375 30.90625 
L 18.109375 0 
L 9.078125 0 
L 9.078125 75.984375 
L 18.109375 75.984375 
L 18.109375 46.1875 
Q 21.34375 51.125 25.703125 53.5625 
Q 30.078125 56 35.796875 56 
Q 45.21875 56 50.046875 50.171875 
Q 54.890625 44.34375 54.890625 33.015625 
" id="BitstreamVeraSans-Roman-68"/>
      <path d="M 56.203125 29.59375 
L 56.203125 25.203125 
L 14.890625 25.203125 
Q 15.484375 15.921875 20.484375 11.0625 
Q 25.484375 6.203125 34.421875 6.203125 
Q 39.59375 6.203125 44.453125 7.46875 
Q 49.3125 8.734375 54.109375 11.28125 
L 54.109375 2.78125 
Q 49.265625 0.734375 44.1875 -0.34375 
Q 39.109375 -1.421875 33.890625 -1.421875 
Q 20.796875 -1.421875 13.15625 6.1875 
Q 5.515625 13.8125 5.515625 26.8125 
Q 5.515625 40.234375 12.765625 48.109375 
Q 20.015625 56 32.328125 56 
Q 43.359375 56 49.78125 48.890625 
Q 56.203125 41.796875 56.203125 29.59375 
M 47.21875 32.234375 
Q 47.125 39.59375 43.09375 43.984375 
Q 39.0625 48.390625 32.421875 48.390625 
Q 24.90625 48.390625 20.390625 44.140625 
Q 15.875 39.890625 15.1875 32.171875 
z
" id="BitstreamVeraSans-Roman-65"/>
      <path d="M 45.40625 46.390625 
L 45.40625 75.984375 
L 54.390625 75.984375 
L 54.390625 0 
L 45.40625 0 
L 45.40625 8.203125 
Q 42.578125 3.328125 38.25 0.953125 
Q 33.9375 -1.421875 27.875 -1.421875 
Q 17.96875 -1.421875 11.734375 6.484375 
Q 5.515625 14.40625 5.515625 27.296875 
Q 5.515625 40.1875 11.734375 48.09375 
Q 17.96875 56 27.875 56 
Q 33.9375 56 38.25 53.625 
Q 42.578125 51.265625 45.40625 46.390625 
M 14.796875 27.296875 
Q 14.796875 17.390625 18.875 11.75 
Q 22.953125 6.109375 30.078125 6.109375 
Q 37.203125 6.109375 41.296875 11.75 
Q 45.40625 17.390625 45.40625 27.296875 
Q 45.40625 37.203125 41.296875 42.84375 
Q 37.203125 48.484375 30.078125 48.484375 
Q 22.953125 48.484375 18.875 42.84375 
Q 14.796875 37.203125 14.796875 27.296875 
" id="BitstreamVeraSans-Roman-64"/>
      <path d="M 18.3125 70.21875 
L 18.3125 54.6875 
L 36.8125 54.6875 
L 36.8125 47.703125 
L 18.3125 47.703125 
L 18.3125 18.015625 
Q 18.3125 11.328125 20.140625 9.421875 
Q 21.96875 7.515625 27.59375 7.515625 
L 36.8125 7.515625 
L 36.8125 0 
L 27.59375 0 
Q 17.1875 0 13.234375 3.875 
Q 9.28125 7.765625 9.28125 18.015625 
L 9.28125 47.703125 
L 2.6875 47.703125 
L 2.6875 54.6875 
L 9.28125 54.6875 
L 9.28125 70.21875 
z
" id="BitstreamVeraSans-Roman-74"/>
      <path d="M 41.109375 46.296875 
Q 39.59375 47.171875 37.8125 47.578125 
Q 36.03125 48 33.890625 48 
Q 26.265625 48 22.1875 43.046875 
Q 18.109375 38.09375 18.109375 28.8125 
L 18.109375 0 
L 9.078125 0 
L 9.078125 54.6875 
L 18.109375 54.6875 
L 18.109375 46.1875 
Q 20.953125 51.171875 25.484375 53.578125 
Q 30.03125 56 36.53125 56 
Q 37.453125 56 38.578125 55.875 
Q 39.703125 55.765625 41.0625 55.515625 
z
" id="BitstreamVeraSans-Roman-72"/>
      <path d="M 44.28125 53.078125 
L 44.28125 44.578125 
Q 40.484375 46.53125 36.375 47.5 
Q 32.28125 48.484375 27.875 48.484375 
Q 21.1875 48.484375 17.84375 46.4375 
Q 14.5 44.390625 14.5 40.28125 
Q 14.5 37.15625 16.890625 35.375 
Q 19.28125 33.59375 26.515625 31.984375 
L 29.59375 31.296875 
Q 39.15625 29.25 43.1875 25.515625 
Q 47.21875 21.78125 47.21875 15.09375 
Q 47.21875 7.46875 41.1875 3.015625 
Q 35.15625 -1.421875 24.609375 -1.421875 
Q 20.21875 -1.421875 15.453125 -0.5625 
Q 10.6875 0.296875 5.421875 2 
L 5.421875 11.28125 
Q 10.40625 8.6875 15.234375 7.390625 
Q 20.0625 6.109375 24.8125 6.109375 
Q 31.15625 6.109375 34.5625 8.28125 
Q 37.984375 10.453125 37.984375 14.40625 
Q 37.984375 18.0625 35.515625 20.015625 
Q 33.0625 21.96875 24.703125 23.78125 
L 21.578125 24.515625 
Q 13.234375 26.265625 9.515625 29.90625 
Q 5.8125 33.546875 5.8125 39.890625 
Q 5.8125 47.609375 11.28125 51.796875 
Q 16.75 56 26.8125 56 
Q 31.78125 56 36.171875 55.265625 
Q 40.578125 54.546875 44.28125 53.078125 
" id="BitstreamVeraSans-Roman-73"/>
     </defs>
     <g transform="translate(250.254609375 423.85078125)scale(0.19 -0.19)">
      <use xlink:href="#BitstreamVeraSans-Roman-74"/>
      <use x="39.208984375" xlink:href="#BitstreamVeraSans-Roman-68"/>
      <use x="102.587890625" xlink:href="#BitstreamVeraSans-Roman-72"/>
      <use x="143.669921875" xlink:href="#BitstreamVeraSans-Roman-65"/>
      <use x="205.193359375" xlink:href="#BitstreamVeraSans-Roman-73"/>
      <use x="257.29296875" xlink:href="#BitstreamVeraSans-Roman-68"/>
      <use x="320.671875" xlink:href="#BitstreamVeraSans-Roman-6f"/>
      <use x="381.853515625" xlink:href="#BitstreamVeraSans-Roman-6c"/>
      <use x="409.63671875" xlink:href="#BitstreamVeraSans-Roman-64"/>
     </g>
    </g>
   </g>
   <g id="matplotlib.axis_2">
    <g id="ytick_1">
     <g id="line2d_21">
      <defs>
       <path d="M 0 0 
L 4 0 
" id="m3a2aea8b84" style="stroke:#000000;stroke-width:0.5;"/>
      </defs>
      <g>
       <use style="stroke:#000000;stroke-width:0.5;" x="72.0" xlink:href="#m3a2aea8b84" y="388.8"/>
      </g>
     </g>
     <g id="line2d_22">
      <defs>
       <path d="M 0 0 
L -4 0 
" id="me4fbd5c4b3" style="stroke:#000000;stroke-width:0.5;"/>
      </defs>
      <g>
       <use style="stroke:#000000;stroke-width:0.5;" x="518.4" xlink:href="#me4fbd5c4b3" y="388.8"/>
      </g>
     </g>
     <g id="text_11">
      <!-- 0.0 -->
      <g transform="translate(48.91625 392.11125)scale(0.12 -0.12)">
       <use xlink:href="#BitstreamVeraSans-Roman-30"/>
       <use x="63.623046875" xlink:href="#BitstreamVeraSans-Roman-2e"/>
       <use x="95.41015625" xlink:href="#BitstreamVeraSans-Roman-30"/>
      </g>
     </g>
    </g>
    <g id="ytick_2">
     <g id="line2d_23">
      <g>
       <use style="stroke:#000000;stroke-width:0.5;" x="72.0" xlink:href="#m3a2aea8b84" y="319.68"/>
      </g>
     </g>
     <g id="line2d_24">
      <g>
       <use style="stroke:#000000;stroke-width:0.5;" x="518.4" xlink:href="#me4fbd5c4b3" y="319.68"/>
      </g>
     </g>
     <g id="text_12">
      <!-- 0.2 -->
      <defs>
       <path d="M 19.1875 8.296875 
L 53.609375 8.296875 
L 53.609375 0 
L 7.328125 0 
L 7.328125 8.296875 
Q 12.9375 14.109375 22.625 23.890625 
Q 32.328125 33.6875 34.8125 36.53125 
Q 39.546875 41.84375 41.421875 45.53125 
Q 43.3125 49.21875 43.3125 52.78125 
Q 43.3125 58.59375 39.234375 62.25 
Q 35.15625 65.921875 28.609375 65.921875 
Q 23.96875 65.921875 18.8125 64.3125 
Q 13.671875 62.703125 7.8125 59.421875 
L 7.8125 69.390625 
Q 13.765625 71.78125 18.9375 73 
Q 24.125 74.21875 28.421875 74.21875 
Q 39.75 74.21875 46.484375 68.546875 
Q 53.21875 62.890625 53.21875 53.421875 
Q 53.21875 48.921875 51.53125 44.890625 
Q 49.859375 40.875 45.40625 35.40625 
Q 44.1875 33.984375 37.640625 27.21875 
Q 31.109375 20.453125 19.1875 8.296875 
" id="BitstreamVeraSans-Roman-32"/>
      </defs>
      <g transform="translate(48.91625 322.99125)scale(0.12 -0.12)">
       <use xlink:href="#BitstreamVeraSans-Roman-30"/>
       <use x="63.623046875" xlink:href="#BitstreamVeraSans-Roman-2e"/>
       <use x="95.41015625" xlink:href="#BitstreamVeraSans-Roman-32"/>
      </g>
     </g>
    </g>
    <g id="ytick_3">
     <g id="line2d_25">
      <g>
       <use style="stroke:#000000;stroke-width:0.5;" x="72.0" xlink:href="#m3a2aea8b84" y="250.56"/>
      </g>
     </g>
     <g id="line2d_26">
      <g>
       <use style="stroke:#000000;stroke-width:0.5;" x="518.4" xlink:href="#me4fbd5c4b3" y="250.56"/>
      </g>
     </g>
     <g id="text_13">
      <!-- 0.4 -->
      <g transform="translate(48.91625 253.87125)scale(0.12 -0.12)">
       <use xlink:href="#BitstreamVeraSans-Roman-30"/>
       <use x="63.623046875" xlink:href="#BitstreamVeraSans-Roman-2e"/>
       <use x="95.41015625" xlink:href="#BitstreamVeraSans-Roman-34"/>
      </g>
     </g>
    </g>
    <g id="ytick_4">
     <g id="line2d_27">
      <g>
       <use style="stroke:#000000;stroke-width:0.5;" x="72.0" xlink:href="#m3a2aea8b84" y="181.44"/>
      </g>
     </g>
     <g id="line2d_28">
      <g>
       <use style="stroke:#000000;stroke-width:0.5;" x="518.4" xlink:href="#me4fbd5c4b3" y="181.44"/>
      </g>
     </g>
     <g id="text_14">
      <!-- 0.6 -->
      <g transform="translate(48.91625 184.75125)scale(0.12 -0.12)">
       <use xlink:href="#BitstreamVeraSans-Roman-30"/>
       <use x="63.623046875" xlink:href="#BitstreamVeraSans-Roman-2e"/>
       <use x="95.41015625" xlink:href="#BitstreamVeraSans-Roman-36"/>
      </g>
     </g>
    </g>
    <g id="ytick_5">
     <g id="line2d_29">
      <g>
       <use style="stroke:#000000;stroke-width:0.5;" x="72.0" xlink:href="#m3a2aea8b84" y="112.32"/>
      </g>
     </g>
     <g id="line2d_30">
      <g>
       <use style="stroke:#000000;stroke-width:0.5;" x="518.4" xlink:href="#me4fbd5c4b3" y="112.32"/>
      </g>
     </g>
     <g id="text_15">
      <!-- 0.8 -->
      <defs>
       <path d="M 31.78125 34.625 
Q 24.75 34.625 20.71875 30.859375 
Q 16.703125 27.09375 16.703125 20.515625 
Q 16.703125 13.921875 20.71875 10.15625 
Q 24.75 6.390625 31.78125 6.390625 
Q 38.8125 6.390625 42.859375 10.171875 
Q 46.921875 13.96875 46.921875 20.515625 
Q 46.921875 27.09375 42.890625 30.859375 
Q 38.875 34.625 31.78125 34.625 
M 21.921875 38.8125 
Q 15.578125 40.375 12.03125 44.71875 
Q 8.5 49.078125 8.5 55.328125 
Q 8.5 64.0625 14.71875 69.140625 
Q 20.953125 74.21875 31.78125 74.21875 
Q 42.671875 74.21875 48.875 69.140625 
Q 55.078125 64.0625 55.078125 55.328125 
Q 55.078125 49.078125 51.53125 44.71875 
Q 48 40.375 41.703125 38.8125 
Q 48.828125 37.15625 52.796875 32.3125 
Q 56.78125 27.484375 56.78125 20.515625 
Q 56.78125 9.90625 50.3125 4.234375 
Q 43.84375 -1.421875 31.78125 -1.421875 
Q 19.734375 -1.421875 13.25 4.234375 
Q 6.78125 9.90625 6.78125 20.515625 
Q 6.78125 27.484375 10.78125 32.3125 
Q 14.796875 37.15625 21.921875 38.8125 
M 18.3125 54.390625 
Q 18.3125 48.734375 21.84375 45.5625 
Q 25.390625 42.390625 31.78125 42.390625 
Q 38.140625 42.390625 41.71875 45.5625 
Q 45.3125 48.734375 45.3125 54.390625 
Q 45.3125 60.0625 41.71875 63.234375 
Q 38.140625 66.40625 31.78125 66.40625 
Q 25.390625 66.40625 21.84375 63.234375 
Q 18.3125 60.0625 18.3125 54.390625 
" id="BitstreamVeraSans-Roman-38"/>
      </defs>
      <g transform="translate(48.91625 115.63125)scale(0.12 -0.12)">
       <use xlink:href="#BitstreamVeraSans-Roman-30"/>
       <use x="63.623046875" xlink:href="#BitstreamVeraSans-Roman-2e"/>
       <use x="95.41015625" xlink:href="#BitstreamVeraSans-Roman-38"/>
      </g>
     </g>
    </g>
    <g id="ytick_6">
     <g id="line2d_31">
      <g>
       <use style="stroke:#000000;stroke-width:0.5;" x="72.0" xlink:href="#m3a2aea8b84" y="43.2"/>
      </g>
     </g>
     <g id="line2d_32">
      <g>
       <use style="stroke:#000000;stroke-width:0.5;" x="518.4" xlink:href="#me4fbd5c4b3" y="43.2"/>
      </g>
     </g>
     <g id="text_16">
      <!-- 1.0 -->
      <defs>
       <path d="M 12.40625 8.296875 
L 28.515625 8.296875 
L 28.515625 63.921875 
L 10.984375 60.40625 
L 10.984375 69.390625 
L 28.421875 72.90625 
L 38.28125 72.90625 
L 38.28125 8.296875 
L 54.390625 8.296875 
L 54.390625 0 
L 12.40625 0 
z
" id="BitstreamVeraSans-Roman-31"/>
      </defs>
      <g transform="translate(48.91625 46.51125)scale(0.12 -0.12)">
       <use xlink:href="#BitstreamVeraSans-Roman-31"/>
       <use x="63.623046875" xlink:href="#BitstreamVeraSans-Roman-2e"/>
       <use x="95.41015625" xlink:href="#BitstreamVeraSans-Roman-30"/>
      </g>
     </g>
    </g>
   </g>
   <g id="legend_1">
    <g id="patch_7">
     <path d="M 354.373594 114.176875 
L 508.9 114.176875 
L 508.9 52.7 
L 354.373594 52.7 
z
" style="fill:#ffffff;stroke:#000000;stroke-linejoin:miter;"/>
    </g>
    <g id="line2d_33">
     <path d="M 367.673594 68.087031 
L 394.273594 68.087031 
" style="fill:none;stroke:#ff0000;stroke-linecap:square;stroke-width:5.0;"/>
    </g>
    <g id="line2d_34"/>
    <g id="text_17">
     <!-- precision -->
     <defs>
      <path d="M 54.890625 33.015625 
L 54.890625 0 
L 45.90625 0 
L 45.90625 32.71875 
Q 45.90625 40.484375 42.875 44.328125 
Q 39.84375 48.1875 33.796875 48.1875 
Q 26.515625 48.1875 22.3125 43.546875 
Q 18.109375 38.921875 18.109375 30.90625 
L 18.109375 0 
L 9.078125 0 
L 9.078125 54.6875 
L 18.109375 54.6875 
L 18.109375 46.1875 
Q 21.34375 51.125 25.703125 53.5625 
Q 30.078125 56 35.796875 56 
Q 45.21875 56 50.046875 50.171875 
Q 54.890625 44.34375 54.890625 33.015625 
" id="BitstreamVeraSans-Roman-6e"/>
      <path d="M 9.421875 54.6875 
L 18.40625 54.6875 
L 18.40625 0 
L 9.421875 0 
z
M 9.421875 75.984375 
L 18.40625 75.984375 
L 18.40625 64.59375 
L 9.421875 64.59375 
z
" id="BitstreamVeraSans-Roman-69"/>
      <path d="M 48.78125 52.59375 
L 48.78125 44.1875 
Q 44.96875 46.296875 41.140625 47.34375 
Q 37.3125 48.390625 33.40625 48.390625 
Q 24.65625 48.390625 19.8125 42.84375 
Q 14.984375 37.3125 14.984375 27.296875 
Q 14.984375 17.28125 19.8125 11.734375 
Q 24.65625 6.203125 33.40625 6.203125 
Q 37.3125 6.203125 41.140625 7.25 
Q 44.96875 8.296875 48.78125 10.40625 
L 48.78125 2.09375 
Q 45.015625 0.34375 40.984375 -0.53125 
Q 36.96875 -1.421875 32.421875 -1.421875 
Q 20.0625 -1.421875 12.78125 6.34375 
Q 5.515625 14.109375 5.515625 27.296875 
Q 5.515625 40.671875 12.859375 48.328125 
Q 20.21875 56 33.015625 56 
Q 37.15625 56 41.109375 55.140625 
Q 45.0625 54.296875 48.78125 52.59375 
" id="BitstreamVeraSans-Roman-63"/>
      <path d="M 18.109375 8.203125 
L 18.109375 -20.796875 
L 9.078125 -20.796875 
L 9.078125 54.6875 
L 18.109375 54.6875 
L 18.109375 46.390625 
Q 20.953125 51.265625 25.265625 53.625 
Q 29.59375 56 35.59375 56 
Q 45.5625 56 51.78125 48.09375 
Q 58.015625 40.1875 58.015625 27.296875 
Q 58.015625 14.40625 51.78125 6.484375 
Q 45.5625 -1.421875 35.59375 -1.421875 
Q 29.59375 -1.421875 25.265625 0.953125 
Q 20.953125 3.328125 18.109375 8.203125 
M 48.6875 27.296875 
Q 48.6875 37.203125 44.609375 42.84375 
Q 40.53125 48.484375 33.40625 48.484375 
Q 26.265625 48.484375 22.1875 42.84375 
Q 18.109375 37.203125 18.109375 27.296875 
Q 18.109375 17.390625 22.1875 11.75 
Q 26.265625 6.109375 33.40625 6.109375 
Q 40.53125 6.109375 44.609375 11.75 
Q 48.6875 17.390625 48.6875 27.296875 
" id="BitstreamVeraSans-Roman-70"/>
     </defs>
     <g transform="translate(415.17359375 74.73703125)scale(0.19 -0.19)">
      <use xlink:href="#BitstreamVeraSans-Roman-70"/>
      <use x="63.4765625" xlink:href="#BitstreamVeraSans-Roman-72"/>
      <use x="104.55859375" xlink:href="#BitstreamVeraSans-Roman-65"/>
      <use x="166.08203125" xlink:href="#BitstreamVeraSans-Roman-63"/>
      <use x="221.0625" xlink:href="#BitstreamVeraSans-Roman-69"/>
      <use x="248.845703125" xlink:href="#BitstreamVeraSans-Roman-73"/>
      <use x="300.9453125" xlink:href="#BitstreamVeraSans-Roman-69"/>
      <use x="328.728515625" xlink:href="#BitstreamVeraSans-Roman-6f"/>
      <use x="389.91015625" xlink:href="#BitstreamVeraSans-Roman-6e"/>
     </g>
    </g>
    <g id="line2d_35">
     <path d="M 367.673594 95.975469 
L 394.273594 95.975469 
" style="fill:none;stroke:#0000ff;stroke-linecap:square;stroke-width:5.0;"/>
    </g>
    <g id="line2d_36"/>
    <g id="text_18">
     <!-- recall -->
     <defs>
      <path d="M 34.28125 27.484375 
Q 23.390625 27.484375 19.1875 25 
Q 14.984375 22.515625 14.984375 16.5 
Q 14.984375 11.71875 18.140625 8.90625 
Q 21.296875 6.109375 26.703125 6.109375 
Q 34.1875 6.109375 38.703125 11.40625 
Q 43.21875 16.703125 43.21875 25.484375 
L 43.21875 27.484375 
z
M 52.203125 31.203125 
L 52.203125 0 
L 43.21875 0 
L 43.21875 8.296875 
Q 40.140625 3.328125 35.546875 0.953125 
Q 30.953125 -1.421875 24.3125 -1.421875 
Q 15.921875 -1.421875 10.953125 3.296875 
Q 6 8.015625 6 15.921875 
Q 6 25.140625 12.171875 29.828125 
Q 18.359375 34.515625 30.609375 34.515625 
L 43.21875 34.515625 
L 43.21875 35.40625 
Q 43.21875 41.609375 39.140625 45 
Q 35.0625 48.390625 27.6875 48.390625 
Q 23 48.390625 18.546875 47.265625 
Q 14.109375 46.140625 10.015625 43.890625 
L 10.015625 52.203125 
Q 14.9375 54.109375 19.578125 55.046875 
Q 24.21875 56 28.609375 56 
Q 40.484375 56 46.34375 49.84375 
Q 52.203125 43.703125 52.203125 31.203125 
" id="BitstreamVeraSans-Roman-61"/>
     </defs>
     <g transform="translate(415.17359375 102.62546875)scale(0.19 -0.19)">
      <use xlink:href="#BitstreamVeraSans-Roman-72"/>
      <use x="41.08203125" xlink:href="#BitstreamVeraSans-Roman-65"/>
      <use x="102.60546875" xlink:href="#BitstreamVeraSans-Roman-63"/>
      <use x="157.5859375" xlink:href="#BitstreamVeraSans-Roman-61"/>
      <use x="218.865234375" xlink:href="#BitstreamVeraSans-Roman-6c"/>
      <use x="246.6484375" xlink:href="#BitstreamVeraSans-Roman-6c"/>
     </g>
    </g>
   </g>
  </g>
 </g>
 <defs>
  <clipPath id="pf0c2b266be">
   <rect height="345.6" width="446.4" x="72.0" y="43.2"/>
  </clipPath>
 </defs>
</svg>
