<?xml version="1.0" standalone="no"?><!DOCTYPE svg PUBLIC "-//W3C//DTD SVG 1.1//EN" "http://www.w3.org/Graphics/SVG/1.1/DTD/svg11.dtd"><svg xmlns:xlink="http://www.w3.org/1999/xlink" version="1.1" class="highcharts-root" style="font-family:&quot;Lucida Grande&quot;, &quot;Lucida Sans Unicode&quot;, Arial, Helvetica, sans-serif;font-size:12px;" xmlns="http://www.w3.org/2000/svg" width="600" height="400" viewBox="0 0 600 400"><desc>Created with Highcharts 6.1.4</desc><defs><clipPath id="highcharts-kta7r3f-13"><rect x="0" y="0" width="523" height="269" fill="none"></rect></clipPath></defs><rect fill="#ffffff" class="highcharts-background" x="0" y="0" width="600" height="400" rx="0" ry="0"></rect><rect fill="none" class="highcharts-plot-background" x="67" y="59" width="523" height="269"></rect><g class="highcharts-grid highcharts-xaxis-grid " data-z-index="1"><path fill="none" data-z-index="1" class="highcharts-grid-line" d="M 141.5 59 L 141.5 328" opacity="1"></path><path fill="none" data-z-index="1" class="highcharts-grid-line" d="M 215.5 59 L 215.5 328" opacity="1"></path><path fill="none" data-z-index="1" class="highcharts-grid-line" d="M 290.5 59 L 290.5 328" opacity="1"></path><path fill="none" data-z-index="1" class="highcharts-grid-line" d="M 365.5 59 L 365.5 328" opacity="1"></path><path fill="none" data-z-index="1" class="highcharts-grid-line" d="M 440.5 59 L 440.5 328" opacity="1"></path><path fill="none" data-z-index="1" class="highcharts-grid-line" d="M 514.5 59 L 514.5 328" opacity="1"></path><path fill="none" data-z-index="1" class="highcharts-grid-line" d="M 589.5 59 L 589.5 328" opacity="1"></path><path fill="none" data-z-index="1" class="highcharts-grid-line" d="M 66.5 59 L 66.5 328" opacity="1"></path></g><g class="highcharts-grid highcharts-yaxis-grid " data-z-index="1"><path fill="none" stroke="#e6e6e6" stroke-width="1" data-z-index="1" class="highcharts-grid-line" d="M 67 328.5 L 590 328.5" opacity="1"></path><path fill="none" stroke="#e6e6e6" stroke-width="1" data-z-index="1" class="highcharts-grid-line" d="M 67 274.5 L 590 274.5" opacity="1"></path><path fill="none" stroke="#e6e6e6" stroke-width="1" data-z-index="1" class="highcharts-grid-line" d="M 67 220.5 L 590 220.5" opacity="1"></path><path fill="none" stroke="#e6e6e6" stroke-width="1" data-z-index="1" class="highcharts-grid-line" d="M 67 167.5 L 590 167.5" opacity="1"></path><path fill="none" stroke="#e6e6e6" stroke-width="1" data-z-index="1" class="highcharts-grid-line" d="M 67 113.5 L 590 113.5" opacity="1"></path><path fill="none" stroke="#e6e6e6" stroke-width="1" data-z-index="1" class="highcharts-grid-line" d="M 67 58.5 L 590 58.5" opacity="1"></path></g><rect fill="none" class="highcharts-plot-border" data-z-index="1" x="67" y="59" width="523" height="269"></rect><g class="highcharts-axis highcharts-xaxis " data-z-index="2"><path fill="none" class="highcharts-tick" stroke="#ccd6eb" stroke-width="1" d="M 141.5 328 L 141.5 338" opacity="1"></path><path fill="none" class="highcharts-tick" stroke="#ccd6eb" stroke-width="1" d="M 215.5 328 L 215.5 338" opacity="1"></path><path fill="none" class="highcharts-tick" stroke="#ccd6eb" stroke-width="1" d="M 290.5 328 L 290.5 338" opacity="1"></path><path fill="none" class="highcharts-tick" stroke="#ccd6eb" stroke-width="1" d="M 365.5 328 L 365.5 338" opacity="1"></path><path fill="none" class="highcharts-tick" stroke="#ccd6eb" stroke-width="1" d="M 440.5 328 L 440.5 338" opacity="1"></path><path fill="none" class="highcharts-tick" stroke="#ccd6eb" stroke-width="1" d="M 514.5 328 L 514.5 338" opacity="1"></path><path fill="none" class="highcharts-tick" stroke="#ccd6eb" stroke-width="1" d="M 590.5 328 L 590.5 338" opacity="1"></path><path fill="none" class="highcharts-tick" stroke="#ccd6eb" stroke-width="1" d="M 66.5 328 L 66.5 338" opacity="1"></path><path fill="none" class="highcharts-axis-line" stroke="#ccd6eb" stroke-width="1" data-z-index="7" d="M 67 328.5 L 590 328.5"></path></g><g class="highcharts-axis highcharts-yaxis " data-z-index="2"><text x="24" data-z-index="7" text-anchor="middle" transform="translate(0,0) rotate(270 24 193.5)" class="highcharts-axis-title" style="color:#666666;fill:#666666;" y="193.5"><tspan>Performance %</tspan></text><path fill="none" class="highcharts-axis-line" data-z-index="7" d="M 67 59 L 67 328"></path></g><g class="highcharts-series-group" data-z-index="3"><g data-z-index="0.1" class="highcharts-series highcharts-series-0 highcharts-column-series highcharts-color-0 " transform="translate(67,59) scale(1 1)" clip-path="url(#highcharts-kta7r3f-13)"><rect x="18" y="118" width="9" height="152" fill="#7cb5ec" class="highcharts-point highcharts-color-0"></rect><rect x="93" y="73" width="9" height="197" fill="#7cb5ec" class="highcharts-point highcharts-color-0"></rect><rect x="167" y="84" width="9" height="186" fill="#7cb5ec" class="highcharts-point highcharts-color-0"></rect><rect x="242" y="109" width="9" height="161" fill="#7cb5ec" class="highcharts-point highcharts-color-0"></rect><rect x="317" y="137" width="9" height="133" fill="#7cb5ec" class="highcharts-point highcharts-color-0"></rect><rect x="392" y="114" width="9" height="156" fill="#7cb5ec" class="highcharts-point highcharts-color-0"></rect><rect x="466" y="134" width="9" height="136" fill="#7cb5ec" class="highcharts-point highcharts-color-0"></rect></g><g data-z-index="0.1" class="highcharts-markers highcharts-series-0 highcharts-column-series highcharts-color-0 " transform="translate(67,59) scale(1 1)" clip-path="none"></g><g data-z-index="0.1" class="highcharts-series highcharts-series-1 highcharts-column-series highcharts-color-1 " transform="translate(67,59) scale(1 1)" clip-path="url(#highcharts-kta7r3f-13)"><rect x="33" y="55" width="9" height="215" fill="#434348" class="highcharts-point highcharts-color-1"></rect><rect x="108" y="55" width="9" height="215" fill="#434348" class="highcharts-point highcharts-color-1"></rect><rect x="182" y="55" width="9" height="215" fill="#434348" class="highcharts-point highcharts-color-1"></rect><rect x="257" y="55" width="9" height="215" fill="#434348" class="highcharts-point highcharts-color-1"></rect><rect x="332" y="121" width="9" height="149" fill="#434348" class="highcharts-point highcharts-color-1"></rect><rect x="406" y="55" width="9" height="215" fill="#434348" class="highcharts-point highcharts-color-1"></rect><rect x="481" y="55" width="9" height="215" fill="#434348" class="highcharts-point highcharts-color-1"></rect></g><g data-z-index="0.1" class="highcharts-markers highcharts-series-1 highcharts-column-series highcharts-color-1 " transform="translate(67,59) scale(1 1)" clip-path="none"></g><g data-z-index="0.1" class="highcharts-series highcharts-series-2 highcharts-column-series highcharts-color-2 " transform="translate(67,59) scale(1 1)" clip-path="url(#highcharts-kta7r3f-13)"><rect x="48" y="114" width="9" height="156" fill="#90ed7d" class="highcharts-point highcharts-color-2"></rect><rect x="123" y="127" width="9" height="143" fill="#90ed7d" class="highcharts-point highcharts-color-2"></rect><rect x="197" y="55" width="9" height="215" fill="#90ed7d" class="highcharts-point highcharts-color-2"></rect><rect x="272" y="73" width="9" height="197" fill="#90ed7d" class="highcharts-point highcharts-color-2"></rect><rect x="347" y="109" width="9" height="161" fill="#90ed7d" class="highcharts-point highcharts-color-2"></rect><rect x="421" y="103" width="9" height="167" fill="#90ed7d" class="highcharts-point highcharts-color-2"></rect><rect x="496" y="120" width="9" height="150" fill="#90ed7d" class="highcharts-point highcharts-color-2"></rect></g><g data-z-index="0.1" class="highcharts-markers highcharts-series-2 highcharts-column-series highcharts-color-2 " transform="translate(67,59) scale(1 1)" clip-path="none"></g></g><text x="300" text-anchor="middle" class="highcharts-title" data-z-index="4" style="color:#333333;font-size:18px;fill:#333333;" y="24"><tspan>Best Performance getting for training step</tspan></text><text x="300" text-anchor="middle" class="highcharts-subtitle" data-z-index="4" style="color:#666666;fill:#666666;" y="44"><tspan>Splitter by Recursive Clustering</tspan></text><g class="highcharts-legend" data-z-index="7" transform="translate(168,360)"><rect fill="none" class="highcharts-legend-box" rx="0" ry="0" x="0" y="0" width="265" height="25" visibility="visible"></rect><g data-z-index="1"><g><g class="highcharts-legend-item highcharts-column-series highcharts-color-0 highcharts-series-0" data-z-index="1" transform="translate(8,3)"><text x="21" style="color:#333333;font-size:12px;font-weight:bold;cursor:pointer;fill:#333333;" text-anchor="start" data-z-index="2" y="15"><tspan>Accuracy</tspan></text><rect x="2" y="4" width="12" height="12" fill="#7cb5ec" rx="6" ry="6" class="highcharts-point" data-z-index="3"></rect></g><g class="highcharts-legend-item highcharts-column-series highcharts-color-1 highcharts-series-1" data-z-index="1" transform="translate(105,3)"><text x="21" y="15" style="color:#333333;font-size:12px;font-weight:bold;cursor:pointer;fill:#333333;" text-anchor="start" data-z-index="2"><tspan>Recall</tspan></text><rect x="2" y="4" width="12" height="12" fill="#434348" rx="6" ry="6" class="highcharts-point" data-z-index="3"></rect></g><g class="highcharts-legend-item highcharts-column-series highcharts-color-2 highcharts-series-2" data-z-index="1" transform="translate(182,3)"><text x="21" y="15" style="color:#333333;font-size:12px;font-weight:bold;cursor:pointer;fill:#333333;" text-anchor="start" data-z-index="2"><tspan>Precision</tspan></text><rect x="2" y="4" width="12" height="12" fill="#90ed7d" rx="6" ry="6" class="highcharts-point" data-z-index="3"></rect></g></g></g></g><g class="highcharts-axis-labels highcharts-xaxis-labels " data-z-index="7"><text x="104.35714285714715" style="color:#666666;cursor:default;font-size:11px;fill:#666666;" text-anchor="middle" transform="translate(0,0)" y="347" opacity="1">1</text><text x="179.07142857142713" style="color:#666666;cursor:default;font-size:11px;fill:#666666;" text-anchor="middle" transform="translate(0,0)" y="347" opacity="1">2</text><text x="253.78571428571715" style="color:#666666;cursor:default;font-size:11px;fill:#666666;" text-anchor="middle" transform="translate(0,0)" y="347" opacity="1">3</text><text x="328.49999999999716" style="color:#666666;cursor:default;font-size:11px;fill:#666666;" text-anchor="middle" transform="translate(0,0)" y="347" opacity="1">4</text><text x="403.21428571428714" style="color:#666666;cursor:default;font-size:11px;fill:#666666;" text-anchor="middle" transform="translate(0,0)" y="347" opacity="1">5</text><text x="477.9285714285672" style="color:#666666;cursor:default;font-size:11px;fill:#666666;" text-anchor="middle" transform="translate(0,0)" y="347" opacity="1">6</text><text x="552.6428571428571" style="color:#666666;cursor:default;font-size:11px;fill:#666666;" text-anchor="middle" transform="translate(0,0)" y="347" opacity="1">7</text></g><g class="highcharts-axis-labels highcharts-yaxis-labels " data-z-index="7"><text x="52" style="color:#666666;cursor:default;font-size:11px;fill:#666666;" text-anchor="end" transform="translate(0,0)" y="333" opacity="1">0</text><text x="52" style="color:#666666;cursor:default;font-size:11px;fill:#666666;" text-anchor="end" transform="translate(0,0)" y="279" opacity="1">25</text><text x="52" style="color:#666666;cursor:default;font-size:11px;fill:#666666;" text-anchor="end" transform="translate(0,0)" y="225" opacity="1">50</text><text x="52" style="color:#666666;cursor:default;font-size:11px;fill:#666666;" text-anchor="end" transform="translate(0,0)" y="172" opacity="1">75</text><text x="52" style="color:#666666;cursor:default;font-size:11px;fill:#666666;" text-anchor="end" transform="translate(0,0)" y="118" opacity="1">100</text><text x="52" style="color:#666666;cursor:default;font-size:11px;fill:#666666;" text-anchor="end" transform="translate(0,0)" y="64" opacity="1">125</text></g></svg>