<?xml version="1.0" encoding="utf-8" standalone="no"?>
<!DOCTYPE svg PUBLIC "-//W3C//DTD SVG 1.1//EN"
  "http://www.w3.org/Graphics/SVG/1.1/DTD/svg11.dtd">
<!-- Created with matplotlib (http://matplotlib.org/) -->
<svg height="1080pt" version="1.1" viewBox="0 0 1080 1080" width="1080pt" xmlns="http://www.w3.org/2000/svg" xmlns:xlink="http://www.w3.org/1999/xlink">
 <defs>
  <style type="text/css">
*{stroke-linecap:butt;stroke-linejoin:round;stroke-miterlimit:100000;}
  </style>
 </defs>
 <g id="figure_1">
  <g id="patch_1">
   <path d="M 0 1080 
L 1080 1080 
L 1080 0 
L 0 0 
z
" style="fill:#ffffff;"/>
  </g>
  <g id="axes_1">
   <g id="patch_2">
    <path d="M 135 972 
L 972 972 
L 972 108 
L 135 108 
z
" style="fill:#ffffff;"/>
   </g>
   <g id="matplotlib.axis_1">
    <g id="xtick_1">
     <g id="line2d_1">
      <defs>
       <path d="M 0 0 
L 0 6 
" id="m27d4796056" style="stroke:#262626;"/>
      </defs>
      <g>
       <use style="fill:#262626;stroke:#262626;" x="194.785714286" xlink:href="#m27d4796056" y="972.0"/>
      </g>
     </g>
     <g id="line2d_2">
      <defs>
       <path d="M 0 0 
L 0 -6 
" id="m72c1dc2cdf" style="stroke:#262626;"/>
      </defs>
      <g>
       <use style="fill:#262626;stroke:#262626;" x="194.785714286" xlink:href="#m72c1dc2cdf" y="108.0"/>
      </g>
     </g>
     <g id="text_1">
      <!-- SaccW -->
      <defs>
       <path d="M 73.78125 0 
L 62.640625 0 
L 50.734375 43.703125 
Q 50.203125 45.5625 49.578125 48.09375 
Q 48.96875 50.640625 48.484375 52.9375 
Q 47.90625 55.609375 47.3125 58.40625 
Q 46.6875 55.5625 46.09375 52.875 
Q 45.5625 50.53125 44.96875 48.046875 
Q 44.390625 45.5625 43.84375 43.703125 
L 31.84375 0 
L 20.703125 0 
L 0.4375 68.796875 
L 10.15625 68.796875 
L 22.515625 25.09375 
Q 23.34375 22.015625 24.09375 18.984375 
Q 24.859375 15.96875 25.390625 13.578125 
Q 26.03125 10.75 26.5625 8.203125 
Q 27.296875 11.578125 28.078125 14.84375 
Q 28.421875 16.21875 28.765625 17.71875 
Q 29.109375 19.234375 29.46875 20.703125 
Q 29.828125 22.171875 30.1875 23.515625 
Q 30.5625 24.859375 30.859375 25.984375 
L 42.828125 68.796875 
L 51.765625 68.796875 
L 63.71875 25.984375 
Q 64.015625 24.859375 64.375 23.515625 
Q 64.75 22.171875 65.109375 20.71875 
Q 65.484375 19.28125 65.8125 17.765625 
Q 66.15625 16.265625 66.5 14.890625 
Q 67.28125 11.625 68.015625 8.203125 
Q 68.0625 8.203125 68.453125 9.890625 
Q 68.84375 11.578125 69.421875 14.109375 
Q 70.015625 16.65625 70.71875 19.609375 
Q 71.4375 22.5625 72.171875 25.09375 
L 84.328125 68.796875 
L 94.046875 68.796875 
z
" id="LiberationSans-57"/>
       <path d="M 20.21875 -0.984375 
Q 12.25 -0.984375 8.25 3.21875 
Q 4.25 7.421875 4.25 14.75 
Q 4.25 19.96875 6.21875 23.3125 
Q 8.203125 26.65625 11.390625 28.5625 
Q 14.59375 30.46875 18.6875 31.203125 
Q 22.796875 31.9375 27.046875 32.03125 
L 38.921875 32.234375 
L 38.921875 35.109375 
Q 38.921875 38.375 38.234375 40.671875 
Q 37.546875 42.96875 36.125 44.375 
Q 34.71875 45.796875 32.59375 46.453125 
Q 30.46875 47.125 27.59375 47.125 
Q 25.046875 47.125 23 46.75 
Q 20.953125 46.390625 19.4375 45.4375 
Q 17.921875 44.484375 16.984375 42.84375 
Q 16.0625 41.21875 15.765625 38.71875 
L 6.59375 39.546875 
Q 7.078125 42.671875 8.4375 45.28125 
Q 9.8125 47.90625 12.328125 49.796875 
Q 14.84375 51.703125 18.625 52.75 
Q 22.40625 53.8125 27.78125 53.8125 
Q 37.75 53.8125 42.765625 49.234375 
Q 47.796875 44.671875 47.796875 36.03125 
L 47.796875 13.28125 
Q 47.796875 9.375 48.828125 7.390625 
Q 49.859375 5.421875 52.734375 5.421875 
Q 53.46875 5.421875 54.203125 5.515625 
Q 54.9375 5.609375 55.609375 5.765625 
L 55.609375 0.296875 
Q 53.953125 -0.09375 52.3125 -0.28125 
Q 50.6875 -0.484375 48.828125 -0.484375 
Q 46.34375 -0.484375 44.5625 0.171875 
Q 42.78125 0.828125 41.65625 2.171875 
Q 40.53125 3.515625 39.9375 5.484375 
Q 39.359375 7.46875 39.203125 10.109375 
L 38.921875 10.109375 
Q 37.5 7.5625 35.8125 5.515625 
Q 34.125 3.46875 31.875 2.03125 
Q 29.640625 0.59375 26.78125 -0.1875 
Q 23.921875 -0.984375 20.21875 -0.984375 
M 22.21875 5.609375 
Q 26.421875 5.609375 29.5625 7.140625 
Q 32.71875 8.6875 34.78125 11.078125 
Q 36.859375 13.484375 37.890625 16.3125 
Q 38.921875 19.140625 38.921875 21.734375 
L 38.921875 26.078125 
L 29.296875 25.875 
Q 26.078125 25.828125 23.171875 25.40625 
Q 20.265625 25 18.0625 23.78125 
Q 15.875 22.5625 14.578125 20.359375 
Q 13.28125 18.171875 13.28125 14.59375 
Q 13.28125 10.296875 15.59375 7.953125 
Q 17.921875 5.609375 22.21875 5.609375 
" id="LiberationSans-61"/>
       <path d="M 62.109375 19 
Q 62.109375 14.65625 60.421875 10.984375 
Q 58.734375 7.328125 55.21875 4.65625 
Q 51.703125 2 46.359375 0.5 
Q 41.015625 -0.984375 33.6875 -0.984375 
Q 20.84375 -0.984375 13.671875 3.515625 
Q 6.5 8.015625 4.546875 16.5 
L 13.578125 18.3125 
Q 14.265625 15.625 15.671875 13.421875 
Q 17.09375 11.234375 19.5 9.640625 
Q 21.921875 8.0625 25.484375 7.171875 
Q 29.046875 6.296875 34.03125 6.296875 
Q 38.1875 6.296875 41.65625 7 
Q 45.125 7.71875 47.609375 9.171875 
Q 50.09375 10.640625 51.484375 12.953125 
Q 52.875 15.28125 52.875 18.5 
Q 52.875 21.875 51.34375 23.96875 
Q 49.8125 26.078125 47.015625 27.4375 
Q 44.234375 28.8125 40.375 29.734375 
Q 36.53125 30.671875 31.84375 31.734375 
Q 28.953125 32.375 26.046875 33.125 
Q 23.140625 33.890625 20.484375 34.9375 
Q 17.828125 35.984375 15.484375 37.390625 
Q 13.140625 38.8125 11.421875 40.796875 
Q 9.71875 42.78125 8.734375 45.390625 
Q 7.765625 48 7.765625 51.421875 
Q 7.765625 56.296875 9.734375 59.78125 
Q 11.71875 63.28125 15.234375 65.53125 
Q 18.75 67.78125 23.53125 68.796875 
Q 28.328125 69.828125 33.890625 69.828125 
Q 40.28125 69.828125 44.8125 68.828125 
Q 49.359375 67.828125 52.484375 65.8125 
Q 55.609375 63.8125 57.484375 60.859375 
Q 59.375 57.90625 60.5 54 
L 51.3125 52.390625 
Q 50.640625 54.890625 49.34375 56.84375 
Q 48.046875 58.796875 45.9375 60.109375 
Q 43.84375 61.421875 40.84375 62.109375 
Q 37.84375 62.796875 33.796875 62.796875 
Q 29 62.796875 25.75 61.9375 
Q 22.515625 61.078125 20.53125 59.609375 
Q 18.5625 58.15625 17.703125 56.171875 
Q 16.84375 54.203125 16.84375 51.90625 
Q 16.84375 48.828125 18.375 46.84375 
Q 19.921875 44.875 22.5625 43.546875 
Q 25.203125 42.234375 28.65625 41.359375 
Q 32.125 40.484375 36.03125 39.59375 
Q 39.203125 38.875 42.359375 38.109375 
Q 45.515625 37.359375 48.390625 36.296875 
Q 51.265625 35.25 53.78125 33.828125 
Q 56.296875 32.421875 58.15625 30.375 
Q 60.015625 28.328125 61.0625 25.53125 
Q 62.109375 22.75 62.109375 19 
" id="LiberationSans-53"/>
       <path d="M 13.421875 26.65625 
Q 13.421875 22.125 14.078125 18.3125 
Q 14.75 14.5 16.3125 11.734375 
Q 17.875 8.984375 20.4375 7.46875 
Q 23 5.953125 26.765625 5.953125 
Q 31.453125 5.953125 34.59375 8.484375 
Q 37.75 11.03125 38.484375 16.3125 
L 47.359375 15.71875 
Q 46.921875 12.453125 45.453125 9.421875 
Q 44 6.390625 41.484375 4.09375 
Q 38.96875 1.8125 35.34375 0.40625 
Q 31.734375 -0.984375 27 -0.984375 
Q 20.796875 -0.984375 16.453125 1.109375 
Q 12.109375 3.21875 9.390625 6.90625 
Q 6.6875 10.59375 5.46875 15.59375 
Q 4.25 20.609375 4.25 26.46875 
Q 4.25 31.78125 5.125 35.859375 
Q 6 39.9375 7.59375 42.984375 
Q 9.1875 46.046875 11.328125 48.125 
Q 13.484375 50.203125 15.984375 51.4375 
Q 18.5 52.6875 21.28125 53.25 
Q 24.078125 53.8125 26.90625 53.8125 
Q 31.34375 53.8125 34.8125 52.59375 
Q 38.28125 51.375 40.796875 49.25 
Q 43.3125 47.125 44.875 44.234375 
Q 46.4375 41.359375 47.078125 38.03125 
L 38.03125 37.359375 
Q 37.359375 41.75 34.5625 44.328125 
Q 31.78125 46.921875 26.65625 46.921875 
Q 22.90625 46.921875 20.390625 45.671875 
Q 17.875 44.4375 16.3125 41.921875 
Q 14.75 39.40625 14.078125 35.59375 
Q 13.421875 31.78125 13.421875 26.65625 
" id="LiberationSans-63"/>
      </defs>
      <g style="fill:#262626;" transform="translate(177.922211923 1034.53349293)rotate(-45.0)scale(0.18 -0.18)">
       <use xlink:href="#LiberationSans-53"/>
       <use x="66.69921875" xlink:href="#LiberationSans-61"/>
       <use x="122.314453125" xlink:href="#LiberationSans-63"/>
       <use x="172.314453125" xlink:href="#LiberationSans-63"/>
       <use x="222.314453125" xlink:href="#LiberationSans-57"/>
      </g>
     </g>
    </g>
    <g id="xtick_2">
     <g id="line2d_3">
      <g>
       <use style="fill:#262626;stroke:#262626;" x="314.357142857" xlink:href="#m27d4796056" y="972.0"/>
      </g>
     </g>
     <g id="line2d_4">
      <g>
       <use style="fill:#262626;stroke:#262626;" x="314.357142857" xlink:href="#m72c1dc2cdf" y="108.0"/>
      </g>
     </g>
     <g id="text_2">
      <!-- SaccM -->
      <defs>
       <path d="M 66.703125 0 
L 66.703125 45.90625 
Q 66.703125 48.390625 66.75 50.96875 
Q 66.796875 53.5625 66.890625 55.71875 
Q 67 58.203125 67.140625 60.546875 
Q 66.453125 58.0625 65.71875 55.609375 
Q 65.09375 53.515625 64.328125 51.140625 
Q 63.578125 48.78125 62.84375 46.875 
L 45.0625 0 
L 38.53125 0 
L 20.515625 46.875 
Q 20.21875 47.609375 19.890625 48.578125 
Q 19.578125 49.5625 19.203125 50.65625 
Q 18.84375 51.765625 18.46875 52.90625 
Q 18.109375 54.046875 17.78125 55.171875 
Q 16.9375 57.765625 16.15625 60.546875 
Q 16.21875 57.8125 16.3125 55.125 
Q 16.40625 52.828125 16.453125 50.3125 
Q 16.5 47.796875 16.5 45.90625 
L 16.5 0 
L 8.203125 0 
L 8.203125 68.796875 
L 20.453125 68.796875 
L 38.765625 21.09375 
Q 39.109375 20.125 39.59375 18.578125 
Q 40.09375 17.046875 40.53125 15.421875 
Q 40.96875 13.8125 41.328125 12.375 
Q 41.703125 10.9375 41.84375 10.15625 
Q 42 10.9375 42.390625 12.40625 
Q 42.78125 13.875 43.28125 15.484375 
Q 43.796875 17.09375 44.28125 18.609375 
Q 44.78125 20.125 45.171875 21.09375 
L 63.140625 68.796875 
L 75.09375 68.796875 
L 75.09375 0 
z
" id="LiberationSans-4d"/>
      </defs>
      <g style="fill:#262626;" transform="translate(298.199642422 1033.12148908)rotate(-45.0)scale(0.18 -0.18)">
       <use xlink:href="#LiberationSans-53"/>
       <use x="66.69921875" xlink:href="#LiberationSans-61"/>
       <use x="122.314453125" xlink:href="#LiberationSans-63"/>
       <use x="172.314453125" xlink:href="#LiberationSans-63"/>
       <use x="222.314453125" xlink:href="#LiberationSans-4d"/>
      </g>
     </g>
    </g>
    <g id="xtick_3">
     <g id="line2d_5">
      <g>
       <use style="fill:#262626;stroke:#262626;" x="433.928571429" xlink:href="#m27d4796056" y="972.0"/>
      </g>
     </g>
     <g id="line2d_6">
      <g>
       <use style="fill:#262626;stroke:#262626;" x="433.928571429" xlink:href="#m72c1dc2cdf" y="108.0"/>
      </g>
     </g>
     <g id="text_3">
      <!-- yDDG -->
      <defs>
       <path d="M 5.03125 34.71875 
Q 5.03125 42.78125 7.203125 49.265625 
Q 9.375 55.765625 13.6875 60.328125 
Q 18.015625 64.890625 24.40625 67.359375 
Q 30.8125 69.828125 39.265625 69.828125 
Q 45.609375 69.828125 50.390625 68.703125 
Q 55.171875 67.578125 58.6875 65.46875 
Q 62.203125 63.375 64.640625 60.375 
Q 67.09375 57.375 68.796875 53.609375 
L 59.90625 50.984375 
Q 58.640625 53.515625 56.859375 55.59375 
Q 55.078125 57.671875 52.53125 59.125 
Q 50 60.59375 46.65625 61.390625 
Q 43.3125 62.203125 39.015625 62.203125 
Q 32.765625 62.203125 28.140625 60.25 
Q 23.53125 58.296875 20.5 54.6875 
Q 17.484375 51.078125 15.984375 46 
Q 14.5 40.921875 14.5 34.71875 
Q 14.5 28.515625 16.109375 23.359375 
Q 17.71875 18.21875 20.890625 14.484375 
Q 24.078125 10.75 28.78125 8.671875 
Q 33.5 6.59375 39.703125 6.59375 
Q 43.75 6.59375 47.171875 7.265625 
Q 50.59375 7.953125 53.34375 9.046875 
Q 56.109375 10.15625 58.203125 11.5 
Q 60.296875 12.84375 61.71875 14.203125 
L 61.71875 26.609375 
L 41.15625 26.609375 
L 41.15625 34.421875 
L 70.3125 34.421875 
L 70.3125 10.6875 
Q 68.015625 8.34375 64.90625 6.21875 
Q 61.8125 4.109375 57.953125 2.484375 
Q 54.109375 0.875 49.515625 -0.046875 
Q 44.921875 -0.984375 39.703125 -0.984375 
Q 31 -0.984375 24.5 1.671875 
Q 18.015625 4.34375 13.6875 9.109375 
Q 9.375 13.875 7.203125 20.40625 
Q 5.03125 26.953125 5.03125 34.71875 
" id="LiberationSans-47"/>
       <path d="M 29.5 0 
Q 27.640625 -4.78125 25.703125 -8.609375 
Q 23.78125 -12.453125 21.390625 -15.15625 
Q 19 -17.875 16.0625 -19.3125 
Q 13.140625 -20.75 9.328125 -20.75 
Q 7.671875 -20.75 6.25 -20.65625 
Q 4.828125 -20.5625 3.265625 -20.21875 
L 3.265625 -13.625 
Q 4.203125 -13.765625 5.375 -13.84375 
Q 6.546875 -13.921875 7.375 -13.921875 
Q 11.234375 -13.921875 14.546875 -11.03125 
Q 17.875 -8.15625 20.359375 -1.859375 
L 21.1875 0.25 
L 0.25 52.828125 
L 9.625 52.828125 
L 20.75 23.640625 
Q 21.234375 22.3125 21.984375 20.109375 
Q 22.75 17.921875 23.5 15.71875 
Q 24.265625 13.53125 24.84375 11.765625 
Q 25.4375 10.015625 25.53125 9.578125 
Q 25.6875 10.109375 26.25 11.6875 
Q 26.8125 13.28125 27.515625 15.234375 
Q 28.21875 17.1875 28.953125 19.1875 
Q 29.6875 21.1875 30.171875 22.65625 
L 40.53125 52.828125 
L 49.8125 52.828125 
z
" id="LiberationSans-79"/>
       <path d="M 67.4375 35.109375 
Q 67.4375 26.515625 64.84375 19.9375 
Q 62.25 13.375 57.75 8.953125 
Q 53.265625 4.546875 47.140625 2.265625 
Q 41.015625 0 33.9375 0 
L 8.203125 0 
L 8.203125 68.796875 
L 30.953125 68.796875 
Q 38.921875 68.796875 45.625 66.8125 
Q 52.34375 64.84375 57.171875 60.71875 
Q 62.015625 56.59375 64.71875 50.234375 
Q 67.4375 43.890625 67.4375 35.109375 
M 58.0625 35.109375 
Q 58.0625 42.09375 56.046875 47.046875 
Q 54.046875 52 50.4375 55.171875 
Q 46.828125 58.34375 41.796875 59.828125 
Q 36.765625 61.328125 30.765625 61.328125 
L 17.53125 61.328125 
L 17.53125 7.46875 
L 32.859375 7.46875 
Q 38.28125 7.46875 42.890625 9.21875 
Q 47.515625 10.984375 50.875 14.453125 
Q 54.25 17.921875 56.15625 23.09375 
Q 58.0625 28.265625 58.0625 35.109375 
" id="LiberationSans-44"/>
      </defs>
      <g style="fill:#262626;" transform="translate(419.896037356 1028.87155636)rotate(-45.0)scale(0.18 -0.18)">
       <use xlink:href="#LiberationSans-79"/>
       <use x="50.0" xlink:href="#LiberationSans-44"/>
       <use x="122.216796875" xlink:href="#LiberationSans-44"/>
       <use x="194.43359375" xlink:href="#LiberationSans-47"/>
      </g>
     </g>
    </g>
    <g id="xtick_4">
     <g id="line2d_7">
      <g>
       <use style="fill:#262626;stroke:#262626;" x="553.5" xlink:href="#m27d4796056" y="972.0"/>
      </g>
     </g>
     <g id="line2d_8">
      <g>
       <use style="fill:#262626;stroke:#262626;" x="553.5" xlink:href="#m72c1dc2cdf" y="108.0"/>
      </g>
     </g>
     <g id="text_4">
      <!-- ProteinPropens -->
      <defs>
       <path d="M 46.390625 14.59375 
Q 46.390625 10.890625 44.9375 7.984375 
Q 43.5 5.078125 40.765625 3.09375 
Q 38.03125 1.125 34.046875 0.0625 
Q 30.078125 -0.984375 24.953125 -0.984375 
Q 20.359375 -0.984375 16.671875 -0.265625 
Q 12.984375 0.4375 10.203125 2 
Q 7.421875 3.5625 5.53125 6.125 
Q 3.65625 8.6875 2.78125 12.40625 
L 10.546875 13.921875 
Q 11.671875 9.671875 15.1875 7.6875 
Q 18.703125 5.71875 24.953125 5.71875 
Q 27.78125 5.71875 30.140625 6.109375 
Q 32.515625 6.5 34.21875 7.453125 
Q 35.9375 8.40625 36.890625 9.984375 
Q 37.84375 11.578125 37.84375 13.921875 
Q 37.84375 16.3125 36.71875 17.84375 
Q 35.59375 19.390625 33.59375 20.40625 
Q 31.59375 21.4375 28.734375 22.1875 
Q 25.875 22.953125 22.46875 23.875 
Q 19.28125 24.703125 16.15625 25.734375 
Q 13.03125 26.765625 10.515625 28.4375 
Q 8.015625 30.125 6.453125 32.609375 
Q 4.890625 35.109375 4.890625 38.875 
Q 4.890625 46.09375 10.03125 49.875 
Q 15.1875 53.65625 25.046875 53.65625 
Q 33.796875 53.65625 38.9375 50.578125 
Q 44.09375 47.515625 45.453125 40.71875 
L 37.546875 39.75 
Q 37.109375 41.796875 35.9375 43.1875 
Q 34.765625 44.578125 33.109375 45.4375 
Q 31.453125 46.296875 29.375 46.65625 
Q 27.296875 47.015625 25.046875 47.015625 
Q 19.09375 47.015625 16.25 45.203125 
Q 13.421875 43.40625 13.421875 39.75 
Q 13.421875 37.59375 14.46875 36.203125 
Q 15.53125 34.8125 17.40625 33.859375 
Q 19.28125 32.90625 21.921875 32.203125 
Q 24.5625 31.5 27.734375 30.71875 
Q 29.828125 30.171875 32.03125 29.5625 
Q 34.234375 28.953125 36.296875 28.09375 
Q 38.375 27.25 40.203125 26.09375 
Q 42.046875 24.953125 43.40625 23.34375 
Q 44.78125 21.734375 45.578125 19.578125 
Q 46.390625 17.4375 46.390625 14.59375 
" id="LiberationSans-73"/>
       <path d="M 6.9375 0 
L 6.9375 40.53125 
Q 6.9375 42.1875 6.90625 43.921875 
Q 6.890625 45.65625 6.828125 47.265625 
Q 6.78125 48.875 6.734375 50.28125 
Q 6.6875 51.703125 6.640625 52.828125 
L 14.9375 52.828125 
Q 14.984375 51.703125 15.0625 50.265625 
Q 15.140625 48.828125 15.203125 47.3125 
Q 15.28125 45.796875 15.296875 44.40625 
Q 15.328125 43.015625 15.328125 42.046875 
L 15.53125 42.046875 
Q 16.453125 45.0625 17.5 47.28125 
Q 18.5625 49.515625 19.96875 50.953125 
Q 21.390625 52.390625 23.34375 53.09375 
Q 25.296875 53.8125 28.078125 53.8125 
Q 29.15625 53.8125 30.125 53.640625 
Q 31.109375 53.46875 31.640625 53.328125 
L 31.640625 45.265625 
Q 30.765625 45.515625 29.59375 45.625 
Q 28.421875 45.75 26.953125 45.75 
Q 23.921875 45.75 21.796875 44.375 
Q 19.671875 43.015625 18.328125 40.59375 
Q 17 38.1875 16.359375 34.84375 
Q 15.71875 31.5 15.71875 27.546875 
L 15.71875 0 
z
" id="LiberationSans-72"/>
       <path d="M 51.421875 26.65625 
Q 51.421875 20.65625 50.4375 15.578125 
Q 49.46875 10.5 47.1875 6.828125 
Q 44.921875 3.171875 41.1875 1.09375 
Q 37.453125 -0.984375 31.984375 -0.984375 
Q 26.3125 -0.984375 22.0625 1.171875 
Q 17.828125 3.328125 15.578125 8.203125 
L 15.328125 8.203125 
Q 15.375 8.109375 15.40625 7.328125 
Q 15.4375 6.546875 15.453125 5.375 
Q 15.484375 4.203125 15.5 2.75 
Q 15.53125 1.3125 15.53125 -0.09375 
L 15.53125 -20.75 
L 6.734375 -20.75 
L 6.734375 42.046875 
Q 6.734375 43.953125 6.703125 45.703125 
Q 6.6875 47.46875 6.640625 48.90625 
Q 6.59375 50.34375 6.546875 51.359375 
Q 6.5 52.390625 6.453125 52.828125 
L 14.9375 52.828125 
Q 14.984375 52.6875 15.0625 51.796875 
Q 15.140625 50.921875 15.203125 49.671875 
Q 15.28125 48.4375 15.359375 47.015625 
Q 15.4375 45.609375 15.4375 44.34375 
L 15.625 44.34375 
Q 16.84375 46.875 18.40625 48.65625 
Q 19.96875 50.4375 21.96875 51.578125 
Q 23.96875 52.734375 26.4375 53.25 
Q 28.90625 53.765625 31.984375 53.765625 
Q 37.453125 53.765625 41.1875 51.8125 
Q 44.921875 49.859375 47.1875 46.3125 
Q 49.46875 42.78125 50.4375 37.765625 
Q 51.421875 32.765625 51.421875 26.65625 
M 42.1875 26.46875 
Q 42.1875 31.34375 41.59375 35.15625 
Q 41.015625 38.96875 39.578125 41.59375 
Q 38.140625 44.234375 35.734375 45.59375 
Q 33.34375 46.96875 29.734375 46.96875 
Q 26.8125 46.96875 24.21875 46.140625 
Q 21.625 45.3125 19.703125 42.96875 
Q 17.78125 40.625 16.65625 36.5 
Q 15.53125 32.375 15.53125 25.78125 
Q 15.53125 20.171875 16.453125 16.28125 
Q 17.390625 12.40625 19.171875 10.015625 
Q 20.953125 7.625 23.578125 6.5625 
Q 26.21875 5.515625 29.640625 5.515625 
Q 33.296875 5.515625 35.71875 6.921875 
Q 38.140625 8.34375 39.578125 11.03125 
Q 41.015625 13.71875 41.59375 17.59375 
Q 42.1875 21.484375 42.1875 26.46875 
" id="LiberationSans-70"/>
       <path d="M 13.484375 24.5625 
Q 13.484375 20.40625 14.328125 16.90625 
Q 15.1875 13.421875 16.96875 10.90625 
Q 18.75 8.40625 21.53125 7 
Q 24.3125 5.609375 28.21875 5.609375 
Q 33.9375 5.609375 37.375 7.90625 
Q 40.828125 10.203125 42.046875 13.71875 
L 49.75 11.53125 
Q 48.921875 9.328125 47.4375 7.109375 
Q 45.953125 4.890625 43.453125 3.09375 
Q 40.96875 1.3125 37.234375 0.15625 
Q 33.5 -0.984375 28.21875 -0.984375 
Q 16.5 -0.984375 10.375 6 
Q 4.25 12.984375 4.25 26.765625 
Q 4.25 34.1875 6.09375 39.328125 
Q 7.953125 44.484375 11.171875 47.703125 
Q 14.40625 50.921875 18.703125 52.359375 
Q 23 53.8125 27.875 53.8125 
Q 34.515625 53.8125 38.984375 51.65625 
Q 43.453125 49.515625 46.15625 45.71875 
Q 48.875 41.9375 50.015625 36.8125 
Q 51.171875 31.6875 51.171875 25.734375 
L 51.171875 24.5625 
z
M 42.09375 31.296875 
Q 41.359375 39.65625 37.84375 43.484375 
Q 34.328125 47.3125 27.734375 47.3125 
Q 25.53125 47.3125 23.109375 46.609375 
Q 20.703125 45.90625 18.65625 44.09375 
Q 16.609375 42.28125 15.1875 39.171875 
Q 13.765625 36.078125 13.578125 31.296875 
z
" id="LiberationSans-65"/>
       <path d="M 27.046875 0.390625 
Q 25.046875 -0.140625 22.96875 -0.453125 
Q 20.90625 -0.78125 18.171875 -0.78125 
Q 7.625 -0.78125 7.625 11.1875 
L 7.625 46.4375 
L 1.515625 46.4375 
L 1.515625 52.828125 
L 7.953125 52.828125 
L 10.546875 64.65625 
L 16.40625 64.65625 
L 16.40625 52.828125 
L 26.171875 52.828125 
L 26.171875 46.4375 
L 16.40625 46.4375 
L 16.40625 13.09375 
Q 16.40625 9.28125 17.640625 7.734375 
Q 18.890625 6.203125 21.96875 6.203125 
Q 23.25 6.203125 24.4375 6.390625 
Q 25.640625 6.59375 27.046875 6.890625 
z
" id="LiberationSans-74"/>
       <path d="M 6.6875 64.0625 
L 6.6875 72.46875 
L 15.484375 72.46875 
L 15.484375 64.0625 
z
M 6.6875 0 
L 6.6875 52.828125 
L 15.484375 52.828125 
L 15.484375 0 
z
" id="LiberationSans-69"/>
       <path d="M 40.28125 0 
L 40.28125 33.5 
Q 40.28125 37.359375 39.71875 39.9375 
Q 39.15625 42.53125 37.890625 44.109375 
Q 36.625 45.703125 34.546875 46.359375 
Q 32.46875 47.015625 29.390625 47.015625 
Q 26.265625 47.015625 23.75 45.921875 
Q 21.234375 44.828125 19.453125 42.75 
Q 17.671875 40.671875 16.6875 37.625 
Q 15.71875 34.578125 15.71875 30.609375 
L 15.71875 0 
L 6.9375 0 
L 6.9375 41.546875 
Q 6.9375 43.21875 6.90625 45.046875 
Q 6.890625 46.875 6.828125 48.5 
Q 6.78125 50.140625 6.734375 51.3125 
Q 6.6875 52.484375 6.640625 52.828125 
L 14.9375 52.828125 
Q 14.984375 52.59375 15.03125 51.515625 
Q 15.09375 50.4375 15.15625 49.046875 
Q 15.234375 47.65625 15.28125 46.21875 
Q 15.328125 44.78125 15.328125 43.796875 
L 15.484375 43.796875 
Q 16.75 46.09375 18.265625 47.953125 
Q 19.78125 49.8125 21.78125 51.09375 
Q 23.78125 52.390625 26.359375 53.09375 
Q 28.953125 53.8125 32.375 53.8125 
Q 36.765625 53.8125 39.9375 52.734375 
Q 43.109375 51.65625 45.15625 49.40625 
Q 47.21875 47.171875 48.171875 43.625 
Q 49.125 40.09375 49.125 35.203125 
L 49.125 0 
z
" id="LiberationSans-6e"/>
       <path d="M 51.421875 26.46875 
Q 51.421875 12.59375 45.3125 5.796875 
Q 39.203125 -0.984375 27.59375 -0.984375 
Q 22.078125 -0.984375 17.71875 0.671875 
Q 13.375 2.34375 10.375 5.765625 
Q 7.375 9.1875 5.78125 14.328125 
Q 4.203125 19.484375 4.203125 26.46875 
Q 4.203125 53.8125 27.875 53.8125 
Q 34.03125 53.8125 38.5 52.09375 
Q 42.96875 50.390625 45.828125 46.96875 
Q 48.6875 43.5625 50.046875 38.421875 
Q 51.421875 33.296875 51.421875 26.46875 
M 42.1875 26.46875 
Q 42.1875 32.625 41.234375 36.625 
Q 40.28125 40.625 38.453125 43.015625 
Q 36.625 45.40625 33.984375 46.359375 
Q 31.34375 47.3125 28.03125 47.3125 
Q 24.65625 47.3125 21.9375 46.3125 
Q 19.234375 45.3125 17.328125 42.890625 
Q 15.4375 40.484375 14.421875 36.46875 
Q 13.421875 32.46875 13.421875 26.46875 
Q 13.421875 20.3125 14.5 16.28125 
Q 15.578125 12.25 17.453125 9.859375 
Q 19.34375 7.46875 21.90625 6.484375 
Q 24.46875 5.515625 27.484375 5.515625 
Q 30.859375 5.515625 33.59375 6.46875 
Q 36.328125 7.421875 38.234375 9.8125 
Q 40.140625 12.203125 41.15625 16.25 
Q 42.1875 20.3125 42.1875 26.46875 
" id="LiberationSans-6f"/>
       <path d="M 61.421875 48.09375 
Q 61.421875 43.609375 59.9375 39.71875 
Q 58.453125 35.84375 55.5 32.984375 
Q 52.546875 30.125 48.09375 28.46875 
Q 43.65625 26.8125 37.75 26.8125 
L 17.53125 26.8125 
L 17.53125 0 
L 8.203125 0 
L 8.203125 68.796875 
L 37.15625 68.796875 
Q 43.265625 68.796875 47.796875 67.3125 
Q 52.34375 65.828125 55.375 63.109375 
Q 58.40625 60.40625 59.90625 56.5625 
Q 61.421875 52.734375 61.421875 48.09375 
M 52.046875 48 
Q 52.046875 54.546875 48.046875 57.9375 
Q 44.046875 61.328125 36.03125 61.328125 
L 17.53125 61.328125 
L 17.53125 34.1875 
L 36.421875 34.1875 
Q 44.484375 34.1875 48.265625 37.75 
Q 52.046875 41.3125 52.046875 48 
" id="LiberationSans-50"/>
      </defs>
      <g style="fill:#262626;" transform="translate(512.926765323 1081.95295756)rotate(-45.0)scale(0.18 -0.18)">
       <use xlink:href="#LiberationSans-50"/>
       <use x="66.69921875" xlink:href="#LiberationSans-72"/>
       <use x="100.0" xlink:href="#LiberationSans-6f"/>
       <use x="155.615234375" xlink:href="#LiberationSans-74"/>
       <use x="183.3984375" xlink:href="#LiberationSans-65"/>
       <use x="239.013671875" xlink:href="#LiberationSans-69"/>
       <use x="261.23046875" xlink:href="#LiberationSans-6e"/>
       <use x="316.845703125" xlink:href="#LiberationSans-50"/>
       <use x="383.544921875" xlink:href="#LiberationSans-72"/>
       <use x="416.845703125" xlink:href="#LiberationSans-6f"/>
       <use x="472.4609375" xlink:href="#LiberationSans-70"/>
       <use x="528.076171875" xlink:href="#LiberationSans-65"/>
       <use x="583.69140625" xlink:href="#LiberationSans-6e"/>
       <use x="639.306640625" xlink:href="#LiberationSans-73"/>
      </g>
     </g>
    </g>
    <g id="xtick_5">
     <g id="line2d_9">
      <g>
       <use style="fill:#262626;stroke:#262626;" x="673.071428571" xlink:href="#m27d4796056" y="972.0"/>
      </g>
     </g>
     <g id="line2d_10">
      <g>
       <use style="fill:#262626;stroke:#262626;" x="673.071428571" xlink:href="#m72c1dc2cdf" y="108.0"/>
      </g>
     </g>
     <g id="text_5">
      <!-- Positionaccept -->
      <g style="fill:#262626;" transform="translate(634.974172483 1077.00100039)rotate(-45.0)scale(0.18 -0.18)">
       <use xlink:href="#LiberationSans-50"/>
       <use x="66.69921875" xlink:href="#LiberationSans-6f"/>
       <use x="122.314453125" xlink:href="#LiberationSans-73"/>
       <use x="172.314453125" xlink:href="#LiberationSans-69"/>
       <use x="194.53125" xlink:href="#LiberationSans-74"/>
       <use x="222.314453125" xlink:href="#LiberationSans-69"/>
       <use x="244.53125" xlink:href="#LiberationSans-6f"/>
       <use x="300.146484375" xlink:href="#LiberationSans-6e"/>
       <use x="355.76171875" xlink:href="#LiberationSans-61"/>
       <use x="411.376953125" xlink:href="#LiberationSans-63"/>
       <use x="461.376953125" xlink:href="#LiberationSans-63"/>
       <use x="511.376953125" xlink:href="#LiberationSans-65"/>
       <use x="566.9921875" xlink:href="#LiberationSans-70"/>
       <use x="622.607421875" xlink:href="#LiberationSans-74"/>
      </g>
     </g>
    </g>
    <g id="xtick_6">
     <g id="line2d_11">
      <g>
       <use style="fill:#262626;stroke:#262626;" x="792.642857143" xlink:href="#m27d4796056" y="972.0"/>
      </g>
     </g>
     <g id="line2d_12">
      <g>
       <use style="fill:#262626;stroke:#262626;" x="792.642857143" xlink:href="#m72c1dc2cdf" y="108.0"/>
      </g>
     </g>
     <g id="text_6">
      <!-- MOSST -->
      <defs>
       <path d="M 73 34.71875 
Q 73 26.65625 70.671875 20.0625 
Q 68.359375 13.484375 63.96875 8.796875 
Q 59.578125 4.109375 53.21875 1.5625 
Q 46.875 -0.984375 38.8125 -0.984375 
Q 30.328125 -0.984375 23.921875 1.671875 
Q 17.53125 4.34375 13.28125 9.109375 
Q 9.03125 13.875 6.875 20.40625 
Q 4.734375 26.953125 4.734375 34.71875 
Q 4.734375 42.78125 6.984375 49.265625 
Q 9.234375 55.765625 13.578125 60.328125 
Q 17.921875 64.890625 24.296875 67.359375 
Q 30.671875 69.828125 38.921875 69.828125 
Q 47.125 69.828125 53.484375 67.328125 
Q 59.859375 64.84375 64.171875 60.25 
Q 68.5 55.671875 70.75 49.171875 
Q 73 42.671875 73 34.71875 
M 63.484375 34.71875 
Q 63.484375 40.921875 61.890625 46 
Q 60.296875 51.078125 57.203125 54.6875 
Q 54.109375 58.296875 49.515625 60.25 
Q 44.921875 62.203125 38.921875 62.203125 
Q 32.765625 62.203125 28.125 60.25 
Q 23.484375 58.296875 20.375 54.6875 
Q 17.28125 51.078125 15.734375 46 
Q 14.203125 40.921875 14.203125 34.71875 
Q 14.203125 28.515625 15.796875 23.359375 
Q 17.390625 18.21875 20.484375 14.484375 
Q 23.578125 10.75 28.1875 8.671875 
Q 32.8125 6.59375 38.8125 6.59375 
Q 45.265625 6.59375 49.921875 8.6875 
Q 54.59375 10.796875 57.59375 14.53125 
Q 60.59375 18.265625 62.03125 23.4375 
Q 63.484375 28.609375 63.484375 34.71875 
" id="LiberationSans-4f"/>
       <path d="M 35.15625 61.1875 
L 35.15625 0 
L 25.875 0 
L 25.875 61.1875 
L 2.25 61.1875 
L 2.25 68.796875 
L 58.796875 68.796875 
L 58.796875 61.1875 
z
" id="LiberationSans-54"/>
      </defs>
      <g style="fill:#262626;" transform="translate(773.306359299 1039.4794839)rotate(-45.0)scale(0.18 -0.18)">
       <use xlink:href="#LiberationSans-4d"/>
       <use x="83.30078125" xlink:href="#LiberationSans-4f"/>
       <use x="161.083984375" xlink:href="#LiberationSans-53"/>
       <use x="227.783203125" xlink:href="#LiberationSans-53"/>
       <use x="294.482421875" xlink:href="#LiberationSans-54"/>
      </g>
     </g>
    </g>
    <g id="xtick_7">
     <g id="line2d_13">
      <g>
       <use style="fill:#262626;stroke:#262626;" x="912.214285714" xlink:href="#m27d4796056" y="972.0"/>
      </g>
     </g>
     <g id="line2d_14">
      <g>
       <use style="fill:#262626;stroke:#262626;" x="912.214285714" xlink:href="#m72c1dc2cdf" y="108.0"/>
      </g>
     </g>
     <g id="text_7">
      <!-- Functionalrelevancefunction -->
      <defs>
       <path d="M 17.53125 61.1875 
L 17.53125 35.59375 
L 55.90625 35.59375 
L 55.90625 27.875 
L 17.53125 27.875 
L 17.53125 0 
L 8.203125 0 
L 8.203125 68.796875 
L 57.078125 68.796875 
L 57.078125 61.1875 
z
" id="LiberationSans-46"/>
       <path d="M 17.625 46.4375 
L 17.625 0 
L 8.84375 0 
L 8.84375 46.4375 
L 1.421875 46.4375 
L 1.421875 52.828125 
L 8.84375 52.828125 
L 8.84375 58.796875 
Q 8.84375 61.671875 9.375 64.140625 
Q 9.90625 66.609375 11.34375 68.4375 
Q 12.796875 70.265625 15.28125 71.3125 
Q 17.78125 72.359375 21.734375 72.359375 
Q 23.296875 72.359375 24.96875 72.21875 
Q 26.65625 72.078125 27.9375 71.78125 
L 27.9375 65.09375 
Q 27.09375 65.234375 26 65.359375 
Q 24.90625 65.484375 24.03125 65.484375 
Q 22.078125 65.484375 20.828125 64.9375 
Q 19.578125 64.40625 18.875 63.40625 
Q 18.171875 62.40625 17.890625 60.9375 
Q 17.625 59.46875 17.625 57.5625 
L 17.625 52.828125 
L 27.9375 52.828125 
L 27.9375 46.4375 
z
" id="LiberationSans-66"/>
       <path d="M 29.9375 0 
L 19.53125 0 
L 0.34375 52.828125 
L 9.71875 52.828125 
L 21.34375 18.453125 
Q 21.6875 17.390625 22.140625 15.84375 
Q 22.609375 14.3125 23.09375 12.640625 
Q 23.578125 10.984375 24 9.4375 
Q 24.421875 7.90625 24.703125 6.890625 
Q 25 7.90625 25.453125 9.4375 
Q 25.921875 10.984375 26.40625 12.59375 
Q 26.90625 14.203125 27.421875 15.734375 
Q 27.9375 17.28125 28.328125 18.359375 
L 40.328125 52.828125 
L 49.65625 52.828125 
z
" id="LiberationSans-76"/>
       <path d="M 15.328125 52.828125 
L 15.328125 19.34375 
Q 15.328125 15.484375 15.890625 12.890625 
Q 16.453125 10.296875 17.71875 8.703125 
Q 19 7.125 21.0625 6.46875 
Q 23.140625 5.8125 26.21875 5.8125 
Q 29.34375 5.8125 31.859375 6.90625 
Q 34.375 8.015625 36.15625 10.078125 
Q 37.9375 12.15625 38.90625 15.203125 
Q 39.890625 18.265625 39.890625 22.21875 
L 39.890625 52.828125 
L 48.6875 52.828125 
L 48.6875 11.28125 
Q 48.6875 9.625 48.703125 7.78125 
Q 48.734375 5.953125 48.78125 4.3125 
Q 48.828125 2.6875 48.875 1.515625 
Q 48.921875 0.34375 48.96875 0 
L 40.671875 0 
Q 40.625 0.25 40.578125 1.3125 
Q 40.53125 2.390625 40.453125 3.78125 
Q 40.375 5.171875 40.328125 6.609375 
Q 40.28125 8.0625 40.28125 9.03125 
L 40.140625 9.03125 
Q 38.875 6.734375 37.359375 4.875 
Q 35.84375 3.03125 33.84375 1.734375 
Q 31.84375 0.4375 29.25 -0.265625 
Q 26.65625 -0.984375 23.25 -0.984375 
Q 18.84375 -0.984375 15.671875 0.09375 
Q 12.5 1.171875 10.453125 3.421875 
Q 8.40625 5.671875 7.453125 9.1875 
Q 6.5 12.703125 6.5 17.625 
L 6.5 52.828125 
z
" id="LiberationSans-75"/>
       <path d="M 6.734375 0 
L 6.734375 72.46875 
L 15.53125 72.46875 
L 15.53125 0 
z
" id="LiberationSans-6c"/>
      </defs>
      <g style="fill:#262626;" transform="translate(836.266377027 1152.70230559)rotate(-45.0)scale(0.18 -0.18)">
       <use xlink:href="#LiberationSans-46"/>
       <use x="61.083984375" xlink:href="#LiberationSans-75"/>
       <use x="116.69921875" xlink:href="#LiberationSans-6e"/>
       <use x="172.314453125" xlink:href="#LiberationSans-63"/>
       <use x="222.314453125" xlink:href="#LiberationSans-74"/>
       <use x="250.09765625" xlink:href="#LiberationSans-69"/>
       <use x="272.314453125" xlink:href="#LiberationSans-6f"/>
       <use x="327.9296875" xlink:href="#LiberationSans-6e"/>
       <use x="383.544921875" xlink:href="#LiberationSans-61"/>
       <use x="439.16015625" xlink:href="#LiberationSans-6c"/>
       <use x="461.376953125" xlink:href="#LiberationSans-72"/>
       <use x="494.677734375" xlink:href="#LiberationSans-65"/>
       <use x="550.29296875" xlink:href="#LiberationSans-6c"/>
       <use x="572.509765625" xlink:href="#LiberationSans-65"/>
       <use x="628.125" xlink:href="#LiberationSans-76"/>
       <use x="678.125" xlink:href="#LiberationSans-61"/>
       <use x="733.740234375" xlink:href="#LiberationSans-6e"/>
       <use x="789.35546875" xlink:href="#LiberationSans-63"/>
       <use x="839.35546875" xlink:href="#LiberationSans-65"/>
       <use x="894.970703125" xlink:href="#LiberationSans-66"/>
       <use x="922.75390625" xlink:href="#LiberationSans-75"/>
       <use x="978.369140625" xlink:href="#LiberationSans-6e"/>
       <use x="1033.984375" xlink:href="#LiberationSans-63"/>
       <use x="1083.984375" xlink:href="#LiberationSans-74"/>
       <use x="1111.76757812" xlink:href="#LiberationSans-69"/>
       <use x="1133.984375" xlink:href="#LiberationSans-6f"/>
       <use x="1189.59960938" xlink:href="#LiberationSans-6e"/>
      </g>
     </g>
    </g>
    <g id="text_8">
     <!-- Features -->
     <g style="fill:#262626;" transform="translate(531.79734375 1168.31491191)scale(0.11 -0.11)">
      <use xlink:href="#LiberationSans-46"/>
      <use x="61.083984375" xlink:href="#LiberationSans-65"/>
      <use x="116.69921875" xlink:href="#LiberationSans-61"/>
      <use x="172.314453125" xlink:href="#LiberationSans-74"/>
      <use x="200.09765625" xlink:href="#LiberationSans-75"/>
      <use x="255.712890625" xlink:href="#LiberationSans-72"/>
      <use x="289.013671875" xlink:href="#LiberationSans-65"/>
      <use x="344.62890625" xlink:href="#LiberationSans-73"/>
     </g>
    </g>
   </g>
   <g id="matplotlib.axis_2">
    <g id="ytick_1">
     <g id="line2d_15">
      <defs>
       <path d="M 0 0 
L -6 0 
" id="m79584711e2" style="stroke:#262626;"/>
      </defs>
      <g>
       <use style="fill:#262626;stroke:#262626;" x="135.0" xlink:href="#m79584711e2" y="972.0"/>
      </g>
     </g>
     <g id="line2d_16">
      <defs>
       <path d="M 0 0 
L 6 0 
" id="m0876bdd9d2" style="stroke:#262626;"/>
      </defs>
      <g>
       <use style="fill:#262626;stroke:#262626;" x="972.0" xlink:href="#m0876bdd9d2" y="972.0"/>
      </g>
     </g>
     <g id="text_9">
      <!-- −1.0 -->
      <defs>
       <path d="M 4.9375 29.6875 
L 4.9375 36.8125 
L 53.515625 36.8125 
L 53.515625 29.6875 
z
" id="LiberationSans-2212"/>
       <path d="M 9.125 0 
L 9.125 10.6875 
L 18.65625 10.6875 
L 18.65625 0 
z
" id="LiberationSans-2e"/>
       <path d="M 7.625 0 
L 7.625 7.46875 
L 25.140625 7.46875 
L 25.140625 60.40625 
L 9.625 49.3125 
L 9.625 57.625 
L 25.875 68.796875 
L 33.984375 68.796875 
L 33.984375 7.46875 
L 50.734375 7.46875 
L 50.734375 0 
z
" id="LiberationSans-31"/>
       <path d="M 51.703125 34.421875 
Q 51.703125 24.515625 49.828125 17.75 
Q 47.953125 10.984375 44.703125 6.8125 
Q 41.453125 2.640625 37.0625 0.828125 
Q 32.671875 -0.984375 27.6875 -0.984375 
Q 22.65625 -0.984375 18.3125 0.828125 
Q 13.96875 2.640625 10.765625 6.78125 
Q 7.5625 10.9375 5.734375 17.703125 
Q 3.90625 24.46875 3.90625 34.421875 
Q 3.90625 44.828125 5.734375 51.640625 
Q 7.5625 58.453125 10.78125 62.5 
Q 14.015625 66.546875 18.40625 68.1875 
Q 22.796875 69.828125 27.984375 69.828125 
Q 32.90625 69.828125 37.21875 68.1875 
Q 41.546875 66.546875 44.765625 62.5 
Q 48 58.453125 49.84375 51.640625 
Q 51.703125 44.828125 51.703125 34.421875 
M 42.78125 34.421875 
Q 42.78125 42.625 41.796875 48.0625 
Q 40.828125 53.515625 38.921875 56.765625 
Q 37.015625 60.015625 34.25 61.359375 
Q 31.5 62.703125 27.984375 62.703125 
Q 24.265625 62.703125 21.4375 61.328125 
Q 18.609375 59.96875 16.671875 56.71875 
Q 14.75 53.46875 13.765625 48.015625 
Q 12.796875 42.578125 12.796875 34.421875 
Q 12.796875 26.515625 13.796875 21.09375 
Q 14.796875 15.671875 16.71875 12.375 
Q 18.65625 9.078125 21.4375 7.640625 
Q 24.21875 6.203125 27.78125 6.203125 
Q 31.25 6.203125 34.03125 7.640625 
Q 36.8125 9.078125 38.734375 12.375 
Q 40.671875 15.671875 41.71875 21.09375 
Q 42.78125 26.515625 42.78125 34.421875 
" id="LiberationSans-30"/>
      </defs>
      <g style="fill:#262626;" transform="translate(86.466875 976.6546875)scale(0.18 -0.18)">
       <use xlink:href="#LiberationSans-2212"/>
       <use x="58.3984375" xlink:href="#LiberationSans-31"/>
       <use x="114.013671875" xlink:href="#LiberationSans-2e"/>
       <use x="141.796875" xlink:href="#LiberationSans-30"/>
      </g>
     </g>
    </g>
    <g id="ytick_2">
     <g id="line2d_17">
      <g>
       <use style="fill:#262626;stroke:#262626;" x="135.0" xlink:href="#m79584711e2" y="756.0"/>
      </g>
     </g>
     <g id="line2d_18">
      <g>
       <use style="fill:#262626;stroke:#262626;" x="972.0" xlink:href="#m0876bdd9d2" y="756.0"/>
      </g>
     </g>
     <g id="text_10">
      <!-- −0.5 -->
      <defs>
       <path d="M 51.421875 22.40625 
Q 51.421875 17.234375 49.859375 12.9375 
Q 48.296875 8.640625 45.21875 5.53125 
Q 42.140625 2.4375 37.578125 0.71875 
Q 33.015625 -0.984375 27 -0.984375 
Q 21.578125 -0.984375 17.546875 0.28125 
Q 13.53125 1.5625 10.734375 3.78125 
Q 7.953125 6 6.3125 8.984375 
Q 4.6875 11.96875 4 15.375 
L 12.890625 16.40625 
Q 13.421875 14.453125 14.390625 12.625 
Q 15.375 10.796875 17.0625 9.34375 
Q 18.75 7.90625 21.21875 7.046875 
Q 23.6875 6.203125 27.203125 6.203125 
Q 30.609375 6.203125 33.390625 7.25 
Q 36.1875 8.296875 38.15625 10.34375 
Q 40.140625 12.40625 41.203125 15.375 
Q 42.28125 18.359375 42.28125 22.21875 
Q 42.28125 25.390625 41.25 28.046875 
Q 40.234375 30.71875 38.328125 32.640625 
Q 36.421875 34.578125 33.65625 35.640625 
Q 30.90625 36.71875 27.390625 36.71875 
Q 25.203125 36.71875 23.34375 36.328125 
Q 21.484375 35.9375 19.890625 35.25 
Q 18.3125 34.578125 17.015625 33.671875 
Q 15.71875 32.765625 14.59375 31.78125 
L 6 31.78125 
L 8.296875 68.796875 
L 47.40625 68.796875 
L 47.40625 61.328125 
L 16.3125 61.328125 
L 14.984375 39.5 
Q 17.328125 41.3125 20.84375 42.59375 
Q 24.359375 43.890625 29.203125 43.890625 
Q 34.328125 43.890625 38.421875 42.328125 
Q 42.53125 40.765625 45.40625 37.90625 
Q 48.296875 35.0625 49.859375 31.109375 
Q 51.421875 27.15625 51.421875 22.40625 
" id="LiberationSans-35"/>
      </defs>
      <g style="fill:#262626;" transform="translate(86.466875 760.6546875)scale(0.18 -0.18)">
       <use xlink:href="#LiberationSans-2212"/>
       <use x="58.3984375" xlink:href="#LiberationSans-30"/>
       <use x="114.013671875" xlink:href="#LiberationSans-2e"/>
       <use x="141.796875" xlink:href="#LiberationSans-35"/>
      </g>
     </g>
    </g>
    <g id="ytick_3">
     <g id="line2d_19">
      <g>
       <use style="fill:#262626;stroke:#262626;" x="135.0" xlink:href="#m79584711e2" y="540.0"/>
      </g>
     </g>
     <g id="line2d_20">
      <g>
       <use style="fill:#262626;stroke:#262626;" x="972.0" xlink:href="#m0876bdd9d2" y="540.0"/>
      </g>
     </g>
     <g id="text_11">
      <!-- 0.0 -->
      <g style="fill:#262626;" transform="translate(96.98 544.6546875)scale(0.18 -0.18)">
       <use xlink:href="#LiberationSans-30"/>
       <use x="55.615234375" xlink:href="#LiberationSans-2e"/>
       <use x="83.3984375" xlink:href="#LiberationSans-30"/>
      </g>
     </g>
    </g>
    <g id="ytick_4">
     <g id="line2d_21">
      <g>
       <use style="fill:#262626;stroke:#262626;" x="135.0" xlink:href="#m79584711e2" y="324.0"/>
      </g>
     </g>
     <g id="line2d_22">
      <g>
       <use style="fill:#262626;stroke:#262626;" x="972.0" xlink:href="#m0876bdd9d2" y="324.0"/>
      </g>
     </g>
     <g id="text_12">
      <!-- 0.5 -->
      <g style="fill:#262626;" transform="translate(96.98 328.6546875)scale(0.18 -0.18)">
       <use xlink:href="#LiberationSans-30"/>
       <use x="55.615234375" xlink:href="#LiberationSans-2e"/>
       <use x="83.3984375" xlink:href="#LiberationSans-35"/>
      </g>
     </g>
    </g>
    <g id="ytick_5">
     <g id="line2d_23">
      <g>
       <use style="fill:#262626;stroke:#262626;" x="135.0" xlink:href="#m79584711e2" y="108.0"/>
      </g>
     </g>
     <g id="line2d_24">
      <g>
       <use style="fill:#262626;stroke:#262626;" x="972.0" xlink:href="#m0876bdd9d2" y="108.0"/>
      </g>
     </g>
     <g id="text_13">
      <!-- 1.0 -->
      <g style="fill:#262626;" transform="translate(96.98 112.6546875)scale(0.18 -0.18)">
       <use xlink:href="#LiberationSans-31"/>
       <use x="55.615234375" xlink:href="#LiberationSans-2e"/>
       <use x="83.3984375" xlink:href="#LiberationSans-30"/>
      </g>
     </g>
    </g>
    <g id="text_14">
     <!-- value -->
     <g style="fill:#262626;" transform="translate(79.184375 553.147578125)rotate(-90.0)scale(0.11 -0.11)">
      <use xlink:href="#LiberationSans-76"/>
      <use x="50.0" xlink:href="#LiberationSans-61"/>
      <use x="105.615234375" xlink:href="#LiberationSans-6c"/>
      <use x="127.83203125" xlink:href="#LiberationSans-75"/>
      <use x="183.447265625" xlink:href="#LiberationSans-65"/>
     </g>
    </g>
   </g>
   <g id="patch_3">
    <path clip-path="url(#pc7d73a1b46)" d="M 146.957143 540 
L 242.614286 540 
L 242.614286 258.423233 
L 146.957143 258.423233 
L 146.957143 540 
z
" style="fill:#ea96a3;stroke:#474747;stroke-linejoin:miter;stroke-width:1.75;"/>
   </g>
   <g id="patch_4">
    <path clip-path="url(#pc7d73a1b46)" d="M 266.528571 506.942026 
L 362.185714 506.942026 
L 362.185714 198.306686 
L 266.528571 198.306686 
L 266.528571 506.942026 
z
" style="fill:#c29a4b;stroke:#474747;stroke-linejoin:miter;stroke-width:1.75;"/>
   </g>
   <g id="patch_5">
    <path clip-path="url(#pc7d73a1b46)" d="M 386.1 776.069339 
L 481.757143 776.069339 
L 481.757143 540 
L 386.1 540 
L 386.1 776.069339 
z
" style="fill:#88a746;stroke:#474747;stroke-linejoin:miter;stroke-width:1.75;"/>
   </g>
   <g id="patch_6">
    <path clip-path="url(#pc7d73a1b46)" d="M 505.671429 540 
L 601.328571 540 
L 601.328571 500.842447 
L 505.671429 500.842447 
L 505.671429 540 
z
" style="fill:#4aad8f;stroke:#474747;stroke-linejoin:miter;stroke-width:1.75;"/>
   </g>
   <g id="patch_7">
    <path clip-path="url(#pc7d73a1b46)" d="M 625.242857 514.12321 
L 720.9 514.12321 
L 720.9 432.961841 
L 625.242857 432.961841 
L 625.242857 514.12321 
z
" style="fill:#4eabb8;stroke:#474747;stroke-linejoin:miter;stroke-width:1.75;"/>
   </g>
   <g id="patch_8">
    <path clip-path="url(#pc7d73a1b46)" d="M 744.814286 613.781368 
L 840.471429 613.781368 
L 840.471429 555.897942 
L 744.814286 555.897942 
L 744.814286 613.781368 
z
" style="fill:#a0adea;stroke:#474747;stroke-linejoin:miter;stroke-width:1.75;"/>
   </g>
   <g id="patch_9">
    <path clip-path="url(#pc7d73a1b46)" d="M 864.385714 532.02986 
L 960.042857 532.02986 
L 960.042857 500.351869 
L 864.385714 500.351869 
L 864.385714 532.02986 
z
" style="fill:#e78ae0;stroke:#474747;stroke-linejoin:miter;stroke-width:1.75;"/>
   </g>
   <g id="line2d_25">
    <path clip-path="url(#pc7d73a1b46)" d="M 194.785714 540 
L 194.785714 540 
" style="fill:none;stroke:#474747;stroke-linecap:round;stroke-width:1.75;"/>
   </g>
   <g id="line2d_26">
    <path clip-path="url(#pc7d73a1b46)" d="M 194.785714 258.423233 
L 194.785714 111.251206 
" style="fill:none;stroke:#474747;stroke-linecap:round;stroke-width:1.75;"/>
   </g>
   <g id="line2d_27">
    <path clip-path="url(#pc7d73a1b46)" d="M 170.871429 540 
L 218.7 540 
" style="fill:none;stroke:#474747;stroke-linecap:round;stroke-width:1.75;"/>
   </g>
   <g id="line2d_28">
    <path clip-path="url(#pc7d73a1b46)" d="M 170.871429 111.251206 
L 218.7 111.251206 
" style="fill:none;stroke:#474747;stroke-linecap:round;stroke-width:1.75;"/>
   </g>
   <g id="line2d_29">
    <path clip-path="url(#pc7d73a1b46)" d="M 146.957143 434.949313 
L 242.614286 434.949313 
" style="fill:none;stroke:#474747;stroke-linecap:round;stroke-width:1.75;"/>
   </g>
   <g id="line2d_30"/>
   <g id="line2d_31">
    <path clip-path="url(#pc7d73a1b46)" d="M 314.357143 506.942026 
L 314.357143 540 
" style="fill:none;stroke:#474747;stroke-linecap:round;stroke-width:1.75;"/>
   </g>
   <g id="line2d_32">
    <path clip-path="url(#pc7d73a1b46)" d="M 314.357143 198.306686 
L 314.357143 117.368308 
" style="fill:none;stroke:#474747;stroke-linecap:round;stroke-width:1.75;"/>
   </g>
   <g id="line2d_33">
    <path clip-path="url(#pc7d73a1b46)" d="M 290.442857 540 
L 338.271429 540 
" style="fill:none;stroke:#474747;stroke-linecap:round;stroke-width:1.75;"/>
   </g>
   <g id="line2d_34">
    <path clip-path="url(#pc7d73a1b46)" d="M 290.442857 117.368308 
L 338.271429 117.368308 
" style="fill:none;stroke:#474747;stroke-linecap:round;stroke-width:1.75;"/>
   </g>
   <g id="line2d_35">
    <path clip-path="url(#pc7d73a1b46)" d="M 266.528571 313.111668 
L 362.185714 313.111668 
" style="fill:none;stroke:#474747;stroke-linecap:round;stroke-width:1.75;"/>
   </g>
   <g id="line2d_36"/>
   <g id="line2d_37">
    <path clip-path="url(#pc7d73a1b46)" d="M 433.928571 776.069339 
L 433.928571 946.722121 
" style="fill:none;stroke:#474747;stroke-linecap:round;stroke-width:1.75;"/>
   </g>
   <g id="line2d_38">
    <path clip-path="url(#pc7d73a1b46)" d="M 433.928571 540 
L 433.928571 222.834794 
" style="fill:none;stroke:#474747;stroke-linecap:round;stroke-width:1.75;"/>
   </g>
   <g id="line2d_39">
    <path clip-path="url(#pc7d73a1b46)" d="M 410.014286 946.722121 
L 457.842857 946.722121 
" style="fill:none;stroke:#474747;stroke-linecap:round;stroke-width:1.75;"/>
   </g>
   <g id="line2d_40">
    <path clip-path="url(#pc7d73a1b46)" d="M 410.014286 222.834794 
L 457.842857 222.834794 
" style="fill:none;stroke:#474747;stroke-linecap:round;stroke-width:1.75;"/>
   </g>
   <g id="line2d_41">
    <path clip-path="url(#pc7d73a1b46)" d="M 386.1 613.71962 
L 481.757143 613.71962 
" style="fill:none;stroke:#474747;stroke-linecap:round;stroke-width:1.75;"/>
   </g>
   <g id="line2d_42">
    <defs>
     <path d="M -0 3.535534 
L 2.12132 0 
L -0 -3.535534 
L -2.12132 -0 
z
" id="m6288323eb4"/>
    </defs>
    <g clip-path="url(#pc7d73a1b46)">
     <use style="fill:#4c72b0;" x="433.928571429" xlink:href="#m6288323eb4" y="181.36344299"/>
     <use style="fill:#4c72b0;" x="433.928571429" xlink:href="#m6288323eb4" y="154.982669986"/>
    </g>
   </g>
   <g id="line2d_43">
    <path clip-path="url(#pc7d73a1b46)" d="M 553.5 540 
L 553.5 561.016527 
" style="fill:none;stroke:#474747;stroke-linecap:round;stroke-width:1.75;"/>
   </g>
   <g id="line2d_44">
    <path clip-path="url(#pc7d73a1b46)" d="M 553.5 500.842447 
L 553.5 464.497355 
" style="fill:none;stroke:#474747;stroke-linecap:round;stroke-width:1.75;"/>
   </g>
   <g id="line2d_45">
    <path clip-path="url(#pc7d73a1b46)" d="M 529.585714 561.016527 
L 577.414286 561.016527 
" style="fill:none;stroke:#474747;stroke-linecap:round;stroke-width:1.75;"/>
   </g>
   <g id="line2d_46">
    <path clip-path="url(#pc7d73a1b46)" d="M 529.585714 464.497355 
L 577.414286 464.497355 
" style="fill:none;stroke:#474747;stroke-linecap:round;stroke-width:1.75;"/>
   </g>
   <g id="line2d_47">
    <path clip-path="url(#pc7d73a1b46)" d="M 505.671429 534.640383 
L 601.328571 534.640383 
" style="fill:none;stroke:#474747;stroke-linecap:round;stroke-width:1.75;"/>
   </g>
   <g id="line2d_48">
    <g clip-path="url(#pc7d73a1b46)">
     <use style="fill:#4c72b0;" x="553.5" xlink:href="#m6288323eb4" y="386.512517213"/>
     <use style="fill:#4c72b0;" x="553.5" xlink:href="#m6288323eb4" y="380.763296947"/>
     <use style="fill:#4c72b0;" x="553.5" xlink:href="#m6288323eb4" y="423.149660865"/>
     <use style="fill:#4c72b0;" x="553.5" xlink:href="#m6288323eb4" y="341.060131009"/>
     <use style="fill:#4c72b0;" x="553.5" xlink:href="#m6288323eb4" y="411.516991958"/>
     <use style="fill:#4c72b0;" x="553.5" xlink:href="#m6288323eb4" y="437.090113341"/>
     <use style="fill:#4c72b0;" x="553.5" xlink:href="#m6288323eb4" y="353.589949644"/>
     <use style="fill:#4c72b0;" x="553.5" xlink:href="#m6288323eb4" y="409.970225227"/>
     <use style="fill:#4c72b0;" x="553.5" xlink:href="#m6288323eb4" y="400.686937576"/>
    </g>
   </g>
   <g id="line2d_49">
    <path clip-path="url(#pc7d73a1b46)" d="M 673.071429 514.12321 
L 673.071429 536.385373 
" style="fill:none;stroke:#474747;stroke-linecap:round;stroke-width:1.75;"/>
   </g>
   <g id="line2d_50">
    <path clip-path="url(#pc7d73a1b46)" d="M 673.071429 432.961841 
L 673.071429 316.47484 
" style="fill:none;stroke:#474747;stroke-linecap:round;stroke-width:1.75;"/>
   </g>
   <g id="line2d_51">
    <path clip-path="url(#pc7d73a1b46)" d="M 649.157143 536.385373 
L 696.985714 536.385373 
" style="fill:none;stroke:#474747;stroke-linecap:round;stroke-width:1.75;"/>
   </g>
   <g id="line2d_52">
    <path clip-path="url(#pc7d73a1b46)" d="M 649.157143 316.47484 
L 696.985714 316.47484 
" style="fill:none;stroke:#474747;stroke-linecap:round;stroke-width:1.75;"/>
   </g>
   <g id="line2d_53">
    <path clip-path="url(#pc7d73a1b46)" d="M 625.242857 477.301123 
L 720.9 477.301123 
" style="fill:none;stroke:#474747;stroke-linecap:round;stroke-width:1.75;"/>
   </g>
   <g id="line2d_54">
    <g clip-path="url(#pc7d73a1b46)">
     <use style="fill:#4c72b0;" x="673.071428571" xlink:href="#m6288323eb4" y="307.96448868"/>
     <use style="fill:#4c72b0;" x="673.071428571" xlink:href="#m6288323eb4" y="307.229928114"/>
     <use style="fill:#4c72b0;" x="673.071428571" xlink:href="#m6288323eb4" y="297.042714586"/>
    </g>
   </g>
   <g id="line2d_55">
    <path clip-path="url(#pc7d73a1b46)" d="M 792.642857 613.781368 
L 792.642857 695.908532 
" style="fill:none;stroke:#474747;stroke-linecap:round;stroke-width:1.75;"/>
   </g>
   <g id="line2d_56">
    <path clip-path="url(#pc7d73a1b46)" d="M 792.642857 555.897942 
L 792.642857 470.343469 
" style="fill:none;stroke:#474747;stroke-linecap:round;stroke-width:1.75;"/>
   </g>
   <g id="line2d_57">
    <path clip-path="url(#pc7d73a1b46)" d="M 768.728571 695.908532 
L 816.557143 695.908532 
" style="fill:none;stroke:#474747;stroke-linecap:round;stroke-width:1.75;"/>
   </g>
   <g id="line2d_58">
    <path clip-path="url(#pc7d73a1b46)" d="M 768.728571 470.343469 
L 816.557143 470.343469 
" style="fill:none;stroke:#474747;stroke-linecap:round;stroke-width:1.75;"/>
   </g>
   <g id="line2d_59">
    <path clip-path="url(#pc7d73a1b46)" d="M 744.814286 568.949758 
L 840.471429 568.949758 
" style="fill:none;stroke:#474747;stroke-linecap:round;stroke-width:1.75;"/>
   </g>
   <g id="line2d_60">
    <g clip-path="url(#pc7d73a1b46)">
     <use style="fill:#4c72b0;" x="792.642857143" xlink:href="#m6288323eb4" y="734.55725665"/>
     <use style="fill:#4c72b0;" x="792.642857143" xlink:href="#m6288323eb4" y="734.510921593"/>
     <use style="fill:#4c72b0;" x="792.642857143" xlink:href="#m6288323eb4" y="785.87767615"/>
     <use style="fill:#4c72b0;" x="792.642857143" xlink:href="#m6288323eb4" y="739.750979389"/>
     <use style="fill:#4c72b0;" x="792.642857143" xlink:href="#m6288323eb4" y="805.389567653"/>
     <use style="fill:#4c72b0;" x="792.642857143" xlink:href="#m6288323eb4" y="725.628409056"/>
     <use style="fill:#4c72b0;" x="792.642857143" xlink:href="#m6288323eb4" y="739.750979389"/>
     <use style="fill:#4c72b0;" x="792.642857143" xlink:href="#m6288323eb4" y="756.39284222"/>
     <use style="fill:#4c72b0;" x="792.642857143" xlink:href="#m6288323eb4" y="713.324408327"/>
     <use style="fill:#4c72b0;" x="792.642857143" xlink:href="#m6288323eb4" y="706.191541054"/>
     <use style="fill:#4c72b0;" x="792.642857143" xlink:href="#m6288323eb4" y="756.545309313"/>
     <use style="fill:#4c72b0;" x="792.642857143" xlink:href="#m6288323eb4" y="356.378038502"/>
     <use style="fill:#4c72b0;" x="792.642857143" xlink:href="#m6288323eb4" y="407.373420673"/>
    </g>
   </g>
   <g id="line2d_61">
    <path clip-path="url(#pc7d73a1b46)" d="M 912.214286 532.02986 
L 912.214286 540 
" style="fill:none;stroke:#474747;stroke-linecap:round;stroke-width:1.75;"/>
   </g>
   <g id="line2d_62">
    <path clip-path="url(#pc7d73a1b46)" d="M 912.214286 500.351869 
L 912.214286 462.634495 
" style="fill:none;stroke:#474747;stroke-linecap:round;stroke-width:1.75;"/>
   </g>
   <g id="line2d_63">
    <path clip-path="url(#pc7d73a1b46)" d="M 888.3 540 
L 936.128571 540 
" style="fill:none;stroke:#474747;stroke-linecap:round;stroke-width:1.75;"/>
   </g>
   <g id="line2d_64">
    <path clip-path="url(#pc7d73a1b46)" d="M 888.3 462.634495 
L 936.128571 462.634495 
" style="fill:none;stroke:#474747;stroke-linecap:round;stroke-width:1.75;"/>
   </g>
   <g id="line2d_65">
    <path clip-path="url(#pc7d73a1b46)" d="M 864.385714 525.051229 
L 960.042857 525.051229 
" style="fill:none;stroke:#474747;stroke-linecap:round;stroke-width:1.75;"/>
   </g>
   <g id="line2d_66">
    <g clip-path="url(#pc7d73a1b46)">
     <use style="fill:#4c72b0;" x="912.214285714" xlink:href="#m6288323eb4" y="377.868952792"/>
     <use style="fill:#4c72b0;" x="912.214285714" xlink:href="#m6288323eb4" y="427.782160619"/>
     <use style="fill:#4c72b0;" x="912.214285714" xlink:href="#m6288323eb4" y="428.237419932"/>
     <use style="fill:#4c72b0;" x="912.214285714" xlink:href="#m6288323eb4" y="449.204100278"/>
     <use style="fill:#4c72b0;" x="912.214285714" xlink:href="#m6288323eb4" y="437.927089364"/>
     <use style="fill:#4c72b0;" x="912.214285714" xlink:href="#m6288323eb4" y="428.636762728"/>
     <use style="fill:#4c72b0;" x="912.214285714" xlink:href="#m6288323eb4" y="423.98224434"/>
     <use style="fill:#4c72b0;" x="912.214285714" xlink:href="#m6288323eb4" y="449.204100278"/>
    </g>
   </g>
   <g id="patch_10">
    <path d="M 135 108 
L 972 108 
" style="fill:none;stroke:#262626;stroke-linecap:square;stroke-linejoin:miter;stroke-width:1.25;"/>
   </g>
   <g id="patch_11">
    <path d="M 972 972 
L 972 108 
" style="fill:none;stroke:#262626;stroke-linecap:square;stroke-linejoin:miter;stroke-width:1.25;"/>
   </g>
   <g id="patch_12">
    <path d="M 135 972 
L 972 972 
" style="fill:none;stroke:#262626;stroke-linecap:square;stroke-linejoin:miter;stroke-width:1.25;"/>
   </g>
   <g id="patch_13">
    <path d="M 135 972 
L 135 108 
" style="fill:none;stroke:#262626;stroke-linecap:square;stroke-linejoin:miter;stroke-width:1.25;"/>
   </g>
   <g id="text_15">
    <!-- boxPlot for features with Normaliced Values -->
    <defs>
     <path d="M 40.09375 8.5 
Q 37.640625 3.421875 33.609375 1.21875 
Q 29.59375 -0.984375 23.640625 -0.984375 
Q 13.625 -0.984375 8.90625 5.75 
Q 4.203125 12.5 4.203125 26.171875 
Q 4.203125 53.8125 23.640625 53.8125 
Q 29.640625 53.8125 33.640625 51.609375 
Q 37.640625 49.421875 40.09375 44.625 
L 40.1875 44.625 
Q 40.1875 45.125 40.15625 46.171875 
Q 40.140625 47.21875 40.109375 48.359375 
Q 40.09375 49.515625 40.09375 50.53125 
Q 40.09375 51.5625 40.09375 52 
L 40.09375 72.46875 
L 48.875 72.46875 
L 48.875 10.890625 
Q 48.875 8.984375 48.890625 7.21875 
Q 48.921875 5.46875 48.96875 4 
Q 49.03125 2.546875 49.078125 1.484375 
Q 49.125 0.4375 49.171875 0 
L 40.765625 0 
Q 40.671875 0.484375 40.59375 1.390625 
Q 40.53125 2.296875 40.453125 3.46875 
Q 40.375 4.640625 40.328125 5.9375 
Q 40.28125 7.234375 40.28125 8.5 
z
M 13.421875 26.46875 
Q 13.421875 21 14.109375 17.09375 
Q 14.796875 13.1875 16.3125 10.671875 
Q 17.828125 8.15625 20.171875 6.984375 
Q 22.515625 5.8125 25.875 5.8125 
Q 29.34375 5.8125 32 6.9375 
Q 34.671875 8.0625 36.453125 10.578125 
Q 38.234375 13.09375 39.15625 17.140625 
Q 40.09375 21.1875 40.09375 27.046875 
Q 40.09375 32.671875 39.15625 36.546875 
Q 38.234375 40.4375 36.421875 42.828125 
Q 34.625 45.21875 32 46.265625 
Q 29.390625 47.3125 25.984375 47.3125 
Q 22.75 47.3125 20.40625 46.1875 
Q 18.0625 45.0625 16.5 42.578125 
Q 14.9375 40.09375 14.171875 36.109375 
Q 13.421875 32.125 13.421875 26.46875 
" id="LiberationSans-64"/>
     <path d="M 52.828125 0 
L 16.015625 58.59375 
Q 16.109375 56.203125 16.265625 53.859375 
Q 16.359375 51.859375 16.421875 49.625 
Q 16.5 47.40625 16.5 45.703125 
L 16.5 0 
L 8.203125 0 
L 8.203125 68.796875 
L 19.046875 68.796875 
L 56.25 9.8125 
Q 56.109375 12.203125 55.953125 14.59375 
Q 55.859375 16.65625 55.765625 19.0625 
Q 55.671875 21.484375 55.671875 23.6875 
L 55.671875 68.796875 
L 64.0625 68.796875 
L 64.0625 0 
z
" id="LiberationSans-4e"/>
     <path d="M 57.328125 0 
L 47.125 0 
L 38.671875 34.078125 
Q 38.28125 35.40625 37.859375 37.359375 
Q 37.453125 39.3125 37.0625 41.15625 
Q 36.578125 43.3125 36.140625 45.609375 
Q 35.6875 43.40625 35.203125 41.265625 
Q 34.8125 39.40625 34.34375 37.40625 
Q 33.890625 35.40625 33.5 33.890625 
L 24.8125 0 
L 14.65625 0 
L -0.140625 52.828125 
L 8.546875 52.828125 
L 17.484375 16.9375 
Q 17.828125 15.828125 18.15625 14.1875 
Q 18.5 12.546875 18.84375 10.984375 
Q 19.1875 9.1875 19.578125 7.28125 
Q 19.96875 9.125 20.40625 10.890625 
Q 20.796875 12.40625 21.1875 13.96875 
Q 21.578125 15.53125 21.875 16.546875 
L 31.453125 52.828125 
L 40.875 52.828125 
L 50.09375 16.546875 
Q 50.4375 15.28125 50.828125 13.671875 
Q 51.21875 12.0625 51.5625 10.640625 
Q 51.953125 8.984375 52.34375 7.28125 
Q 52.734375 9.125 53.125 10.890625 
Q 53.46875 12.40625 53.828125 14.03125 
Q 54.203125 15.671875 54.546875 16.9375 
L 63.875 52.828125 
L 72.46875 52.828125 
z
" id="LiberationSans-77"/>
     <path d="M 51.421875 26.65625 
Q 51.421875 -0.984375 31.984375 -0.984375 
Q 25.984375 -0.984375 22 1.1875 
Q 18.015625 3.375 15.53125 8.203125 
L 15.4375 8.203125 
Q 15.4375 6.9375 15.359375 5.5625 
Q 15.28125 4.203125 15.203125 3.03125 
Q 15.140625 1.859375 15.0625 1.03125 
Q 14.984375 0.203125 14.9375 0 
L 6.453125 0 
Q 6.5 0.4375 6.546875 1.484375 
Q 6.59375 2.546875 6.640625 4 
Q 6.6875 5.46875 6.703125 7.21875 
Q 6.734375 8.984375 6.734375 10.890625 
L 6.734375 72.46875 
L 15.53125 72.46875 
L 15.53125 51.8125 
Q 15.53125 50.34375 15.5 49 
Q 15.484375 47.65625 15.4375 46.625 
Q 15.375 45.40625 15.328125 44.34375 
L 15.53125 44.34375 
Q 17.96875 49.421875 22 51.609375 
Q 26.03125 53.8125 31.984375 53.8125 
Q 42 53.8125 46.703125 47.0625 
Q 51.421875 40.328125 51.421875 26.65625 
M 42.1875 26.375 
Q 42.1875 31.84375 41.5 35.75 
Q 40.828125 39.65625 39.3125 42.15625 
Q 37.796875 44.671875 35.453125 45.84375 
Q 33.109375 47.015625 29.734375 47.015625 
Q 26.265625 47.015625 23.609375 45.890625 
Q 20.953125 44.78125 19.171875 42.28125 
Q 17.390625 39.796875 16.453125 35.734375 
Q 15.53125 31.6875 15.53125 25.828125 
Q 15.53125 20.171875 16.453125 16.3125 
Q 17.390625 12.453125 19.171875 10.03125 
Q 20.953125 7.625 23.578125 6.5625 
Q 26.21875 5.515625 29.640625 5.515625 
Q 32.859375 5.515625 35.203125 6.640625 
Q 37.546875 7.765625 39.109375 10.25 
Q 40.671875 12.75 41.421875 16.71875 
Q 42.1875 20.703125 42.1875 26.375 
" id="LiberationSans-62"/>
     <path d="M 39.109375 0 
L 24.90625 21.6875 
L 10.59375 0 
L 1.125 0 
L 19.921875 27.15625 
L 2 52.828125 
L 11.71875 52.828125 
L 24.90625 32.28125 
L 37.984375 52.828125 
L 47.796875 52.828125 
L 29.890625 27.25 
L 48.921875 0 
z
" id="LiberationSans-78"/>
     <path d="M 15.484375 43.796875 
Q 16.9375 46.484375 18.640625 48.359375 
Q 20.359375 50.25 22.40625 51.46875 
Q 24.46875 52.6875 26.90625 53.25 
Q 29.34375 53.8125 32.375 53.8125 
Q 37.453125 53.8125 40.703125 52.4375 
Q 43.953125 51.078125 45.828125 48.609375 
Q 47.703125 46.140625 48.40625 42.71875 
Q 49.125 39.3125 49.125 35.203125 
L 49.125 0 
L 40.28125 0 
L 40.28125 33.5 
Q 40.28125 36.859375 39.859375 39.390625 
Q 39.453125 41.9375 38.28125 43.625 
Q 37.109375 45.3125 34.953125 46.15625 
Q 32.8125 47.015625 29.390625 47.015625 
Q 26.265625 47.015625 23.75 45.890625 
Q 21.234375 44.78125 19.453125 42.71875 
Q 17.671875 40.671875 16.6875 37.734375 
Q 15.71875 34.8125 15.71875 31.15625 
L 15.71875 0 
L 6.9375 0 
L 6.9375 72.46875 
L 15.71875 72.46875 
L 15.71875 53.609375 
Q 15.71875 52 15.671875 50.390625 
Q 15.625 48.78125 15.546875 47.40625 
Q 15.484375 46.046875 15.421875 45.09375 
Q 15.375 44.140625 15.328125 43.796875 
z
" id="LiberationSans-68"/>
     <path d="M 37.5 0 
L 37.5 33.5 
Q 37.5 37.359375 37.015625 39.9375 
Q 36.53125 42.53125 35.375 44.109375 
Q 34.234375 45.703125 32.375 46.359375 
Q 30.515625 47.015625 27.828125 47.015625 
Q 25.046875 47.015625 22.796875 45.921875 
Q 20.5625 44.828125 18.96875 42.75 
Q 17.390625 40.671875 16.53125 37.625 
Q 15.671875 34.578125 15.671875 30.609375 
L 15.671875 0 
L 6.9375 0 
L 6.9375 41.546875 
Q 6.9375 43.21875 6.90625 45.046875 
Q 6.890625 46.875 6.828125 48.5 
Q 6.78125 50.140625 6.734375 51.3125 
Q 6.6875 52.484375 6.640625 52.828125 
L 14.9375 52.828125 
Q 14.984375 52.59375 15.03125 51.515625 
Q 15.09375 50.4375 15.15625 49.046875 
Q 15.234375 47.65625 15.28125 46.21875 
Q 15.328125 44.78125 15.328125 43.796875 
L 15.484375 43.796875 
Q 16.65625 46.09375 18.015625 47.953125 
Q 19.390625 49.8125 21.21875 51.09375 
Q 23.046875 52.390625 25.40625 53.09375 
Q 27.78125 53.8125 30.90625 53.8125 
Q 36.921875 53.8125 40.40625 51.421875 
Q 43.890625 49.03125 45.265625 43.796875 
L 45.40625 43.796875 
Q 46.578125 46.09375 48.046875 47.953125 
Q 49.515625 49.8125 51.46875 51.09375 
Q 53.421875 52.390625 55.859375 53.09375 
Q 58.296875 53.8125 61.421875 53.8125 
Q 65.4375 53.8125 68.328125 52.734375 
Q 71.234375 51.65625 73.09375 49.40625 
Q 74.953125 47.171875 75.828125 43.625 
Q 76.703125 40.09375 76.703125 35.203125 
L 76.703125 0 
L 68.015625 0 
L 68.015625 33.5 
Q 68.015625 37.359375 67.53125 39.9375 
Q 67.046875 42.53125 65.890625 44.109375 
Q 64.75 45.703125 62.890625 46.359375 
Q 61.03125 47.015625 58.34375 47.015625 
Q 55.5625 47.015625 53.3125 45.96875 
Q 51.078125 44.921875 49.484375 42.875 
Q 47.90625 40.828125 47.046875 37.75 
Q 46.1875 34.671875 46.1875 30.609375 
L 46.1875 0 
z
" id="LiberationSans-6d"/>
     <path id="LiberationSans-20"/>
     <path d="M 38.1875 0 
L 28.515625 0 
L 0.4375 68.796875 
L 10.25 68.796875 
L 29.296875 20.359375 
Q 30.03125 18.171875 30.765625 15.984375 
Q 31.5 13.8125 32.078125 12.109375 
Q 32.765625 10.109375 33.40625 8.203125 
Q 33.984375 10.015625 34.671875 12.015625 
Q 35.25 13.71875 35.953125 15.859375 
Q 36.671875 18.015625 37.5 20.359375 
L 56.453125 68.796875 
L 66.265625 68.796875 
z
" id="LiberationSans-56"/>
    </defs>
    <g style="fill:#262626;" transform="translate(311.052734375 103.0)scale(0.25 -0.25)">
     <use xlink:href="#LiberationSans-62"/>
     <use x="55.615234375" xlink:href="#LiberationSans-6f"/>
     <use x="111.23046875" xlink:href="#LiberationSans-78"/>
     <use x="161.23046875" xlink:href="#LiberationSans-50"/>
     <use x="227.9296875" xlink:href="#LiberationSans-6c"/>
     <use x="250.146484375" xlink:href="#LiberationSans-6f"/>
     <use x="305.76171875" xlink:href="#LiberationSans-74"/>
     <use x="333.544921875" xlink:href="#LiberationSans-20"/>
     <use x="361.328125" xlink:href="#LiberationSans-66"/>
     <use x="389.111328125" xlink:href="#LiberationSans-6f"/>
     <use x="444.7265625" xlink:href="#LiberationSans-72"/>
     <use x="478.02734375" xlink:href="#LiberationSans-20"/>
     <use x="505.810546875" xlink:href="#LiberationSans-66"/>
     <use x="533.59375" xlink:href="#LiberationSans-65"/>
     <use x="589.208984375" xlink:href="#LiberationSans-61"/>
     <use x="644.82421875" xlink:href="#LiberationSans-74"/>
     <use x="672.607421875" xlink:href="#LiberationSans-75"/>
     <use x="728.22265625" xlink:href="#LiberationSans-72"/>
     <use x="761.5234375" xlink:href="#LiberationSans-65"/>
     <use x="817.138671875" xlink:href="#LiberationSans-73"/>
     <use x="867.138671875" xlink:href="#LiberationSans-20"/>
     <use x="894.921875" xlink:href="#LiberationSans-77"/>
     <use x="967.138671875" xlink:href="#LiberationSans-69"/>
     <use x="989.35546875" xlink:href="#LiberationSans-74"/>
     <use x="1017.13867188" xlink:href="#LiberationSans-68"/>
     <use x="1072.75390625" xlink:href="#LiberationSans-20"/>
     <use x="1100.53710938" xlink:href="#LiberationSans-4e"/>
     <use x="1172.75390625" xlink:href="#LiberationSans-6f"/>
     <use x="1228.36914062" xlink:href="#LiberationSans-72"/>
     <use x="1261.66992188" xlink:href="#LiberationSans-6d"/>
     <use x="1344.97070312" xlink:href="#LiberationSans-61"/>
     <use x="1400.5859375" xlink:href="#LiberationSans-6c"/>
     <use x="1422.80273438" xlink:href="#LiberationSans-69"/>
     <use x="1445.01953125" xlink:href="#LiberationSans-63"/>
     <use x="1495.01953125" xlink:href="#LiberationSans-65"/>
     <use x="1550.63476562" xlink:href="#LiberationSans-64"/>
     <use x="1606.25" xlink:href="#LiberationSans-20"/>
     <use x="1634.03320312" xlink:href="#LiberationSans-56"/>
     <use x="1700.62304688" xlink:href="#LiberationSans-61"/>
     <use x="1756.23828125" xlink:href="#LiberationSans-6c"/>
     <use x="1778.45507812" xlink:href="#LiberationSans-75"/>
     <use x="1834.0703125" xlink:href="#LiberationSans-65"/>
     <use x="1889.68554688" xlink:href="#LiberationSans-73"/>
    </g>
   </g>
  </g>
 </g>
 <defs>
  <clipPath id="pc7d73a1b46">
   <rect height="864.0" width="837.0" x="135.0" y="108.0"/>
  </clipPath>
 </defs>
</svg>
