<?xml version="1.0" encoding="utf-8" standalone="no"?>
<!DOCTYPE svg PUBLIC "-//W3C//DTD SVG 1.1//EN"
  "http://www.w3.org/Graphics/SVG/1.1/DTD/svg11.dtd">
<!-- Created with matplotlib (http://matplotlib.org/) -->
<svg height="432pt" version="1.1" viewBox="0 0 576 432" width="576pt" xmlns="http://www.w3.org/2000/svg" xmlns:xlink="http://www.w3.org/1999/xlink">
 <defs>
  <style type="text/css">
*{stroke-linecap:butt;stroke-linejoin:round;stroke-miterlimit:100000;}
  </style>
 </defs>
 <g id="figure_1">
  <g id="patch_1">
   <path d="M 0 432 
L 576 432 
L 576 0 
L 0 0 
z
" style="fill:#ffffff;"/>
  </g>
  <g id="axes_1">
   <g id="patch_2">
    <path d="M 72 388.8 
L 518.4 388.8 
L 518.4 43.2 
L 72 43.2 
z
" style="fill:#ffffff;"/>
   </g>
   <g id="PolyCollection_1">
    <defs>
     <path d="M 518.4 -43.2 
L 518.4 -190.656 
L 510.428571 -190.656 
L 510.428571 -189.190783 
L 502.457143 -189.190783 
L 502.457143 -187.701742 
L 502.457143 -187.701742 
L 502.457143 -188.886183 
L 502.457143 -188.886183 
L 502.457143 -190.090201 
L 494.485714 -190.090201 
L 494.485714 -188.571429 
L 494.485714 -188.571429 
L 494.485714 -189.793037 
L 494.485714 -189.793037 
L 494.485714 -191.035351 
L 486.514286 -191.035351 
L 486.514286 -189.485714 
L 486.514286 -189.485714 
L 486.514286 -190.746798 
L 486.514286 -190.746798 
L 486.514286 -192.029814 
L 486.514286 -192.029814 
L 486.514286 -193.335338 
L 486.514286 -193.335338 
L 486.514286 -194.66397 
L 486.514286 -194.66397 
L 486.514286 -196.016327 
L 486.514286 -196.016327 
L 486.514286 -197.39305 
L 486.514286 -197.39305 
L 486.514286 -198.794805 
L 478.542857 -198.794805 
L 478.542857 -197.202621 
L 478.542857 -197.202621 
L 478.542857 -198.628571 
L 470.571429 -198.628571 
L 470.571429 -197.005073 
L 470.571429 -197.005073 
L 470.571429 -198.456065 
L 470.571429 -198.456065 
L 470.571429 -199.934694 
L 470.571429 -199.934694 
L 470.571429 -201.441758 
L 470.571429 -201.441758 
L 470.571429 -202.978086 
L 470.571429 -202.978086 
L 470.571429 -204.544538 
L 462.6 -204.544538 
L 462.6 -202.883168 
L 454.628571 -202.883168 
L 454.628571 -201.188571 
L 446.657143 -201.188571 
L 446.657143 -199.45974 
L 446.657143 -199.45974 
L 446.657143 -201.054227 
L 438.685714 -201.054227 
L 438.685714 -199.288365 
L 430.714286 -199.288365 
L 430.714286 -197.485714 
L 430.714286 -197.485714 
L 430.714286 -199.109774 
L 422.742857 -199.109774 
L 422.742857 -197.266869 
L 414.771429 -197.266869 
L 414.771429 -195.384332 
L 406.8 -195.384332 
L 406.8 -193.46087 
L 406.8 -193.46087 
L 406.8 -195.112088 
L 398.828571 -195.112088 
L 398.828571 -193.142857 
L 398.828571 -193.142857 
L 398.828571 -194.827608 
L 398.828571 -194.827608 
L 398.828571 -196.550649 
L 390.857143 -196.550649 
L 390.857143 -196.289701 
L 390.857143 -196.289701 
L 390.857143 -198.090756 
L 382.885714 -198.090756 
L 382.885714 -196.016327 
L 374.914286 -196.016327 
L 374.914286 -193.89191 
L 374.914286 -193.89191 
L 374.914286 -195.729617 
L 366.942857 -195.729617 
L 366.942857 -193.549206 
L 366.942857 -193.549206 
L 366.942857 -195.428571 
L 366.942857 -195.428571 
L 366.942857 -197.355515 
L 366.942857 -197.355515 
L 366.942857 -199.331868 
L 366.942857 -199.331868 
L 366.942857 -201.359555 
L 366.942857 -201.359555 
L 366.942857 -203.440602 
L 366.942857 -203.440602 
L 366.942857 -205.577143 
L 358.971429 -205.577143 
L 358.971429 -203.323552 
L 358.971429 -203.323552 
L 358.971429 -205.517025 
L 351 -205.517025 
L 351 -203.2 
L 343.028571 -203.2 
L 343.028571 -200.817706 
L 343.028571 -200.817706 
L 343.028571 -203.069388 
L 343.028571 -203.069388 
L 343.028571 -205.386335 
L 327.085714 -205.386335 
L 327.085714 -200.402559 
L 327.085714 -200.402559 
L 327.085714 -202.784416 
L 327.085714 -202.784416 
L 327.085714 -205.23956 
L 319.114286 -205.23956 
L 319.114286 -202.628571 
L 311.142857 -202.628571 
L 311.142857 -199.934694 
L 303.171429 -199.934694 
L 303.171429 -197.153917 
L 303.171429 -197.153917 
L 303.171429 -199.677752 
L 295.2 -199.677752 
L 295.2 -196.8 
L 295.2 -196.8 
L 295.2 -199.40339 
L 287.228571 -199.40339 
L 287.228571 -196.421675 
L 279.257143 -196.421675 
L 279.257143 -193.335338 
L 279.257143 -193.335338 
L 279.257143 -196.016327 
L 279.257143 -196.016327 
L 279.257143 -198.794805 
L 271.285714 -198.794805 
L 271.285714 -195.580952 
L 263.314286 -195.580952 
L 263.314286 -192.245822 
L 263.314286 -192.245822 
L 263.314286 -195.112088 
L 263.314286 -195.112088 
L 263.314286 -198.090756 
L 255.342857 -198.090756 
L 255.342857 -194.605714 
L 255.342857 -194.605714 
L 255.342857 -197.695627 
L 247.371429 -197.695627 
L 247.371429 -194.057143 
L 247.371429 -194.057143 
L 247.371429 -197.266869 
L 239.4 -197.266869 
L 239.4 -193.46087 
L 231.428571 -193.46087 
L 231.428571 -189.485714 
L 223.457143 -189.485714 
L 223.457143 -185.32987 
L 223.457143 -185.32987 
L 223.457143 -188.635216 
L 223.457143 -188.635216 
L 223.457143 -192.097959 
L 223.457143 -192.097959 
L 223.457143 -195.729617 
L 223.457143 -195.729617 
L 223.457143 -199.542857 
L 215.485714 -199.542857 
L 215.485714 -195.112088 
L 207.514286 -195.112088 
L 207.514286 -190.44812 
L 199.542857 -190.44812 
L 199.542857 -185.532046 
L 191.571429 -185.532046 
L 191.571429 -180.342857 
L 191.571429 -180.342857 
L 191.571429 -188.410084 
L 191.571429 -188.410084 
L 191.571429 -192.81039 
L 183.6 -192.81039 
L 183.6 -187.2 
L 183.6 -187.2 
L 183.6 -191.845161 
L 183.6 -191.845161 
L 183.6 -196.8 
L 183.6 -196.8 
L 183.6 -202.096552 
L 175.628571 -202.096552 
L 175.628571 -196.016327 
L 167.657143 -196.016327 
L 167.657143 -189.485714 
L 167.657143 -189.485714 
L 167.657143 -195.112088 
L 159.685714 -195.112088 
L 159.685714 -188.022857 
L 159.685714 -188.022857 
L 159.685714 -194.057143 
L 159.685714 -194.057143 
L 159.685714 -200.616149 
L 151.714286 -200.616149 
L 151.714286 -192.81039 
L 143.742857 -192.81039 
L 143.742857 -184.261224 
L 143.742857 -184.261224 
L 143.742857 -191.314286 
L 135.771429 -191.314286 
L 135.771429 -181.786466 
L 135.771429 -181.786466 
L 135.771429 -189.485714 
L 135.771429 -189.485714 
L 135.771429 -198.090756 
L 135.771429 -198.090756 
L 135.771429 -207.771429 
L 127.8 -207.771429 
L 127.8 -196.8 
L 119.828571 -196.8 
L 119.828571 -184.261224 
L 111.857143 -184.261224 
L 111.857143 -169.793407 
L 103.885714 -169.793407 
L 103.885714 -162.888312 
L 95.914286 -162.888312 
L 95.914286 -141.942857 
L 87.942857 -141.942857 
L 87.942857 -116.342857 
L 79.971429 -116.342857 
L 79.971429 -84.342857 
L 79.971429 -84.342857 
L 79.971429 -90.220408 
L 72 -90.220408 
L 72 -43.2 
L 72 -43.2 
L 72 -43.2 
L 72 -43.2 
L 72 -43.2 
L 72 -43.2 
L 72 -43.2 
L 72 -43.2 
L 72 -43.2 
L 72 -43.2 
L 72 -43.2 
L 72 -43.2 
L 72 -372.342857 
L 72 -43.2 
L 72 -43.2 
L 72 -43.2 
L 72 -43.2 
L 72 -43.2 
L 72 -43.2 
L 72 -43.2 
L 72 -43.2 
L 72 -43.2 
L 72 -43.2 
L 72 -43.2 
L 72 -43.2 
L 72 -43.2 
L 72 -43.2 
L 72 -43.2 
L 79.971429 -43.2 
L 79.971429 -43.2 
L 79.971429 -43.2 
L 79.971429 -43.2 
L 87.942857 -43.2 
L 87.942857 -43.2 
L 95.914286 -43.2 
L 95.914286 -43.2 
L 103.885714 -43.2 
L 103.885714 -43.2 
L 111.857143 -43.2 
L 111.857143 -43.2 
L 119.828571 -43.2 
L 119.828571 -43.2 
L 127.8 -43.2 
L 127.8 -43.2 
L 135.771429 -43.2 
L 135.771429 -43.2 
L 135.771429 -43.2 
L 135.771429 -43.2 
L 135.771429 -43.2 
L 135.771429 -43.2 
L 135.771429 -43.2 
L 135.771429 -43.2 
L 143.742857 -43.2 
L 143.742857 -43.2 
L 143.742857 -43.2 
L 143.742857 -43.2 
L 151.714286 -43.2 
L 151.714286 -43.2 
L 159.685714 -43.2 
L 159.685714 -43.2 
L 159.685714 -43.2 
L 159.685714 -43.2 
L 159.685714 -43.2 
L 159.685714 -43.2 
L 167.657143 -43.2 
L 167.657143 -43.2 
L 167.657143 -43.2 
L 167.657143 -43.2 
L 175.628571 -43.2 
L 175.628571 -43.2 
L 183.6 -43.2 
L 183.6 -43.2 
L 183.6 -43.2 
L 183.6 -43.2 
L 183.6 -43.2 
L 183.6 -43.2 
L 183.6 -43.2 
L 183.6 -43.2 
L 191.571429 -43.2 
L 191.571429 -43.2 
L 191.571429 -43.2 
L 191.571429 -43.2 
L 191.571429 -43.2 
L 191.571429 -43.2 
L 199.542857 -43.2 
L 199.542857 -43.2 
L 207.514286 -43.2 
L 207.514286 -43.2 
L 215.485714 -43.2 
L 215.485714 -43.2 
L 223.457143 -43.2 
L 223.457143 -43.2 
L 223.457143 -43.2 
L 223.457143 -43.2 
L 223.457143 -43.2 
L 223.457143 -43.2 
L 223.457143 -43.2 
L 223.457143 -43.2 
L 223.457143 -43.2 
L 223.457143 -43.2 
L 231.428571 -43.2 
L 231.428571 -43.2 
L 239.4 -43.2 
L 239.4 -43.2 
L 247.371429 -43.2 
L 247.371429 -43.2 
L 247.371429 -43.2 
L 247.371429 -43.2 
L 255.342857 -43.2 
L 255.342857 -43.2 
L 255.342857 -43.2 
L 255.342857 -43.2 
L 263.314286 -43.2 
L 263.314286 -43.2 
L 263.314286 -43.2 
L 263.314286 -43.2 
L 263.314286 -43.2 
L 263.314286 -43.2 
L 271.285714 -43.2 
L 271.285714 -43.2 
L 279.257143 -43.2 
L 279.257143 -43.2 
L 279.257143 -43.2 
L 279.257143 -43.2 
L 279.257143 -43.2 
L 279.257143 -43.2 
L 287.228571 -43.2 
L 287.228571 -43.2 
L 295.2 -43.2 
L 295.2 -43.2 
L 295.2 -43.2 
L 295.2 -43.2 
L 303.171429 -43.2 
L 303.171429 -43.2 
L 303.171429 -43.2 
L 303.171429 -43.2 
L 311.142857 -43.2 
L 311.142857 -43.2 
L 319.114286 -43.2 
L 319.114286 -43.2 
L 327.085714 -43.2 
L 327.085714 -43.2 
L 327.085714 -43.2 
L 327.085714 -43.2 
L 327.085714 -43.2 
L 327.085714 -43.2 
L 343.028571 -43.2 
L 343.028571 -43.2 
L 343.028571 -43.2 
L 343.028571 -43.2 
L 343.028571 -43.2 
L 343.028571 -43.2 
L 351 -43.2 
L 351 -43.2 
L 358.971429 -43.2 
L 358.971429 -43.2 
L 358.971429 -43.2 
L 358.971429 -43.2 
L 366.942857 -43.2 
L 366.942857 -43.2 
L 366.942857 -43.2 
L 366.942857 -43.2 
L 366.942857 -43.2 
L 366.942857 -43.2 
L 366.942857 -43.2 
L 366.942857 -43.2 
L 366.942857 -43.2 
L 366.942857 -43.2 
L 366.942857 -43.2 
L 366.942857 -43.2 
L 366.942857 -43.2 
L 366.942857 -43.2 
L 374.914286 -43.2 
L 374.914286 -43.2 
L 374.914286 -43.2 
L 374.914286 -43.2 
L 382.885714 -43.2 
L 382.885714 -43.2 
L 390.857143 -43.2 
L 390.857143 -43.2 
L 390.857143 -43.2 
L 390.857143 -43.2 
L 398.828571 -43.2 
L 398.828571 -43.2 
L 398.828571 -43.2 
L 398.828571 -43.2 
L 398.828571 -43.2 
L 398.828571 -43.2 
L 406.8 -43.2 
L 406.8 -43.2 
L 406.8 -43.2 
L 406.8 -43.2 
L 414.771429 -43.2 
L 414.771429 -43.2 
L 422.742857 -43.2 
L 422.742857 -43.2 
L 430.714286 -43.2 
L 430.714286 -43.2 
L 430.714286 -43.2 
L 430.714286 -43.2 
L 438.685714 -43.2 
L 438.685714 -43.2 
L 446.657143 -43.2 
L 446.657143 -43.2 
L 446.657143 -43.2 
L 446.657143 -43.2 
L 454.628571 -43.2 
L 454.628571 -43.2 
L 462.6 -43.2 
L 462.6 -43.2 
L 470.571429 -43.2 
L 470.571429 -43.2 
L 470.571429 -43.2 
L 470.571429 -43.2 
L 470.571429 -43.2 
L 470.571429 -43.2 
L 470.571429 -43.2 
L 470.571429 -43.2 
L 470.571429 -43.2 
L 470.571429 -43.2 
L 470.571429 -43.2 
L 470.571429 -43.2 
L 478.542857 -43.2 
L 478.542857 -43.2 
L 478.542857 -43.2 
L 478.542857 -43.2 
L 486.514286 -43.2 
L 486.514286 -43.2 
L 486.514286 -43.2 
L 486.514286 -43.2 
L 486.514286 -43.2 
L 486.514286 -43.2 
L 486.514286 -43.2 
L 486.514286 -43.2 
L 486.514286 -43.2 
L 486.514286 -43.2 
L 486.514286 -43.2 
L 486.514286 -43.2 
L 486.514286 -43.2 
L 486.514286 -43.2 
L 486.514286 -43.2 
L 486.514286 -43.2 
L 494.485714 -43.2 
L 494.485714 -43.2 
L 494.485714 -43.2 
L 494.485714 -43.2 
L 494.485714 -43.2 
L 494.485714 -43.2 
L 502.457143 -43.2 
L 502.457143 -43.2 
L 502.457143 -43.2 
L 502.457143 -43.2 
L 502.457143 -43.2 
L 502.457143 -43.2 
L 510.428571 -43.2 
L 510.428571 -43.2 
L 518.4 -43.2 
z
" id="mb09bb32d2a" style="stroke:#0000ff;stroke-opacity:0.2;"/>
    </defs>
    <g clip-path="url(#p51aefb2ea3)">
     <use style="fill:#0000ff;fill-opacity:0.2;stroke:#0000ff;stroke-opacity:0.2;" x="0.0" xlink:href="#mb09bb32d2a" y="432.0"/>
    </g>
   </g>
   <g id="line2d_1">
    <path clip-path="url(#p51aefb2ea3)" d="M 518.4 241.344 
L 510.428571 241.344 
L 510.428571 242.809217 
L 502.457143 242.809217 
L 502.457143 244.298258 
L 502.457143 243.113817 
L 502.457143 243.113817 
L 502.457143 241.909799 
L 494.485714 241.909799 
L 494.485714 243.428571 
L 494.485714 242.206963 
L 494.485714 242.206963 
L 494.485714 240.964649 
L 486.514286 240.964649 
L 486.514286 242.514286 
L 486.514286 241.253202 
L 486.514286 241.253202 
L 486.514286 233.205195 
L 478.542857 233.205195 
L 478.542857 234.797379 
L 478.542857 233.371429 
L 470.571429 233.371429 
L 470.571429 234.994927 
L 470.571429 233.543935 
L 470.571429 233.543935 
L 470.571429 227.455462 
L 462.6 227.455462 
L 462.6 229.116832 
L 454.628571 229.116832 
L 454.628571 230.811429 
L 446.657143 230.811429 
L 446.657143 232.54026 
L 446.657143 230.945773 
L 438.685714 230.945773 
L 438.685714 232.711635 
L 430.714286 232.711635 
L 430.714286 234.514286 
L 430.714286 232.890226 
L 422.742857 232.890226 
L 422.742857 234.733131 
L 414.771429 234.733131 
L 414.771429 236.615668 
L 406.8 236.615668 
L 406.8 238.53913 
L 406.8 236.887912 
L 398.828571 236.887912 
L 398.828571 238.857143 
L 398.828571 237.172392 
L 398.828571 237.172392 
L 398.828571 235.449351 
L 390.857143 235.449351 
L 390.857143 235.710299 
L 390.857143 235.710299 
L 390.857143 235.710299 
L 390.857143 233.909244 
L 382.885714 233.909244 
L 382.885714 235.983673 
L 374.914286 235.983673 
L 374.914286 238.10809 
L 374.914286 236.270383 
L 366.942857 236.270383 
L 366.942857 238.450794 
L 366.942857 236.571429 
L 366.942857 236.571429 
L 366.942857 226.422857 
L 358.971429 226.422857 
L 358.971429 228.676448 
L 358.971429 226.482975 
L 351 226.482975 
L 351 228.8 
L 343.028571 228.8 
L 343.028571 231.182294 
L 343.028571 228.930612 
L 343.028571 228.930612 
L 343.028571 226.613665 
L 327.085714 226.613665 
L 327.085714 231.597441 
L 327.085714 226.76044 
L 319.114286 226.76044 
L 319.114286 229.371429 
L 311.142857 229.371429 
L 311.142857 232.065306 
L 303.171429 232.065306 
L 303.171429 234.846083 
L 303.171429 232.322248 
L 295.2 232.322248 
L 295.2 235.2 
L 295.2 232.59661 
L 287.228571 232.59661 
L 287.228571 235.578325 
L 279.257143 235.578325 
L 279.257143 238.664662 
L 279.257143 235.983673 
L 279.257143 235.983673 
L 279.257143 233.205195 
L 271.285714 233.205195 
L 271.285714 236.419048 
L 263.314286 236.419048 
L 263.314286 239.754178 
L 263.314286 236.887912 
L 263.314286 236.887912 
L 263.314286 233.909244 
L 255.342857 233.909244 
L 255.342857 237.394286 
L 255.342857 234.304373 
L 247.371429 234.304373 
L 247.371429 237.942857 
L 247.371429 234.733131 
L 239.4 234.733131 
L 239.4 238.53913 
L 231.428571 238.53913 
L 231.428571 242.514286 
L 223.457143 242.514286 
L 223.457143 246.67013 
L 223.457143 243.364784 
L 223.457143 243.364784 
L 223.457143 232.457143 
L 215.485714 232.457143 
L 215.485714 236.887912 
L 207.514286 236.887912 
L 207.514286 241.55188 
L 199.542857 241.55188 
L 199.542857 246.467954 
L 191.571429 246.467954 
L 191.571429 251.657143 
L 191.571429 251.657143 
L 191.571429 251.657143 
L 191.571429 239.18961 
L 183.6 239.18961 
L 183.6 244.8 
L 183.6 240.154839 
L 183.6 240.154839 
L 183.6 229.903448 
L 175.628571 229.903448 
L 175.628571 235.983673 
L 167.657143 235.983673 
L 167.657143 242.514286 
L 167.657143 236.887912 
L 159.685714 236.887912 
L 159.685714 243.977143 
L 159.685714 237.942857 
L 159.685714 237.942857 
L 159.685714 231.383851 
L 151.714286 231.383851 
L 151.714286 239.18961 
L 143.742857 239.18961 
L 143.742857 247.738776 
L 143.742857 240.685714 
L 135.771429 240.685714 
L 135.771429 250.213534 
L 135.771429 242.514286 
L 135.771429 242.514286 
L 135.771429 224.228571 
L 127.8 224.228571 
L 127.8 235.2 
L 119.828571 235.2 
L 119.828571 247.738776 
L 111.857143 247.738776 
L 111.857143 262.206593 
L 103.885714 262.206593 
L 103.885714 269.111688 
L 95.914286 269.111688 
L 95.914286 290.057143 
L 87.942857 290.057143 
L 87.942857 315.657143 
L 79.971429 315.657143 
L 79.971429 347.657143 
L 79.971429 341.779592 
L 72 341.779592 
L 72 388.8 
L 72 388.8 
L 72 388.8 
L 72 59.657143 
L 72 59.657143 
" style="fill:none;opacity:0.2;stroke:#0000ff;stroke-linecap:square;"/>
   </g>
   <g id="patch_3">
    <path d="M 72 43.2 
L 518.4 43.2 
" style="fill:none;stroke:#000000;stroke-linecap:square;stroke-linejoin:miter;"/>
   </g>
   <g id="patch_4">
    <path d="M 518.4 388.8 
L 518.4 43.2 
" style="fill:none;stroke:#000000;stroke-linecap:square;stroke-linejoin:miter;"/>
   </g>
   <g id="patch_5">
    <path d="M 72 388.8 
L 518.4 388.8 
" style="fill:none;stroke:#000000;stroke-linecap:square;stroke-linejoin:miter;"/>
   </g>
   <g id="patch_6">
    <path d="M 72 388.8 
L 72 43.2 
" style="fill:none;stroke:#000000;stroke-linecap:square;stroke-linejoin:miter;"/>
   </g>
   <g id="matplotlib.axis_1">
    <g id="xtick_1">
     <g id="line2d_2">
      <defs>
       <path d="M 0 0 
L 0 -4 
" id="m0d0bdd1e24" style="stroke:#000000;stroke-width:0.5;"/>
      </defs>
      <g>
       <use style="stroke:#000000;stroke-width:0.5;" x="72.0" xlink:href="#m0d0bdd1e24" y="388.8"/>
      </g>
     </g>
     <g id="line2d_3">
      <defs>
       <path d="M 0 0 
L 0 4 
" id="m19299e1d5b" style="stroke:#000000;stroke-width:0.5;"/>
      </defs>
      <g>
       <use style="stroke:#000000;stroke-width:0.5;" x="72.0" xlink:href="#m19299e1d5b" y="43.2"/>
      </g>
     </g>
     <g id="text_1">
      <!-- 0.0 -->
      <defs>
       <path d="M 31.78125 66.40625 
Q 24.171875 66.40625 20.328125 58.90625 
Q 16.5 51.421875 16.5 36.375 
Q 16.5 21.390625 20.328125 13.890625 
Q 24.171875 6.390625 31.78125 6.390625 
Q 39.453125 6.390625 43.28125 13.890625 
Q 47.125 21.390625 47.125 36.375 
Q 47.125 51.421875 43.28125 58.90625 
Q 39.453125 66.40625 31.78125 66.40625 
M 31.78125 74.21875 
Q 44.046875 74.21875 50.515625 64.515625 
Q 56.984375 54.828125 56.984375 36.375 
Q 56.984375 17.96875 50.515625 8.265625 
Q 44.046875 -1.421875 31.78125 -1.421875 
Q 19.53125 -1.421875 13.0625 8.265625 
Q 6.59375 17.96875 6.59375 36.375 
Q 6.59375 54.828125 13.0625 64.515625 
Q 19.53125 74.21875 31.78125 74.21875 
" id="BitstreamVeraSans-Roman-30"/>
       <path d="M 10.6875 12.40625 
L 21 12.40625 
L 21 0 
L 10.6875 0 
z
" id="BitstreamVeraSans-Roman-2e"/>
      </defs>
      <g transform="translate(62.458125 401.918125)scale(0.12 -0.12)">
       <use xlink:href="#BitstreamVeraSans-Roman-30"/>
       <use x="63.623046875" xlink:href="#BitstreamVeraSans-Roman-2e"/>
       <use x="95.41015625" xlink:href="#BitstreamVeraSans-Roman-30"/>
      </g>
     </g>
    </g>
    <g id="xtick_2">
     <g id="line2d_4">
      <g>
       <use style="stroke:#000000;stroke-width:0.5;" x="161.28" xlink:href="#m0d0bdd1e24" y="388.8"/>
      </g>
     </g>
     <g id="line2d_5">
      <g>
       <use style="stroke:#000000;stroke-width:0.5;" x="161.28" xlink:href="#m19299e1d5b" y="43.2"/>
      </g>
     </g>
     <g id="text_2">
      <!-- 0.2 -->
      <defs>
       <path d="M 19.1875 8.296875 
L 53.609375 8.296875 
L 53.609375 0 
L 7.328125 0 
L 7.328125 8.296875 
Q 12.9375 14.109375 22.625 23.890625 
Q 32.328125 33.6875 34.8125 36.53125 
Q 39.546875 41.84375 41.421875 45.53125 
Q 43.3125 49.21875 43.3125 52.78125 
Q 43.3125 58.59375 39.234375 62.25 
Q 35.15625 65.921875 28.609375 65.921875 
Q 23.96875 65.921875 18.8125 64.3125 
Q 13.671875 62.703125 7.8125 59.421875 
L 7.8125 69.390625 
Q 13.765625 71.78125 18.9375 73 
Q 24.125 74.21875 28.421875 74.21875 
Q 39.75 74.21875 46.484375 68.546875 
Q 53.21875 62.890625 53.21875 53.421875 
Q 53.21875 48.921875 51.53125 44.890625 
Q 49.859375 40.875 45.40625 35.40625 
Q 44.1875 33.984375 37.640625 27.21875 
Q 31.109375 20.453125 19.1875 8.296875 
" id="BitstreamVeraSans-Roman-32"/>
      </defs>
      <g transform="translate(151.738125 401.918125)scale(0.12 -0.12)">
       <use xlink:href="#BitstreamVeraSans-Roman-30"/>
       <use x="63.623046875" xlink:href="#BitstreamVeraSans-Roman-2e"/>
       <use x="95.41015625" xlink:href="#BitstreamVeraSans-Roman-32"/>
      </g>
     </g>
    </g>
    <g id="xtick_3">
     <g id="line2d_6">
      <g>
       <use style="stroke:#000000;stroke-width:0.5;" x="250.56" xlink:href="#m0d0bdd1e24" y="388.8"/>
      </g>
     </g>
     <g id="line2d_7">
      <g>
       <use style="stroke:#000000;stroke-width:0.5;" x="250.56" xlink:href="#m19299e1d5b" y="43.2"/>
      </g>
     </g>
     <g id="text_3">
      <!-- 0.4 -->
      <defs>
       <path d="M 37.796875 64.3125 
L 12.890625 25.390625 
L 37.796875 25.390625 
z
M 35.203125 72.90625 
L 47.609375 72.90625 
L 47.609375 25.390625 
L 58.015625 25.390625 
L 58.015625 17.1875 
L 47.609375 17.1875 
L 47.609375 0 
L 37.796875 0 
L 37.796875 17.1875 
L 4.890625 17.1875 
L 4.890625 26.703125 
z
" id="BitstreamVeraSans-Roman-34"/>
      </defs>
      <g transform="translate(241.018125 401.918125)scale(0.12 -0.12)">
       <use xlink:href="#BitstreamVeraSans-Roman-30"/>
       <use x="63.623046875" xlink:href="#BitstreamVeraSans-Roman-2e"/>
       <use x="95.41015625" xlink:href="#BitstreamVeraSans-Roman-34"/>
      </g>
     </g>
    </g>
    <g id="xtick_4">
     <g id="line2d_8">
      <g>
       <use style="stroke:#000000;stroke-width:0.5;" x="339.84" xlink:href="#m0d0bdd1e24" y="388.8"/>
      </g>
     </g>
     <g id="line2d_9">
      <g>
       <use style="stroke:#000000;stroke-width:0.5;" x="339.84" xlink:href="#m19299e1d5b" y="43.2"/>
      </g>
     </g>
     <g id="text_4">
      <!-- 0.6 -->
      <defs>
       <path d="M 33.015625 40.375 
Q 26.375 40.375 22.484375 35.828125 
Q 18.609375 31.296875 18.609375 23.390625 
Q 18.609375 15.53125 22.484375 10.953125 
Q 26.375 6.390625 33.015625 6.390625 
Q 39.65625 6.390625 43.53125 10.953125 
Q 47.40625 15.53125 47.40625 23.390625 
Q 47.40625 31.296875 43.53125 35.828125 
Q 39.65625 40.375 33.015625 40.375 
M 52.59375 71.296875 
L 52.59375 62.3125 
Q 48.875 64.0625 45.09375 64.984375 
Q 41.3125 65.921875 37.59375 65.921875 
Q 27.828125 65.921875 22.671875 59.328125 
Q 17.53125 52.734375 16.796875 39.40625 
Q 19.671875 43.65625 24.015625 45.921875 
Q 28.375 48.1875 33.59375 48.1875 
Q 44.578125 48.1875 50.953125 41.515625 
Q 57.328125 34.859375 57.328125 23.390625 
Q 57.328125 12.15625 50.6875 5.359375 
Q 44.046875 -1.421875 33.015625 -1.421875 
Q 20.359375 -1.421875 13.671875 8.265625 
Q 6.984375 17.96875 6.984375 36.375 
Q 6.984375 53.65625 15.1875 63.9375 
Q 23.390625 74.21875 37.203125 74.21875 
Q 40.921875 74.21875 44.703125 73.484375 
Q 48.484375 72.75 52.59375 71.296875 
" id="BitstreamVeraSans-Roman-36"/>
      </defs>
      <g transform="translate(330.298125 401.918125)scale(0.12 -0.12)">
       <use xlink:href="#BitstreamVeraSans-Roman-30"/>
       <use x="63.623046875" xlink:href="#BitstreamVeraSans-Roman-2e"/>
       <use x="95.41015625" xlink:href="#BitstreamVeraSans-Roman-36"/>
      </g>
     </g>
    </g>
    <g id="xtick_5">
     <g id="line2d_10">
      <g>
       <use style="stroke:#000000;stroke-width:0.5;" x="429.12" xlink:href="#m0d0bdd1e24" y="388.8"/>
      </g>
     </g>
     <g id="line2d_11">
      <g>
       <use style="stroke:#000000;stroke-width:0.5;" x="429.12" xlink:href="#m19299e1d5b" y="43.2"/>
      </g>
     </g>
     <g id="text_5">
      <!-- 0.8 -->
      <defs>
       <path d="M 31.78125 34.625 
Q 24.75 34.625 20.71875 30.859375 
Q 16.703125 27.09375 16.703125 20.515625 
Q 16.703125 13.921875 20.71875 10.15625 
Q 24.75 6.390625 31.78125 6.390625 
Q 38.8125 6.390625 42.859375 10.171875 
Q 46.921875 13.96875 46.921875 20.515625 
Q 46.921875 27.09375 42.890625 30.859375 
Q 38.875 34.625 31.78125 34.625 
M 21.921875 38.8125 
Q 15.578125 40.375 12.03125 44.71875 
Q 8.5 49.078125 8.5 55.328125 
Q 8.5 64.0625 14.71875 69.140625 
Q 20.953125 74.21875 31.78125 74.21875 
Q 42.671875 74.21875 48.875 69.140625 
Q 55.078125 64.0625 55.078125 55.328125 
Q 55.078125 49.078125 51.53125 44.71875 
Q 48 40.375 41.703125 38.8125 
Q 48.828125 37.15625 52.796875 32.3125 
Q 56.78125 27.484375 56.78125 20.515625 
Q 56.78125 9.90625 50.3125 4.234375 
Q 43.84375 -1.421875 31.78125 -1.421875 
Q 19.734375 -1.421875 13.25 4.234375 
Q 6.78125 9.90625 6.78125 20.515625 
Q 6.78125 27.484375 10.78125 32.3125 
Q 14.796875 37.15625 21.921875 38.8125 
M 18.3125 54.390625 
Q 18.3125 48.734375 21.84375 45.5625 
Q 25.390625 42.390625 31.78125 42.390625 
Q 38.140625 42.390625 41.71875 45.5625 
Q 45.3125 48.734375 45.3125 54.390625 
Q 45.3125 60.0625 41.71875 63.234375 
Q 38.140625 66.40625 31.78125 66.40625 
Q 25.390625 66.40625 21.84375 63.234375 
Q 18.3125 60.0625 18.3125 54.390625 
" id="BitstreamVeraSans-Roman-38"/>
      </defs>
      <g transform="translate(419.578125 401.918125)scale(0.12 -0.12)">
       <use xlink:href="#BitstreamVeraSans-Roman-30"/>
       <use x="63.623046875" xlink:href="#BitstreamVeraSans-Roman-2e"/>
       <use x="95.41015625" xlink:href="#BitstreamVeraSans-Roman-38"/>
      </g>
     </g>
    </g>
    <g id="xtick_6">
     <g id="line2d_12">
      <g>
       <use style="stroke:#000000;stroke-width:0.5;" x="518.4" xlink:href="#m0d0bdd1e24" y="388.8"/>
      </g>
     </g>
     <g id="line2d_13">
      <g>
       <use style="stroke:#000000;stroke-width:0.5;" x="518.4" xlink:href="#m19299e1d5b" y="43.2"/>
      </g>
     </g>
     <g id="text_6">
      <!-- 1.0 -->
      <defs>
       <path d="M 12.40625 8.296875 
L 28.515625 8.296875 
L 28.515625 63.921875 
L 10.984375 60.40625 
L 10.984375 69.390625 
L 28.421875 72.90625 
L 38.28125 72.90625 
L 38.28125 8.296875 
L 54.390625 8.296875 
L 54.390625 0 
L 12.40625 0 
z
" id="BitstreamVeraSans-Roman-31"/>
      </defs>
      <g transform="translate(508.858125 401.918125)scale(0.12 -0.12)">
       <use xlink:href="#BitstreamVeraSans-Roman-31"/>
       <use x="63.623046875" xlink:href="#BitstreamVeraSans-Roman-2e"/>
       <use x="95.41015625" xlink:href="#BitstreamVeraSans-Roman-30"/>
      </g>
     </g>
    </g>
    <g id="text_7">
     <!-- Recall -->
     <defs>
      <path d="M 56.203125 29.59375 
L 56.203125 25.203125 
L 14.890625 25.203125 
Q 15.484375 15.921875 20.484375 11.0625 
Q 25.484375 6.203125 34.421875 6.203125 
Q 39.59375 6.203125 44.453125 7.46875 
Q 49.3125 8.734375 54.109375 11.28125 
L 54.109375 2.78125 
Q 49.265625 0.734375 44.1875 -0.34375 
Q 39.109375 -1.421875 33.890625 -1.421875 
Q 20.796875 -1.421875 13.15625 6.1875 
Q 5.515625 13.8125 5.515625 26.8125 
Q 5.515625 40.234375 12.765625 48.109375 
Q 20.015625 56 32.328125 56 
Q 43.359375 56 49.78125 48.890625 
Q 56.203125 41.796875 56.203125 29.59375 
M 47.21875 32.234375 
Q 47.125 39.59375 43.09375 43.984375 
Q 39.0625 48.390625 32.421875 48.390625 
Q 24.90625 48.390625 20.390625 44.140625 
Q 15.875 39.890625 15.1875 32.171875 
z
" id="BitstreamVeraSans-Roman-65"/>
      <path d="M 44.390625 34.1875 
Q 47.5625 33.109375 50.5625 29.59375 
Q 53.5625 26.078125 56.59375 19.921875 
L 66.609375 0 
L 56 0 
L 46.6875 18.703125 
Q 43.0625 26.03125 39.671875 28.421875 
Q 36.28125 30.8125 30.421875 30.8125 
L 19.671875 30.8125 
L 19.671875 0 
L 9.8125 0 
L 9.8125 72.90625 
L 32.078125 72.90625 
Q 44.578125 72.90625 50.734375 67.671875 
Q 56.890625 62.453125 56.890625 51.90625 
Q 56.890625 45.015625 53.6875 40.46875 
Q 50.484375 35.9375 44.390625 34.1875 
M 19.671875 64.796875 
L 19.671875 38.921875 
L 32.078125 38.921875 
Q 39.203125 38.921875 42.84375 42.21875 
Q 46.484375 45.515625 46.484375 51.90625 
Q 46.484375 58.296875 42.84375 61.546875 
Q 39.203125 64.796875 32.078125 64.796875 
z
" id="BitstreamVeraSans-Roman-52"/>
      <path d="M 34.28125 27.484375 
Q 23.390625 27.484375 19.1875 25 
Q 14.984375 22.515625 14.984375 16.5 
Q 14.984375 11.71875 18.140625 8.90625 
Q 21.296875 6.109375 26.703125 6.109375 
Q 34.1875 6.109375 38.703125 11.40625 
Q 43.21875 16.703125 43.21875 25.484375 
L 43.21875 27.484375 
z
M 52.203125 31.203125 
L 52.203125 0 
L 43.21875 0 
L 43.21875 8.296875 
Q 40.140625 3.328125 35.546875 0.953125 
Q 30.953125 -1.421875 24.3125 -1.421875 
Q 15.921875 -1.421875 10.953125 3.296875 
Q 6 8.015625 6 15.921875 
Q 6 25.140625 12.171875 29.828125 
Q 18.359375 34.515625 30.609375 34.515625 
L 43.21875 34.515625 
L 43.21875 35.40625 
Q 43.21875 41.609375 39.140625 45 
Q 35.0625 48.390625 27.6875 48.390625 
Q 23 48.390625 18.546875 47.265625 
Q 14.109375 46.140625 10.015625 43.890625 
L 10.015625 52.203125 
Q 14.9375 54.109375 19.578125 55.046875 
Q 24.21875 56 28.609375 56 
Q 40.484375 56 46.34375 49.84375 
Q 52.203125 43.703125 52.203125 31.203125 
" id="BitstreamVeraSans-Roman-61"/>
      <path d="M 9.421875 75.984375 
L 18.40625 75.984375 
L 18.40625 0 
L 9.421875 0 
z
" id="BitstreamVeraSans-Roman-6c"/>
      <path d="M 48.78125 52.59375 
L 48.78125 44.1875 
Q 44.96875 46.296875 41.140625 47.34375 
Q 37.3125 48.390625 33.40625 48.390625 
Q 24.65625 48.390625 19.8125 42.84375 
Q 14.984375 37.3125 14.984375 27.296875 
Q 14.984375 17.28125 19.8125 11.734375 
Q 24.65625 6.203125 33.40625 6.203125 
Q 37.3125 6.203125 41.140625 7.25 
Q 44.96875 8.296875 48.78125 10.40625 
L 48.78125 2.09375 
Q 45.015625 0.34375 40.984375 -0.53125 
Q 36.96875 -1.421875 32.421875 -1.421875 
Q 20.0625 -1.421875 12.78125 6.34375 
Q 5.515625 14.109375 5.515625 27.296875 
Q 5.515625 40.671875 12.859375 48.328125 
Q 20.21875 56 33.015625 56 
Q 37.15625 56 41.109375 55.140625 
Q 45.0625 54.296875 48.78125 52.59375 
" id="BitstreamVeraSans-Roman-63"/>
     </defs>
     <g transform="translate(277.033125 418.531875)scale(0.12 -0.12)">
      <use xlink:href="#BitstreamVeraSans-Roman-52"/>
      <use x="69.419921875" xlink:href="#BitstreamVeraSans-Roman-65"/>
      <use x="130.943359375" xlink:href="#BitstreamVeraSans-Roman-63"/>
      <use x="185.923828125" xlink:href="#BitstreamVeraSans-Roman-61"/>
      <use x="247.203125" xlink:href="#BitstreamVeraSans-Roman-6c"/>
      <use x="274.986328125" xlink:href="#BitstreamVeraSans-Roman-6c"/>
     </g>
    </g>
   </g>
   <g id="matplotlib.axis_2">
    <g id="ytick_1">
     <g id="line2d_14">
      <defs>
       <path d="M 0 0 
L 4 0 
" id="m09f52b3306" style="stroke:#000000;stroke-width:0.5;"/>
      </defs>
      <g>
       <use style="stroke:#000000;stroke-width:0.5;" x="72.0" xlink:href="#m09f52b3306" y="388.8"/>
      </g>
     </g>
     <g id="line2d_15">
      <defs>
       <path d="M 0 0 
L -4 0 
" id="mff126015ec" style="stroke:#000000;stroke-width:0.5;"/>
      </defs>
      <g>
       <use style="stroke:#000000;stroke-width:0.5;" x="518.4" xlink:href="#mff126015ec" y="388.8"/>
      </g>
     </g>
     <g id="text_8">
      <!-- 0.0 -->
      <g transform="translate(48.91625 392.11125)scale(0.12 -0.12)">
       <use xlink:href="#BitstreamVeraSans-Roman-30"/>
       <use x="63.623046875" xlink:href="#BitstreamVeraSans-Roman-2e"/>
       <use x="95.41015625" xlink:href="#BitstreamVeraSans-Roman-30"/>
      </g>
     </g>
    </g>
    <g id="ytick_2">
     <g id="line2d_16">
      <g>
       <use style="stroke:#000000;stroke-width:0.5;" x="72.0" xlink:href="#m09f52b3306" y="322.971428571"/>
      </g>
     </g>
     <g id="line2d_17">
      <g>
       <use style="stroke:#000000;stroke-width:0.5;" x="518.4" xlink:href="#mff126015ec" y="322.971428571"/>
      </g>
     </g>
     <g id="text_9">
      <!-- 0.2 -->
      <g transform="translate(48.91625 326.282678571)scale(0.12 -0.12)">
       <use xlink:href="#BitstreamVeraSans-Roman-30"/>
       <use x="63.623046875" xlink:href="#BitstreamVeraSans-Roman-2e"/>
       <use x="95.41015625" xlink:href="#BitstreamVeraSans-Roman-32"/>
      </g>
     </g>
    </g>
    <g id="ytick_3">
     <g id="line2d_18">
      <g>
       <use style="stroke:#000000;stroke-width:0.5;" x="72.0" xlink:href="#m09f52b3306" y="257.142857143"/>
      </g>
     </g>
     <g id="line2d_19">
      <g>
       <use style="stroke:#000000;stroke-width:0.5;" x="518.4" xlink:href="#mff126015ec" y="257.142857143"/>
      </g>
     </g>
     <g id="text_10">
      <!-- 0.4 -->
      <g transform="translate(48.91625 260.454107143)scale(0.12 -0.12)">
       <use xlink:href="#BitstreamVeraSans-Roman-30"/>
       <use x="63.623046875" xlink:href="#BitstreamVeraSans-Roman-2e"/>
       <use x="95.41015625" xlink:href="#BitstreamVeraSans-Roman-34"/>
      </g>
     </g>
    </g>
    <g id="ytick_4">
     <g id="line2d_20">
      <g>
       <use style="stroke:#000000;stroke-width:0.5;" x="72.0" xlink:href="#m09f52b3306" y="191.314285714"/>
      </g>
     </g>
     <g id="line2d_21">
      <g>
       <use style="stroke:#000000;stroke-width:0.5;" x="518.4" xlink:href="#mff126015ec" y="191.314285714"/>
      </g>
     </g>
     <g id="text_11">
      <!-- 0.6 -->
      <g transform="translate(48.91625 194.625535714)scale(0.12 -0.12)">
       <use xlink:href="#BitstreamVeraSans-Roman-30"/>
       <use x="63.623046875" xlink:href="#BitstreamVeraSans-Roman-2e"/>
       <use x="95.41015625" xlink:href="#BitstreamVeraSans-Roman-36"/>
      </g>
     </g>
    </g>
    <g id="ytick_5">
     <g id="line2d_22">
      <g>
       <use style="stroke:#000000;stroke-width:0.5;" x="72.0" xlink:href="#m09f52b3306" y="125.485714286"/>
      </g>
     </g>
     <g id="line2d_23">
      <g>
       <use style="stroke:#000000;stroke-width:0.5;" x="518.4" xlink:href="#mff126015ec" y="125.485714286"/>
      </g>
     </g>
     <g id="text_12">
      <!-- 0.8 -->
      <g transform="translate(48.91625 128.796964286)scale(0.12 -0.12)">
       <use xlink:href="#BitstreamVeraSans-Roman-30"/>
       <use x="63.623046875" xlink:href="#BitstreamVeraSans-Roman-2e"/>
       <use x="95.41015625" xlink:href="#BitstreamVeraSans-Roman-38"/>
      </g>
     </g>
    </g>
    <g id="ytick_6">
     <g id="line2d_24">
      <g>
       <use style="stroke:#000000;stroke-width:0.5;" x="72.0" xlink:href="#m09f52b3306" y="59.6571428571"/>
      </g>
     </g>
     <g id="line2d_25">
      <g>
       <use style="stroke:#000000;stroke-width:0.5;" x="518.4" xlink:href="#mff126015ec" y="59.6571428571"/>
      </g>
     </g>
     <g id="text_13">
      <!-- 1.0 -->
      <g transform="translate(48.91625 62.9683928571)scale(0.12 -0.12)">
       <use xlink:href="#BitstreamVeraSans-Roman-31"/>
       <use x="63.623046875" xlink:href="#BitstreamVeraSans-Roman-2e"/>
       <use x="95.41015625" xlink:href="#BitstreamVeraSans-Roman-30"/>
      </g>
     </g>
    </g>
    <g id="text_14">
     <!-- Precision -->
     <defs>
      <path d="M 54.890625 33.015625 
L 54.890625 0 
L 45.90625 0 
L 45.90625 32.71875 
Q 45.90625 40.484375 42.875 44.328125 
Q 39.84375 48.1875 33.796875 48.1875 
Q 26.515625 48.1875 22.3125 43.546875 
Q 18.109375 38.921875 18.109375 30.90625 
L 18.109375 0 
L 9.078125 0 
L 9.078125 54.6875 
L 18.109375 54.6875 
L 18.109375 46.1875 
Q 21.34375 51.125 25.703125 53.5625 
Q 30.078125 56 35.796875 56 
Q 45.21875 56 50.046875 50.171875 
Q 54.890625 44.34375 54.890625 33.015625 
" id="BitstreamVeraSans-Roman-6e"/>
      <path d="M 30.609375 48.390625 
Q 23.390625 48.390625 19.1875 42.75 
Q 14.984375 37.109375 14.984375 27.296875 
Q 14.984375 17.484375 19.15625 11.84375 
Q 23.34375 6.203125 30.609375 6.203125 
Q 37.796875 6.203125 41.984375 11.859375 
Q 46.1875 17.53125 46.1875 27.296875 
Q 46.1875 37.015625 41.984375 42.703125 
Q 37.796875 48.390625 30.609375 48.390625 
M 30.609375 56 
Q 42.328125 56 49.015625 48.375 
Q 55.71875 40.765625 55.71875 27.296875 
Q 55.71875 13.875 49.015625 6.21875 
Q 42.328125 -1.421875 30.609375 -1.421875 
Q 18.84375 -1.421875 12.171875 6.21875 
Q 5.515625 13.875 5.515625 27.296875 
Q 5.515625 40.765625 12.171875 48.375 
Q 18.84375 56 30.609375 56 
" id="BitstreamVeraSans-Roman-6f"/>
      <path d="M 19.671875 64.796875 
L 19.671875 37.40625 
L 32.078125 37.40625 
Q 38.96875 37.40625 42.71875 40.96875 
Q 46.484375 44.53125 46.484375 51.125 
Q 46.484375 57.671875 42.71875 61.234375 
Q 38.96875 64.796875 32.078125 64.796875 
z
M 9.8125 72.90625 
L 32.078125 72.90625 
Q 44.34375 72.90625 50.609375 67.359375 
Q 56.890625 61.8125 56.890625 51.125 
Q 56.890625 40.328125 50.609375 34.8125 
Q 44.34375 29.296875 32.078125 29.296875 
L 19.671875 29.296875 
L 19.671875 0 
L 9.8125 0 
z
" id="BitstreamVeraSans-Roman-50"/>
      <path d="M 9.421875 54.6875 
L 18.40625 54.6875 
L 18.40625 0 
L 9.421875 0 
z
M 9.421875 75.984375 
L 18.40625 75.984375 
L 18.40625 64.59375 
L 9.421875 64.59375 
z
" id="BitstreamVeraSans-Roman-69"/>
      <path d="M 41.109375 46.296875 
Q 39.59375 47.171875 37.8125 47.578125 
Q 36.03125 48 33.890625 48 
Q 26.265625 48 22.1875 43.046875 
Q 18.109375 38.09375 18.109375 28.8125 
L 18.109375 0 
L 9.078125 0 
L 9.078125 54.6875 
L 18.109375 54.6875 
L 18.109375 46.1875 
Q 20.953125 51.171875 25.484375 53.578125 
Q 30.03125 56 36.53125 56 
Q 37.453125 56 38.578125 55.875 
Q 39.703125 55.765625 41.0625 55.515625 
z
" id="BitstreamVeraSans-Roman-72"/>
      <path d="M 44.28125 53.078125 
L 44.28125 44.578125 
Q 40.484375 46.53125 36.375 47.5 
Q 32.28125 48.484375 27.875 48.484375 
Q 21.1875 48.484375 17.84375 46.4375 
Q 14.5 44.390625 14.5 40.28125 
Q 14.5 37.15625 16.890625 35.375 
Q 19.28125 33.59375 26.515625 31.984375 
L 29.59375 31.296875 
Q 39.15625 29.25 43.1875 25.515625 
Q 47.21875 21.78125 47.21875 15.09375 
Q 47.21875 7.46875 41.1875 3.015625 
Q 35.15625 -1.421875 24.609375 -1.421875 
Q 20.21875 -1.421875 15.453125 -0.5625 
Q 10.6875 0.296875 5.421875 2 
L 5.421875 11.28125 
Q 10.40625 8.6875 15.234375 7.390625 
Q 20.0625 6.109375 24.8125 6.109375 
Q 31.15625 6.109375 34.5625 8.28125 
Q 37.984375 10.453125 37.984375 14.40625 
Q 37.984375 18.0625 35.515625 20.015625 
Q 33.0625 21.96875 24.703125 23.78125 
L 21.578125 24.515625 
Q 13.234375 26.265625 9.515625 29.90625 
Q 5.8125 33.546875 5.8125 39.890625 
Q 5.8125 47.609375 11.28125 51.796875 
Q 16.75 56 26.8125 56 
Q 31.78125 56 36.171875 55.265625 
Q 40.578125 54.546875 44.28125 53.078125 
" id="BitstreamVeraSans-Roman-73"/>
     </defs>
     <g transform="translate(41.420625 243.005625)rotate(-90.0)scale(0.12 -0.12)">
      <use xlink:href="#BitstreamVeraSans-Roman-50"/>
      <use x="60.287109375" xlink:href="#BitstreamVeraSans-Roman-72"/>
      <use x="101.369140625" xlink:href="#BitstreamVeraSans-Roman-65"/>
      <use x="162.892578125" xlink:href="#BitstreamVeraSans-Roman-63"/>
      <use x="217.873046875" xlink:href="#BitstreamVeraSans-Roman-69"/>
      <use x="245.65625" xlink:href="#BitstreamVeraSans-Roman-73"/>
      <use x="297.755859375" xlink:href="#BitstreamVeraSans-Roman-69"/>
      <use x="325.5390625" xlink:href="#BitstreamVeraSans-Roman-6f"/>
      <use x="386.720703125" xlink:href="#BitstreamVeraSans-Roman-6e"/>
     </g>
    </g>
   </g>
   <g id="text_15">
    <!-- 2-class Precision-Recall curve: AP=0.45 -->
    <defs>
     <path id="BitstreamVeraSans-Roman-20"/>
     <path d="M 10.59375 45.40625 
L 73.1875 45.40625 
L 73.1875 37.203125 
L 10.59375 37.203125 
z
M 10.59375 25.484375 
L 73.1875 25.484375 
L 73.1875 17.1875 
L 10.59375 17.1875 
z
" id="BitstreamVeraSans-Roman-3d"/>
     <path d="M 10.796875 72.90625 
L 49.515625 72.90625 
L 49.515625 64.59375 
L 19.828125 64.59375 
L 19.828125 46.734375 
Q 21.96875 47.46875 24.109375 47.828125 
Q 26.265625 48.1875 28.421875 48.1875 
Q 40.625 48.1875 47.75 41.5 
Q 54.890625 34.8125 54.890625 23.390625 
Q 54.890625 11.625 47.5625 5.09375 
Q 40.234375 -1.421875 26.90625 -1.421875 
Q 22.3125 -1.421875 17.546875 -0.640625 
Q 12.796875 0.140625 7.71875 1.703125 
L 7.71875 11.625 
Q 12.109375 9.234375 16.796875 8.0625 
Q 21.484375 6.890625 26.703125 6.890625 
Q 35.15625 6.890625 40.078125 11.328125 
Q 45.015625 15.765625 45.015625 23.390625 
Q 45.015625 31 40.078125 35.4375 
Q 35.15625 39.890625 26.703125 39.890625 
Q 22.75 39.890625 18.8125 39.015625 
Q 14.890625 38.140625 10.796875 36.28125 
z
" id="BitstreamVeraSans-Roman-35"/>
     <path d="M 11.71875 12.40625 
L 22.015625 12.40625 
L 22.015625 0 
L 11.71875 0 
z
M 11.71875 51.703125 
L 22.015625 51.703125 
L 22.015625 39.3125 
L 11.71875 39.3125 
z
" id="BitstreamVeraSans-Roman-3a"/>
     <path d="M 4.890625 31.390625 
L 31.203125 31.390625 
L 31.203125 23.390625 
L 4.890625 23.390625 
z
" id="BitstreamVeraSans-Roman-2d"/>
     <path d="M 34.1875 63.1875 
L 20.796875 26.90625 
L 47.609375 26.90625 
z
M 28.609375 72.90625 
L 39.796875 72.90625 
L 67.578125 0 
L 57.328125 0 
L 50.6875 18.703125 
L 17.828125 18.703125 
L 11.1875 0 
L 0.78125 0 
z
" id="BitstreamVeraSans-Roman-41"/>
     <path d="M 2.984375 54.6875 
L 12.5 54.6875 
L 29.59375 8.796875 
L 46.6875 54.6875 
L 56.203125 54.6875 
L 35.6875 0 
L 23.484375 0 
z
" id="BitstreamVeraSans-Roman-76"/>
     <path d="M 8.5 21.578125 
L 8.5 54.6875 
L 17.484375 54.6875 
L 17.484375 21.921875 
Q 17.484375 14.15625 20.5 10.265625 
Q 23.53125 6.390625 29.59375 6.390625 
Q 36.859375 6.390625 41.078125 11.03125 
Q 45.3125 15.671875 45.3125 23.6875 
L 45.3125 54.6875 
L 54.296875 54.6875 
L 54.296875 0 
L 45.3125 0 
L 45.3125 8.40625 
Q 42.046875 3.421875 37.71875 1 
Q 33.40625 -1.421875 27.6875 -1.421875 
Q 18.265625 -1.421875 13.375 4.4375 
Q 8.5 10.296875 8.5 21.578125 
" id="BitstreamVeraSans-Roman-75"/>
    </defs>
    <g transform="translate(152.548875 38.2)scale(0.144 -0.144)">
     <use xlink:href="#BitstreamVeraSans-Roman-32"/>
     <use x="63.623046875" xlink:href="#BitstreamVeraSans-Roman-2d"/>
     <use x="99.70703125" xlink:href="#BitstreamVeraSans-Roman-63"/>
     <use x="154.6875" xlink:href="#BitstreamVeraSans-Roman-6c"/>
     <use x="182.470703125" xlink:href="#BitstreamVeraSans-Roman-61"/>
     <use x="243.75" xlink:href="#BitstreamVeraSans-Roman-73"/>
     <use x="295.849609375" xlink:href="#BitstreamVeraSans-Roman-73"/>
     <use x="347.94921875" xlink:href="#BitstreamVeraSans-Roman-20"/>
     <use x="379.736328125" xlink:href="#BitstreamVeraSans-Roman-50"/>
     <use x="440.0234375" xlink:href="#BitstreamVeraSans-Roman-72"/>
     <use x="481.10546875" xlink:href="#BitstreamVeraSans-Roman-65"/>
     <use x="542.62890625" xlink:href="#BitstreamVeraSans-Roman-63"/>
     <use x="597.609375" xlink:href="#BitstreamVeraSans-Roman-69"/>
     <use x="625.392578125" xlink:href="#BitstreamVeraSans-Roman-73"/>
     <use x="677.4921875" xlink:href="#BitstreamVeraSans-Roman-69"/>
     <use x="705.275390625" xlink:href="#BitstreamVeraSans-Roman-6f"/>
     <use x="766.45703125" xlink:href="#BitstreamVeraSans-Roman-6e"/>
     <use x="829.8359375" xlink:href="#BitstreamVeraSans-Roman-2d"/>
     <use x="865.919921875" xlink:href="#BitstreamVeraSans-Roman-52"/>
     <use x="935.33984375" xlink:href="#BitstreamVeraSans-Roman-65"/>
     <use x="996.86328125" xlink:href="#BitstreamVeraSans-Roman-63"/>
     <use x="1051.84375" xlink:href="#BitstreamVeraSans-Roman-61"/>
     <use x="1113.12304688" xlink:href="#BitstreamVeraSans-Roman-6c"/>
     <use x="1140.90625" xlink:href="#BitstreamVeraSans-Roman-6c"/>
     <use x="1168.68945312" xlink:href="#BitstreamVeraSans-Roman-20"/>
     <use x="1200.4765625" xlink:href="#BitstreamVeraSans-Roman-63"/>
     <use x="1255.45703125" xlink:href="#BitstreamVeraSans-Roman-75"/>
     <use x="1318.8359375" xlink:href="#BitstreamVeraSans-Roman-72"/>
     <use x="1359.94921875" xlink:href="#BitstreamVeraSans-Roman-76"/>
     <use x="1419.12890625" xlink:href="#BitstreamVeraSans-Roman-65"/>
     <use x="1480.65234375" xlink:href="#BitstreamVeraSans-Roman-3a"/>
     <use x="1514.34375" xlink:href="#BitstreamVeraSans-Roman-20"/>
     <use x="1546.13085938" xlink:href="#BitstreamVeraSans-Roman-41"/>
     <use x="1614.5390625" xlink:href="#BitstreamVeraSans-Roman-50"/>
     <use x="1674.84179688" xlink:href="#BitstreamVeraSans-Roman-3d"/>
     <use x="1758.63085938" xlink:href="#BitstreamVeraSans-Roman-30"/>
     <use x="1822.25390625" xlink:href="#BitstreamVeraSans-Roman-2e"/>
     <use x="1854.04101562" xlink:href="#BitstreamVeraSans-Roman-34"/>
     <use x="1917.6640625" xlink:href="#BitstreamVeraSans-Roman-35"/>
    </g>
   </g>
  </g>
 </g>
 <defs>
  <clipPath id="p51aefb2ea3">
   <rect height="345.6" width="446.4" x="72.0" y="43.2"/>
  </clipPath>
 </defs>
</svg>
