<?xml version="1.0" encoding="utf-8" standalone="no"?>
<!DOCTYPE svg PUBLIC "-//W3C//DTD SVG 1.1//EN"
  "http://www.w3.org/Graphics/SVG/1.1/DTD/svg11.dtd">
<!-- Created with matplotlib (http://matplotlib.org/) -->
<svg height="432pt" version="1.1" viewBox="0 0 576 432" width="576pt" xmlns="http://www.w3.org/2000/svg" xmlns:xlink="http://www.w3.org/1999/xlink">
 <defs>
  <style type="text/css">
*{stroke-linecap:butt;stroke-linejoin:round;stroke-miterlimit:100000;}
  </style>
 </defs>
 <g id="figure_1">
  <g id="patch_1">
   <path d="M 0 432 
L 576 432 
L 576 0 
L 0 0 
z
" style="fill:#ffffff;"/>
  </g>
  <g id="axes_1">
   <g id="patch_2">
    <path d="M 72 388.8 
L 518.4 388.8 
L 518.4 43.2 
L 72 43.2 
z
" style="fill:#ffffff;"/>
   </g>
   <g id="PolyCollection_1">
    <defs>
     <path d="M 518.4 -43.2 
L 518.4 -209.088 
L 511.314286 -209.088 
L 511.314286 -207.771429 
L 511.314286 -207.771429 
L 511.314286 -209.109408 
L 504.228571 -209.109408 
L 504.228571 -207.771429 
L 497.142857 -207.771429 
L 497.142857 -206.411334 
L 490.057143 -206.411334 
L 490.057143 -205.028571 
L 482.971429 -205.028571 
L 482.971429 -203.622569 
L 482.971429 -203.622569 
L 482.971429 -204.982082 
L 482.971429 -204.982082 
L 482.971429 -206.364835 
L 475.885714 -206.364835 
L 475.885714 -204.93399 
L 468.8 -204.93399 
L 468.8 -203.478261 
L 468.8 -203.478261 
L 468.8 -204.884211 
L 468.8 -204.884211 
L 468.8 -206.315044 
L 461.714286 -206.315044 
L 461.714286 -204.832653 
L 454.628571 -204.832653 
L 454.628571 -203.323552 
L 454.628571 -203.323552 
L 454.628571 -204.779221 
L 454.628571 -204.779221 
L 454.628571 -206.261599 
L 454.628571 -206.261599 
L 454.628571 -207.771429 
L 454.628571 -207.771429 
L 454.628571 -209.309479 
L 447.542857 -209.309479 
L 447.542857 -207.771429 
L 440.457143 -207.771429 
L 440.457143 -206.204082 
L 440.457143 -206.204082 
L 440.457143 -207.771429 
L 440.457143 -207.771429 
L 440.457143 -209.369209 
L 433.371429 -209.369209 
L 433.371429 -207.771429 
L 433.371429 -207.771429 
L 433.371429 -209.400849 
L 433.371429 -209.400849 
L 433.371429 -211.062857 
L 433.371429 -211.062857 
L 433.371429 -212.758442 
L 433.371429 -212.758442 
L 433.371429 -214.48863 
L 426.285714 -214.48863 
L 426.285714 -212.861267 
L 419.2 -212.861267 
L 419.2 -211.2 
L 419.2 -211.2 
L 419.2 -212.968421 
L 419.2 -212.968421 
L 419.2 -214.774468 
L 419.2 -214.774468 
L 419.2 -216.619355 
L 419.2 -216.619355 
L 419.2 -218.504348 
L 412.114286 -218.504348 
L 412.114286 -216.813815 
L 412.114286 -216.813815 
L 412.114286 -218.742857 
L 412.114286 -218.742857 
L 412.114286 -220.715249 
L 412.114286 -220.715249 
L 412.114286 -222.732468 
L 412.114286 -222.732468 
L 412.114286 -224.796059 
L 412.114286 -224.796059 
L 412.114286 -226.907641 
L 412.114286 -226.907641 
L 412.114286 -229.068908 
L 405.028571 -229.068908 
L 405.028571 -227.363265 
L 397.942857 -227.363265 
L 397.942857 -225.616523 
L 397.942857 -225.616523 
L 397.942857 -227.841115 
L 390.857143 -227.841115 
L 390.857143 -226.057143 
L 390.857143 -226.057143 
L 390.857143 -228.342857 
L 383.771429 -228.342857 
L 383.771429 -226.520072 
L 383.771429 -226.520072 
L 383.771429 -228.87033 
L 383.771429 -228.87033 
L 383.771429 -231.281633 
L 376.685714 -231.281633 
L 376.685714 -229.425564 
L 376.685714 -229.425564 
L 376.685714 -231.908571 
L 376.685714 -231.908571 
L 376.685714 -234.458687 
L 369.6 -234.458687 
L 369.6 -232.569863 
L 369.6 -232.569863 
L 369.6 -235.2 
L 362.514286 -235.2 
L 362.514286 -233.26841 
L 355.428571 -233.26841 
L 355.428571 -231.281633 
L 348.342857 -231.281633 
L 348.342857 -229.237267 
L 341.257143 -229.237267 
L 341.257143 -227.132773 
L 334.171429 -227.132773 
L 334.171429 -224.965458 
L 327.085714 -224.965458 
L 327.085714 -222.732468 
L 327.085714 -222.732468 
L 327.085714 -225.494505 
L 327.085714 -225.494505 
L 327.085714 -228.342857 
L 320 -228.342857 
L 320 -226.057143 
L 320 -226.057143 
L 320 -229.006452 
L 312.914286 -229.006452 
L 312.914286 -226.656674 
L 305.828571 -226.656674 
L 305.828571 -224.228571 
L 298.742857 -224.228571 
L 298.742857 -221.71816 
L 291.657143 -221.71816 
L 291.657143 -219.121182 
L 284.571429 -219.121182 
L 284.571429 -216.433083 
L 284.571429 -216.433083 
L 284.571429 -219.526531 
L 277.485714 -219.526531 
L 277.485714 -216.748052 
L 277.485714 -216.748052 
L 277.485714 -219.961905 
L 270.4 -219.961905 
L 270.4 -217.086792 
L 270.4 -217.086792 
L 270.4 -220.430769 
L 270.4 -220.430769 
L 270.4 -223.905882 
L 270.4 -223.905882 
L 270.4 -227.52 
L 270.4 -227.52 
L 270.4 -231.281633 
L 270.4 -231.281633 
L 270.4 -235.2 
L 263.314286 -235.2 
L 263.314286 -232.282067 
L 256.228571 -232.282067 
L 256.228571 -229.237267 
L 249.142857 -229.237267 
L 249.142857 -226.057143 
L 249.142857 -226.057143 
L 249.142857 -230.212987 
L 242.057143 -230.212987 
L 242.057143 -226.907641 
L 242.057143 -226.907641 
L 242.057143 -231.281633 
L 234.971429 -231.281633 
L 234.971429 -227.841115 
L 234.971429 -227.841115 
L 234.971429 -232.457143 
L 227.885714 -232.457143 
L 227.885714 -228.87033 
L 227.885714 -228.87033 
L 227.885714 -233.756391 
L 220.8 -233.756391 
L 220.8 -230.010811 
L 220.8 -230.010811 
L 220.8 -235.2 
L 220.8 -235.2 
L 220.8 -240.685714 
L 220.8 -240.685714 
L 220.8 -246.494118 
L 220.8 -246.494118 
L 220.8 -252.654545 
L 213.714286 -252.654545 
L 213.714286 -248.914286 
L 213.714286 -248.914286 
L 213.714286 -255.55023 
L 206.628571 -255.55023 
L 206.628571 -251.657143 
L 199.542857 -251.657143 
L 199.542857 -247.495567 
L 199.542857 -247.495567 
L 199.542857 -254.791837 
L 192.457143 -254.791837 
L 192.457143 -250.438095 
L 185.371429 -250.438095 
L 185.371429 -245.749451 
L 178.285714 -245.749451 
L 178.285714 -240.685714 
L 171.2 -240.685714 
L 171.2 -235.2 
L 171.2 -235.2 
L 171.2 -243.547826 
L 164.114286 -243.547826 
L 164.114286 -237.693506 
L 164.114286 -237.693506 
L 164.114286 -246.955102 
L 157.028571 -246.955102 
L 157.028571 -240.685714 
L 157.028571 -240.685714 
L 157.028571 -251.079699 
L 149.942857 -251.079699 
L 149.942857 -244.342857 
L 142.857143 -244.342857 
L 142.857143 -236.813445 
L 142.857143 -236.813445 
L 142.857143 -248.914286 
L 135.771429 -248.914286 
L 135.771429 -240.685714 
L 135.771429 -240.685714 
L 135.771429 -254.791837 
L 128.685714 -254.791837 
L 128.685714 -245.749451 
L 121.6 -245.749451 
L 121.6 -235.2 
L 121.6 -235.2 
L 121.6 -252.654545 
L 114.514286 -252.654545 
L 114.514286 -240.685714 
L 107.428571 -240.685714 
L 107.428571 -226.057143 
L 100.342857 -226.057143 
L 100.342857 -207.771429 
L 100.342857 -207.771429 
L 100.342857 -231.281633 
L 93.257143 -231.281633 
L 93.257143 -207.771429 
L 93.257143 -207.771429 
L 93.257143 -240.685714 
L 93.257143 -240.685714 
L 93.257143 -290.057143 
L 93.257143 -290.057143 
L 93.257143 -372.342857 
L 86.171429 -372.342857 
L 86.171429 -372.342857 
L 79.085714 -372.342857 
L 79.085714 -372.342857 
L 72 -372.342857 
L 72 -372.342857 
L 72 -43.2 
L 72 -43.2 
L 72 -43.2 
L 79.085714 -43.2 
L 79.085714 -43.2 
L 86.171429 -43.2 
L 86.171429 -43.2 
L 93.257143 -43.2 
L 93.257143 -43.2 
L 93.257143 -43.2 
L 93.257143 -43.2 
L 93.257143 -43.2 
L 93.257143 -43.2 
L 93.257143 -43.2 
L 93.257143 -43.2 
L 100.342857 -43.2 
L 100.342857 -43.2 
L 100.342857 -43.2 
L 100.342857 -43.2 
L 107.428571 -43.2 
L 107.428571 -43.2 
L 114.514286 -43.2 
L 114.514286 -43.2 
L 121.6 -43.2 
L 121.6 -43.2 
L 121.6 -43.2 
L 121.6 -43.2 
L 128.685714 -43.2 
L 128.685714 -43.2 
L 135.771429 -43.2 
L 135.771429 -43.2 
L 135.771429 -43.2 
L 135.771429 -43.2 
L 142.857143 -43.2 
L 142.857143 -43.2 
L 142.857143 -43.2 
L 142.857143 -43.2 
L 149.942857 -43.2 
L 149.942857 -43.2 
L 157.028571 -43.2 
L 157.028571 -43.2 
L 157.028571 -43.2 
L 157.028571 -43.2 
L 164.114286 -43.2 
L 164.114286 -43.2 
L 164.114286 -43.2 
L 164.114286 -43.2 
L 171.2 -43.2 
L 171.2 -43.2 
L 171.2 -43.2 
L 171.2 -43.2 
L 178.285714 -43.2 
L 178.285714 -43.2 
L 185.371429 -43.2 
L 185.371429 -43.2 
L 192.457143 -43.2 
L 192.457143 -43.2 
L 199.542857 -43.2 
L 199.542857 -43.2 
L 199.542857 -43.2 
L 199.542857 -43.2 
L 206.628571 -43.2 
L 206.628571 -43.2 
L 213.714286 -43.2 
L 213.714286 -43.2 
L 213.714286 -43.2 
L 213.714286 -43.2 
L 220.8 -43.2 
L 220.8 -43.2 
L 220.8 -43.2 
L 220.8 -43.2 
L 220.8 -43.2 
L 220.8 -43.2 
L 220.8 -43.2 
L 220.8 -43.2 
L 220.8 -43.2 
L 220.8 -43.2 
L 227.885714 -43.2 
L 227.885714 -43.2 
L 227.885714 -43.2 
L 227.885714 -43.2 
L 234.971429 -43.2 
L 234.971429 -43.2 
L 234.971429 -43.2 
L 234.971429 -43.2 
L 242.057143 -43.2 
L 242.057143 -43.2 
L 242.057143 -43.2 
L 242.057143 -43.2 
L 249.142857 -43.2 
L 249.142857 -43.2 
L 249.142857 -43.2 
L 249.142857 -43.2 
L 256.228571 -43.2 
L 256.228571 -43.2 
L 263.314286 -43.2 
L 263.314286 -43.2 
L 270.4 -43.2 
L 270.4 -43.2 
L 270.4 -43.2 
L 270.4 -43.2 
L 270.4 -43.2 
L 270.4 -43.2 
L 270.4 -43.2 
L 270.4 -43.2 
L 270.4 -43.2 
L 270.4 -43.2 
L 270.4 -43.2 
L 270.4 -43.2 
L 277.485714 -43.2 
L 277.485714 -43.2 
L 277.485714 -43.2 
L 277.485714 -43.2 
L 284.571429 -43.2 
L 284.571429 -43.2 
L 284.571429 -43.2 
L 284.571429 -43.2 
L 291.657143 -43.2 
L 291.657143 -43.2 
L 298.742857 -43.2 
L 298.742857 -43.2 
L 305.828571 -43.2 
L 305.828571 -43.2 
L 312.914286 -43.2 
L 312.914286 -43.2 
L 320 -43.2 
L 320 -43.2 
L 320 -43.2 
L 320 -43.2 
L 327.085714 -43.2 
L 327.085714 -43.2 
L 327.085714 -43.2 
L 327.085714 -43.2 
L 327.085714 -43.2 
L 327.085714 -43.2 
L 334.171429 -43.2 
L 334.171429 -43.2 
L 341.257143 -43.2 
L 341.257143 -43.2 
L 348.342857 -43.2 
L 348.342857 -43.2 
L 355.428571 -43.2 
L 355.428571 -43.2 
L 362.514286 -43.2 
L 362.514286 -43.2 
L 369.6 -43.2 
L 369.6 -43.2 
L 369.6 -43.2 
L 369.6 -43.2 
L 376.685714 -43.2 
L 376.685714 -43.2 
L 376.685714 -43.2 
L 376.685714 -43.2 
L 376.685714 -43.2 
L 376.685714 -43.2 
L 383.771429 -43.2 
L 383.771429 -43.2 
L 383.771429 -43.2 
L 383.771429 -43.2 
L 383.771429 -43.2 
L 383.771429 -43.2 
L 390.857143 -43.2 
L 390.857143 -43.2 
L 390.857143 -43.2 
L 390.857143 -43.2 
L 397.942857 -43.2 
L 397.942857 -43.2 
L 397.942857 -43.2 
L 397.942857 -43.2 
L 405.028571 -43.2 
L 405.028571 -43.2 
L 412.114286 -43.2 
L 412.114286 -43.2 
L 412.114286 -43.2 
L 412.114286 -43.2 
L 412.114286 -43.2 
L 412.114286 -43.2 
L 412.114286 -43.2 
L 412.114286 -43.2 
L 412.114286 -43.2 
L 412.114286 -43.2 
L 412.114286 -43.2 
L 412.114286 -43.2 
L 412.114286 -43.2 
L 412.114286 -43.2 
L 419.2 -43.2 
L 419.2 -43.2 
L 419.2 -43.2 
L 419.2 -43.2 
L 419.2 -43.2 
L 419.2 -43.2 
L 419.2 -43.2 
L 419.2 -43.2 
L 419.2 -43.2 
L 419.2 -43.2 
L 426.285714 -43.2 
L 426.285714 -43.2 
L 433.371429 -43.2 
L 433.371429 -43.2 
L 433.371429 -43.2 
L 433.371429 -43.2 
L 433.371429 -43.2 
L 433.371429 -43.2 
L 433.371429 -43.2 
L 433.371429 -43.2 
L 433.371429 -43.2 
L 433.371429 -43.2 
L 440.457143 -43.2 
L 440.457143 -43.2 
L 440.457143 -43.2 
L 440.457143 -43.2 
L 440.457143 -43.2 
L 440.457143 -43.2 
L 447.542857 -43.2 
L 447.542857 -43.2 
L 454.628571 -43.2 
L 454.628571 -43.2 
L 454.628571 -43.2 
L 454.628571 -43.2 
L 454.628571 -43.2 
L 454.628571 -43.2 
L 454.628571 -43.2 
L 454.628571 -43.2 
L 454.628571 -43.2 
L 454.628571 -43.2 
L 461.714286 -43.2 
L 461.714286 -43.2 
L 468.8 -43.2 
L 468.8 -43.2 
L 468.8 -43.2 
L 468.8 -43.2 
L 468.8 -43.2 
L 468.8 -43.2 
L 475.885714 -43.2 
L 475.885714 -43.2 
L 482.971429 -43.2 
L 482.971429 -43.2 
L 482.971429 -43.2 
L 482.971429 -43.2 
L 482.971429 -43.2 
L 482.971429 -43.2 
L 490.057143 -43.2 
L 490.057143 -43.2 
L 497.142857 -43.2 
L 497.142857 -43.2 
L 504.228571 -43.2 
L 504.228571 -43.2 
L 511.314286 -43.2 
L 511.314286 -43.2 
L 511.314286 -43.2 
L 511.314286 -43.2 
L 518.4 -43.2 
z
" id="m5e4cfbdaf8" style="stroke:#0000ff;stroke-opacity:0.2;"/>
    </defs>
    <g clip-path="url(#pc884640693)">
     <use style="fill:#0000ff;fill-opacity:0.2;stroke:#0000ff;stroke-opacity:0.2;" x="0.0" xlink:href="#m5e4cfbdaf8" y="432.0"/>
    </g>
   </g>
   <g id="line2d_1">
    <path clip-path="url(#pc884640693)" d="M 518.4 222.912 
L 511.314286 222.912 
L 511.314286 224.228571 
L 511.314286 224.228571 
L 511.314286 224.228571 
L 511.314286 222.890592 
L 504.228571 222.890592 
L 504.228571 224.228571 
L 497.142857 224.228571 
L 497.142857 225.588666 
L 490.057143 225.588666 
L 490.057143 226.971429 
L 482.971429 226.971429 
L 482.971429 228.377431 
L 482.971429 227.017918 
L 482.971429 227.017918 
L 482.971429 225.635165 
L 475.885714 225.635165 
L 475.885714 227.06601 
L 468.8 227.06601 
L 468.8 228.521739 
L 468.8 227.115789 
L 468.8 227.115789 
L 468.8 225.684956 
L 461.714286 225.684956 
L 461.714286 227.167347 
L 454.628571 227.167347 
L 454.628571 228.676448 
L 454.628571 227.220779 
L 454.628571 227.220779 
L 454.628571 222.690521 
L 447.542857 222.690521 
L 447.542857 224.228571 
L 440.457143 224.228571 
L 440.457143 225.795918 
L 440.457143 225.795918 
L 440.457143 225.795918 
L 440.457143 222.630791 
L 433.371429 222.630791 
L 433.371429 224.228571 
L 433.371429 224.228571 
L 433.371429 224.228571 
L 433.371429 217.51137 
L 426.285714 217.51137 
L 426.285714 219.138733 
L 419.2 219.138733 
L 419.2 220.8 
L 419.2 220.8 
L 419.2 220.8 
L 419.2 213.495652 
L 412.114286 213.495652 
L 412.114286 215.186185 
L 412.114286 215.186185 
L 412.114286 215.186185 
L 412.114286 202.931092 
L 405.028571 202.931092 
L 405.028571 204.636735 
L 397.942857 204.636735 
L 397.942857 206.383477 
L 397.942857 206.383477 
L 397.942857 206.383477 
L 397.942857 204.158885 
L 390.857143 204.158885 
L 390.857143 205.942857 
L 390.857143 205.942857 
L 390.857143 205.942857 
L 390.857143 203.657143 
L 383.771429 203.657143 
L 383.771429 205.479928 
L 383.771429 205.479928 
L 383.771429 205.479928 
L 383.771429 200.718367 
L 376.685714 200.718367 
L 376.685714 202.574436 
L 376.685714 202.574436 
L 376.685714 202.574436 
L 376.685714 197.541313 
L 369.6 197.541313 
L 369.6 199.430137 
L 369.6 199.430137 
L 369.6 199.430137 
L 369.6 196.8 
L 362.514286 196.8 
L 362.514286 198.73159 
L 355.428571 198.73159 
L 355.428571 200.718367 
L 348.342857 200.718367 
L 348.342857 202.762733 
L 341.257143 202.762733 
L 341.257143 204.867227 
L 334.171429 204.867227 
L 334.171429 207.034542 
L 327.085714 207.034542 
L 327.085714 209.267532 
L 327.085714 209.267532 
L 327.085714 209.267532 
L 327.085714 203.657143 
L 320 203.657143 
L 320 205.942857 
L 320 205.942857 
L 320 205.942857 
L 320 202.993548 
L 312.914286 202.993548 
L 312.914286 205.343326 
L 305.828571 205.343326 
L 305.828571 207.771429 
L 298.742857 207.771429 
L 298.742857 210.28184 
L 291.657143 210.28184 
L 291.657143 212.878818 
L 284.571429 212.878818 
L 284.571429 215.566917 
L 284.571429 215.566917 
L 284.571429 215.566917 
L 284.571429 212.473469 
L 277.485714 212.473469 
L 277.485714 215.251948 
L 277.485714 215.251948 
L 277.485714 215.251948 
L 277.485714 212.038095 
L 270.4 212.038095 
L 270.4 214.913208 
L 270.4 214.913208 
L 270.4 214.913208 
L 270.4 196.8 
L 263.314286 196.8 
L 263.314286 199.717933 
L 256.228571 199.717933 
L 256.228571 202.762733 
L 249.142857 202.762733 
L 249.142857 205.942857 
L 249.142857 205.942857 
L 249.142857 205.942857 
L 249.142857 201.787013 
L 242.057143 201.787013 
L 242.057143 205.092359 
L 242.057143 205.092359 
L 242.057143 205.092359 
L 242.057143 200.718367 
L 234.971429 200.718367 
L 234.971429 204.158885 
L 234.971429 204.158885 
L 234.971429 204.158885 
L 234.971429 199.542857 
L 227.885714 199.542857 
L 227.885714 203.12967 
L 227.885714 203.12967 
L 227.885714 203.12967 
L 227.885714 198.243609 
L 220.8 198.243609 
L 220.8 201.989189 
L 220.8 201.989189 
L 220.8 201.989189 
L 220.8 179.345455 
L 213.714286 179.345455 
L 213.714286 183.085714 
L 213.714286 183.085714 
L 213.714286 183.085714 
L 213.714286 176.44977 
L 206.628571 176.44977 
L 206.628571 180.342857 
L 199.542857 180.342857 
L 199.542857 184.504433 
L 199.542857 184.504433 
L 199.542857 184.504433 
L 199.542857 177.208163 
L 192.457143 177.208163 
L 192.457143 181.561905 
L 185.371429 181.561905 
L 185.371429 186.250549 
L 178.285714 186.250549 
L 178.285714 191.314286 
L 171.2 191.314286 
L 171.2 196.8 
L 171.2 196.8 
L 171.2 196.8 
L 171.2 188.452174 
L 164.114286 188.452174 
L 164.114286 194.306494 
L 164.114286 194.306494 
L 164.114286 194.306494 
L 164.114286 185.044898 
L 157.028571 185.044898 
L 157.028571 191.314286 
L 157.028571 191.314286 
L 157.028571 191.314286 
L 157.028571 180.920301 
L 149.942857 180.920301 
L 149.942857 187.657143 
L 142.857143 187.657143 
L 142.857143 195.186555 
L 142.857143 195.186555 
L 142.857143 195.186555 
L 142.857143 183.085714 
L 135.771429 183.085714 
L 135.771429 191.314286 
L 135.771429 191.314286 
L 135.771429 191.314286 
L 135.771429 177.208163 
L 128.685714 177.208163 
L 128.685714 186.250549 
L 121.6 186.250549 
L 121.6 196.8 
L 121.6 196.8 
L 121.6 196.8 
L 121.6 179.345455 
L 114.514286 179.345455 
L 114.514286 191.314286 
L 107.428571 191.314286 
L 107.428571 205.942857 
L 100.342857 205.942857 
L 100.342857 224.228571 
L 100.342857 224.228571 
L 100.342857 224.228571 
L 100.342857 200.718367 
L 93.257143 200.718367 
L 93.257143 224.228571 
L 93.257143 224.228571 
L 93.257143 224.228571 
L 93.257143 59.657143 
L 72 59.657143 
L 72 59.657143 
" style="fill:none;opacity:0.2;stroke:#0000ff;stroke-linecap:square;"/>
   </g>
   <g id="patch_3">
    <path d="M 72 43.2 
L 518.4 43.2 
" style="fill:none;stroke:#000000;stroke-linecap:square;stroke-linejoin:miter;"/>
   </g>
   <g id="patch_4">
    <path d="M 518.4 388.8 
L 518.4 43.2 
" style="fill:none;stroke:#000000;stroke-linecap:square;stroke-linejoin:miter;"/>
   </g>
   <g id="patch_5">
    <path d="M 72 388.8 
L 518.4 388.8 
" style="fill:none;stroke:#000000;stroke-linecap:square;stroke-linejoin:miter;"/>
   </g>
   <g id="patch_6">
    <path d="M 72 388.8 
L 72 43.2 
" style="fill:none;stroke:#000000;stroke-linecap:square;stroke-linejoin:miter;"/>
   </g>
   <g id="matplotlib.axis_1">
    <g id="xtick_1">
     <g id="line2d_2">
      <defs>
       <path d="M 0 0 
L 0 -4 
" id="m826757d9e6" style="stroke:#000000;stroke-width:0.5;"/>
      </defs>
      <g>
       <use style="stroke:#000000;stroke-width:0.5;" x="72.0" xlink:href="#m826757d9e6" y="388.8"/>
      </g>
     </g>
     <g id="line2d_3">
      <defs>
       <path d="M 0 0 
L 0 4 
" id="m18c797452f" style="stroke:#000000;stroke-width:0.5;"/>
      </defs>
      <g>
       <use style="stroke:#000000;stroke-width:0.5;" x="72.0" xlink:href="#m18c797452f" y="43.2"/>
      </g>
     </g>
     <g id="text_1">
      <!-- 0.0 -->
      <defs>
       <path d="M 31.78125 66.40625 
Q 24.171875 66.40625 20.328125 58.90625 
Q 16.5 51.421875 16.5 36.375 
Q 16.5 21.390625 20.328125 13.890625 
Q 24.171875 6.390625 31.78125 6.390625 
Q 39.453125 6.390625 43.28125 13.890625 
Q 47.125 21.390625 47.125 36.375 
Q 47.125 51.421875 43.28125 58.90625 
Q 39.453125 66.40625 31.78125 66.40625 
M 31.78125 74.21875 
Q 44.046875 74.21875 50.515625 64.515625 
Q 56.984375 54.828125 56.984375 36.375 
Q 56.984375 17.96875 50.515625 8.265625 
Q 44.046875 -1.421875 31.78125 -1.421875 
Q 19.53125 -1.421875 13.0625 8.265625 
Q 6.59375 17.96875 6.59375 36.375 
Q 6.59375 54.828125 13.0625 64.515625 
Q 19.53125 74.21875 31.78125 74.21875 
" id="BitstreamVeraSans-Roman-30"/>
       <path d="M 10.6875 12.40625 
L 21 12.40625 
L 21 0 
L 10.6875 0 
z
" id="BitstreamVeraSans-Roman-2e"/>
      </defs>
      <g transform="translate(62.458125 401.918125)scale(0.12 -0.12)">
       <use xlink:href="#BitstreamVeraSans-Roman-30"/>
       <use x="63.623046875" xlink:href="#BitstreamVeraSans-Roman-2e"/>
       <use x="95.41015625" xlink:href="#BitstreamVeraSans-Roman-30"/>
      </g>
     </g>
    </g>
    <g id="xtick_2">
     <g id="line2d_4">
      <g>
       <use style="stroke:#000000;stroke-width:0.5;" x="161.28" xlink:href="#m826757d9e6" y="388.8"/>
      </g>
     </g>
     <g id="line2d_5">
      <g>
       <use style="stroke:#000000;stroke-width:0.5;" x="161.28" xlink:href="#m18c797452f" y="43.2"/>
      </g>
     </g>
     <g id="text_2">
      <!-- 0.2 -->
      <defs>
       <path d="M 19.1875 8.296875 
L 53.609375 8.296875 
L 53.609375 0 
L 7.328125 0 
L 7.328125 8.296875 
Q 12.9375 14.109375 22.625 23.890625 
Q 32.328125 33.6875 34.8125 36.53125 
Q 39.546875 41.84375 41.421875 45.53125 
Q 43.3125 49.21875 43.3125 52.78125 
Q 43.3125 58.59375 39.234375 62.25 
Q 35.15625 65.921875 28.609375 65.921875 
Q 23.96875 65.921875 18.8125 64.3125 
Q 13.671875 62.703125 7.8125 59.421875 
L 7.8125 69.390625 
Q 13.765625 71.78125 18.9375 73 
Q 24.125 74.21875 28.421875 74.21875 
Q 39.75 74.21875 46.484375 68.546875 
Q 53.21875 62.890625 53.21875 53.421875 
Q 53.21875 48.921875 51.53125 44.890625 
Q 49.859375 40.875 45.40625 35.40625 
Q 44.1875 33.984375 37.640625 27.21875 
Q 31.109375 20.453125 19.1875 8.296875 
" id="BitstreamVeraSans-Roman-32"/>
      </defs>
      <g transform="translate(151.738125 401.918125)scale(0.12 -0.12)">
       <use xlink:href="#BitstreamVeraSans-Roman-30"/>
       <use x="63.623046875" xlink:href="#BitstreamVeraSans-Roman-2e"/>
       <use x="95.41015625" xlink:href="#BitstreamVeraSans-Roman-32"/>
      </g>
     </g>
    </g>
    <g id="xtick_3">
     <g id="line2d_6">
      <g>
       <use style="stroke:#000000;stroke-width:0.5;" x="250.56" xlink:href="#m826757d9e6" y="388.8"/>
      </g>
     </g>
     <g id="line2d_7">
      <g>
       <use style="stroke:#000000;stroke-width:0.5;" x="250.56" xlink:href="#m18c797452f" y="43.2"/>
      </g>
     </g>
     <g id="text_3">
      <!-- 0.4 -->
      <defs>
       <path d="M 37.796875 64.3125 
L 12.890625 25.390625 
L 37.796875 25.390625 
z
M 35.203125 72.90625 
L 47.609375 72.90625 
L 47.609375 25.390625 
L 58.015625 25.390625 
L 58.015625 17.1875 
L 47.609375 17.1875 
L 47.609375 0 
L 37.796875 0 
L 37.796875 17.1875 
L 4.890625 17.1875 
L 4.890625 26.703125 
z
" id="BitstreamVeraSans-Roman-34"/>
      </defs>
      <g transform="translate(241.018125 401.918125)scale(0.12 -0.12)">
       <use xlink:href="#BitstreamVeraSans-Roman-30"/>
       <use x="63.623046875" xlink:href="#BitstreamVeraSans-Roman-2e"/>
       <use x="95.41015625" xlink:href="#BitstreamVeraSans-Roman-34"/>
      </g>
     </g>
    </g>
    <g id="xtick_4">
     <g id="line2d_8">
      <g>
       <use style="stroke:#000000;stroke-width:0.5;" x="339.84" xlink:href="#m826757d9e6" y="388.8"/>
      </g>
     </g>
     <g id="line2d_9">
      <g>
       <use style="stroke:#000000;stroke-width:0.5;" x="339.84" xlink:href="#m18c797452f" y="43.2"/>
      </g>
     </g>
     <g id="text_4">
      <!-- 0.6 -->
      <defs>
       <path d="M 33.015625 40.375 
Q 26.375 40.375 22.484375 35.828125 
Q 18.609375 31.296875 18.609375 23.390625 
Q 18.609375 15.53125 22.484375 10.953125 
Q 26.375 6.390625 33.015625 6.390625 
Q 39.65625 6.390625 43.53125 10.953125 
Q 47.40625 15.53125 47.40625 23.390625 
Q 47.40625 31.296875 43.53125 35.828125 
Q 39.65625 40.375 33.015625 40.375 
M 52.59375 71.296875 
L 52.59375 62.3125 
Q 48.875 64.0625 45.09375 64.984375 
Q 41.3125 65.921875 37.59375 65.921875 
Q 27.828125 65.921875 22.671875 59.328125 
Q 17.53125 52.734375 16.796875 39.40625 
Q 19.671875 43.65625 24.015625 45.921875 
Q 28.375 48.1875 33.59375 48.1875 
Q 44.578125 48.1875 50.953125 41.515625 
Q 57.328125 34.859375 57.328125 23.390625 
Q 57.328125 12.15625 50.6875 5.359375 
Q 44.046875 -1.421875 33.015625 -1.421875 
Q 20.359375 -1.421875 13.671875 8.265625 
Q 6.984375 17.96875 6.984375 36.375 
Q 6.984375 53.65625 15.1875 63.9375 
Q 23.390625 74.21875 37.203125 74.21875 
Q 40.921875 74.21875 44.703125 73.484375 
Q 48.484375 72.75 52.59375 71.296875 
" id="BitstreamVeraSans-Roman-36"/>
      </defs>
      <g transform="translate(330.298125 401.918125)scale(0.12 -0.12)">
       <use xlink:href="#BitstreamVeraSans-Roman-30"/>
       <use x="63.623046875" xlink:href="#BitstreamVeraSans-Roman-2e"/>
       <use x="95.41015625" xlink:href="#BitstreamVeraSans-Roman-36"/>
      </g>
     </g>
    </g>
    <g id="xtick_5">
     <g id="line2d_10">
      <g>
       <use style="stroke:#000000;stroke-width:0.5;" x="429.12" xlink:href="#m826757d9e6" y="388.8"/>
      </g>
     </g>
     <g id="line2d_11">
      <g>
       <use style="stroke:#000000;stroke-width:0.5;" x="429.12" xlink:href="#m18c797452f" y="43.2"/>
      </g>
     </g>
     <g id="text_5">
      <!-- 0.8 -->
      <defs>
       <path d="M 31.78125 34.625 
Q 24.75 34.625 20.71875 30.859375 
Q 16.703125 27.09375 16.703125 20.515625 
Q 16.703125 13.921875 20.71875 10.15625 
Q 24.75 6.390625 31.78125 6.390625 
Q 38.8125 6.390625 42.859375 10.171875 
Q 46.921875 13.96875 46.921875 20.515625 
Q 46.921875 27.09375 42.890625 30.859375 
Q 38.875 34.625 31.78125 34.625 
M 21.921875 38.8125 
Q 15.578125 40.375 12.03125 44.71875 
Q 8.5 49.078125 8.5 55.328125 
Q 8.5 64.0625 14.71875 69.140625 
Q 20.953125 74.21875 31.78125 74.21875 
Q 42.671875 74.21875 48.875 69.140625 
Q 55.078125 64.0625 55.078125 55.328125 
Q 55.078125 49.078125 51.53125 44.71875 
Q 48 40.375 41.703125 38.8125 
Q 48.828125 37.15625 52.796875 32.3125 
Q 56.78125 27.484375 56.78125 20.515625 
Q 56.78125 9.90625 50.3125 4.234375 
Q 43.84375 -1.421875 31.78125 -1.421875 
Q 19.734375 -1.421875 13.25 4.234375 
Q 6.78125 9.90625 6.78125 20.515625 
Q 6.78125 27.484375 10.78125 32.3125 
Q 14.796875 37.15625 21.921875 38.8125 
M 18.3125 54.390625 
Q 18.3125 48.734375 21.84375 45.5625 
Q 25.390625 42.390625 31.78125 42.390625 
Q 38.140625 42.390625 41.71875 45.5625 
Q 45.3125 48.734375 45.3125 54.390625 
Q 45.3125 60.0625 41.71875 63.234375 
Q 38.140625 66.40625 31.78125 66.40625 
Q 25.390625 66.40625 21.84375 63.234375 
Q 18.3125 60.0625 18.3125 54.390625 
" id="BitstreamVeraSans-Roman-38"/>
      </defs>
      <g transform="translate(419.578125 401.918125)scale(0.12 -0.12)">
       <use xlink:href="#BitstreamVeraSans-Roman-30"/>
       <use x="63.623046875" xlink:href="#BitstreamVeraSans-Roman-2e"/>
       <use x="95.41015625" xlink:href="#BitstreamVeraSans-Roman-38"/>
      </g>
     </g>
    </g>
    <g id="xtick_6">
     <g id="line2d_12">
      <g>
       <use style="stroke:#000000;stroke-width:0.5;" x="518.4" xlink:href="#m826757d9e6" y="388.8"/>
      </g>
     </g>
     <g id="line2d_13">
      <g>
       <use style="stroke:#000000;stroke-width:0.5;" x="518.4" xlink:href="#m18c797452f" y="43.2"/>
      </g>
     </g>
     <g id="text_6">
      <!-- 1.0 -->
      <defs>
       <path d="M 12.40625 8.296875 
L 28.515625 8.296875 
L 28.515625 63.921875 
L 10.984375 60.40625 
L 10.984375 69.390625 
L 28.421875 72.90625 
L 38.28125 72.90625 
L 38.28125 8.296875 
L 54.390625 8.296875 
L 54.390625 0 
L 12.40625 0 
z
" id="BitstreamVeraSans-Roman-31"/>
      </defs>
      <g transform="translate(508.858125 401.918125)scale(0.12 -0.12)">
       <use xlink:href="#BitstreamVeraSans-Roman-31"/>
       <use x="63.623046875" xlink:href="#BitstreamVeraSans-Roman-2e"/>
       <use x="95.41015625" xlink:href="#BitstreamVeraSans-Roman-30"/>
      </g>
     </g>
    </g>
    <g id="text_7">
     <!-- Recall -->
     <defs>
      <path d="M 56.203125 29.59375 
L 56.203125 25.203125 
L 14.890625 25.203125 
Q 15.484375 15.921875 20.484375 11.0625 
Q 25.484375 6.203125 34.421875 6.203125 
Q 39.59375 6.203125 44.453125 7.46875 
Q 49.3125 8.734375 54.109375 11.28125 
L 54.109375 2.78125 
Q 49.265625 0.734375 44.1875 -0.34375 
Q 39.109375 -1.421875 33.890625 -1.421875 
Q 20.796875 -1.421875 13.15625 6.1875 
Q 5.515625 13.8125 5.515625 26.8125 
Q 5.515625 40.234375 12.765625 48.109375 
Q 20.015625 56 32.328125 56 
Q 43.359375 56 49.78125 48.890625 
Q 56.203125 41.796875 56.203125 29.59375 
M 47.21875 32.234375 
Q 47.125 39.59375 43.09375 43.984375 
Q 39.0625 48.390625 32.421875 48.390625 
Q 24.90625 48.390625 20.390625 44.140625 
Q 15.875 39.890625 15.1875 32.171875 
z
" id="BitstreamVeraSans-Roman-65"/>
      <path d="M 44.390625 34.1875 
Q 47.5625 33.109375 50.5625 29.59375 
Q 53.5625 26.078125 56.59375 19.921875 
L 66.609375 0 
L 56 0 
L 46.6875 18.703125 
Q 43.0625 26.03125 39.671875 28.421875 
Q 36.28125 30.8125 30.421875 30.8125 
L 19.671875 30.8125 
L 19.671875 0 
L 9.8125 0 
L 9.8125 72.90625 
L 32.078125 72.90625 
Q 44.578125 72.90625 50.734375 67.671875 
Q 56.890625 62.453125 56.890625 51.90625 
Q 56.890625 45.015625 53.6875 40.46875 
Q 50.484375 35.9375 44.390625 34.1875 
M 19.671875 64.796875 
L 19.671875 38.921875 
L 32.078125 38.921875 
Q 39.203125 38.921875 42.84375 42.21875 
Q 46.484375 45.515625 46.484375 51.90625 
Q 46.484375 58.296875 42.84375 61.546875 
Q 39.203125 64.796875 32.078125 64.796875 
z
" id="BitstreamVeraSans-Roman-52"/>
      <path d="M 34.28125 27.484375 
Q 23.390625 27.484375 19.1875 25 
Q 14.984375 22.515625 14.984375 16.5 
Q 14.984375 11.71875 18.140625 8.90625 
Q 21.296875 6.109375 26.703125 6.109375 
Q 34.1875 6.109375 38.703125 11.40625 
Q 43.21875 16.703125 43.21875 25.484375 
L 43.21875 27.484375 
z
M 52.203125 31.203125 
L 52.203125 0 
L 43.21875 0 
L 43.21875 8.296875 
Q 40.140625 3.328125 35.546875 0.953125 
Q 30.953125 -1.421875 24.3125 -1.421875 
Q 15.921875 -1.421875 10.953125 3.296875 
Q 6 8.015625 6 15.921875 
Q 6 25.140625 12.171875 29.828125 
Q 18.359375 34.515625 30.609375 34.515625 
L 43.21875 34.515625 
L 43.21875 35.40625 
Q 43.21875 41.609375 39.140625 45 
Q 35.0625 48.390625 27.6875 48.390625 
Q 23 48.390625 18.546875 47.265625 
Q 14.109375 46.140625 10.015625 43.890625 
L 10.015625 52.203125 
Q 14.9375 54.109375 19.578125 55.046875 
Q 24.21875 56 28.609375 56 
Q 40.484375 56 46.34375 49.84375 
Q 52.203125 43.703125 52.203125 31.203125 
" id="BitstreamVeraSans-Roman-61"/>
      <path d="M 9.421875 75.984375 
L 18.40625 75.984375 
L 18.40625 0 
L 9.421875 0 
z
" id="BitstreamVeraSans-Roman-6c"/>
      <path d="M 48.78125 52.59375 
L 48.78125 44.1875 
Q 44.96875 46.296875 41.140625 47.34375 
Q 37.3125 48.390625 33.40625 48.390625 
Q 24.65625 48.390625 19.8125 42.84375 
Q 14.984375 37.3125 14.984375 27.296875 
Q 14.984375 17.28125 19.8125 11.734375 
Q 24.65625 6.203125 33.40625 6.203125 
Q 37.3125 6.203125 41.140625 7.25 
Q 44.96875 8.296875 48.78125 10.40625 
L 48.78125 2.09375 
Q 45.015625 0.34375 40.984375 -0.53125 
Q 36.96875 -1.421875 32.421875 -1.421875 
Q 20.0625 -1.421875 12.78125 6.34375 
Q 5.515625 14.109375 5.515625 27.296875 
Q 5.515625 40.671875 12.859375 48.328125 
Q 20.21875 56 33.015625 56 
Q 37.15625 56 41.109375 55.140625 
Q 45.0625 54.296875 48.78125 52.59375 
" id="BitstreamVeraSans-Roman-63"/>
     </defs>
     <g transform="translate(277.033125 418.531875)scale(0.12 -0.12)">
      <use xlink:href="#BitstreamVeraSans-Roman-52"/>
      <use x="69.419921875" xlink:href="#BitstreamVeraSans-Roman-65"/>
      <use x="130.943359375" xlink:href="#BitstreamVeraSans-Roman-63"/>
      <use x="185.923828125" xlink:href="#BitstreamVeraSans-Roman-61"/>
      <use x="247.203125" xlink:href="#BitstreamVeraSans-Roman-6c"/>
      <use x="274.986328125" xlink:href="#BitstreamVeraSans-Roman-6c"/>
     </g>
    </g>
   </g>
   <g id="matplotlib.axis_2">
    <g id="ytick_1">
     <g id="line2d_14">
      <defs>
       <path d="M 0 0 
L 4 0 
" id="m6e80a284ef" style="stroke:#000000;stroke-width:0.5;"/>
      </defs>
      <g>
       <use style="stroke:#000000;stroke-width:0.5;" x="72.0" xlink:href="#m6e80a284ef" y="388.8"/>
      </g>
     </g>
     <g id="line2d_15">
      <defs>
       <path d="M 0 0 
L -4 0 
" id="m4a5307f656" style="stroke:#000000;stroke-width:0.5;"/>
      </defs>
      <g>
       <use style="stroke:#000000;stroke-width:0.5;" x="518.4" xlink:href="#m4a5307f656" y="388.8"/>
      </g>
     </g>
     <g id="text_8">
      <!-- 0.0 -->
      <g transform="translate(48.91625 392.11125)scale(0.12 -0.12)">
       <use xlink:href="#BitstreamVeraSans-Roman-30"/>
       <use x="63.623046875" xlink:href="#BitstreamVeraSans-Roman-2e"/>
       <use x="95.41015625" xlink:href="#BitstreamVeraSans-Roman-30"/>
      </g>
     </g>
    </g>
    <g id="ytick_2">
     <g id="line2d_16">
      <g>
       <use style="stroke:#000000;stroke-width:0.5;" x="72.0" xlink:href="#m6e80a284ef" y="322.971428571"/>
      </g>
     </g>
     <g id="line2d_17">
      <g>
       <use style="stroke:#000000;stroke-width:0.5;" x="518.4" xlink:href="#m4a5307f656" y="322.971428571"/>
      </g>
     </g>
     <g id="text_9">
      <!-- 0.2 -->
      <g transform="translate(48.91625 326.282678571)scale(0.12 -0.12)">
       <use xlink:href="#BitstreamVeraSans-Roman-30"/>
       <use x="63.623046875" xlink:href="#BitstreamVeraSans-Roman-2e"/>
       <use x="95.41015625" xlink:href="#BitstreamVeraSans-Roman-32"/>
      </g>
     </g>
    </g>
    <g id="ytick_3">
     <g id="line2d_18">
      <g>
       <use style="stroke:#000000;stroke-width:0.5;" x="72.0" xlink:href="#m6e80a284ef" y="257.142857143"/>
      </g>
     </g>
     <g id="line2d_19">
      <g>
       <use style="stroke:#000000;stroke-width:0.5;" x="518.4" xlink:href="#m4a5307f656" y="257.142857143"/>
      </g>
     </g>
     <g id="text_10">
      <!-- 0.4 -->
      <g transform="translate(48.91625 260.454107143)scale(0.12 -0.12)">
       <use xlink:href="#BitstreamVeraSans-Roman-30"/>
       <use x="63.623046875" xlink:href="#BitstreamVeraSans-Roman-2e"/>
       <use x="95.41015625" xlink:href="#BitstreamVeraSans-Roman-34"/>
      </g>
     </g>
    </g>
    <g id="ytick_4">
     <g id="line2d_20">
      <g>
       <use style="stroke:#000000;stroke-width:0.5;" x="72.0" xlink:href="#m6e80a284ef" y="191.314285714"/>
      </g>
     </g>
     <g id="line2d_21">
      <g>
       <use style="stroke:#000000;stroke-width:0.5;" x="518.4" xlink:href="#m4a5307f656" y="191.314285714"/>
      </g>
     </g>
     <g id="text_11">
      <!-- 0.6 -->
      <g transform="translate(48.91625 194.625535714)scale(0.12 -0.12)">
       <use xlink:href="#BitstreamVeraSans-Roman-30"/>
       <use x="63.623046875" xlink:href="#BitstreamVeraSans-Roman-2e"/>
       <use x="95.41015625" xlink:href="#BitstreamVeraSans-Roman-36"/>
      </g>
     </g>
    </g>
    <g id="ytick_5">
     <g id="line2d_22">
      <g>
       <use style="stroke:#000000;stroke-width:0.5;" x="72.0" xlink:href="#m6e80a284ef" y="125.485714286"/>
      </g>
     </g>
     <g id="line2d_23">
      <g>
       <use style="stroke:#000000;stroke-width:0.5;" x="518.4" xlink:href="#m4a5307f656" y="125.485714286"/>
      </g>
     </g>
     <g id="text_12">
      <!-- 0.8 -->
      <g transform="translate(48.91625 128.796964286)scale(0.12 -0.12)">
       <use xlink:href="#BitstreamVeraSans-Roman-30"/>
       <use x="63.623046875" xlink:href="#BitstreamVeraSans-Roman-2e"/>
       <use x="95.41015625" xlink:href="#BitstreamVeraSans-Roman-38"/>
      </g>
     </g>
    </g>
    <g id="ytick_6">
     <g id="line2d_24">
      <g>
       <use style="stroke:#000000;stroke-width:0.5;" x="72.0" xlink:href="#m6e80a284ef" y="59.6571428571"/>
      </g>
     </g>
     <g id="line2d_25">
      <g>
       <use style="stroke:#000000;stroke-width:0.5;" x="518.4" xlink:href="#m4a5307f656" y="59.6571428571"/>
      </g>
     </g>
     <g id="text_13">
      <!-- 1.0 -->
      <g transform="translate(48.91625 62.9683928571)scale(0.12 -0.12)">
       <use xlink:href="#BitstreamVeraSans-Roman-31"/>
       <use x="63.623046875" xlink:href="#BitstreamVeraSans-Roman-2e"/>
       <use x="95.41015625" xlink:href="#BitstreamVeraSans-Roman-30"/>
      </g>
     </g>
    </g>
    <g id="text_14">
     <!-- Precision -->
     <defs>
      <path d="M 54.890625 33.015625 
L 54.890625 0 
L 45.90625 0 
L 45.90625 32.71875 
Q 45.90625 40.484375 42.875 44.328125 
Q 39.84375 48.1875 33.796875 48.1875 
Q 26.515625 48.1875 22.3125 43.546875 
Q 18.109375 38.921875 18.109375 30.90625 
L 18.109375 0 
L 9.078125 0 
L 9.078125 54.6875 
L 18.109375 54.6875 
L 18.109375 46.1875 
Q 21.34375 51.125 25.703125 53.5625 
Q 30.078125 56 35.796875 56 
Q 45.21875 56 50.046875 50.171875 
Q 54.890625 44.34375 54.890625 33.015625 
" id="BitstreamVeraSans-Roman-6e"/>
      <path d="M 30.609375 48.390625 
Q 23.390625 48.390625 19.1875 42.75 
Q 14.984375 37.109375 14.984375 27.296875 
Q 14.984375 17.484375 19.15625 11.84375 
Q 23.34375 6.203125 30.609375 6.203125 
Q 37.796875 6.203125 41.984375 11.859375 
Q 46.1875 17.53125 46.1875 27.296875 
Q 46.1875 37.015625 41.984375 42.703125 
Q 37.796875 48.390625 30.609375 48.390625 
M 30.609375 56 
Q 42.328125 56 49.015625 48.375 
Q 55.71875 40.765625 55.71875 27.296875 
Q 55.71875 13.875 49.015625 6.21875 
Q 42.328125 -1.421875 30.609375 -1.421875 
Q 18.84375 -1.421875 12.171875 6.21875 
Q 5.515625 13.875 5.515625 27.296875 
Q 5.515625 40.765625 12.171875 48.375 
Q 18.84375 56 30.609375 56 
" id="BitstreamVeraSans-Roman-6f"/>
      <path d="M 19.671875 64.796875 
L 19.671875 37.40625 
L 32.078125 37.40625 
Q 38.96875 37.40625 42.71875 40.96875 
Q 46.484375 44.53125 46.484375 51.125 
Q 46.484375 57.671875 42.71875 61.234375 
Q 38.96875 64.796875 32.078125 64.796875 
z
M 9.8125 72.90625 
L 32.078125 72.90625 
Q 44.34375 72.90625 50.609375 67.359375 
Q 56.890625 61.8125 56.890625 51.125 
Q 56.890625 40.328125 50.609375 34.8125 
Q 44.34375 29.296875 32.078125 29.296875 
L 19.671875 29.296875 
L 19.671875 0 
L 9.8125 0 
z
" id="BitstreamVeraSans-Roman-50"/>
      <path d="M 9.421875 54.6875 
L 18.40625 54.6875 
L 18.40625 0 
L 9.421875 0 
z
M 9.421875 75.984375 
L 18.40625 75.984375 
L 18.40625 64.59375 
L 9.421875 64.59375 
z
" id="BitstreamVeraSans-Roman-69"/>
      <path d="M 41.109375 46.296875 
Q 39.59375 47.171875 37.8125 47.578125 
Q 36.03125 48 33.890625 48 
Q 26.265625 48 22.1875 43.046875 
Q 18.109375 38.09375 18.109375 28.8125 
L 18.109375 0 
L 9.078125 0 
L 9.078125 54.6875 
L 18.109375 54.6875 
L 18.109375 46.1875 
Q 20.953125 51.171875 25.484375 53.578125 
Q 30.03125 56 36.53125 56 
Q 37.453125 56 38.578125 55.875 
Q 39.703125 55.765625 41.0625 55.515625 
z
" id="BitstreamVeraSans-Roman-72"/>
      <path d="M 44.28125 53.078125 
L 44.28125 44.578125 
Q 40.484375 46.53125 36.375 47.5 
Q 32.28125 48.484375 27.875 48.484375 
Q 21.1875 48.484375 17.84375 46.4375 
Q 14.5 44.390625 14.5 40.28125 
Q 14.5 37.15625 16.890625 35.375 
Q 19.28125 33.59375 26.515625 31.984375 
L 29.59375 31.296875 
Q 39.15625 29.25 43.1875 25.515625 
Q 47.21875 21.78125 47.21875 15.09375 
Q 47.21875 7.46875 41.1875 3.015625 
Q 35.15625 -1.421875 24.609375 -1.421875 
Q 20.21875 -1.421875 15.453125 -0.5625 
Q 10.6875 0.296875 5.421875 2 
L 5.421875 11.28125 
Q 10.40625 8.6875 15.234375 7.390625 
Q 20.0625 6.109375 24.8125 6.109375 
Q 31.15625 6.109375 34.5625 8.28125 
Q 37.984375 10.453125 37.984375 14.40625 
Q 37.984375 18.0625 35.515625 20.015625 
Q 33.0625 21.96875 24.703125 23.78125 
L 21.578125 24.515625 
Q 13.234375 26.265625 9.515625 29.90625 
Q 5.8125 33.546875 5.8125 39.890625 
Q 5.8125 47.609375 11.28125 51.796875 
Q 16.75 56 26.8125 56 
Q 31.78125 56 36.171875 55.265625 
Q 40.578125 54.546875 44.28125 53.078125 
" id="BitstreamVeraSans-Roman-73"/>
     </defs>
     <g transform="translate(41.420625 243.005625)rotate(-90.0)scale(0.12 -0.12)">
      <use xlink:href="#BitstreamVeraSans-Roman-50"/>
      <use x="60.287109375" xlink:href="#BitstreamVeraSans-Roman-72"/>
      <use x="101.369140625" xlink:href="#BitstreamVeraSans-Roman-65"/>
      <use x="162.892578125" xlink:href="#BitstreamVeraSans-Roman-63"/>
      <use x="217.873046875" xlink:href="#BitstreamVeraSans-Roman-69"/>
      <use x="245.65625" xlink:href="#BitstreamVeraSans-Roman-73"/>
      <use x="297.755859375" xlink:href="#BitstreamVeraSans-Roman-69"/>
      <use x="325.5390625" xlink:href="#BitstreamVeraSans-Roman-6f"/>
      <use x="386.720703125" xlink:href="#BitstreamVeraSans-Roman-6e"/>
     </g>
    </g>
   </g>
   <g id="text_15">
    <!-- 2-class Precision-Recall curve: AP=0.59 -->
    <defs>
     <path id="BitstreamVeraSans-Roman-20"/>
     <path d="M 10.59375 45.40625 
L 73.1875 45.40625 
L 73.1875 37.203125 
L 10.59375 37.203125 
z
M 10.59375 25.484375 
L 73.1875 25.484375 
L 73.1875 17.1875 
L 10.59375 17.1875 
z
" id="BitstreamVeraSans-Roman-3d"/>
     <path d="M 10.796875 72.90625 
L 49.515625 72.90625 
L 49.515625 64.59375 
L 19.828125 64.59375 
L 19.828125 46.734375 
Q 21.96875 47.46875 24.109375 47.828125 
Q 26.265625 48.1875 28.421875 48.1875 
Q 40.625 48.1875 47.75 41.5 
Q 54.890625 34.8125 54.890625 23.390625 
Q 54.890625 11.625 47.5625 5.09375 
Q 40.234375 -1.421875 26.90625 -1.421875 
Q 22.3125 -1.421875 17.546875 -0.640625 
Q 12.796875 0.140625 7.71875 1.703125 
L 7.71875 11.625 
Q 12.109375 9.234375 16.796875 8.0625 
Q 21.484375 6.890625 26.703125 6.890625 
Q 35.15625 6.890625 40.078125 11.328125 
Q 45.015625 15.765625 45.015625 23.390625 
Q 45.015625 31 40.078125 35.4375 
Q 35.15625 39.890625 26.703125 39.890625 
Q 22.75 39.890625 18.8125 39.015625 
Q 14.890625 38.140625 10.796875 36.28125 
z
" id="BitstreamVeraSans-Roman-35"/>
     <path d="M 10.984375 1.515625 
L 10.984375 10.5 
Q 14.703125 8.734375 18.5 7.8125 
Q 22.3125 6.890625 25.984375 6.890625 
Q 35.75 6.890625 40.890625 13.453125 
Q 46.046875 20.015625 46.78125 33.40625 
Q 43.953125 29.203125 39.59375 26.953125 
Q 35.25 24.703125 29.984375 24.703125 
Q 19.046875 24.703125 12.671875 31.3125 
Q 6.296875 37.9375 6.296875 49.421875 
Q 6.296875 60.640625 12.9375 67.421875 
Q 19.578125 74.21875 30.609375 74.21875 
Q 43.265625 74.21875 49.921875 64.515625 
Q 56.59375 54.828125 56.59375 36.375 
Q 56.59375 19.140625 48.40625 8.859375 
Q 40.234375 -1.421875 26.421875 -1.421875 
Q 22.703125 -1.421875 18.890625 -0.6875 
Q 15.09375 0.046875 10.984375 1.515625 
M 30.609375 32.421875 
Q 37.25 32.421875 41.125 36.953125 
Q 45.015625 41.5 45.015625 49.421875 
Q 45.015625 57.28125 41.125 61.84375 
Q 37.25 66.40625 30.609375 66.40625 
Q 23.96875 66.40625 20.09375 61.84375 
Q 16.21875 57.28125 16.21875 49.421875 
Q 16.21875 41.5 20.09375 36.953125 
Q 23.96875 32.421875 30.609375 32.421875 
" id="BitstreamVeraSans-Roman-39"/>
     <path d="M 11.71875 12.40625 
L 22.015625 12.40625 
L 22.015625 0 
L 11.71875 0 
z
M 11.71875 51.703125 
L 22.015625 51.703125 
L 22.015625 39.3125 
L 11.71875 39.3125 
z
" id="BitstreamVeraSans-Roman-3a"/>
     <path d="M 4.890625 31.390625 
L 31.203125 31.390625 
L 31.203125 23.390625 
L 4.890625 23.390625 
z
" id="BitstreamVeraSans-Roman-2d"/>
     <path d="M 34.1875 63.1875 
L 20.796875 26.90625 
L 47.609375 26.90625 
z
M 28.609375 72.90625 
L 39.796875 72.90625 
L 67.578125 0 
L 57.328125 0 
L 50.6875 18.703125 
L 17.828125 18.703125 
L 11.1875 0 
L 0.78125 0 
z
" id="BitstreamVeraSans-Roman-41"/>
     <path d="M 2.984375 54.6875 
L 12.5 54.6875 
L 29.59375 8.796875 
L 46.6875 54.6875 
L 56.203125 54.6875 
L 35.6875 0 
L 23.484375 0 
z
" id="BitstreamVeraSans-Roman-76"/>
     <path d="M 8.5 21.578125 
L 8.5 54.6875 
L 17.484375 54.6875 
L 17.484375 21.921875 
Q 17.484375 14.15625 20.5 10.265625 
Q 23.53125 6.390625 29.59375 6.390625 
Q 36.859375 6.390625 41.078125 11.03125 
Q 45.3125 15.671875 45.3125 23.6875 
L 45.3125 54.6875 
L 54.296875 54.6875 
L 54.296875 0 
L 45.3125 0 
L 45.3125 8.40625 
Q 42.046875 3.421875 37.71875 1 
Q 33.40625 -1.421875 27.6875 -1.421875 
Q 18.265625 -1.421875 13.375 4.4375 
Q 8.5 10.296875 8.5 21.578125 
" id="BitstreamVeraSans-Roman-75"/>
    </defs>
    <g transform="translate(152.548875 38.2)scale(0.144 -0.144)">
     <use xlink:href="#BitstreamVeraSans-Roman-32"/>
     <use x="63.623046875" xlink:href="#BitstreamVeraSans-Roman-2d"/>
     <use x="99.70703125" xlink:href="#BitstreamVeraSans-Roman-63"/>
     <use x="154.6875" xlink:href="#BitstreamVeraSans-Roman-6c"/>
     <use x="182.470703125" xlink:href="#BitstreamVeraSans-Roman-61"/>
     <use x="243.75" xlink:href="#BitstreamVeraSans-Roman-73"/>
     <use x="295.849609375" xlink:href="#BitstreamVeraSans-Roman-73"/>
     <use x="347.94921875" xlink:href="#BitstreamVeraSans-Roman-20"/>
     <use x="379.736328125" xlink:href="#BitstreamVeraSans-Roman-50"/>
     <use x="440.0234375" xlink:href="#BitstreamVeraSans-Roman-72"/>
     <use x="481.10546875" xlink:href="#BitstreamVeraSans-Roman-65"/>
     <use x="542.62890625" xlink:href="#BitstreamVeraSans-Roman-63"/>
     <use x="597.609375" xlink:href="#BitstreamVeraSans-Roman-69"/>
     <use x="625.392578125" xlink:href="#BitstreamVeraSans-Roman-73"/>
     <use x="677.4921875" xlink:href="#BitstreamVeraSans-Roman-69"/>
     <use x="705.275390625" xlink:href="#BitstreamVeraSans-Roman-6f"/>
     <use x="766.45703125" xlink:href="#BitstreamVeraSans-Roman-6e"/>
     <use x="829.8359375" xlink:href="#BitstreamVeraSans-Roman-2d"/>
     <use x="865.919921875" xlink:href="#BitstreamVeraSans-Roman-52"/>
     <use x="935.33984375" xlink:href="#BitstreamVeraSans-Roman-65"/>
     <use x="996.86328125" xlink:href="#BitstreamVeraSans-Roman-63"/>
     <use x="1051.84375" xlink:href="#BitstreamVeraSans-Roman-61"/>
     <use x="1113.12304688" xlink:href="#BitstreamVeraSans-Roman-6c"/>
     <use x="1140.90625" xlink:href="#BitstreamVeraSans-Roman-6c"/>
     <use x="1168.68945312" xlink:href="#BitstreamVeraSans-Roman-20"/>
     <use x="1200.4765625" xlink:href="#BitstreamVeraSans-Roman-63"/>
     <use x="1255.45703125" xlink:href="#BitstreamVeraSans-Roman-75"/>
     <use x="1318.8359375" xlink:href="#BitstreamVeraSans-Roman-72"/>
     <use x="1359.94921875" xlink:href="#BitstreamVeraSans-Roman-76"/>
     <use x="1419.12890625" xlink:href="#BitstreamVeraSans-Roman-65"/>
     <use x="1480.65234375" xlink:href="#BitstreamVeraSans-Roman-3a"/>
     <use x="1514.34375" xlink:href="#BitstreamVeraSans-Roman-20"/>
     <use x="1546.13085938" xlink:href="#BitstreamVeraSans-Roman-41"/>
     <use x="1614.5390625" xlink:href="#BitstreamVeraSans-Roman-50"/>
     <use x="1674.84179688" xlink:href="#BitstreamVeraSans-Roman-3d"/>
     <use x="1758.63085938" xlink:href="#BitstreamVeraSans-Roman-30"/>
     <use x="1822.25390625" xlink:href="#BitstreamVeraSans-Roman-2e"/>
     <use x="1854.04101562" xlink:href="#BitstreamVeraSans-Roman-35"/>
     <use x="1917.6640625" xlink:href="#BitstreamVeraSans-Roman-39"/>
    </g>
   </g>
  </g>
 </g>
 <defs>
  <clipPath id="pc884640693">
   <rect height="345.6" width="446.4" x="72.0" y="43.2"/>
  </clipPath>
 </defs>
</svg>
