<?xml version="1.0" encoding="utf-8" standalone="no"?>
<!DOCTYPE svg PUBLIC "-//W3C//DTD SVG 1.1//EN"
  "http://www.w3.org/Graphics/SVG/1.1/DTD/svg11.dtd">
<!-- Created with matplotlib (http://matplotlib.org/) -->
<svg height="720pt" version="1.1" viewBox="0 0 720 720" width="720pt" xmlns="http://www.w3.org/2000/svg" xmlns:xlink="http://www.w3.org/1999/xlink">
 <defs>
  <style type="text/css">
*{stroke-linecap:butt;stroke-linejoin:round;stroke-miterlimit:100000;}
  </style>
 </defs>
 <g id="figure_1">
  <g id="patch_1">
   <path d="M 0 720 
L 720 720 
L 720 0 
L 0 0 
z
" style="fill:#ffffff;"/>
  </g>
  <g id="axes_1">
   <g id="matplotlib.axis_1"/>
   <g id="matplotlib.axis_2">
    <g id="text_1">
     <!-- Result -->
     <defs>
      <path d="M 46.390625 14.59375 
Q 46.390625 10.890625 44.9375 7.984375 
Q 43.5 5.078125 40.765625 3.09375 
Q 38.03125 1.125 34.046875 0.0625 
Q 30.078125 -0.984375 24.953125 -0.984375 
Q 20.359375 -0.984375 16.671875 -0.265625 
Q 12.984375 0.4375 10.203125 2 
Q 7.421875 3.5625 5.53125 6.125 
Q 3.65625 8.6875 2.78125 12.40625 
L 10.546875 13.921875 
Q 11.671875 9.671875 15.1875 7.6875 
Q 18.703125 5.71875 24.953125 5.71875 
Q 27.78125 5.71875 30.140625 6.109375 
Q 32.515625 6.5 34.21875 7.453125 
Q 35.9375 8.40625 36.890625 9.984375 
Q 37.84375 11.578125 37.84375 13.921875 
Q 37.84375 16.3125 36.71875 17.84375 
Q 35.59375 19.390625 33.59375 20.40625 
Q 31.59375 21.4375 28.734375 22.1875 
Q 25.875 22.953125 22.46875 23.875 
Q 19.28125 24.703125 16.15625 25.734375 
Q 13.03125 26.765625 10.515625 28.4375 
Q 8.015625 30.125 6.453125 32.609375 
Q 4.890625 35.109375 4.890625 38.875 
Q 4.890625 46.09375 10.03125 49.875 
Q 15.1875 53.65625 25.046875 53.65625 
Q 33.796875 53.65625 38.9375 50.578125 
Q 44.09375 47.515625 45.453125 40.71875 
L 37.546875 39.75 
Q 37.109375 41.796875 35.9375 43.1875 
Q 34.765625 44.578125 33.109375 45.4375 
Q 31.453125 46.296875 29.375 46.65625 
Q 27.296875 47.015625 25.046875 47.015625 
Q 19.09375 47.015625 16.25 45.203125 
Q 13.421875 43.40625 13.421875 39.75 
Q 13.421875 37.59375 14.46875 36.203125 
Q 15.53125 34.8125 17.40625 33.859375 
Q 19.28125 32.90625 21.921875 32.203125 
Q 24.5625 31.5 27.734375 30.71875 
Q 29.828125 30.171875 32.03125 29.5625 
Q 34.234375 28.953125 36.296875 28.09375 
Q 38.375 27.25 40.203125 26.09375 
Q 42.046875 24.953125 43.40625 23.34375 
Q 44.78125 21.734375 45.578125 19.578125 
Q 46.390625 17.4375 46.390625 14.59375 
" id="LiberationSans-73"/>
      <path d="M 13.484375 24.5625 
Q 13.484375 20.40625 14.328125 16.90625 
Q 15.1875 13.421875 16.96875 10.90625 
Q 18.75 8.40625 21.53125 7 
Q 24.3125 5.609375 28.21875 5.609375 
Q 33.9375 5.609375 37.375 7.90625 
Q 40.828125 10.203125 42.046875 13.71875 
L 49.75 11.53125 
Q 48.921875 9.328125 47.4375 7.109375 
Q 45.953125 4.890625 43.453125 3.09375 
Q 40.96875 1.3125 37.234375 0.15625 
Q 33.5 -0.984375 28.21875 -0.984375 
Q 16.5 -0.984375 10.375 6 
Q 4.25 12.984375 4.25 26.765625 
Q 4.25 34.1875 6.09375 39.328125 
Q 7.953125 44.484375 11.171875 47.703125 
Q 14.40625 50.921875 18.703125 52.359375 
Q 23 53.8125 27.875 53.8125 
Q 34.515625 53.8125 38.984375 51.65625 
Q 43.453125 49.515625 46.15625 45.71875 
Q 48.875 41.9375 50.015625 36.8125 
Q 51.171875 31.6875 51.171875 25.734375 
L 51.171875 24.5625 
z
M 42.09375 31.296875 
Q 41.359375 39.65625 37.84375 43.484375 
Q 34.328125 47.3125 27.734375 47.3125 
Q 25.53125 47.3125 23.109375 46.609375 
Q 20.703125 45.90625 18.65625 44.09375 
Q 16.609375 42.28125 15.1875 39.171875 
Q 13.765625 36.078125 13.578125 31.296875 
z
" id="LiberationSans-65"/>
      <path d="M 15.328125 52.828125 
L 15.328125 19.34375 
Q 15.328125 15.484375 15.890625 12.890625 
Q 16.453125 10.296875 17.71875 8.703125 
Q 19 7.125 21.0625 6.46875 
Q 23.140625 5.8125 26.21875 5.8125 
Q 29.34375 5.8125 31.859375 6.90625 
Q 34.375 8.015625 36.15625 10.078125 
Q 37.9375 12.15625 38.90625 15.203125 
Q 39.890625 18.265625 39.890625 22.21875 
L 39.890625 52.828125 
L 48.6875 52.828125 
L 48.6875 11.28125 
Q 48.6875 9.625 48.703125 7.78125 
Q 48.734375 5.953125 48.78125 4.3125 
Q 48.828125 2.6875 48.875 1.515625 
Q 48.921875 0.34375 48.96875 0 
L 40.671875 0 
Q 40.625 0.25 40.578125 1.3125 
Q 40.53125 2.390625 40.453125 3.78125 
Q 40.375 5.171875 40.328125 6.609375 
Q 40.28125 8.0625 40.28125 9.03125 
L 40.140625 9.03125 
Q 38.875 6.734375 37.359375 4.875 
Q 35.84375 3.03125 33.84375 1.734375 
Q 31.84375 0.4375 29.25 -0.265625 
Q 26.65625 -0.984375 23.25 -0.984375 
Q 18.84375 -0.984375 15.671875 0.09375 
Q 12.5 1.171875 10.453125 3.421875 
Q 8.40625 5.671875 7.453125 9.1875 
Q 6.5 12.703125 6.5 17.625 
L 6.5 52.828125 
z
" id="LiberationSans-75"/>
      <path d="M 27.046875 0.390625 
Q 25.046875 -0.140625 22.96875 -0.453125 
Q 20.90625 -0.78125 18.171875 -0.78125 
Q 7.625 -0.78125 7.625 11.1875 
L 7.625 46.4375 
L 1.515625 46.4375 
L 1.515625 52.828125 
L 7.953125 52.828125 
L 10.546875 64.65625 
L 16.40625 64.65625 
L 16.40625 52.828125 
L 26.171875 52.828125 
L 26.171875 46.4375 
L 16.40625 46.4375 
L 16.40625 13.09375 
Q 16.40625 9.28125 17.640625 7.734375 
Q 18.890625 6.203125 21.96875 6.203125 
Q 23.25 6.203125 24.4375 6.390625 
Q 25.640625 6.59375 27.046875 6.890625 
z
" id="LiberationSans-74"/>
      <path d="M 6.734375 0 
L 6.734375 72.46875 
L 15.53125 72.46875 
L 15.53125 0 
z
" id="LiberationSans-6c"/>
      <path d="M 56.84375 0 
L 38.96875 28.5625 
L 17.53125 28.5625 
L 17.53125 0 
L 8.203125 0 
L 8.203125 68.796875 
L 40.578125 68.796875 
Q 46.4375 68.796875 50.953125 67.453125 
Q 55.46875 66.109375 58.546875 63.5625 
Q 61.625 61.03125 63.234375 57.375 
Q 64.84375 53.71875 64.84375 49.125 
Q 64.84375 45.84375 63.890625 42.671875 
Q 62.9375 39.5 60.890625 36.859375 
Q 58.84375 34.234375 55.65625 32.328125 
Q 52.484375 30.421875 48.046875 29.640625 
L 67.578125 0 
z
M 55.46875 49.03125 
Q 55.46875 52.15625 54.390625 54.4375 
Q 53.328125 56.734375 51.265625 58.265625 
Q 49.21875 59.8125 46.28125 60.5625 
Q 43.359375 61.328125 39.65625 61.328125 
L 17.53125 61.328125 
L 17.53125 35.9375 
L 40.046875 35.9375 
Q 44.046875 35.9375 46.96875 36.9375 
Q 49.90625 37.9375 51.78125 39.6875 
Q 53.65625 41.453125 54.5625 43.84375 
Q 55.46875 46.234375 55.46875 49.03125 
" id="LiberationSans-52"/>
     </defs>
     <g style="fill:#262626;" transform="translate(82.7175 375.5890625)rotate(-90.0)scale(0.11 -0.11)">
      <use xlink:href="#LiberationSans-52"/>
      <use x="72.216796875" xlink:href="#LiberationSans-65"/>
      <use x="127.83203125" xlink:href="#LiberationSans-73"/>
      <use x="177.83203125" xlink:href="#LiberationSans-75"/>
      <use x="233.447265625" xlink:href="#LiberationSans-6c"/>
      <use x="255.6640625" xlink:href="#LiberationSans-74"/>
     </g>
    </g>
   </g>
   <g id="patch_2">
    <path d="M 592.2 360 
C 592.2 354.114541 591.981535 348.231243 591.545087 342.363053 
C 591.108638 336.494863 590.454526 330.64609 589.584191 324.829606 
L 369 360 
L 592.2 360 
z
" style="fill:#a6cee3;stroke:#1a1a1a;stroke-linejoin:miter;stroke-width:0.3;"/>
   </g>
   <g id="patch_3">
    <path d="M 589.584191 324.829606 
C 588.713855 319.013122 587.627935 313.233198 586.328819 307.502553 
C 585.029704 301.771909 583.518347 296.094752 581.798075 290.483577 
L 369 360 
L 589.584191 324.829606 
z
" style="fill:#83b8d7;stroke:#1a1a1a;stroke-linejoin:miter;stroke-width:0.3;"/>
   </g>
   <g id="patch_4">
    <path d="M 581.798075 290.483577 
C 580.077804 284.872401 578.149881 279.331327 576.018548 273.87255 
C 573.887216 268.413772 571.55404 263.041298 569.024154 257.766953 
L 369 360 
L 581.798075 290.483577 
z
" style="fill:#60a1cb;stroke:#1a1a1a;stroke-linejoin:miter;stroke-width:0.3;"/>
   </g>
   <g id="patch_5">
    <path d="M 569.024154 257.766953 
C 566.494268 252.492607 563.769531 247.320262 560.855939 242.2613 
C 557.942346 237.202339 554.842038 232.260475 551.561836 227.446585 
L 369 360 
L 569.024154 257.766953 
z
" style="fill:#3788bc;stroke:#1a1a1a;stroke-linejoin:miter;stroke-width:0.3;"/>
   </g>
   <g id="patch_6">
    <path d="M 551.561836 227.446585 
C 548.281635 222.632695 544.823949 217.950314 541.196389 213.409746 
C 537.568828 208.869178 533.774056 204.473757 529.820424 200.233157 
L 369 360 
L 551.561836 227.446585 
z
" style="fill:#2b80b1;stroke:#1a1a1a;stroke-linejoin:miter;stroke-width:0.3;"/>
   </g>
   <g id="patch_7">
    <path d="M 529.820424 200.233157 
C 525.866792 195.992556 521.757203 191.90989 517.500702 187.994143 
C 513.2442 184.078395 508.84391 180.332442 504.309518 176.764527 
L 369 360 
L 529.820424 200.233157 
z
" style="fill:#579fa4;stroke:#1a1a1a;stroke-linejoin:miter;stroke-width:0.3;"/>
   </g>
   <g id="patch_8">
    <path d="M 504.309518 176.764527 
C 499.775125 173.196612 495.109958 169.809355 490.324284 166.61021 
C 485.53861 163.411066 480.635942 160.402382 475.627071 157.590782 
L 369 360 
L 504.309518 176.764527 
z
" style="fill:#7dba99;stroke:#1a1a1a;stroke-linejoin:miter;stroke-width:0.3;"/>
   </g>
   <g id="patch_9">
    <path d="M 475.627071 157.590782 
C 470.6182 154.779181 465.506803 152.166728 460.304129 149.759171 
C 455.101454 147.351614 449.811323 145.150721 444.445377 143.161337 
L 369 360 
L 475.627071 157.590782 
z
" style="fill:#a3d48e;stroke:#1a1a1a;stroke-linejoin:miter;stroke-width:0.3;"/>
   </g>
   <g id="patch_10">
    <path d="M 444.445377 143.161337 
C 439.079431 141.171952 433.64161 139.395536 428.143882 137.835998 
C 422.646154 136.27646 417.092554 134.934945 411.495307 133.814405 
L 369 360 
L 444.445377 143.161337 
z
" style="fill:#99d277;stroke:#1a1a1a;stroke-linejoin:miter;stroke-width:0.3;"/>
   </g>
   <g id="patch_11">
    <path d="M 411.495307 133.814405 
C 405.898059 132.693866 400.261273 131.795125 394.597353 131.12016 
C 388.933433 130.445195 383.246537 129.994502 377.549183 129.769072 
L 369 360 
L 411.495307 133.814405 
z
" style="fill:#78c25f;stroke:#1a1a1a;stroke-linejoin:miter;stroke-width:0.3;"/>
   </g>
   <g id="patch_12">
    <path d="M 377.549183 129.769072 
C 371.851828 129.543643 366.148198 129.543643 360.450843 129.769071 
C 354.753489 129.9945 349.066593 130.445193 343.402673 131.120157 
L 369 360 
L 377.549183 129.769072 
z
" style="fill:#51af42;stroke:#1a1a1a;stroke-linejoin:miter;stroke-width:0.3;"/>
   </g>
   <g id="patch_13">
    <path d="M 343.402673 131.120157 
C 337.738753 131.795121 332.101966 132.693862 326.504719 133.8144 
C 320.907471 134.934939 315.353872 136.276453 309.856143 137.83599 
L 369 360 
L 343.402673 131.120157 
z
" style="fill:#37a02e;stroke:#1a1a1a;stroke-linejoin:miter;stroke-width:0.3;"/>
   </g>
   <g id="patch_14">
    <path d="M 309.856143 137.83599 
C 304.358415 139.395528 298.920594 141.171943 293.554648 143.161327 
C 288.188702 145.150711 282.89857 147.351604 277.695895 149.75916 
L 369 360 
L 309.856143 137.83599 
z
" style="fill:#6b9e4a;stroke:#1a1a1a;stroke-linejoin:miter;stroke-width:0.3;"/>
   </g>
   <g id="patch_15">
    <path d="M 277.695895 149.75916 
C 272.493221 152.166716 267.381823 154.779169 262.372952 157.590769 
C 257.36408 160.402369 252.461412 163.411052 247.675738 166.610196 
L 369 360 
L 277.695895 149.75916 
z
" style="fill:#a79d6b;stroke:#1a1a1a;stroke-linejoin:miter;stroke-width:0.3;"/>
   </g>
   <g id="patch_16">
    <path d="M 247.675738 166.610196 
C 242.890063 169.80934 238.224896 173.196597 233.690503 176.764511 
C 229.15611 180.332425 224.75582 184.078378 220.499318 187.994125 
L 369 360 
L 247.675738 166.610196 
z
" style="fill:#db9b87;stroke:#1a1a1a;stroke-linejoin:miter;stroke-width:0.3;"/>
   </g>
   <g id="patch_17">
    <path d="M 220.499318 187.994125 
C 216.242816 191.909871 212.133226 195.992537 208.179594 200.233137 
C 204.225962 204.473737 200.431189 208.869158 196.803628 213.409725 
L 369 360 
L 220.499318 187.994125 
z
" style="fill:#f88887;stroke:#1a1a1a;stroke-linejoin:miter;stroke-width:0.3;"/>
   </g>
   <g id="patch_18">
    <path d="M 196.803628 213.409725 
C 193.176067 217.950293 189.718381 222.632674 186.438179 227.446563 
C 183.157977 232.260452 180.057668 237.202316 177.144075 242.261277 
L 369 360 
L 196.803628 213.409725 
z
" style="fill:#f16767;stroke:#1a1a1a;stroke-linejoin:miter;stroke-width:0.3;"/>
   </g>
   <g id="patch_19">
    <path d="M 177.144075 242.261277 
C 174.230482 247.320238 171.505744 252.492583 168.975858 257.766929 
C 166.445971 263.041274 164.112794 268.413747 161.981461 273.872525 
L 369 360 
L 177.144075 242.261277 
z
" style="fill:#eb4647;stroke:#1a1a1a;stroke-linejoin:miter;stroke-width:0.3;"/>
   </g>
   <g id="patch_20">
    <path d="M 161.981461 273.872525 
C 159.850129 279.331302 157.922205 284.872376 156.201932 290.483551 
C 154.48166 296.094726 152.970303 301.771883 151.671187 307.502527 
L 369 360 
L 161.981461 273.872525 
z
" style="fill:#e41f21;stroke:#1a1a1a;stroke-linejoin:miter;stroke-width:0.3;"/>
   </g>
   <g id="patch_21">
    <path d="M 151.671187 307.502527 
C 150.372071 313.233171 149.28615 319.013096 148.415813 324.82958 
C 147.545477 330.646063 146.891364 336.494836 146.454915 342.363026 
L 369 360 
L 151.671187 307.502527 
z
" style="fill:#e93e2e;stroke:#1a1a1a;stroke-linejoin:miter;stroke-width:0.3;"/>
   </g>
   <g id="patch_22">
    <path d="M 146.454915 342.363026 
C 146.018466 348.231216 145.800001 354.114514 145.8 359.999973 
C 145.799999 365.885432 146.018463 371.76873 146.454911 377.63692 
L 369 360 
L 146.454915 342.363026 
z
" style="fill:#f17047;stroke:#1a1a1a;stroke-linejoin:miter;stroke-width:0.3;"/>
   </g>
   <g id="patch_23">
    <path d="M 146.454911 377.63692 
C 146.891359 383.50511 147.54547 389.353883 148.415805 395.170367 
C 149.28614 400.986851 150.37206 406.766776 151.671175 412.49742 
L 369 360 
L 146.454911 377.63692 
z
" style="fill:#f79b5d;stroke:#1a1a1a;stroke-linejoin:miter;stroke-width:0.3;"/>
   </g>
   <g id="patch_24">
    <path d="M 151.671175 412.49742 
C 152.97029 418.228065 154.481646 423.905222 156.201917 429.516398 
C 157.922187 435.127573 159.85011 440.668647 161.981442 446.127425 
L 369 360 
L 151.671175 412.49742 
z
" style="fill:#fdbc6b;stroke:#1a1a1a;stroke-linejoin:miter;stroke-width:0.3;"/>
   </g>
   <g id="patch_25">
    <path d="M 161.981442 446.127425 
C 164.112774 451.586203 166.445949 456.958677 168.975834 462.233023 
C 171.505719 467.507369 174.230456 472.679715 177.144048 477.738677 
L 369 360 
L 161.981442 446.127425 
z
" style="fill:#fea949;stroke:#1a1a1a;stroke-linejoin:miter;stroke-width:0.3;"/>
   </g>
   <g id="patch_26">
    <path d="M 177.144048 477.738677 
C 180.05764 482.797639 183.157948 487.739503 186.438149 492.553393 
C 189.718349 497.367283 193.176035 502.049665 196.803595 506.590233 
L 369 360 
L 177.144048 477.738677 
z
" style="fill:#fe992c;stroke:#1a1a1a;stroke-linejoin:miter;stroke-width:0.3;"/>
   </g>
   <g id="patch_27">
    <path d="M 196.803595 506.590233 
C 200.431155 511.130802 204.225926 515.526223 208.179558 519.766824 
C 212.133189 524.007425 216.242778 528.090092 220.499279 532.00584 
L 369 360 
L 196.803595 506.590233 
z
" style="fill:#ff850b;stroke:#1a1a1a;stroke-linejoin:miter;stroke-width:0.3;"/>
   </g>
   <g id="patch_28">
    <path d="M 220.499279 532.00584 
C 224.75578 535.921587 229.156069 539.667541 233.690461 543.235456 
C 238.224854 546.803372 242.89002 550.19063 247.675694 553.389775 
L 369 360 
L 220.499279 532.00584 
z
" style="fill:#f68722;stroke:#1a1a1a;stroke-linejoin:miter;stroke-width:0.3;"/>
   </g>
   <g id="patch_29">
    <path d="M 247.675694 553.389775 
C 252.461368 556.58892 257.364035 559.597604 262.372906 562.409205 
C 267.381777 565.220807 272.493174 567.833261 277.695848 570.240818 
L 369 360 
L 247.675694 553.389775 
z
" style="fill:#e9945a;stroke:#1a1a1a;stroke-linejoin:miter;stroke-width:0.3;"/>
   </g>
   <g id="patch_30">
    <path d="M 277.695848 570.240818 
C 282.898522 572.648376 288.188653 574.849269 293.554599 576.838654 
C 298.920544 578.82804 304.358365 580.604457 309.856093 582.163995 
L 369 360 
L 277.695848 570.240818 
z
" style="fill:#d9a49a;stroke:#1a1a1a;stroke-linejoin:miter;stroke-width:0.3;"/>
   </g>
   <g id="patch_31">
    <path d="M 309.856093 582.163995 
C 315.353821 583.723534 320.90742 585.06505 326.504668 586.18559 
C 332.101915 587.30613 337.738702 588.204871 343.402621 588.879837 
L 369 360 
L 309.856093 582.163995 
z
" style="fill:#cbb1d2;stroke:#1a1a1a;stroke-linejoin:miter;stroke-width:0.3;"/>
   </g>
   <g id="patch_32">
    <path d="M 343.402621 588.879837 
C 349.066541 589.554803 354.753437 590.005496 360.450791 590.230927 
C 366.148145 590.456357 371.851776 590.456358 377.549131 590.23093 
L 369 360 
L 343.402621 588.879837 
z
" style="fill:#af91c5;stroke:#1a1a1a;stroke-linejoin:miter;stroke-width:0.3;"/>
   </g>
   <g id="patch_33">
    <path d="M 377.549131 590.23093 
C 383.246485 590.005502 388.93338 589.55481 394.597301 588.879846 
C 400.261221 588.204883 405.898008 587.306143 411.495256 586.185605 
L 369 360 
L 377.549131 590.23093 
z
" style="fill:#9673b6;stroke:#1a1a1a;stroke-linejoin:miter;stroke-width:0.3;"/>
   </g>
   <g id="patch_34">
    <path d="M 411.495256 586.185605 
C 417.092503 585.065067 422.646103 583.723553 428.143831 582.164017 
C 433.64156 580.60448 439.079381 578.828065 444.445328 576.838682 
L 369 360 
L 411.495256 586.185605 
z
" style="fill:#7d54a6;stroke:#1a1a1a;stroke-linejoin:miter;stroke-width:0.3;"/>
   </g>
   <g id="patch_35">
    <path d="M 444.445328 576.838682 
C 449.811274 574.849298 455.101406 572.648407 460.304081 570.240851 
C 465.506756 567.833296 470.618154 565.220843 475.627025 562.409244 
L 369 360 
L 444.445328 576.838682 
z
" style="fill:#79519a;stroke:#1a1a1a;stroke-linejoin:miter;stroke-width:0.3;"/>
   </g>
   <g id="patch_36">
    <path d="M 475.627025 562.409244 
C 480.635897 559.597645 485.538566 556.588962 490.32424 553.389819 
C 495.109915 550.190675 499.775083 546.803419 504.309476 543.235505 
L 369 360 
L 475.627025 562.409244 
z
" style="fill:#a0839a;stroke:#1a1a1a;stroke-linejoin:miter;stroke-width:0.3;"/>
   </g>
   <g id="patch_37">
    <path d="M 504.309476 543.235505 
C 508.84387 539.667592 513.24416 535.92164 517.500663 532.005893 
C 521.757165 528.090147 525.866755 524.007482 529.820388 519.766882 
L 369 360 
L 504.309476 543.235505 
z
" style="fill:#cdbe99;stroke:#1a1a1a;stroke-linejoin:miter;stroke-width:0.3;"/>
   </g>
   <g id="patch_38">
    <path d="M 529.820388 519.766882 
C 533.774021 515.526283 537.568794 511.130863 541.196355 506.590296 
C 544.823917 502.049729 548.281604 497.367348 551.561806 492.553459 
L 369 360 
L 529.820388 519.766882 
z
" style="fill:#f3f099;stroke:#1a1a1a;stroke-linejoin:miter;stroke-width:0.3;"/>
   </g>
   <g id="patch_39">
    <path d="M 551.561806 492.553459 
C 554.842009 487.73957 557.942318 482.797707 560.855912 477.738746 
C 563.769505 472.679785 566.494244 467.50744 569.024131 462.233095 
L 369 360 
L 551.561806 492.553459 
z
" style="fill:#f1e185;stroke:#1a1a1a;stroke-linejoin:miter;stroke-width:0.3;"/>
   </g>
   <g id="patch_40">
    <path d="M 569.024131 462.233095 
C 571.554018 456.95875 573.887195 451.586277 576.018529 446.1275 
C 578.149862 440.668723 580.077787 435.12765 581.79806 429.516475 
L 369 360 
L 569.024131 462.233095 
z
" style="fill:#d9af62;stroke:#1a1a1a;stroke-linejoin:miter;stroke-width:0.3;"/>
   </g>
   <g id="patch_41">
    <path d="M 581.79806 429.516475 
C 583.518332 423.9053 585.02969 418.228143 586.328807 412.497499 
C 587.627924 406.766855 588.713846 400.986931 589.584183 395.170447 
L 369 360 
L 581.79806 429.516475 
z
" style="fill:#c58445;stroke:#1a1a1a;stroke-linejoin:miter;stroke-width:0.3;"/>
   </g>
   <g id="patch_42">
    <path d="M 589.584183 395.170447 
C 590.45452 389.353963 591.108633 383.505191 591.545083 377.637001 
C 591.981533 371.768811 592.199999 365.885513 592.2 360.000054 
L 369 360 
L 589.584183 395.170447 
z
" style="fill:#b15928;stroke:#1a1a1a;stroke-linejoin:miter;stroke-width:0.3;"/>
   </g>
   <g id="text_2">
    <!-- 0.00164041668722 -->
    <defs>
     <path d="M 9.125 0 
L 9.125 10.6875 
L 18.65625 10.6875 
L 18.65625 0 
z
" id="LiberationSans-2e"/>
     <path d="M 50.59375 61.671875 
Q 45.40625 53.765625 41.0625 46.453125 
Q 36.71875 39.15625 33.59375 31.75 
Q 30.46875 24.359375 28.734375 16.578125 
Q 27 8.796875 27 0 
L 17.828125 0 
Q 17.828125 8.25 19.78125 16.1875 
Q 21.734375 24.125 25.046875 31.765625 
Q 28.375 39.40625 32.765625 46.78125 
Q 37.15625 54.15625 42.09375 61.328125 
L 5.125 61.328125 
L 5.125 68.796875 
L 50.59375 68.796875 
z
" id="LiberationSans-37"/>
     <path d="M 51.21875 22.515625 
Q 51.21875 17.328125 49.78125 13 
Q 48.34375 8.6875 45.53125 5.578125 
Q 42.71875 2.484375 38.5625 0.75 
Q 34.421875 -0.984375 29 -0.984375 
Q 23 -0.984375 18.5 1.3125 
Q 14.015625 3.609375 11.03125 7.921875 
Q 8.0625 12.25 6.5625 18.53125 
Q 5.078125 24.8125 5.078125 32.8125 
Q 5.078125 42 6.765625 48.921875 
Q 8.453125 55.859375 11.625 60.5 
Q 14.796875 65.140625 19.359375 67.484375 
Q 23.921875 69.828125 29.6875 69.828125 
Q 33.203125 69.828125 36.28125 69.09375 
Q 39.359375 68.359375 41.875 66.71875 
Q 44.390625 65.09375 46.28125 62.40625 
Q 48.1875 59.71875 49.3125 55.8125 
L 40.921875 54.296875 
Q 39.546875 58.734375 36.546875 60.71875 
Q 33.546875 62.703125 29.59375 62.703125 
Q 25.984375 62.703125 23.046875 60.984375 
Q 20.125 59.28125 18.0625 55.875 
Q 16.015625 52.484375 14.90625 47.359375 
Q 13.8125 42.234375 13.8125 35.40625 
Q 16.21875 39.84375 20.5625 42.15625 
Q 24.90625 44.484375 30.515625 44.484375 
Q 35.203125 44.484375 39.015625 42.96875 
Q 42.828125 41.453125 45.53125 38.59375 
Q 48.25 35.75 49.734375 31.671875 
Q 51.21875 27.59375 51.21875 22.515625 
M 42.28125 22.125 
Q 42.28125 25.6875 41.40625 28.5625 
Q 40.53125 31.453125 38.765625 33.46875 
Q 37.015625 35.5 34.421875 36.59375 
Q 31.84375 37.703125 28.421875 37.703125 
Q 26.03125 37.703125 23.578125 36.984375 
Q 21.140625 36.28125 19.15625 34.6875 
Q 17.1875 33.109375 15.9375 30.515625 
Q 14.703125 27.9375 14.703125 24.21875 
Q 14.703125 20.40625 15.671875 17.109375 
Q 16.65625 13.8125 18.484375 11.375 
Q 20.3125 8.9375 22.890625 7.515625 
Q 25.484375 6.109375 28.71875 6.109375 
Q 31.890625 6.109375 34.40625 7.203125 
Q 36.921875 8.296875 38.671875 10.375 
Q 40.4375 12.453125 41.359375 15.421875 
Q 42.28125 18.40625 42.28125 22.125 
" id="LiberationSans-36"/>
     <path d="M 43.015625 15.578125 
L 43.015625 0 
L 34.71875 0 
L 34.71875 15.578125 
L 2.296875 15.578125 
L 2.296875 22.40625 
L 33.796875 68.796875 
L 43.015625 68.796875 
L 43.015625 22.515625 
L 52.6875 22.515625 
L 52.6875 15.578125 
z
M 34.71875 58.890625 
Q 34.625 58.640625 34.234375 57.9375 
Q 33.84375 57.234375 33.34375 56.34375 
Q 32.859375 55.46875 32.34375 54.5625 
Q 31.84375 53.65625 31.453125 53.078125 
L 13.8125 27.09375 
Q 13.578125 26.703125 13.109375 26.0625 
Q 12.640625 25.4375 12.15625 24.78125 
Q 11.671875 24.125 11.171875 23.484375 
Q 10.6875 22.859375 10.40625 22.515625 
L 34.71875 22.515625 
z
" id="LiberationSans-34"/>
     <path d="M 5.03125 0 
L 5.03125 6.203125 
Q 7.515625 11.921875 11.109375 16.28125 
Q 14.703125 20.65625 18.65625 24.1875 
Q 22.609375 27.734375 26.484375 30.765625 
Q 30.375 33.796875 33.5 36.8125 
Q 36.625 39.84375 38.546875 43.15625 
Q 40.484375 46.484375 40.484375 50.6875 
Q 40.484375 53.609375 39.59375 55.828125 
Q 38.71875 58.0625 37.0625 59.5625 
Q 35.40625 61.078125 33.078125 61.828125 
Q 30.765625 62.59375 27.9375 62.59375 
Q 25.296875 62.59375 22.96875 61.859375 
Q 20.65625 61.140625 18.84375 59.671875 
Q 17.046875 58.203125 15.890625 56.03125 
Q 14.75 53.859375 14.40625 50.984375 
L 5.421875 51.8125 
Q 5.859375 55.515625 7.46875 58.78125 
Q 9.078125 62.0625 11.90625 64.53125 
Q 14.75 67 18.71875 68.40625 
Q 22.703125 69.828125 27.9375 69.828125 
Q 33.0625 69.828125 37.0625 68.609375 
Q 41.0625 67.390625 43.8125 64.984375 
Q 46.578125 62.59375 48.046875 59.078125 
Q 49.515625 55.5625 49.515625 50.984375 
Q 49.515625 47.515625 48.265625 44.390625 
Q 47.015625 41.265625 44.9375 38.421875 
Q 42.875 35.59375 40.140625 32.953125 
Q 37.40625 30.328125 34.421875 27.8125 
Q 31.453125 25.296875 28.421875 22.828125 
Q 25.390625 20.359375 22.71875 17.859375 
Q 20.0625 15.375 17.96875 12.8125 
Q 15.875 10.25 14.703125 7.46875 
L 50.59375 7.46875 
L 50.59375 0 
z
" id="LiberationSans-32"/>
     <path d="M 7.625 0 
L 7.625 7.46875 
L 25.140625 7.46875 
L 25.140625 60.40625 
L 9.625 49.3125 
L 9.625 57.625 
L 25.875 68.796875 
L 33.984375 68.796875 
L 33.984375 7.46875 
L 50.734375 7.46875 
L 50.734375 0 
z
" id="LiberationSans-31"/>
     <path d="M 51.703125 34.421875 
Q 51.703125 24.515625 49.828125 17.75 
Q 47.953125 10.984375 44.703125 6.8125 
Q 41.453125 2.640625 37.0625 0.828125 
Q 32.671875 -0.984375 27.6875 -0.984375 
Q 22.65625 -0.984375 18.3125 0.828125 
Q 13.96875 2.640625 10.765625 6.78125 
Q 7.5625 10.9375 5.734375 17.703125 
Q 3.90625 24.46875 3.90625 34.421875 
Q 3.90625 44.828125 5.734375 51.640625 
Q 7.5625 58.453125 10.78125 62.5 
Q 14.015625 66.546875 18.40625 68.1875 
Q 22.796875 69.828125 27.984375 69.828125 
Q 32.90625 69.828125 37.21875 68.1875 
Q 41.546875 66.546875 44.765625 62.5 
Q 48 58.453125 49.84375 51.640625 
Q 51.703125 44.828125 51.703125 34.421875 
M 42.78125 34.421875 
Q 42.78125 42.625 41.796875 48.0625 
Q 40.828125 53.515625 38.921875 56.765625 
Q 37.015625 60.015625 34.25 61.359375 
Q 31.5 62.703125 27.984375 62.703125 
Q 24.265625 62.703125 21.4375 61.328125 
Q 18.609375 59.96875 16.671875 56.71875 
Q 14.75 53.46875 13.765625 48.015625 
Q 12.796875 42.578125 12.796875 34.421875 
Q 12.796875 26.515625 13.796875 21.09375 
Q 14.796875 15.671875 16.71875 12.375 
Q 18.65625 9.078125 21.4375 7.640625 
Q 24.21875 6.203125 27.78125 6.203125 
Q 31.25 6.203125 34.03125 7.640625 
Q 36.8125 9.078125 38.734375 12.375 
Q 40.671875 15.671875 41.71875 21.09375 
Q 42.78125 26.515625 42.78125 34.421875 
" id="LiberationSans-30"/>
     <path d="M 51.265625 19.1875 
Q 51.265625 14.796875 49.875 11.109375 
Q 48.484375 7.421875 45.625 4.734375 
Q 42.78125 2.046875 38.328125 0.53125 
Q 33.890625 -0.984375 27.828125 -0.984375 
Q 21.78125 -0.984375 17.359375 0.53125 
Q 12.9375 2.046875 10.03125 4.703125 
Q 7.125 7.375 5.734375 11.0625 
Q 4.34375 14.75 4.34375 19.09375 
Q 4.34375 22.859375 5.484375 25.78125 
Q 6.640625 28.71875 8.5625 30.828125 
Q 10.5 32.953125 12.96875 34.25 
Q 15.4375 35.546875 18.0625 35.984375 
L 18.0625 36.1875 
Q 15.1875 36.859375 12.90625 38.375 
Q 10.640625 39.890625 9.09375 42.015625 
Q 7.5625 44.140625 6.75 46.71875 
Q 5.953125 49.3125 5.953125 52.203125 
Q 5.953125 55.8125 7.34375 59 
Q 8.734375 62.203125 11.46875 64.625 
Q 14.203125 67.046875 18.25 68.4375 
Q 22.3125 69.828125 27.640625 69.828125 
Q 33.25 69.828125 37.375 68.40625 
Q 41.5 67 44.203125 64.578125 
Q 46.921875 62.15625 48.234375 58.9375 
Q 49.5625 55.71875 49.5625 52.09375 
Q 49.5625 49.265625 48.75 46.671875 
Q 47.953125 44.09375 46.40625 41.96875 
Q 44.875 39.84375 42.59375 38.34375 
Q 40.328125 36.859375 37.359375 36.28125 
L 37.359375 36.078125 
Q 40.328125 35.59375 42.859375 34.296875 
Q 45.40625 33.015625 47.265625 30.890625 
Q 49.125 28.765625 50.1875 25.828125 
Q 51.265625 22.90625 51.265625 19.1875 
M 40.4375 51.609375 
Q 40.4375 54.203125 39.765625 56.34375 
Q 39.109375 58.5 37.59375 60.03125 
Q 36.078125 61.578125 33.640625 62.421875 
Q 31.203125 63.28125 27.640625 63.28125 
Q 24.171875 63.28125 21.78125 62.421875 
Q 19.390625 61.578125 17.84375 60.03125 
Q 16.3125 58.5 15.625 56.34375 
Q 14.9375 54.203125 14.9375 51.609375 
Q 14.9375 49.5625 15.46875 47.40625 
Q 16.015625 45.265625 17.421875 43.5 
Q 18.84375 41.75 21.328125 40.625 
Q 23.828125 39.5 27.734375 39.5 
Q 31.890625 39.5 34.40625 40.625 
Q 36.921875 41.75 38.25 43.5 
Q 39.59375 45.265625 40.015625 47.40625 
Q 40.4375 49.5625 40.4375 51.609375 
M 42.140625 20.015625 
Q 42.140625 22.515625 41.453125 24.828125 
Q 40.765625 27.15625 39.109375 28.9375 
Q 37.453125 30.71875 34.640625 31.8125 
Q 31.84375 32.90625 27.640625 32.90625 
Q 23.78125 32.90625 21.0625 31.8125 
Q 18.359375 30.71875 16.671875 28.90625 
Q 14.984375 27.09375 14.203125 24.71875 
Q 13.421875 22.359375 13.421875 19.828125 
Q 13.421875 16.65625 14.203125 14.03125 
Q 14.984375 11.421875 16.6875 9.546875 
Q 18.40625 7.671875 21.1875 6.640625 
Q 23.96875 5.609375 27.9375 5.609375 
Q 31.9375 5.609375 34.671875 6.640625 
Q 37.40625 7.671875 39.0625 9.546875 
Q 40.71875 11.421875 41.421875 14.078125 
Q 42.140625 16.75 42.140625 20.015625 
" id="LiberationSans-38"/>
    </defs>
    <g style="fill:#262626;" transform="translate(613.79959556 343.185295582)scale(0.1 -0.1)">
     <use xlink:href="#LiberationSans-30"/>
     <use x="55.615234375" xlink:href="#LiberationSans-2e"/>
     <use x="83.3984375" xlink:href="#LiberationSans-30"/>
     <use x="139.013671875" xlink:href="#LiberationSans-30"/>
     <use x="194.62890625" xlink:href="#LiberationSans-31"/>
     <use x="250.244140625" xlink:href="#LiberationSans-36"/>
     <use x="305.859375" xlink:href="#LiberationSans-34"/>
     <use x="361.474609375" xlink:href="#LiberationSans-30"/>
     <use x="417.08984375" xlink:href="#LiberationSans-34"/>
     <use x="472.705078125" xlink:href="#LiberationSans-31"/>
     <use x="528.3203125" xlink:href="#LiberationSans-36"/>
     <use x="583.935546875" xlink:href="#LiberationSans-36"/>
     <use x="639.55078125" xlink:href="#LiberationSans-38"/>
     <use x="695.166015625" xlink:href="#LiberationSans-37"/>
     <use x="750.78125" xlink:href="#LiberationSans-32"/>
     <use x="806.396484375" xlink:href="#LiberationSans-32"/>
    </g>
   </g>
   <g id="text_3">
    <!-- 0.00826801127832 -->
    <defs>
     <path d="M 51.21875 19 
Q 51.21875 14.265625 49.671875 10.546875 
Q 48.140625 6.84375 45.1875 4.265625 
Q 42.234375 1.703125 37.859375 0.359375 
Q 33.5 -0.984375 27.875 -0.984375 
Q 21.484375 -0.984375 17.109375 0.609375 
Q 12.75 2.203125 9.90625 4.8125 
Q 7.078125 7.421875 5.65625 10.765625 
Q 4.25 14.109375 3.8125 17.671875 
L 12.890625 18.5 
Q 13.28125 15.765625 14.328125 13.515625 
Q 15.375 11.28125 17.1875 9.671875 
Q 19 8.0625 21.625 7.171875 
Q 24.265625 6.296875 27.875 6.296875 
Q 34.515625 6.296875 38.296875 9.5625 
Q 42.09375 12.84375 42.09375 19.28125 
Q 42.09375 23.09375 40.40625 25.40625 
Q 38.71875 27.734375 36.203125 29.03125 
Q 33.6875 30.328125 30.734375 30.765625 
Q 27.78125 31.203125 25.296875 31.203125 
L 20.3125 31.203125 
L 20.3125 38.8125 
L 25.09375 38.8125 
Q 27.59375 38.8125 30.265625 39.328125 
Q 32.953125 39.84375 35.171875 41.1875 
Q 37.40625 42.53125 38.84375 44.828125 
Q 40.28125 47.125 40.28125 50.6875 
Q 40.28125 56.203125 37.03125 59.390625 
Q 33.796875 62.59375 27.390625 62.59375 
Q 21.578125 62.59375 17.984375 59.609375 
Q 14.40625 56.640625 13.8125 51.21875 
L 4.984375 51.90625 
Q 5.515625 56.453125 7.46875 59.8125 
Q 9.421875 63.1875 12.421875 65.40625 
Q 15.4375 67.625 19.28125 68.71875 
Q 23.140625 69.828125 27.484375 69.828125 
Q 33.25 69.828125 37.390625 68.375 
Q 41.546875 66.9375 44.1875 64.46875 
Q 46.828125 62.015625 48.0625 58.6875 
Q 49.3125 55.375 49.3125 51.609375 
Q 49.3125 48.578125 48.484375 45.9375 
Q 47.65625 43.3125 45.890625 41.203125 
Q 44.140625 39.109375 41.421875 37.59375 
Q 38.71875 36.078125 34.90625 35.296875 
L 34.90625 35.109375 
Q 39.0625 34.671875 42.140625 33.21875 
Q 45.21875 31.78125 47.21875 29.625 
Q 49.21875 27.484375 50.21875 24.75 
Q 51.21875 22.015625 51.21875 19 
" id="LiberationSans-33"/>
    </defs>
    <g style="fill:#262626;" transform="translate(608.06170095 304.838746317)scale(0.1 -0.1)">
     <use xlink:href="#LiberationSans-30"/>
     <use x="55.615234375" xlink:href="#LiberationSans-2e"/>
     <use x="83.3984375" xlink:href="#LiberationSans-30"/>
     <use x="139.013671875" xlink:href="#LiberationSans-30"/>
     <use x="194.62890625" xlink:href="#LiberationSans-38"/>
     <use x="250.244140625" xlink:href="#LiberationSans-32"/>
     <use x="305.859375" xlink:href="#LiberationSans-36"/>
     <use x="361.474609375" xlink:href="#LiberationSans-38"/>
     <use x="417.08984375" xlink:href="#LiberationSans-30"/>
     <use x="472.705078125" xlink:href="#LiberationSans-31"/>
     <use x="528.3203125" xlink:href="#LiberationSans-31"/>
     <use x="583.935546875" xlink:href="#LiberationSans-32"/>
     <use x="639.55078125" xlink:href="#LiberationSans-37"/>
     <use x="695.166015625" xlink:href="#LiberationSans-38"/>
     <use x="750.78125" xlink:href="#LiberationSans-33"/>
     <use x="806.396484375" xlink:href="#LiberationSans-32"/>
    </g>
   </g>
   <g id="text_4">
    <!-- 0.0049910955432 -->
    <defs>
     <path d="M 51.421875 22.40625 
Q 51.421875 17.234375 49.859375 12.9375 
Q 48.296875 8.640625 45.21875 5.53125 
Q 42.140625 2.4375 37.578125 0.71875 
Q 33.015625 -0.984375 27 -0.984375 
Q 21.578125 -0.984375 17.546875 0.28125 
Q 13.53125 1.5625 10.734375 3.78125 
Q 7.953125 6 6.3125 8.984375 
Q 4.6875 11.96875 4 15.375 
L 12.890625 16.40625 
Q 13.421875 14.453125 14.390625 12.625 
Q 15.375 10.796875 17.0625 9.34375 
Q 18.75 7.90625 21.21875 7.046875 
Q 23.6875 6.203125 27.203125 6.203125 
Q 30.609375 6.203125 33.390625 7.25 
Q 36.1875 8.296875 38.15625 10.34375 
Q 40.140625 12.40625 41.203125 15.375 
Q 42.28125 18.359375 42.28125 22.21875 
Q 42.28125 25.390625 41.25 28.046875 
Q 40.234375 30.71875 38.328125 32.640625 
Q 36.421875 34.578125 33.65625 35.640625 
Q 30.90625 36.71875 27.390625 36.71875 
Q 25.203125 36.71875 23.34375 36.328125 
Q 21.484375 35.9375 19.890625 35.25 
Q 18.3125 34.578125 17.015625 33.671875 
Q 15.71875 32.765625 14.59375 31.78125 
L 6 31.78125 
L 8.296875 68.796875 
L 47.40625 68.796875 
L 47.40625 61.328125 
L 16.3125 61.328125 
L 14.984375 39.5 
Q 17.328125 41.3125 20.84375 42.59375 
Q 24.359375 43.890625 29.203125 43.890625 
Q 34.328125 43.890625 38.421875 42.328125 
Q 42.53125 40.765625 45.40625 37.90625 
Q 48.296875 35.0625 49.859375 31.109375 
Q 51.421875 27.15625 51.421875 22.40625 
" id="LiberationSans-35"/>
     <path d="M 50.875 35.796875 
Q 50.875 26.609375 49.140625 19.703125 
Q 47.40625 12.796875 44.1875 8.203125 
Q 40.96875 3.609375 36.34375 1.3125 
Q 31.734375 -0.984375 25.984375 -0.984375 
Q 22.015625 -0.984375 18.84375 -0.171875 
Q 15.671875 0.640625 13.171875 2.34375 
Q 10.6875 4.046875 8.921875 6.78125 
Q 7.171875 9.515625 6.109375 13.375 
L 14.5 14.703125 
Q 15.875 10.25 18.78125 8.171875 
Q 21.6875 6.109375 26.125 6.109375 
Q 29.6875 6.109375 32.640625 7.78125 
Q 35.59375 9.46875 37.671875 12.84375 
Q 39.75 16.21875 40.921875 21.296875 
Q 42.09375 26.375 42.1875 33.203125 
Q 41.15625 30.90625 39.375 29.09375 
Q 37.59375 27.296875 35.328125 26.046875 
Q 33.0625 24.8125 30.421875 24.140625 
Q 27.78125 23.484375 25.09375 23.484375 
Q 20.40625 23.484375 16.625 25.171875 
Q 12.84375 26.859375 10.203125 29.875 
Q 7.5625 32.90625 6.125 37.171875 
Q 4.6875 41.453125 4.6875 46.6875 
Q 4.6875 52 6.21875 56.296875 
Q 7.765625 60.59375 10.6875 63.59375 
Q 13.625 66.609375 17.890625 68.21875 
Q 22.171875 69.828125 27.59375 69.828125 
Q 39.0625 69.828125 44.96875 61.328125 
Q 50.875 52.828125 50.875 35.796875 
M 41.3125 44.28125 
Q 41.3125 48.09375 40.40625 51.453125 
Q 39.5 54.828125 37.71875 57.3125 
Q 35.9375 59.8125 33.328125 61.25 
Q 30.71875 62.703125 27.296875 62.703125 
Q 24.125 62.703125 21.578125 61.578125 
Q 19.046875 60.453125 17.28125 58.375 
Q 15.53125 56.296875 14.578125 53.3125 
Q 13.625 50.34375 13.625 46.6875 
Q 13.625 43.21875 14.46875 40.234375 
Q 15.328125 37.25 17.03125 35.078125 
Q 18.75 32.90625 21.28125 31.65625 
Q 23.828125 30.421875 27.203125 30.421875 
Q 29.640625 30.421875 32.15625 31.25 
Q 34.671875 32.078125 36.6875 33.78125 
Q 38.71875 35.5 40.015625 38.109375 
Q 41.3125 40.71875 41.3125 44.28125 
" id="LiberationSans-39"/>
    </defs>
    <g style="fill:#262626;" transform="translate(596.720403104 267.845742168)scale(0.1 -0.1)">
     <use xlink:href="#LiberationSans-30"/>
     <use x="55.615234375" xlink:href="#LiberationSans-2e"/>
     <use x="83.3984375" xlink:href="#LiberationSans-30"/>
     <use x="139.013671875" xlink:href="#LiberationSans-30"/>
     <use x="194.62890625" xlink:href="#LiberationSans-34"/>
     <use x="250.244140625" xlink:href="#LiberationSans-39"/>
     <use x="305.859375" xlink:href="#LiberationSans-39"/>
     <use x="361.474609375" xlink:href="#LiberationSans-31"/>
     <use x="417.08984375" xlink:href="#LiberationSans-30"/>
     <use x="472.705078125" xlink:href="#LiberationSans-39"/>
     <use x="528.3203125" xlink:href="#LiberationSans-35"/>
     <use x="583.935546875" xlink:href="#LiberationSans-35"/>
     <use x="639.55078125" xlink:href="#LiberationSans-34"/>
     <use x="695.166015625" xlink:href="#LiberationSans-33"/>
     <use x="750.78125" xlink:href="#LiberationSans-32"/>
    </g>
   </g>
   <g id="text_5">
    <!-- 0.00357030054598 -->
    <g style="fill:#262626;" transform="translate(580.041532414 233.073367734)scale(0.1 -0.1)">
     <use xlink:href="#LiberationSans-30"/>
     <use x="55.615234375" xlink:href="#LiberationSans-2e"/>
     <use x="83.3984375" xlink:href="#LiberationSans-30"/>
     <use x="139.013671875" xlink:href="#LiberationSans-30"/>
     <use x="194.62890625" xlink:href="#LiberationSans-33"/>
     <use x="250.244140625" xlink:href="#LiberationSans-35"/>
     <use x="305.859375" xlink:href="#LiberationSans-37"/>
     <use x="361.474609375" xlink:href="#LiberationSans-30"/>
     <use x="417.08984375" xlink:href="#LiberationSans-33"/>
     <use x="472.705078125" xlink:href="#LiberationSans-30"/>
     <use x="528.3203125" xlink:href="#LiberationSans-30"/>
     <use x="583.935546875" xlink:href="#LiberationSans-35"/>
     <use x="639.55078125" xlink:href="#LiberationSans-34"/>
     <use x="695.166015625" xlink:href="#LiberationSans-35"/>
     <use x="750.78125" xlink:href="#LiberationSans-39"/>
     <use x="806.396484375" xlink:href="#LiberationSans-38"/>
    </g>
   </g>
   <g id="text_6">
    <!-- 0.00751271951324 -->
    <g style="fill:#262626;" transform="translate(558.416027443 201.33665794)scale(0.1 -0.1)">
     <use xlink:href="#LiberationSans-30"/>
     <use x="55.615234375" xlink:href="#LiberationSans-2e"/>
     <use x="83.3984375" xlink:href="#LiberationSans-30"/>
     <use x="139.013671875" xlink:href="#LiberationSans-30"/>
     <use x="194.62890625" xlink:href="#LiberationSans-37"/>
     <use x="250.244140625" xlink:href="#LiberationSans-35"/>
     <use x="305.859375" xlink:href="#LiberationSans-31"/>
     <use x="361.474609375" xlink:href="#LiberationSans-32"/>
     <use x="417.08984375" xlink:href="#LiberationSans-37"/>
     <use x="472.705078125" xlink:href="#LiberationSans-31"/>
     <use x="528.3203125" xlink:href="#LiberationSans-39"/>
     <use x="583.935546875" xlink:href="#LiberationSans-35"/>
     <use x="639.55078125" xlink:href="#LiberationSans-31"/>
     <use x="695.166015625" xlink:href="#LiberationSans-33"/>
     <use x="750.78125" xlink:href="#LiberationSans-32"/>
     <use x="806.396484375" xlink:href="#LiberationSans-34"/>
    </g>
   </g>
   <g id="text_7">
    <!-- 0.00415532540707 -->
    <g style="fill:#262626;" transform="translate(532.35077166 173.379494309)scale(0.1 -0.1)">
     <use xlink:href="#LiberationSans-30"/>
     <use x="55.615234375" xlink:href="#LiberationSans-2e"/>
     <use x="83.3984375" xlink:href="#LiberationSans-30"/>
     <use x="139.013671875" xlink:href="#LiberationSans-30"/>
     <use x="194.62890625" xlink:href="#LiberationSans-34"/>
     <use x="250.244140625" xlink:href="#LiberationSans-31"/>
     <use x="305.859375" xlink:href="#LiberationSans-35"/>
     <use x="361.474609375" xlink:href="#LiberationSans-35"/>
     <use x="417.08984375" xlink:href="#LiberationSans-33"/>
     <use x="472.705078125" xlink:href="#LiberationSans-32"/>
     <use x="528.3203125" xlink:href="#LiberationSans-35"/>
     <use x="583.935546875" xlink:href="#LiberationSans-34"/>
     <use x="639.55078125" xlink:href="#LiberationSans-30"/>
     <use x="695.166015625" xlink:href="#LiberationSans-37"/>
     <use x="750.78125" xlink:href="#LiberationSans-30"/>
     <use x="806.396484375" xlink:href="#LiberationSans-37"/>
    </g>
   </g>
   <g id="text_8">
    <!-- 0.00157282131012 -->
    <g style="fill:#262626;" transform="translate(502.456712524 149.857169013)scale(0.1 -0.1)">
     <use xlink:href="#LiberationSans-30"/>
     <use x="55.615234375" xlink:href="#LiberationSans-2e"/>
     <use x="83.3984375" xlink:href="#LiberationSans-30"/>
     <use x="139.013671875" xlink:href="#LiberationSans-30"/>
     <use x="194.62890625" xlink:href="#LiberationSans-31"/>
     <use x="250.244140625" xlink:href="#LiberationSans-35"/>
     <use x="305.859375" xlink:href="#LiberationSans-37"/>
     <use x="361.474609375" xlink:href="#LiberationSans-32"/>
     <use x="417.08984375" xlink:href="#LiberationSans-38"/>
     <use x="472.705078125" xlink:href="#LiberationSans-32"/>
     <use x="528.3203125" xlink:href="#LiberationSans-31"/>
     <use x="583.935546875" xlink:href="#LiberationSans-33"/>
     <use x="639.55078125" xlink:href="#LiberationSans-31"/>
     <use x="695.166015625" xlink:href="#LiberationSans-30"/>
     <use x="750.78125" xlink:href="#LiberationSans-31"/>
     <use x="806.396484375" xlink:href="#LiberationSans-32"/>
    </g>
   </g>
   <g id="text_9">
    <!-- 0.00639109322809 -->
    <g style="fill:#262626;" transform="translate(469.434541391 131.321025379)scale(0.1 -0.1)">
     <use xlink:href="#LiberationSans-30"/>
     <use x="55.615234375" xlink:href="#LiberationSans-2e"/>
     <use x="83.3984375" xlink:href="#LiberationSans-30"/>
     <use x="139.013671875" xlink:href="#LiberationSans-30"/>
     <use x="194.62890625" xlink:href="#LiberationSans-36"/>
     <use x="250.244140625" xlink:href="#LiberationSans-33"/>
     <use x="305.859375" xlink:href="#LiberationSans-39"/>
     <use x="361.474609375" xlink:href="#LiberationSans-31"/>
     <use x="417.08984375" xlink:href="#LiberationSans-30"/>
     <use x="472.705078125" xlink:href="#LiberationSans-39"/>
     <use x="528.3203125" xlink:href="#LiberationSans-33"/>
     <use x="583.935546875" xlink:href="#LiberationSans-32"/>
     <use x="639.55078125" xlink:href="#LiberationSans-32"/>
     <use x="695.166015625" xlink:href="#LiberationSans-38"/>
     <use x="750.78125" xlink:href="#LiberationSans-30"/>
     <use x="806.396484375" xlink:href="#LiberationSans-39"/>
    </g>
   </g>
   <g id="text_10">
    <!-- 0.00130534488959 -->
    <g style="fill:#262626;" transform="translate(434.058269908 118.205534871)scale(0.1 -0.1)">
     <use xlink:href="#LiberationSans-30"/>
     <use x="55.615234375" xlink:href="#LiberationSans-2e"/>
     <use x="83.3984375" xlink:href="#LiberationSans-30"/>
     <use x="139.013671875" xlink:href="#LiberationSans-30"/>
     <use x="194.62890625" xlink:href="#LiberationSans-31"/>
     <use x="250.244140625" xlink:href="#LiberationSans-33"/>
     <use x="305.859375" xlink:href="#LiberationSans-30"/>
     <use x="361.474609375" xlink:href="#LiberationSans-35"/>
     <use x="417.08984375" xlink:href="#LiberationSans-33"/>
     <use x="472.705078125" xlink:href="#LiberationSans-34"/>
     <use x="528.3203125" xlink:href="#LiberationSans-34"/>
     <use x="583.935546875" xlink:href="#LiberationSans-38"/>
     <use x="639.55078125" xlink:href="#LiberationSans-38"/>
     <use x="695.166015625" xlink:href="#LiberationSans-39"/>
     <use x="750.78125" xlink:href="#LiberationSans-35"/>
     <use x="806.396484375" xlink:href="#LiberationSans-39"/>
    </g>
   </g>
   <g id="text_11">
    <!-- 0.00762095778819 -->
    <g style="fill:#262626;" transform="translate(397.157087832 110.818113448)scale(0.1 -0.1)">
     <use xlink:href="#LiberationSans-30"/>
     <use x="55.615234375" xlink:href="#LiberationSans-2e"/>
     <use x="83.3984375" xlink:href="#LiberationSans-30"/>
     <use x="139.013671875" xlink:href="#LiberationSans-30"/>
     <use x="194.62890625" xlink:href="#LiberationSans-37"/>
     <use x="250.244140625" xlink:href="#LiberationSans-36"/>
     <use x="305.859375" xlink:href="#LiberationSans-32"/>
     <use x="361.474609375" xlink:href="#LiberationSans-30"/>
     <use x="417.08984375" xlink:href="#LiberationSans-39"/>
     <use x="472.705078125" xlink:href="#LiberationSans-35"/>
     <use x="528.3203125" xlink:href="#LiberationSans-37"/>
     <use x="583.935546875" xlink:href="#LiberationSans-37"/>
     <use x="639.55078125" xlink:href="#LiberationSans-38"/>
     <use x="695.166015625" xlink:href="#LiberationSans-38"/>
     <use x="750.78125" xlink:href="#LiberationSans-31"/>
     <use x="806.396484375" xlink:href="#LiberationSans-39"/>
    </g>
   </g>
   <g id="text_12">
    <!-- 0.00905152992766 -->
    <g style="fill:#262626;" transform="translate(273.403740031 109.331915993)scale(0.1 -0.1)">
     <use xlink:href="#LiberationSans-30"/>
     <use x="55.615234375" xlink:href="#LiberationSans-2e"/>
     <use x="83.3984375" xlink:href="#LiberationSans-30"/>
     <use x="139.013671875" xlink:href="#LiberationSans-30"/>
     <use x="194.62890625" xlink:href="#LiberationSans-39"/>
     <use x="250.244140625" xlink:href="#LiberationSans-30"/>
     <use x="305.859375" xlink:href="#LiberationSans-35"/>
     <use x="361.474609375" xlink:href="#LiberationSans-31"/>
     <use x="417.08984375" xlink:href="#LiberationSans-35"/>
     <use x="472.705078125" xlink:href="#LiberationSans-32"/>
     <use x="528.3203125" xlink:href="#LiberationSans-39"/>
     <use x="583.935546875" xlink:href="#LiberationSans-39"/>
     <use x="639.55078125" xlink:href="#LiberationSans-32"/>
     <use x="695.166015625" xlink:href="#LiberationSans-37"/>
     <use x="750.78125" xlink:href="#LiberationSans-36"/>
     <use x="806.396484375" xlink:href="#LiberationSans-36"/>
    </g>
   </g>
   <g id="text_13">
    <!-- 0.00290600728796 -->
    <g style="fill:#262626;" transform="translate(236.063003202 113.781777712)scale(0.1 -0.1)">
     <use xlink:href="#LiberationSans-30"/>
     <use x="55.615234375" xlink:href="#LiberationSans-2e"/>
     <use x="83.3984375" xlink:href="#LiberationSans-30"/>
     <use x="139.013671875" xlink:href="#LiberationSans-30"/>
     <use x="194.62890625" xlink:href="#LiberationSans-32"/>
     <use x="250.244140625" xlink:href="#LiberationSans-39"/>
     <use x="305.859375" xlink:href="#LiberationSans-30"/>
     <use x="361.474609375" xlink:href="#LiberationSans-36"/>
     <use x="417.08984375" xlink:href="#LiberationSans-30"/>
     <use x="472.705078125" xlink:href="#LiberationSans-30"/>
     <use x="528.3203125" xlink:href="#LiberationSans-37"/>
     <use x="583.935546875" xlink:href="#LiberationSans-32"/>
     <use x="639.55078125" xlink:href="#LiberationSans-38"/>
     <use x="695.166015625" xlink:href="#LiberationSans-37"/>
     <use x="750.78125" xlink:href="#LiberationSans-39"/>
     <use x="806.396484375" xlink:href="#LiberationSans-36"/>
    </g>
   </g>
   <g id="text_14">
    <!-- 0.00460719378227 -->
    <g style="fill:#262626;" transform="translate(199.817925003 124.063397627)scale(0.1 -0.1)">
     <use xlink:href="#LiberationSans-30"/>
     <use x="55.615234375" xlink:href="#LiberationSans-2e"/>
     <use x="83.3984375" xlink:href="#LiberationSans-30"/>
     <use x="139.013671875" xlink:href="#LiberationSans-30"/>
     <use x="194.62890625" xlink:href="#LiberationSans-34"/>
     <use x="250.244140625" xlink:href="#LiberationSans-36"/>
     <use x="305.859375" xlink:href="#LiberationSans-30"/>
     <use x="361.474609375" xlink:href="#LiberationSans-37"/>
     <use x="417.08984375" xlink:href="#LiberationSans-31"/>
     <use x="472.705078125" xlink:href="#LiberationSans-39"/>
     <use x="528.3203125" xlink:href="#LiberationSans-33"/>
     <use x="583.935546875" xlink:href="#LiberationSans-37"/>
     <use x="639.55078125" xlink:href="#LiberationSans-38"/>
     <use x="695.166015625" xlink:href="#LiberationSans-32"/>
     <use x="750.78125" xlink:href="#LiberationSans-32"/>
     <use x="806.396484375" xlink:href="#LiberationSans-37"/>
    </g>
   </g>
   <g id="text_15">
    <!-- 0.00150919219263 -->
    <g style="fill:#262626;" transform="translate(165.518059282 139.935783298)scale(0.1 -0.1)">
     <use xlink:href="#LiberationSans-30"/>
     <use x="55.615234375" xlink:href="#LiberationSans-2e"/>
     <use x="83.3984375" xlink:href="#LiberationSans-30"/>
     <use x="139.013671875" xlink:href="#LiberationSans-30"/>
     <use x="194.62890625" xlink:href="#LiberationSans-31"/>
     <use x="250.244140625" xlink:href="#LiberationSans-35"/>
     <use x="305.859375" xlink:href="#LiberationSans-30"/>
     <use x="361.474609375" xlink:href="#LiberationSans-39"/>
     <use x="417.08984375" xlink:href="#LiberationSans-31"/>
     <use x="472.705078125" xlink:href="#LiberationSans-39"/>
     <use x="528.3203125" xlink:href="#LiberationSans-32"/>
     <use x="583.935546875" xlink:href="#LiberationSans-31"/>
     <use x="639.55078125" xlink:href="#LiberationSans-39"/>
     <use x="695.166015625" xlink:href="#LiberationSans-32"/>
     <use x="750.78125" xlink:href="#LiberationSans-36"/>
     <use x="806.396484375" xlink:href="#LiberationSans-33"/>
    </g>
   </g>
   <g id="text_16">
    <!-- 0.00164296912798 -->
    <g style="fill:#262626;" transform="translate(133.967365763 161.026899486)scale(0.1 -0.1)">
     <use xlink:href="#LiberationSans-30"/>
     <use x="55.615234375" xlink:href="#LiberationSans-2e"/>
     <use x="83.3984375" xlink:href="#LiberationSans-30"/>
     <use x="139.013671875" xlink:href="#LiberationSans-30"/>
     <use x="194.62890625" xlink:href="#LiberationSans-31"/>
     <use x="250.244140625" xlink:href="#LiberationSans-36"/>
     <use x="305.859375" xlink:href="#LiberationSans-34"/>
     <use x="361.474609375" xlink:href="#LiberationSans-32"/>
     <use x="417.08984375" xlink:href="#LiberationSans-39"/>
     <use x="472.705078125" xlink:href="#LiberationSans-36"/>
     <use x="528.3203125" xlink:href="#LiberationSans-39"/>
     <use x="583.935546875" xlink:href="#LiberationSans-31"/>
     <use x="639.55078125" xlink:href="#LiberationSans-32"/>
     <use x="695.166015625" xlink:href="#LiberationSans-37"/>
     <use x="750.78125" xlink:href="#LiberationSans-39"/>
     <use x="806.396484375" xlink:href="#LiberationSans-38"/>
    </g>
   </g>
   <g id="text_17">
    <!-- 0.0048856233998 -->
    <g style="fill:#262626;" transform="translate(111.466303404 186.84238834)scale(0.1 -0.1)">
     <use xlink:href="#LiberationSans-30"/>
     <use x="55.615234375" xlink:href="#LiberationSans-2e"/>
     <use x="83.3984375" xlink:href="#LiberationSans-30"/>
     <use x="139.013671875" xlink:href="#LiberationSans-30"/>
     <use x="194.62890625" xlink:href="#LiberationSans-34"/>
     <use x="250.244140625" xlink:href="#LiberationSans-38"/>
     <use x="305.859375" xlink:href="#LiberationSans-38"/>
     <use x="361.474609375" xlink:href="#LiberationSans-35"/>
     <use x="417.08984375" xlink:href="#LiberationSans-36"/>
     <use x="472.705078125" xlink:href="#LiberationSans-32"/>
     <use x="528.3203125" xlink:href="#LiberationSans-33"/>
     <use x="583.935546875" xlink:href="#LiberationSans-33"/>
     <use x="639.55078125" xlink:href="#LiberationSans-39"/>
     <use x="695.166015625" xlink:href="#LiberationSans-39"/>
     <use x="750.78125" xlink:href="#LiberationSans-38"/>
    </g>
   </g>
   <g id="text_18">
    <!-- 0.00536158513423 -->
    <g style="fill:#262626;" transform="translate(81.9898091502 216.777156727)scale(0.1 -0.1)">
     <use xlink:href="#LiberationSans-30"/>
     <use x="55.615234375" xlink:href="#LiberationSans-2e"/>
     <use x="83.3984375" xlink:href="#LiberationSans-30"/>
     <use x="139.013671875" xlink:href="#LiberationSans-30"/>
     <use x="194.62890625" xlink:href="#LiberationSans-35"/>
     <use x="250.244140625" xlink:href="#LiberationSans-33"/>
     <use x="305.859375" xlink:href="#LiberationSans-36"/>
     <use x="361.474609375" xlink:href="#LiberationSans-31"/>
     <use x="417.08984375" xlink:href="#LiberationSans-35"/>
     <use x="472.705078125" xlink:href="#LiberationSans-38"/>
     <use x="528.3203125" xlink:href="#LiberationSans-35"/>
     <use x="583.935546875" xlink:href="#LiberationSans-31"/>
     <use x="639.55078125" xlink:href="#LiberationSans-33"/>
     <use x="695.166015625" xlink:href="#LiberationSans-34"/>
     <use x="750.78125" xlink:href="#LiberationSans-32"/>
     <use x="806.396484375" xlink:href="#LiberationSans-33"/>
    </g>
   </g>
   <g id="text_19">
    <!-- 0.0129996244177 -->
    <g style="fill:#262626;" transform="translate(68.342193339 250.1295591)scale(0.1 -0.1)">
     <use xlink:href="#LiberationSans-30"/>
     <use x="55.615234375" xlink:href="#LiberationSans-2e"/>
     <use x="83.3984375" xlink:href="#LiberationSans-30"/>
     <use x="139.013671875" xlink:href="#LiberationSans-31"/>
     <use x="194.62890625" xlink:href="#LiberationSans-32"/>
     <use x="250.244140625" xlink:href="#LiberationSans-39"/>
     <use x="305.859375" xlink:href="#LiberationSans-39"/>
     <use x="361.474609375" xlink:href="#LiberationSans-39"/>
     <use x="417.08984375" xlink:href="#LiberationSans-36"/>
     <use x="472.705078125" xlink:href="#LiberationSans-32"/>
     <use x="528.3203125" xlink:href="#LiberationSans-34"/>
     <use x="583.935546875" xlink:href="#LiberationSans-34"/>
     <use x="639.55078125" xlink:href="#LiberationSans-31"/>
     <use x="695.166015625" xlink:href="#LiberationSans-37"/>
     <use x="750.78125" xlink:href="#LiberationSans-37"/>
    </g>
   </g>
   <g id="text_20">
    <!-- 0.00761550499522 -->
    <g style="fill:#262626;" transform="translate(48.7299381465 286.117843472)scale(0.1 -0.1)">
     <use xlink:href="#LiberationSans-30"/>
     <use x="55.615234375" xlink:href="#LiberationSans-2e"/>
     <use x="83.3984375" xlink:href="#LiberationSans-30"/>
     <use x="139.013671875" xlink:href="#LiberationSans-30"/>
     <use x="194.62890625" xlink:href="#LiberationSans-37"/>
     <use x="250.244140625" xlink:href="#LiberationSans-36"/>
     <use x="305.859375" xlink:href="#LiberationSans-31"/>
     <use x="361.474609375" xlink:href="#LiberationSans-35"/>
     <use x="417.08984375" xlink:href="#LiberationSans-35"/>
     <use x="472.705078125" xlink:href="#LiberationSans-30"/>
     <use x="528.3203125" xlink:href="#LiberationSans-34"/>
     <use x="583.935546875" xlink:href="#LiberationSans-39"/>
     <use x="639.55078125" xlink:href="#LiberationSans-39"/>
     <use x="695.166015625" xlink:href="#LiberationSans-35"/>
     <use x="750.78125" xlink:href="#LiberationSans-32"/>
     <use x="806.396484375" xlink:href="#LiberationSans-32"/>
    </g>
   </g>
   <g id="text_21">
    <!-- 0.00500438151005 -->
    <g style="fill:#262626;" transform="translate(40.1652070257 323.898475024)scale(0.1 -0.1)">
     <use xlink:href="#LiberationSans-30"/>
     <use x="55.615234375" xlink:href="#LiberationSans-2e"/>
     <use x="83.3984375" xlink:href="#LiberationSans-30"/>
     <use x="139.013671875" xlink:href="#LiberationSans-30"/>
     <use x="194.62890625" xlink:href="#LiberationSans-35"/>
     <use x="250.244140625" xlink:href="#LiberationSans-30"/>
     <use x="305.859375" xlink:href="#LiberationSans-30"/>
     <use x="361.474609375" xlink:href="#LiberationSans-34"/>
     <use x="417.08984375" xlink:href="#LiberationSans-33"/>
     <use x="472.705078125" xlink:href="#LiberationSans-38"/>
     <use x="528.3203125" xlink:href="#LiberationSans-31"/>
     <use x="583.935546875" xlink:href="#LiberationSans-35"/>
     <use x="639.55078125" xlink:href="#LiberationSans-31"/>
     <use x="695.166015625" xlink:href="#LiberationSans-30"/>
     <use x="750.78125" xlink:href="#LiberationSans-30"/>
     <use x="806.396484375" xlink:href="#LiberationSans-35"/>
    </g>
   </g>
   <g id="text_22">
    <!-- 0.00269216939193 -->
    <g style="fill:#262626;" transform="translate(37.2878125 362.585907839)scale(0.1 -0.1)">
     <use xlink:href="#LiberationSans-30"/>
     <use x="55.615234375" xlink:href="#LiberationSans-2e"/>
     <use x="83.3984375" xlink:href="#LiberationSans-30"/>
     <use x="139.013671875" xlink:href="#LiberationSans-30"/>
     <use x="194.62890625" xlink:href="#LiberationSans-32"/>
     <use x="250.244140625" xlink:href="#LiberationSans-36"/>
     <use x="305.859375" xlink:href="#LiberationSans-39"/>
     <use x="361.474609375" xlink:href="#LiberationSans-32"/>
     <use x="417.08984375" xlink:href="#LiberationSans-31"/>
     <use x="472.705078125" xlink:href="#LiberationSans-36"/>
     <use x="528.3203125" xlink:href="#LiberationSans-39"/>
     <use x="583.935546875" xlink:href="#LiberationSans-33"/>
     <use x="639.55078125" xlink:href="#LiberationSans-39"/>
     <use x="695.166015625" xlink:href="#LiberationSans-31"/>
     <use x="750.78125" xlink:href="#LiberationSans-39"/>
     <use x="806.396484375" xlink:href="#LiberationSans-33"/>
    </g>
   </g>
   <g id="text_23">
    <!-- 0.0015706226989 -->
    <g style="fill:#262626;" transform="translate(45.7261357533 401.273341349)scale(0.1 -0.1)">
     <use xlink:href="#LiberationSans-30"/>
     <use x="55.615234375" xlink:href="#LiberationSans-2e"/>
     <use x="83.3984375" xlink:href="#LiberationSans-30"/>
     <use x="139.013671875" xlink:href="#LiberationSans-30"/>
     <use x="194.62890625" xlink:href="#LiberationSans-31"/>
     <use x="250.244140625" xlink:href="#LiberationSans-35"/>
     <use x="305.859375" xlink:href="#LiberationSans-37"/>
     <use x="361.474609375" xlink:href="#LiberationSans-30"/>
     <use x="417.08984375" xlink:href="#LiberationSans-36"/>
     <use x="472.705078125" xlink:href="#LiberationSans-32"/>
     <use x="528.3203125" xlink:href="#LiberationSans-32"/>
     <use x="583.935546875" xlink:href="#LiberationSans-36"/>
     <use x="639.55078125" xlink:href="#LiberationSans-39"/>
     <use x="695.166015625" xlink:href="#LiberationSans-38"/>
     <use x="750.78125" xlink:href="#LiberationSans-39"/>
    </g>
   </g>
   <g id="text_24">
    <!-- 0.0066104636148 -->
    <g style="fill:#262626;" transform="translate(54.2908583072 439.05397497)scale(0.1 -0.1)">
     <use xlink:href="#LiberationSans-30"/>
     <use x="55.615234375" xlink:href="#LiberationSans-2e"/>
     <use x="83.3984375" xlink:href="#LiberationSans-30"/>
     <use x="139.013671875" xlink:href="#LiberationSans-30"/>
     <use x="194.62890625" xlink:href="#LiberationSans-36"/>
     <use x="250.244140625" xlink:href="#LiberationSans-36"/>
     <use x="305.859375" xlink:href="#LiberationSans-31"/>
     <use x="361.474609375" xlink:href="#LiberationSans-30"/>
     <use x="417.08984375" xlink:href="#LiberationSans-34"/>
     <use x="472.705078125" xlink:href="#LiberationSans-36"/>
     <use x="528.3203125" xlink:href="#LiberationSans-33"/>
     <use x="583.935546875" xlink:href="#LiberationSans-36"/>
     <use x="639.55078125" xlink:href="#LiberationSans-31"/>
     <use x="695.166015625" xlink:href="#LiberationSans-34"/>
     <use x="750.78125" xlink:href="#LiberationSans-38"/>
    </g>
   </g>
   <g id="text_25">
    <!-- 0.0130450171894 -->
    <g style="fill:#262626;" transform="translate(68.3421678392 475.042262738)scale(0.1 -0.1)">
     <use xlink:href="#LiberationSans-30"/>
     <use x="55.615234375" xlink:href="#LiberationSans-2e"/>
     <use x="83.3984375" xlink:href="#LiberationSans-30"/>
     <use x="139.013671875" xlink:href="#LiberationSans-31"/>
     <use x="194.62890625" xlink:href="#LiberationSans-33"/>
     <use x="250.244140625" xlink:href="#LiberationSans-30"/>
     <use x="305.859375" xlink:href="#LiberationSans-34"/>
     <use x="361.474609375" xlink:href="#LiberationSans-35"/>
     <use x="417.08984375" xlink:href="#LiberationSans-30"/>
     <use x="472.705078125" xlink:href="#LiberationSans-31"/>
     <use x="528.3203125" xlink:href="#LiberationSans-37"/>
     <use x="583.935546875" xlink:href="#LiberationSans-31"/>
     <use x="639.55078125" xlink:href="#LiberationSans-38"/>
     <use x="695.166015625" xlink:href="#LiberationSans-39"/>
     <use x="750.78125" xlink:href="#LiberationSans-34"/>
    </g>
   </g>
   <g id="text_26">
    <!-- 0.00720312984702 -->
    <g style="fill:#262626;" transform="translate(81.9897760877 508.394669751)scale(0.1 -0.1)">
     <use xlink:href="#LiberationSans-30"/>
     <use x="55.615234375" xlink:href="#LiberationSans-2e"/>
     <use x="83.3984375" xlink:href="#LiberationSans-30"/>
     <use x="139.013671875" xlink:href="#LiberationSans-30"/>
     <use x="194.62890625" xlink:href="#LiberationSans-37"/>
     <use x="250.244140625" xlink:href="#LiberationSans-32"/>
     <use x="305.859375" xlink:href="#LiberationSans-30"/>
     <use x="361.474609375" xlink:href="#LiberationSans-33"/>
     <use x="417.08984375" xlink:href="#LiberationSans-31"/>
     <use x="472.705078125" xlink:href="#LiberationSans-32"/>
     <use x="528.3203125" xlink:href="#LiberationSans-39"/>
     <use x="583.935546875" xlink:href="#LiberationSans-38"/>
     <use x="639.55078125" xlink:href="#LiberationSans-34"/>
     <use x="695.166015625" xlink:href="#LiberationSans-37"/>
     <use x="750.78125" xlink:href="#LiberationSans-30"/>
     <use x="806.396484375" xlink:href="#LiberationSans-32"/>
    </g>
   </g>
   <g id="text_27">
    <!-- 0.0051039697755 -->
    <g style="fill:#262626;" transform="translate(111.466263554 538.329443917)scale(0.1 -0.1)">
     <use xlink:href="#LiberationSans-30"/>
     <use x="55.615234375" xlink:href="#LiberationSans-2e"/>
     <use x="83.3984375" xlink:href="#LiberationSans-30"/>
     <use x="139.013671875" xlink:href="#LiberationSans-30"/>
     <use x="194.62890625" xlink:href="#LiberationSans-35"/>
     <use x="250.244140625" xlink:href="#LiberationSans-31"/>
     <use x="305.859375" xlink:href="#LiberationSans-30"/>
     <use x="361.474609375" xlink:href="#LiberationSans-33"/>
     <use x="417.08984375" xlink:href="#LiberationSans-39"/>
     <use x="472.705078125" xlink:href="#LiberationSans-36"/>
     <use x="528.3203125" xlink:href="#LiberationSans-39"/>
     <use x="583.935546875" xlink:href="#LiberationSans-37"/>
     <use x="639.55078125" xlink:href="#LiberationSans-37"/>
     <use x="695.166015625" xlink:href="#LiberationSans-35"/>
     <use x="750.78125" xlink:href="#LiberationSans-35"/>
    </g>
   </g>
   <g id="text_28">
    <!-- 0.00935255889528 -->
    <g style="fill:#262626;" transform="translate(133.967320059 564.144939552)scale(0.1 -0.1)">
     <use xlink:href="#LiberationSans-30"/>
     <use x="55.615234375" xlink:href="#LiberationSans-2e"/>
     <use x="83.3984375" xlink:href="#LiberationSans-30"/>
     <use x="139.013671875" xlink:href="#LiberationSans-30"/>
     <use x="194.62890625" xlink:href="#LiberationSans-39"/>
     <use x="250.244140625" xlink:href="#LiberationSans-33"/>
     <use x="305.859375" xlink:href="#LiberationSans-35"/>
     <use x="361.474609375" xlink:href="#LiberationSans-32"/>
     <use x="417.08984375" xlink:href="#LiberationSans-35"/>
     <use x="472.705078125" xlink:href="#LiberationSans-35"/>
     <use x="528.3203125" xlink:href="#LiberationSans-38"/>
     <use x="583.935546875" xlink:href="#LiberationSans-38"/>
     <use x="639.55078125" xlink:href="#LiberationSans-39"/>
     <use x="695.166015625" xlink:href="#LiberationSans-35"/>
     <use x="750.78125" xlink:href="#LiberationSans-32"/>
     <use x="806.396484375" xlink:href="#LiberationSans-38"/>
    </g>
   </g>
   <g id="text_29">
    <!-- 0.00202362627194 -->
    <g style="fill:#262626;" transform="translate(165.518008796 585.236063363)scale(0.1 -0.1)">
     <use xlink:href="#LiberationSans-30"/>
     <use x="55.615234375" xlink:href="#LiberationSans-2e"/>
     <use x="83.3984375" xlink:href="#LiberationSans-30"/>
     <use x="139.013671875" xlink:href="#LiberationSans-30"/>
     <use x="194.62890625" xlink:href="#LiberationSans-32"/>
     <use x="250.244140625" xlink:href="#LiberationSans-30"/>
     <use x="305.859375" xlink:href="#LiberationSans-32"/>
     <use x="361.474609375" xlink:href="#LiberationSans-33"/>
     <use x="417.08984375" xlink:href="#LiberationSans-36"/>
     <use x="472.705078125" xlink:href="#LiberationSans-32"/>
     <use x="528.3203125" xlink:href="#LiberationSans-36"/>
     <use x="583.935546875" xlink:href="#LiberationSans-32"/>
     <use x="639.55078125" xlink:href="#LiberationSans-37"/>
     <use x="695.166015625" xlink:href="#LiberationSans-31"/>
     <use x="750.78125" xlink:href="#LiberationSans-39"/>
     <use x="806.396484375" xlink:href="#LiberationSans-34"/>
    </g>
   </g>
   <g id="text_30">
    <!-- 0.00559388041124 -->
    <g style="fill:#262626;" transform="translate(199.817870917 601.108457321)scale(0.1 -0.1)">
     <use xlink:href="#LiberationSans-30"/>
     <use x="55.615234375" xlink:href="#LiberationSans-2e"/>
     <use x="83.3984375" xlink:href="#LiberationSans-30"/>
     <use x="139.013671875" xlink:href="#LiberationSans-30"/>
     <use x="194.62890625" xlink:href="#LiberationSans-35"/>
     <use x="250.244140625" xlink:href="#LiberationSans-35"/>
     <use x="305.859375" xlink:href="#LiberationSans-39"/>
     <use x="361.474609375" xlink:href="#LiberationSans-33"/>
     <use x="417.08984375" xlink:href="#LiberationSans-38"/>
     <use x="472.705078125" xlink:href="#LiberationSans-38"/>
     <use x="528.3203125" xlink:href="#LiberationSans-30"/>
     <use x="583.935546875" xlink:href="#LiberationSans-34"/>
     <use x="639.55078125" xlink:href="#LiberationSans-31"/>
     <use x="695.166015625" xlink:href="#LiberationSans-31"/>
     <use x="750.78125" xlink:href="#LiberationSans-32"/>
     <use x="806.396484375" xlink:href="#LiberationSans-34"/>
    </g>
   </g>
   <g id="text_31">
    <!-- 0.00506344239301 -->
    <g style="fill:#262626;" transform="translate(236.062946785 611.390085994)scale(0.1 -0.1)">
     <use xlink:href="#LiberationSans-30"/>
     <use x="55.615234375" xlink:href="#LiberationSans-2e"/>
     <use x="83.3984375" xlink:href="#LiberationSans-30"/>
     <use x="139.013671875" xlink:href="#LiberationSans-30"/>
     <use x="194.62890625" xlink:href="#LiberationSans-35"/>
     <use x="250.244140625" xlink:href="#LiberationSans-30"/>
     <use x="305.859375" xlink:href="#LiberationSans-36"/>
     <use x="361.474609375" xlink:href="#LiberationSans-33"/>
     <use x="417.08984375" xlink:href="#LiberationSans-34"/>
     <use x="472.705078125" xlink:href="#LiberationSans-34"/>
     <use x="528.3203125" xlink:href="#LiberationSans-32"/>
     <use x="583.935546875" xlink:href="#LiberationSans-33"/>
     <use x="639.55078125" xlink:href="#LiberationSans-39"/>
     <use x="695.166015625" xlink:href="#LiberationSans-33"/>
     <use x="750.78125" xlink:href="#LiberationSans-30"/>
     <use x="806.396484375" xlink:href="#LiberationSans-31"/>
    </g>
   </g>
   <g id="text_32">
    <!-- 0.00927645876425 -->
    <g style="fill:#262626;" transform="translate(273.403682605 615.839956735)scale(0.1 -0.1)">
     <use xlink:href="#LiberationSans-30"/>
     <use x="55.615234375" xlink:href="#LiberationSans-2e"/>
     <use x="83.3984375" xlink:href="#LiberationSans-30"/>
     <use x="139.013671875" xlink:href="#LiberationSans-30"/>
     <use x="194.62890625" xlink:href="#LiberationSans-39"/>
     <use x="250.244140625" xlink:href="#LiberationSans-32"/>
     <use x="305.859375" xlink:href="#LiberationSans-37"/>
     <use x="361.474609375" xlink:href="#LiberationSans-36"/>
     <use x="417.08984375" xlink:href="#LiberationSans-34"/>
     <use x="472.705078125" xlink:href="#LiberationSans-35"/>
     <use x="528.3203125" xlink:href="#LiberationSans-38"/>
     <use x="583.935546875" xlink:href="#LiberationSans-37"/>
     <use x="639.55078125" xlink:href="#LiberationSans-36"/>
     <use x="695.166015625" xlink:href="#LiberationSans-34"/>
     <use x="750.78125" xlink:href="#LiberationSans-32"/>
     <use x="806.396484375" xlink:href="#LiberationSans-35"/>
    </g>
   </g>
   <g id="text_33">
    <!-- 0.00102958263165 -->
    <g style="fill:#262626;" transform="translate(397.157030743 614.353768356)scale(0.1 -0.1)">
     <use xlink:href="#LiberationSans-30"/>
     <use x="55.615234375" xlink:href="#LiberationSans-2e"/>
     <use x="83.3984375" xlink:href="#LiberationSans-30"/>
     <use x="139.013671875" xlink:href="#LiberationSans-30"/>
     <use x="194.62890625" xlink:href="#LiberationSans-31"/>
     <use x="250.244140625" xlink:href="#LiberationSans-30"/>
     <use x="305.859375" xlink:href="#LiberationSans-32"/>
     <use x="361.474609375" xlink:href="#LiberationSans-39"/>
     <use x="417.08984375" xlink:href="#LiberationSans-35"/>
     <use x="472.705078125" xlink:href="#LiberationSans-38"/>
     <use x="528.3203125" xlink:href="#LiberationSans-32"/>
     <use x="583.935546875" xlink:href="#LiberationSans-36"/>
     <use x="639.55078125" xlink:href="#LiberationSans-33"/>
     <use x="695.166015625" xlink:href="#LiberationSans-31"/>
     <use x="750.78125" xlink:href="#LiberationSans-36"/>
     <use x="806.396484375" xlink:href="#LiberationSans-35"/>
    </g>
   </g>
   <g id="text_34">
    <!-- 0.00861385258757 -->
    <g style="fill:#262626;" transform="translate(434.058214494 606.966355848)scale(0.1 -0.1)">
     <use xlink:href="#LiberationSans-30"/>
     <use x="55.615234375" xlink:href="#LiberationSans-2e"/>
     <use x="83.3984375" xlink:href="#LiberationSans-30"/>
     <use x="139.013671875" xlink:href="#LiberationSans-30"/>
     <use x="194.62890625" xlink:href="#LiberationSans-38"/>
     <use x="250.244140625" xlink:href="#LiberationSans-36"/>
     <use x="305.859375" xlink:href="#LiberationSans-31"/>
     <use x="361.474609375" xlink:href="#LiberationSans-33"/>
     <use x="417.08984375" xlink:href="#LiberationSans-38"/>
     <use x="472.705078125" xlink:href="#LiberationSans-35"/>
     <use x="528.3203125" xlink:href="#LiberationSans-32"/>
     <use x="583.935546875" xlink:href="#LiberationSans-35"/>
     <use x="639.55078125" xlink:href="#LiberationSans-38"/>
     <use x="695.166015625" xlink:href="#LiberationSans-37"/>
     <use x="750.78125" xlink:href="#LiberationSans-35"/>
     <use x="806.396484375" xlink:href="#LiberationSans-37"/>
    </g>
   </g>
   <g id="text_35">
    <!-- 0.0040717738747 -->
    <g style="fill:#262626;" transform="translate(469.434488951 593.850873888)scale(0.1 -0.1)">
     <use xlink:href="#LiberationSans-30"/>
     <use x="55.615234375" xlink:href="#LiberationSans-2e"/>
     <use x="83.3984375" xlink:href="#LiberationSans-30"/>
     <use x="139.013671875" xlink:href="#LiberationSans-30"/>
     <use x="194.62890625" xlink:href="#LiberationSans-34"/>
     <use x="250.244140625" xlink:href="#LiberationSans-30"/>
     <use x="305.859375" xlink:href="#LiberationSans-37"/>
     <use x="361.474609375" xlink:href="#LiberationSans-31"/>
     <use x="417.08984375" xlink:href="#LiberationSans-37"/>
     <use x="472.705078125" xlink:href="#LiberationSans-37"/>
     <use x="528.3203125" xlink:href="#LiberationSans-33"/>
     <use x="583.935546875" xlink:href="#LiberationSans-38"/>
     <use x="639.55078125" xlink:href="#LiberationSans-37"/>
     <use x="695.166015625" xlink:href="#LiberationSans-34"/>
     <use x="750.78125" xlink:href="#LiberationSans-37"/>
    </g>
   </g>
   <g id="text_36">
    <!-- 0.0087571747907 -->
    <g style="fill:#262626;" transform="translate(502.456664287 575.314738232)scale(0.1 -0.1)">
     <use xlink:href="#LiberationSans-30"/>
     <use x="55.615234375" xlink:href="#LiberationSans-2e"/>
     <use x="83.3984375" xlink:href="#LiberationSans-30"/>
     <use x="139.013671875" xlink:href="#LiberationSans-30"/>
     <use x="194.62890625" xlink:href="#LiberationSans-38"/>
     <use x="250.244140625" xlink:href="#LiberationSans-37"/>
     <use x="305.859375" xlink:href="#LiberationSans-35"/>
     <use x="361.474609375" xlink:href="#LiberationSans-37"/>
     <use x="417.08984375" xlink:href="#LiberationSans-31"/>
     <use x="472.705078125" xlink:href="#LiberationSans-37"/>
     <use x="528.3203125" xlink:href="#LiberationSans-34"/>
     <use x="583.935546875" xlink:href="#LiberationSans-37"/>
     <use x="639.55078125" xlink:href="#LiberationSans-39"/>
     <use x="695.166015625" xlink:href="#LiberationSans-30"/>
     <use x="750.78125" xlink:href="#LiberationSans-37"/>
    </g>
   </g>
   <g id="text_37">
    <!-- 0.00231974824274 -->
    <g style="fill:#262626;" transform="translate(532.350728757 551.792420159)scale(0.1 -0.1)">
     <use xlink:href="#LiberationSans-30"/>
     <use x="55.615234375" xlink:href="#LiberationSans-2e"/>
     <use x="83.3984375" xlink:href="#LiberationSans-30"/>
     <use x="139.013671875" xlink:href="#LiberationSans-30"/>
     <use x="194.62890625" xlink:href="#LiberationSans-32"/>
     <use x="250.244140625" xlink:href="#LiberationSans-33"/>
     <use x="305.859375" xlink:href="#LiberationSans-31"/>
     <use x="361.474609375" xlink:href="#LiberationSans-39"/>
     <use x="417.08984375" xlink:href="#LiberationSans-37"/>
     <use x="472.705078125" xlink:href="#LiberationSans-34"/>
     <use x="528.3203125" xlink:href="#LiberationSans-38"/>
     <use x="583.935546875" xlink:href="#LiberationSans-32"/>
     <use x="639.55078125" xlink:href="#LiberationSans-34"/>
     <use x="695.166015625" xlink:href="#LiberationSans-32"/>
     <use x="750.78125" xlink:href="#LiberationSans-37"/>
     <use x="806.396484375" xlink:href="#LiberationSans-34"/>
    </g>
   </g>
   <g id="text_38">
    <!-- 0.00119077479952 -->
    <g style="fill:#262626;" transform="translate(558.415990879 523.835262826)scale(0.1 -0.1)">
     <use xlink:href="#LiberationSans-30"/>
     <use x="55.615234375" xlink:href="#LiberationSans-2e"/>
     <use x="83.3984375" xlink:href="#LiberationSans-30"/>
     <use x="139.013671875" xlink:href="#LiberationSans-30"/>
     <use x="194.62890625" xlink:href="#LiberationSans-31"/>
     <use x="250.244140625" xlink:href="#LiberationSans-31"/>
     <use x="305.859375" xlink:href="#LiberationSans-39"/>
     <use x="361.474609375" xlink:href="#LiberationSans-30"/>
     <use x="417.08984375" xlink:href="#LiberationSans-37"/>
     <use x="472.705078125" xlink:href="#LiberationSans-37"/>
     <use x="528.3203125" xlink:href="#LiberationSans-34"/>
     <use x="583.935546875" xlink:href="#LiberationSans-37"/>
     <use x="639.55078125" xlink:href="#LiberationSans-39"/>
     <use x="695.166015625" xlink:href="#LiberationSans-39"/>
     <use x="750.78125" xlink:href="#LiberationSans-35"/>
     <use x="806.396484375" xlink:href="#LiberationSans-32"/>
    </g>
   </g>
   <g id="text_39">
    <!-- 0.00170588782839 -->
    <g style="fill:#262626;" transform="translate(580.041503047 492.098558257)scale(0.1 -0.1)">
     <use xlink:href="#LiberationSans-30"/>
     <use x="55.615234375" xlink:href="#LiberationSans-2e"/>
     <use x="83.3984375" xlink:href="#LiberationSans-30"/>
     <use x="139.013671875" xlink:href="#LiberationSans-30"/>
     <use x="194.62890625" xlink:href="#LiberationSans-31"/>
     <use x="250.244140625" xlink:href="#LiberationSans-37"/>
     <use x="305.859375" xlink:href="#LiberationSans-30"/>
     <use x="361.474609375" xlink:href="#LiberationSans-35"/>
     <use x="417.08984375" xlink:href="#LiberationSans-38"/>
     <use x="472.705078125" xlink:href="#LiberationSans-38"/>
     <use x="528.3203125" xlink:href="#LiberationSans-37"/>
     <use x="583.935546875" xlink:href="#LiberationSans-38"/>
     <use x="639.55078125" xlink:href="#LiberationSans-32"/>
     <use x="695.166015625" xlink:href="#LiberationSans-38"/>
     <use x="750.78125" xlink:href="#LiberationSans-33"/>
     <use x="806.396484375" xlink:href="#LiberationSans-39"/>
    </g>
   </g>
   <g id="text_40">
    <!-- 0.00437491428709 -->
    <g style="fill:#262626;" transform="translate(596.720381622 457.326187854)scale(0.1 -0.1)">
     <use xlink:href="#LiberationSans-30"/>
     <use x="55.615234375" xlink:href="#LiberationSans-2e"/>
     <use x="83.3984375" xlink:href="#LiberationSans-30"/>
     <use x="139.013671875" xlink:href="#LiberationSans-30"/>
     <use x="194.62890625" xlink:href="#LiberationSans-34"/>
     <use x="250.244140625" xlink:href="#LiberationSans-33"/>
     <use x="305.859375" xlink:href="#LiberationSans-37"/>
     <use x="361.474609375" xlink:href="#LiberationSans-34"/>
     <use x="417.08984375" xlink:href="#LiberationSans-39"/>
     <use x="472.705078125" xlink:href="#LiberationSans-31"/>
     <use x="528.3203125" xlink:href="#LiberationSans-34"/>
     <use x="583.935546875" xlink:href="#LiberationSans-32"/>
     <use x="639.55078125" xlink:href="#LiberationSans-38"/>
     <use x="695.166015625" xlink:href="#LiberationSans-37"/>
     <use x="750.78125" xlink:href="#LiberationSans-30"/>
     <use x="806.396484375" xlink:href="#LiberationSans-39"/>
    </g>
   </g>
   <g id="text_41">
    <!-- 0.00301095958579 -->
    <g style="fill:#262626;" transform="translate(608.061687855 420.333186445)scale(0.1 -0.1)">
     <use xlink:href="#LiberationSans-30"/>
     <use x="55.615234375" xlink:href="#LiberationSans-2e"/>
     <use x="83.3984375" xlink:href="#LiberationSans-30"/>
     <use x="139.013671875" xlink:href="#LiberationSans-30"/>
     <use x="194.62890625" xlink:href="#LiberationSans-33"/>
     <use x="250.244140625" xlink:href="#LiberationSans-30"/>
     <use x="305.859375" xlink:href="#LiberationSans-31"/>
     <use x="361.474609375" xlink:href="#LiberationSans-30"/>
     <use x="417.08984375" xlink:href="#LiberationSans-39"/>
     <use x="472.705078125" xlink:href="#LiberationSans-35"/>
     <use x="528.3203125" xlink:href="#LiberationSans-39"/>
     <use x="583.935546875" xlink:href="#LiberationSans-35"/>
     <use x="639.55078125" xlink:href="#LiberationSans-38"/>
     <use x="695.166015625" xlink:href="#LiberationSans-35"/>
     <use x="750.78125" xlink:href="#LiberationSans-37"/>
     <use x="806.396484375" xlink:href="#LiberationSans-39"/>
    </g>
   </g>
   <g id="text_42">
    <!-- 0.00490927555218 -->
    <g style="fill:#262626;" transform="translate(613.799591161 381.986638565)scale(0.1 -0.1)">
     <use xlink:href="#LiberationSans-30"/>
     <use x="55.615234375" xlink:href="#LiberationSans-2e"/>
     <use x="83.3984375" xlink:href="#LiberationSans-30"/>
     <use x="139.013671875" xlink:href="#LiberationSans-30"/>
     <use x="194.62890625" xlink:href="#LiberationSans-34"/>
     <use x="250.244140625" xlink:href="#LiberationSans-39"/>
     <use x="305.859375" xlink:href="#LiberationSans-30"/>
     <use x="361.474609375" xlink:href="#LiberationSans-39"/>
     <use x="417.08984375" xlink:href="#LiberationSans-32"/>
     <use x="472.705078125" xlink:href="#LiberationSans-37"/>
     <use x="528.3203125" xlink:href="#LiberationSans-35"/>
     <use x="583.935546875" xlink:href="#LiberationSans-35"/>
     <use x="639.55078125" xlink:href="#LiberationSans-35"/>
     <use x="695.166015625" xlink:href="#LiberationSans-32"/>
     <use x="750.78125" xlink:href="#LiberationSans-31"/>
     <use x="806.396484375" xlink:href="#LiberationSans-38"/>
    </g>
   </g>
   <g id="text_43">
    <!-- Pie Chart for attribute Result -->
    <defs>
     <path d="M 6.9375 0 
L 6.9375 40.53125 
Q 6.9375 42.1875 6.90625 43.921875 
Q 6.890625 45.65625 6.828125 47.265625 
Q 6.78125 48.875 6.734375 50.28125 
Q 6.6875 51.703125 6.640625 52.828125 
L 14.9375 52.828125 
Q 14.984375 51.703125 15.0625 50.265625 
Q 15.140625 48.828125 15.203125 47.3125 
Q 15.28125 45.796875 15.296875 44.40625 
Q 15.328125 43.015625 15.328125 42.046875 
L 15.53125 42.046875 
Q 16.453125 45.0625 17.5 47.28125 
Q 18.5625 49.515625 19.96875 50.953125 
Q 21.390625 52.390625 23.34375 53.09375 
Q 25.296875 53.8125 28.078125 53.8125 
Q 29.15625 53.8125 30.125 53.640625 
Q 31.109375 53.46875 31.640625 53.328125 
L 31.640625 45.265625 
Q 30.765625 45.515625 29.59375 45.625 
Q 28.421875 45.75 26.953125 45.75 
Q 23.921875 45.75 21.796875 44.375 
Q 19.671875 43.015625 18.328125 40.59375 
Q 17 38.1875 16.359375 34.84375 
Q 15.71875 31.5 15.71875 27.546875 
L 15.71875 0 
z
" id="LiberationSans-72"/>
     <path d="M 17.625 46.4375 
L 17.625 0 
L 8.84375 0 
L 8.84375 46.4375 
L 1.421875 46.4375 
L 1.421875 52.828125 
L 8.84375 52.828125 
L 8.84375 58.796875 
Q 8.84375 61.671875 9.375 64.140625 
Q 9.90625 66.609375 11.34375 68.4375 
Q 12.796875 70.265625 15.28125 71.3125 
Q 17.78125 72.359375 21.734375 72.359375 
Q 23.296875 72.359375 24.96875 72.21875 
Q 26.65625 72.078125 27.9375 71.78125 
L 27.9375 65.09375 
Q 27.09375 65.234375 26 65.359375 
Q 24.90625 65.484375 24.03125 65.484375 
Q 22.078125 65.484375 20.828125 64.9375 
Q 19.578125 64.40625 18.875 63.40625 
Q 18.171875 62.40625 17.890625 60.9375 
Q 17.625 59.46875 17.625 57.5625 
L 17.625 52.828125 
L 27.9375 52.828125 
L 27.9375 46.4375 
z
" id="LiberationSans-66"/>
     <path d="M 20.21875 -0.984375 
Q 12.25 -0.984375 8.25 3.21875 
Q 4.25 7.421875 4.25 14.75 
Q 4.25 19.96875 6.21875 23.3125 
Q 8.203125 26.65625 11.390625 28.5625 
Q 14.59375 30.46875 18.6875 31.203125 
Q 22.796875 31.9375 27.046875 32.03125 
L 38.921875 32.234375 
L 38.921875 35.109375 
Q 38.921875 38.375 38.234375 40.671875 
Q 37.546875 42.96875 36.125 44.375 
Q 34.71875 45.796875 32.59375 46.453125 
Q 30.46875 47.125 27.59375 47.125 
Q 25.046875 47.125 23 46.75 
Q 20.953125 46.390625 19.4375 45.4375 
Q 17.921875 44.484375 16.984375 42.84375 
Q 16.0625 41.21875 15.765625 38.71875 
L 6.59375 39.546875 
Q 7.078125 42.671875 8.4375 45.28125 
Q 9.8125 47.90625 12.328125 49.796875 
Q 14.84375 51.703125 18.625 52.75 
Q 22.40625 53.8125 27.78125 53.8125 
Q 37.75 53.8125 42.765625 49.234375 
Q 47.796875 44.671875 47.796875 36.03125 
L 47.796875 13.28125 
Q 47.796875 9.375 48.828125 7.390625 
Q 49.859375 5.421875 52.734375 5.421875 
Q 53.46875 5.421875 54.203125 5.515625 
Q 54.9375 5.609375 55.609375 5.765625 
L 55.609375 0.296875 
Q 53.953125 -0.09375 52.3125 -0.28125 
Q 50.6875 -0.484375 48.828125 -0.484375 
Q 46.34375 -0.484375 44.5625 0.171875 
Q 42.78125 0.828125 41.65625 2.171875 
Q 40.53125 3.515625 39.9375 5.484375 
Q 39.359375 7.46875 39.203125 10.109375 
L 38.921875 10.109375 
Q 37.5 7.5625 35.8125 5.515625 
Q 34.125 3.46875 31.875 2.03125 
Q 29.640625 0.59375 26.78125 -0.1875 
Q 23.921875 -0.984375 20.21875 -0.984375 
M 22.21875 5.609375 
Q 26.421875 5.609375 29.5625 7.140625 
Q 32.71875 8.6875 34.78125 11.078125 
Q 36.859375 13.484375 37.890625 16.3125 
Q 38.921875 19.140625 38.921875 21.734375 
L 38.921875 26.078125 
L 29.296875 25.875 
Q 26.078125 25.828125 23.171875 25.40625 
Q 20.265625 25 18.0625 23.78125 
Q 15.875 22.5625 14.578125 20.359375 
Q 13.28125 18.171875 13.28125 14.59375 
Q 13.28125 10.296875 15.59375 7.953125 
Q 17.921875 5.609375 22.21875 5.609375 
" id="LiberationSans-61"/>
     <path d="M 51.421875 26.65625 
Q 51.421875 -0.984375 31.984375 -0.984375 
Q 25.984375 -0.984375 22 1.1875 
Q 18.015625 3.375 15.53125 8.203125 
L 15.4375 8.203125 
Q 15.4375 6.9375 15.359375 5.5625 
Q 15.28125 4.203125 15.203125 3.03125 
Q 15.140625 1.859375 15.0625 1.03125 
Q 14.984375 0.203125 14.9375 0 
L 6.453125 0 
Q 6.5 0.4375 6.546875 1.484375 
Q 6.59375 2.546875 6.640625 4 
Q 6.6875 5.46875 6.703125 7.21875 
Q 6.734375 8.984375 6.734375 10.890625 
L 6.734375 72.46875 
L 15.53125 72.46875 
L 15.53125 51.8125 
Q 15.53125 50.34375 15.5 49 
Q 15.484375 47.65625 15.4375 46.625 
Q 15.375 45.40625 15.328125 44.34375 
L 15.53125 44.34375 
Q 17.96875 49.421875 22 51.609375 
Q 26.03125 53.8125 31.984375 53.8125 
Q 42 53.8125 46.703125 47.0625 
Q 51.421875 40.328125 51.421875 26.65625 
M 42.1875 26.375 
Q 42.1875 31.84375 41.5 35.75 
Q 40.828125 39.65625 39.3125 42.15625 
Q 37.796875 44.671875 35.453125 45.84375 
Q 33.109375 47.015625 29.734375 47.015625 
Q 26.265625 47.015625 23.609375 45.890625 
Q 20.953125 44.78125 19.171875 42.28125 
Q 17.390625 39.796875 16.453125 35.734375 
Q 15.53125 31.6875 15.53125 25.828125 
Q 15.53125 20.171875 16.453125 16.3125 
Q 17.390625 12.453125 19.171875 10.03125 
Q 20.953125 7.625 23.578125 6.5625 
Q 26.21875 5.515625 29.640625 5.515625 
Q 32.859375 5.515625 35.203125 6.640625 
Q 37.546875 7.765625 39.109375 10.25 
Q 40.671875 12.75 41.421875 16.71875 
Q 42.1875 20.703125 42.1875 26.375 
" id="LiberationSans-62"/>
     <path d="M 15.484375 43.796875 
Q 16.9375 46.484375 18.640625 48.359375 
Q 20.359375 50.25 22.40625 51.46875 
Q 24.46875 52.6875 26.90625 53.25 
Q 29.34375 53.8125 32.375 53.8125 
Q 37.453125 53.8125 40.703125 52.4375 
Q 43.953125 51.078125 45.828125 48.609375 
Q 47.703125 46.140625 48.40625 42.71875 
Q 49.125 39.3125 49.125 35.203125 
L 49.125 0 
L 40.28125 0 
L 40.28125 33.5 
Q 40.28125 36.859375 39.859375 39.390625 
Q 39.453125 41.9375 38.28125 43.625 
Q 37.109375 45.3125 34.953125 46.15625 
Q 32.8125 47.015625 29.390625 47.015625 
Q 26.265625 47.015625 23.75 45.890625 
Q 21.234375 44.78125 19.453125 42.71875 
Q 17.671875 40.671875 16.6875 37.734375 
Q 15.71875 34.8125 15.71875 31.15625 
L 15.71875 0 
L 6.9375 0 
L 6.9375 72.46875 
L 15.71875 72.46875 
L 15.71875 53.609375 
Q 15.71875 52 15.671875 50.390625 
Q 15.625 48.78125 15.546875 47.40625 
Q 15.484375 46.046875 15.421875 45.09375 
Q 15.375 44.140625 15.328125 43.796875 
z
" id="LiberationSans-68"/>
     <path d="M 6.6875 64.0625 
L 6.6875 72.46875 
L 15.484375 72.46875 
L 15.484375 64.0625 
z
M 6.6875 0 
L 6.6875 52.828125 
L 15.484375 52.828125 
L 15.484375 0 
z
" id="LiberationSans-69"/>
     <path d="M 38.671875 62.203125 
Q 32.8125 62.203125 28.296875 60.25 
Q 23.78125 58.296875 20.71875 54.6875 
Q 17.671875 51.078125 16.109375 46 
Q 14.546875 40.921875 14.546875 34.71875 
Q 14.546875 28.515625 16.234375 23.359375 
Q 17.921875 18.21875 21.0625 14.5 
Q 24.21875 10.796875 28.78125 8.734375 
Q 33.34375 6.6875 39.0625 6.6875 
Q 43.0625 6.6875 46.359375 7.734375 
Q 49.65625 8.796875 52.3125 10.6875 
Q 54.984375 12.59375 57.078125 15.203125 
Q 59.1875 17.828125 60.796875 21 
L 68.40625 17.1875 
Q 66.546875 13.328125 63.8125 10 
Q 61.078125 6.6875 57.390625 4.25 
Q 53.71875 1.8125 49.046875 0.40625 
Q 44.390625 -0.984375 38.625 -0.984375 
Q 30.28125 -0.984375 24 1.671875 
Q 17.71875 4.34375 13.5 9.109375 
Q 9.28125 13.875 7.171875 20.40625 
Q 5.078125 26.953125 5.078125 34.71875 
Q 5.078125 42.78125 7.296875 49.265625 
Q 9.515625 55.765625 13.78125 60.328125 
Q 18.0625 64.890625 24.3125 67.359375 
Q 30.5625 69.828125 38.578125 69.828125 
Q 49.5625 69.828125 56.9375 65.53125 
Q 64.3125 61.234375 67.78125 52.78125 
L 58.9375 49.859375 
Q 57.953125 52.296875 56.296875 54.515625 
Q 54.640625 56.734375 52.140625 58.4375 
Q 49.65625 60.15625 46.3125 61.171875 
Q 42.96875 62.203125 38.671875 62.203125 
" id="LiberationSans-43"/>
     <path d="M 51.421875 26.46875 
Q 51.421875 12.59375 45.3125 5.796875 
Q 39.203125 -0.984375 27.59375 -0.984375 
Q 22.078125 -0.984375 17.71875 0.671875 
Q 13.375 2.34375 10.375 5.765625 
Q 7.375 9.1875 5.78125 14.328125 
Q 4.203125 19.484375 4.203125 26.46875 
Q 4.203125 53.8125 27.875 53.8125 
Q 34.03125 53.8125 38.5 52.09375 
Q 42.96875 50.390625 45.828125 46.96875 
Q 48.6875 43.5625 50.046875 38.421875 
Q 51.421875 33.296875 51.421875 26.46875 
M 42.1875 26.46875 
Q 42.1875 32.625 41.234375 36.625 
Q 40.28125 40.625 38.453125 43.015625 
Q 36.625 45.40625 33.984375 46.359375 
Q 31.34375 47.3125 28.03125 47.3125 
Q 24.65625 47.3125 21.9375 46.3125 
Q 19.234375 45.3125 17.328125 42.890625 
Q 15.4375 40.484375 14.421875 36.46875 
Q 13.421875 32.46875 13.421875 26.46875 
Q 13.421875 20.3125 14.5 16.28125 
Q 15.578125 12.25 17.453125 9.859375 
Q 19.34375 7.46875 21.90625 6.484375 
Q 24.46875 5.515625 27.484375 5.515625 
Q 30.859375 5.515625 33.59375 6.46875 
Q 36.328125 7.421875 38.234375 9.8125 
Q 40.140625 12.203125 41.15625 16.25 
Q 42.1875 20.3125 42.1875 26.46875 
" id="LiberationSans-6f"/>
     <path id="LiberationSans-20"/>
     <path d="M 61.421875 48.09375 
Q 61.421875 43.609375 59.9375 39.71875 
Q 58.453125 35.84375 55.5 32.984375 
Q 52.546875 30.125 48.09375 28.46875 
Q 43.65625 26.8125 37.75 26.8125 
L 17.53125 26.8125 
L 17.53125 0 
L 8.203125 0 
L 8.203125 68.796875 
L 37.15625 68.796875 
Q 43.265625 68.796875 47.796875 67.3125 
Q 52.34375 65.828125 55.375 63.109375 
Q 58.40625 60.40625 59.90625 56.5625 
Q 61.421875 52.734375 61.421875 48.09375 
M 52.046875 48 
Q 52.046875 54.546875 48.046875 57.9375 
Q 44.046875 61.328125 36.03125 61.328125 
L 17.53125 61.328125 
L 17.53125 34.1875 
L 36.421875 34.1875 
Q 44.484375 34.1875 48.265625 37.75 
Q 52.046875 41.3125 52.046875 48 
" id="LiberationSans-50"/>
    </defs>
    <g style="fill:#262626;" transform="translate(255.4565625 67.0)scale(0.18 -0.18)">
     <use xlink:href="#LiberationSans-50"/>
     <use x="66.69921875" xlink:href="#LiberationSans-69"/>
     <use x="88.916015625" xlink:href="#LiberationSans-65"/>
     <use x="144.53125" xlink:href="#LiberationSans-20"/>
     <use x="172.314453125" xlink:href="#LiberationSans-43"/>
     <use x="244.53125" xlink:href="#LiberationSans-68"/>
     <use x="300.146484375" xlink:href="#LiberationSans-61"/>
     <use x="355.76171875" xlink:href="#LiberationSans-72"/>
     <use x="389.0625" xlink:href="#LiberationSans-74"/>
     <use x="416.845703125" xlink:href="#LiberationSans-20"/>
     <use x="444.62890625" xlink:href="#LiberationSans-66"/>
     <use x="472.412109375" xlink:href="#LiberationSans-6f"/>
     <use x="528.02734375" xlink:href="#LiberationSans-72"/>
     <use x="561.328125" xlink:href="#LiberationSans-20"/>
     <use x="589.111328125" xlink:href="#LiberationSans-61"/>
     <use x="644.7265625" xlink:href="#LiberationSans-74"/>
     <use x="672.509765625" xlink:href="#LiberationSans-74"/>
     <use x="700.29296875" xlink:href="#LiberationSans-72"/>
     <use x="733.59375" xlink:href="#LiberationSans-69"/>
     <use x="755.810546875" xlink:href="#LiberationSans-62"/>
     <use x="811.42578125" xlink:href="#LiberationSans-75"/>
     <use x="867.041015625" xlink:href="#LiberationSans-74"/>
     <use x="894.82421875" xlink:href="#LiberationSans-65"/>
     <use x="950.439453125" xlink:href="#LiberationSans-20"/>
     <use x="978.22265625" xlink:href="#LiberationSans-52"/>
     <use x="1050.43945312" xlink:href="#LiberationSans-65"/>
     <use x="1106.0546875" xlink:href="#LiberationSans-73"/>
     <use x="1156.0546875" xlink:href="#LiberationSans-75"/>
     <use x="1211.66992188" xlink:href="#LiberationSans-6c"/>
     <use x="1233.88671875" xlink:href="#LiberationSans-74"/>
    </g>
   </g>
  </g>
 </g>
</svg>
