<?xml version="1.0" encoding="utf-8" standalone="no"?>
<!DOCTYPE svg PUBLIC "-//W3C//DTD SVG 1.1//EN"
  "http://www.w3.org/Graphics/SVG/1.1/DTD/svg11.dtd">
<!-- Created with matplotlib (http://matplotlib.org/) -->
<svg height="396pt" version="1.1" viewBox="0 0 576 396" width="576pt" xmlns="http://www.w3.org/2000/svg" xmlns:xlink="http://www.w3.org/1999/xlink">
 <defs>
  <style type="text/css">
*{stroke-linecap:butt;stroke-linejoin:round;stroke-miterlimit:100000;}
  </style>
 </defs>
 <g id="figure_1">
  <g id="patch_1">
   <path d="M 0 396 
L 576 396 
L 576 0 
L 0 0 
z
" style="fill:#ffffff;"/>
  </g>
  <g id="axes_1">
   <g id="patch_2">
    <path d="M 72 356.4 
L 518.4 356.4 
L 518.4 39.6 
L 72 39.6 
z
" style="fill:#ffffff;"/>
   </g>
   <g id="matplotlib.axis_1">
    <g id="xtick_1">
     <g id="line2d_1">
      <defs>
       <path d="M 0 0 
L 0 6 
" id="m4641da8c12" style="stroke:#262626;"/>
      </defs>
      <g>
       <use style="fill:#262626;stroke:#262626;" x="72.0" xlink:href="#m4641da8c12" y="356.4"/>
      </g>
     </g>
     <g id="line2d_2">
      <defs>
       <path d="M 0 0 
L 0 -6 
" id="m4e1985dc24" style="stroke:#262626;"/>
      </defs>
      <g>
       <use style="fill:#262626;stroke:#262626;" x="72.0" xlink:href="#m4e1985dc24" y="39.6"/>
      </g>
     </g>
     <g id="text_1">
      <!-- 0.0 -->
      <defs>
       <path d="M 9.125 0 
L 9.125 10.6875 
L 18.65625 10.6875 
L 18.65625 0 
z
" id="LiberationSans-2e"/>
       <path d="M 51.703125 34.421875 
Q 51.703125 24.515625 49.828125 17.75 
Q 47.953125 10.984375 44.703125 6.8125 
Q 41.453125 2.640625 37.0625 0.828125 
Q 32.671875 -0.984375 27.6875 -0.984375 
Q 22.65625 -0.984375 18.3125 0.828125 
Q 13.96875 2.640625 10.765625 6.78125 
Q 7.5625 10.9375 5.734375 17.703125 
Q 3.90625 24.46875 3.90625 34.421875 
Q 3.90625 44.828125 5.734375 51.640625 
Q 7.5625 58.453125 10.78125 62.5 
Q 14.015625 66.546875 18.40625 68.1875 
Q 22.796875 69.828125 27.984375 69.828125 
Q 32.90625 69.828125 37.21875 68.1875 
Q 41.546875 66.546875 44.765625 62.5 
Q 48 58.453125 49.84375 51.640625 
Q 51.703125 44.828125 51.703125 34.421875 
M 42.78125 34.421875 
Q 42.78125 42.625 41.796875 48.0625 
Q 40.828125 53.515625 38.921875 56.765625 
Q 37.015625 60.015625 34.25 61.359375 
Q 31.5 62.703125 27.984375 62.703125 
Q 24.265625 62.703125 21.4375 61.328125 
Q 18.609375 59.96875 16.671875 56.71875 
Q 14.75 53.46875 13.765625 48.015625 
Q 12.796875 42.578125 12.796875 34.421875 
Q 12.796875 26.515625 13.796875 21.09375 
Q 14.796875 15.671875 16.71875 12.375 
Q 18.65625 9.078125 21.4375 7.640625 
Q 24.21875 6.203125 27.78125 6.203125 
Q 31.25 6.203125 34.03125 7.640625 
Q 36.8125 9.078125 38.734375 12.375 
Q 40.671875 15.671875 41.71875 21.09375 
Q 42.78125 26.515625 42.78125 34.421875 
" id="LiberationSans-30"/>
      </defs>
      <g style="fill:#262626;" transform="translate(65.05 376.646875)scale(0.1 -0.1)">
       <use xlink:href="#LiberationSans-30"/>
       <use x="55.615234375" xlink:href="#LiberationSans-2e"/>
       <use x="83.3984375" xlink:href="#LiberationSans-30"/>
      </g>
     </g>
    </g>
    <g id="xtick_2">
     <g id="line2d_3">
      <g>
       <use style="fill:#262626;stroke:#262626;" x="161.28" xlink:href="#m4641da8c12" y="356.4"/>
      </g>
     </g>
     <g id="line2d_4">
      <g>
       <use style="fill:#262626;stroke:#262626;" x="161.28" xlink:href="#m4e1985dc24" y="39.6"/>
      </g>
     </g>
     <g id="text_2">
      <!-- 0.2 -->
      <defs>
       <path d="M 5.03125 0 
L 5.03125 6.203125 
Q 7.515625 11.921875 11.109375 16.28125 
Q 14.703125 20.65625 18.65625 24.1875 
Q 22.609375 27.734375 26.484375 30.765625 
Q 30.375 33.796875 33.5 36.8125 
Q 36.625 39.84375 38.546875 43.15625 
Q 40.484375 46.484375 40.484375 50.6875 
Q 40.484375 53.609375 39.59375 55.828125 
Q 38.71875 58.0625 37.0625 59.5625 
Q 35.40625 61.078125 33.078125 61.828125 
Q 30.765625 62.59375 27.9375 62.59375 
Q 25.296875 62.59375 22.96875 61.859375 
Q 20.65625 61.140625 18.84375 59.671875 
Q 17.046875 58.203125 15.890625 56.03125 
Q 14.75 53.859375 14.40625 50.984375 
L 5.421875 51.8125 
Q 5.859375 55.515625 7.46875 58.78125 
Q 9.078125 62.0625 11.90625 64.53125 
Q 14.75 67 18.71875 68.40625 
Q 22.703125 69.828125 27.9375 69.828125 
Q 33.0625 69.828125 37.0625 68.609375 
Q 41.0625 67.390625 43.8125 64.984375 
Q 46.578125 62.59375 48.046875 59.078125 
Q 49.515625 55.5625 49.515625 50.984375 
Q 49.515625 47.515625 48.265625 44.390625 
Q 47.015625 41.265625 44.9375 38.421875 
Q 42.875 35.59375 40.140625 32.953125 
Q 37.40625 30.328125 34.421875 27.8125 
Q 31.453125 25.296875 28.421875 22.828125 
Q 25.390625 20.359375 22.71875 17.859375 
Q 20.0625 15.375 17.96875 12.8125 
Q 15.875 10.25 14.703125 7.46875 
L 50.59375 7.46875 
L 50.59375 0 
z
" id="LiberationSans-32"/>
      </defs>
      <g style="fill:#262626;" transform="translate(154.33 376.646875)scale(0.1 -0.1)">
       <use xlink:href="#LiberationSans-30"/>
       <use x="55.615234375" xlink:href="#LiberationSans-2e"/>
       <use x="83.3984375" xlink:href="#LiberationSans-32"/>
      </g>
     </g>
    </g>
    <g id="xtick_3">
     <g id="line2d_5">
      <g>
       <use style="fill:#262626;stroke:#262626;" x="250.56" xlink:href="#m4641da8c12" y="356.4"/>
      </g>
     </g>
     <g id="line2d_6">
      <g>
       <use style="fill:#262626;stroke:#262626;" x="250.56" xlink:href="#m4e1985dc24" y="39.6"/>
      </g>
     </g>
     <g id="text_3">
      <!-- 0.4 -->
      <defs>
       <path d="M 43.015625 15.578125 
L 43.015625 0 
L 34.71875 0 
L 34.71875 15.578125 
L 2.296875 15.578125 
L 2.296875 22.40625 
L 33.796875 68.796875 
L 43.015625 68.796875 
L 43.015625 22.515625 
L 52.6875 22.515625 
L 52.6875 15.578125 
z
M 34.71875 58.890625 
Q 34.625 58.640625 34.234375 57.9375 
Q 33.84375 57.234375 33.34375 56.34375 
Q 32.859375 55.46875 32.34375 54.5625 
Q 31.84375 53.65625 31.453125 53.078125 
L 13.8125 27.09375 
Q 13.578125 26.703125 13.109375 26.0625 
Q 12.640625 25.4375 12.15625 24.78125 
Q 11.671875 24.125 11.171875 23.484375 
Q 10.6875 22.859375 10.40625 22.515625 
L 34.71875 22.515625 
z
" id="LiberationSans-34"/>
      </defs>
      <g style="fill:#262626;" transform="translate(243.61 376.646875)scale(0.1 -0.1)">
       <use xlink:href="#LiberationSans-30"/>
       <use x="55.615234375" xlink:href="#LiberationSans-2e"/>
       <use x="83.3984375" xlink:href="#LiberationSans-34"/>
      </g>
     </g>
    </g>
    <g id="xtick_4">
     <g id="line2d_7">
      <g>
       <use style="fill:#262626;stroke:#262626;" x="339.84" xlink:href="#m4641da8c12" y="356.4"/>
      </g>
     </g>
     <g id="line2d_8">
      <g>
       <use style="fill:#262626;stroke:#262626;" x="339.84" xlink:href="#m4e1985dc24" y="39.6"/>
      </g>
     </g>
     <g id="text_4">
      <!-- 0.6 -->
      <defs>
       <path d="M 51.21875 22.515625 
Q 51.21875 17.328125 49.78125 13 
Q 48.34375 8.6875 45.53125 5.578125 
Q 42.71875 2.484375 38.5625 0.75 
Q 34.421875 -0.984375 29 -0.984375 
Q 23 -0.984375 18.5 1.3125 
Q 14.015625 3.609375 11.03125 7.921875 
Q 8.0625 12.25 6.5625 18.53125 
Q 5.078125 24.8125 5.078125 32.8125 
Q 5.078125 42 6.765625 48.921875 
Q 8.453125 55.859375 11.625 60.5 
Q 14.796875 65.140625 19.359375 67.484375 
Q 23.921875 69.828125 29.6875 69.828125 
Q 33.203125 69.828125 36.28125 69.09375 
Q 39.359375 68.359375 41.875 66.71875 
Q 44.390625 65.09375 46.28125 62.40625 
Q 48.1875 59.71875 49.3125 55.8125 
L 40.921875 54.296875 
Q 39.546875 58.734375 36.546875 60.71875 
Q 33.546875 62.703125 29.59375 62.703125 
Q 25.984375 62.703125 23.046875 60.984375 
Q 20.125 59.28125 18.0625 55.875 
Q 16.015625 52.484375 14.90625 47.359375 
Q 13.8125 42.234375 13.8125 35.40625 
Q 16.21875 39.84375 20.5625 42.15625 
Q 24.90625 44.484375 30.515625 44.484375 
Q 35.203125 44.484375 39.015625 42.96875 
Q 42.828125 41.453125 45.53125 38.59375 
Q 48.25 35.75 49.734375 31.671875 
Q 51.21875 27.59375 51.21875 22.515625 
M 42.28125 22.125 
Q 42.28125 25.6875 41.40625 28.5625 
Q 40.53125 31.453125 38.765625 33.46875 
Q 37.015625 35.5 34.421875 36.59375 
Q 31.84375 37.703125 28.421875 37.703125 
Q 26.03125 37.703125 23.578125 36.984375 
Q 21.140625 36.28125 19.15625 34.6875 
Q 17.1875 33.109375 15.9375 30.515625 
Q 14.703125 27.9375 14.703125 24.21875 
Q 14.703125 20.40625 15.671875 17.109375 
Q 16.65625 13.8125 18.484375 11.375 
Q 20.3125 8.9375 22.890625 7.515625 
Q 25.484375 6.109375 28.71875 6.109375 
Q 31.890625 6.109375 34.40625 7.203125 
Q 36.921875 8.296875 38.671875 10.375 
Q 40.4375 12.453125 41.359375 15.421875 
Q 42.28125 18.40625 42.28125 22.125 
" id="LiberationSans-36"/>
      </defs>
      <g style="fill:#262626;" transform="translate(332.89 376.646875)scale(0.1 -0.1)">
       <use xlink:href="#LiberationSans-30"/>
       <use x="55.615234375" xlink:href="#LiberationSans-2e"/>
       <use x="83.3984375" xlink:href="#LiberationSans-36"/>
      </g>
     </g>
    </g>
    <g id="xtick_5">
     <g id="line2d_9">
      <g>
       <use style="fill:#262626;stroke:#262626;" x="429.12" xlink:href="#m4641da8c12" y="356.4"/>
      </g>
     </g>
     <g id="line2d_10">
      <g>
       <use style="fill:#262626;stroke:#262626;" x="429.12" xlink:href="#m4e1985dc24" y="39.6"/>
      </g>
     </g>
     <g id="text_5">
      <!-- 0.8 -->
      <defs>
       <path d="M 51.265625 19.1875 
Q 51.265625 14.796875 49.875 11.109375 
Q 48.484375 7.421875 45.625 4.734375 
Q 42.78125 2.046875 38.328125 0.53125 
Q 33.890625 -0.984375 27.828125 -0.984375 
Q 21.78125 -0.984375 17.359375 0.53125 
Q 12.9375 2.046875 10.03125 4.703125 
Q 7.125 7.375 5.734375 11.0625 
Q 4.34375 14.75 4.34375 19.09375 
Q 4.34375 22.859375 5.484375 25.78125 
Q 6.640625 28.71875 8.5625 30.828125 
Q 10.5 32.953125 12.96875 34.25 
Q 15.4375 35.546875 18.0625 35.984375 
L 18.0625 36.1875 
Q 15.1875 36.859375 12.90625 38.375 
Q 10.640625 39.890625 9.09375 42.015625 
Q 7.5625 44.140625 6.75 46.71875 
Q 5.953125 49.3125 5.953125 52.203125 
Q 5.953125 55.8125 7.34375 59 
Q 8.734375 62.203125 11.46875 64.625 
Q 14.203125 67.046875 18.25 68.4375 
Q 22.3125 69.828125 27.640625 69.828125 
Q 33.25 69.828125 37.375 68.40625 
Q 41.5 67 44.203125 64.578125 
Q 46.921875 62.15625 48.234375 58.9375 
Q 49.5625 55.71875 49.5625 52.09375 
Q 49.5625 49.265625 48.75 46.671875 
Q 47.953125 44.09375 46.40625 41.96875 
Q 44.875 39.84375 42.59375 38.34375 
Q 40.328125 36.859375 37.359375 36.28125 
L 37.359375 36.078125 
Q 40.328125 35.59375 42.859375 34.296875 
Q 45.40625 33.015625 47.265625 30.890625 
Q 49.125 28.765625 50.1875 25.828125 
Q 51.265625 22.90625 51.265625 19.1875 
M 40.4375 51.609375 
Q 40.4375 54.203125 39.765625 56.34375 
Q 39.109375 58.5 37.59375 60.03125 
Q 36.078125 61.578125 33.640625 62.421875 
Q 31.203125 63.28125 27.640625 63.28125 
Q 24.171875 63.28125 21.78125 62.421875 
Q 19.390625 61.578125 17.84375 60.03125 
Q 16.3125 58.5 15.625 56.34375 
Q 14.9375 54.203125 14.9375 51.609375 
Q 14.9375 49.5625 15.46875 47.40625 
Q 16.015625 45.265625 17.421875 43.5 
Q 18.84375 41.75 21.328125 40.625 
Q 23.828125 39.5 27.734375 39.5 
Q 31.890625 39.5 34.40625 40.625 
Q 36.921875 41.75 38.25 43.5 
Q 39.59375 45.265625 40.015625 47.40625 
Q 40.4375 49.5625 40.4375 51.609375 
M 42.140625 20.015625 
Q 42.140625 22.515625 41.453125 24.828125 
Q 40.765625 27.15625 39.109375 28.9375 
Q 37.453125 30.71875 34.640625 31.8125 
Q 31.84375 32.90625 27.640625 32.90625 
Q 23.78125 32.90625 21.0625 31.8125 
Q 18.359375 30.71875 16.671875 28.90625 
Q 14.984375 27.09375 14.203125 24.71875 
Q 13.421875 22.359375 13.421875 19.828125 
Q 13.421875 16.65625 14.203125 14.03125 
Q 14.984375 11.421875 16.6875 9.546875 
Q 18.40625 7.671875 21.1875 6.640625 
Q 23.96875 5.609375 27.9375 5.609375 
Q 31.9375 5.609375 34.671875 6.640625 
Q 37.40625 7.671875 39.0625 9.546875 
Q 40.71875 11.421875 41.421875 14.078125 
Q 42.140625 16.75 42.140625 20.015625 
" id="LiberationSans-38"/>
      </defs>
      <g style="fill:#262626;" transform="translate(422.17 376.646875)scale(0.1 -0.1)">
       <use xlink:href="#LiberationSans-30"/>
       <use x="55.615234375" xlink:href="#LiberationSans-2e"/>
       <use x="83.3984375" xlink:href="#LiberationSans-38"/>
      </g>
     </g>
    </g>
    <g id="xtick_6">
     <g id="line2d_11">
      <g>
       <use style="fill:#262626;stroke:#262626;" x="518.4" xlink:href="#m4641da8c12" y="356.4"/>
      </g>
     </g>
     <g id="line2d_12">
      <g>
       <use style="fill:#262626;stroke:#262626;" x="518.4" xlink:href="#m4e1985dc24" y="39.6"/>
      </g>
     </g>
     <g id="text_6">
      <!-- 1.0 -->
      <defs>
       <path d="M 7.625 0 
L 7.625 7.46875 
L 25.140625 7.46875 
L 25.140625 60.40625 
L 9.625 49.3125 
L 9.625 57.625 
L 25.875 68.796875 
L 33.984375 68.796875 
L 33.984375 7.46875 
L 50.734375 7.46875 
L 50.734375 0 
z
" id="LiberationSans-31"/>
      </defs>
      <g style="fill:#262626;" transform="translate(511.45 376.646875)scale(0.1 -0.1)">
       <use xlink:href="#LiberationSans-31"/>
       <use x="55.615234375" xlink:href="#LiberationSans-2e"/>
       <use x="83.3984375" xlink:href="#LiberationSans-30"/>
      </g>
     </g>
    </g>
    <g id="text_7">
     <!-- SaccM -->
     <defs>
      <path d="M 66.703125 0 
L 66.703125 45.90625 
Q 66.703125 48.390625 66.75 50.96875 
Q 66.796875 53.5625 66.890625 55.71875 
Q 67 58.203125 67.140625 60.546875 
Q 66.453125 58.0625 65.71875 55.609375 
Q 65.09375 53.515625 64.328125 51.140625 
Q 63.578125 48.78125 62.84375 46.875 
L 45.0625 0 
L 38.53125 0 
L 20.515625 46.875 
Q 20.21875 47.609375 19.890625 48.578125 
Q 19.578125 49.5625 19.203125 50.65625 
Q 18.84375 51.765625 18.46875 52.90625 
Q 18.109375 54.046875 17.78125 55.171875 
Q 16.9375 57.765625 16.15625 60.546875 
Q 16.21875 57.8125 16.3125 55.125 
Q 16.40625 52.828125 16.453125 50.3125 
Q 16.5 47.796875 16.5 45.90625 
L 16.5 0 
L 8.203125 0 
L 8.203125 68.796875 
L 20.453125 68.796875 
L 38.765625 21.09375 
Q 39.109375 20.125 39.59375 18.578125 
Q 40.09375 17.046875 40.53125 15.421875 
Q 40.96875 13.8125 41.328125 12.375 
Q 41.703125 10.9375 41.84375 10.15625 
Q 42 10.9375 42.390625 12.40625 
Q 42.78125 13.875 43.28125 15.484375 
Q 43.796875 17.09375 44.28125 18.609375 
Q 44.78125 20.125 45.171875 21.09375 
L 63.140625 68.796875 
L 75.09375 68.796875 
L 75.09375 0 
z
" id="LiberationSans-4d"/>
      <path d="M 20.21875 -0.984375 
Q 12.25 -0.984375 8.25 3.21875 
Q 4.25 7.421875 4.25 14.75 
Q 4.25 19.96875 6.21875 23.3125 
Q 8.203125 26.65625 11.390625 28.5625 
Q 14.59375 30.46875 18.6875 31.203125 
Q 22.796875 31.9375 27.046875 32.03125 
L 38.921875 32.234375 
L 38.921875 35.109375 
Q 38.921875 38.375 38.234375 40.671875 
Q 37.546875 42.96875 36.125 44.375 
Q 34.71875 45.796875 32.59375 46.453125 
Q 30.46875 47.125 27.59375 47.125 
Q 25.046875 47.125 23 46.75 
Q 20.953125 46.390625 19.4375 45.4375 
Q 17.921875 44.484375 16.984375 42.84375 
Q 16.0625 41.21875 15.765625 38.71875 
L 6.59375 39.546875 
Q 7.078125 42.671875 8.4375 45.28125 
Q 9.8125 47.90625 12.328125 49.796875 
Q 14.84375 51.703125 18.625 52.75 
Q 22.40625 53.8125 27.78125 53.8125 
Q 37.75 53.8125 42.765625 49.234375 
Q 47.796875 44.671875 47.796875 36.03125 
L 47.796875 13.28125 
Q 47.796875 9.375 48.828125 7.390625 
Q 49.859375 5.421875 52.734375 5.421875 
Q 53.46875 5.421875 54.203125 5.515625 
Q 54.9375 5.609375 55.609375 5.765625 
L 55.609375 0.296875 
Q 53.953125 -0.09375 52.3125 -0.28125 
Q 50.6875 -0.484375 48.828125 -0.484375 
Q 46.34375 -0.484375 44.5625 0.171875 
Q 42.78125 0.828125 41.65625 2.171875 
Q 40.53125 3.515625 39.9375 5.484375 
Q 39.359375 7.46875 39.203125 10.109375 
L 38.921875 10.109375 
Q 37.5 7.5625 35.8125 5.515625 
Q 34.125 3.46875 31.875 2.03125 
Q 29.640625 0.59375 26.78125 -0.1875 
Q 23.921875 -0.984375 20.21875 -0.984375 
M 22.21875 5.609375 
Q 26.421875 5.609375 29.5625 7.140625 
Q 32.71875 8.6875 34.78125 11.078125 
Q 36.859375 13.484375 37.890625 16.3125 
Q 38.921875 19.140625 38.921875 21.734375 
L 38.921875 26.078125 
L 29.296875 25.875 
Q 26.078125 25.828125 23.171875 25.40625 
Q 20.265625 25 18.0625 23.78125 
Q 15.875 22.5625 14.578125 20.359375 
Q 13.28125 18.171875 13.28125 14.59375 
Q 13.28125 10.296875 15.59375 7.953125 
Q 17.921875 5.609375 22.21875 5.609375 
" id="LiberationSans-61"/>
      <path d="M 62.109375 19 
Q 62.109375 14.65625 60.421875 10.984375 
Q 58.734375 7.328125 55.21875 4.65625 
Q 51.703125 2 46.359375 0.5 
Q 41.015625 -0.984375 33.6875 -0.984375 
Q 20.84375 -0.984375 13.671875 3.515625 
Q 6.5 8.015625 4.546875 16.5 
L 13.578125 18.3125 
Q 14.265625 15.625 15.671875 13.421875 
Q 17.09375 11.234375 19.5 9.640625 
Q 21.921875 8.0625 25.484375 7.171875 
Q 29.046875 6.296875 34.03125 6.296875 
Q 38.1875 6.296875 41.65625 7 
Q 45.125 7.71875 47.609375 9.171875 
Q 50.09375 10.640625 51.484375 12.953125 
Q 52.875 15.28125 52.875 18.5 
Q 52.875 21.875 51.34375 23.96875 
Q 49.8125 26.078125 47.015625 27.4375 
Q 44.234375 28.8125 40.375 29.734375 
Q 36.53125 30.671875 31.84375 31.734375 
Q 28.953125 32.375 26.046875 33.125 
Q 23.140625 33.890625 20.484375 34.9375 
Q 17.828125 35.984375 15.484375 37.390625 
Q 13.140625 38.8125 11.421875 40.796875 
Q 9.71875 42.78125 8.734375 45.390625 
Q 7.765625 48 7.765625 51.421875 
Q 7.765625 56.296875 9.734375 59.78125 
Q 11.71875 63.28125 15.234375 65.53125 
Q 18.75 67.78125 23.53125 68.796875 
Q 28.328125 69.828125 33.890625 69.828125 
Q 40.28125 69.828125 44.8125 68.828125 
Q 49.359375 67.828125 52.484375 65.8125 
Q 55.609375 63.8125 57.484375 60.859375 
Q 59.375 57.90625 60.5 54 
L 51.3125 52.390625 
Q 50.640625 54.890625 49.34375 56.84375 
Q 48.046875 58.796875 45.9375 60.109375 
Q 43.84375 61.421875 40.84375 62.109375 
Q 37.84375 62.796875 33.796875 62.796875 
Q 29 62.796875 25.75 61.9375 
Q 22.515625 61.078125 20.53125 59.609375 
Q 18.5625 58.15625 17.703125 56.171875 
Q 16.84375 54.203125 16.84375 51.90625 
Q 16.84375 48.828125 18.375 46.84375 
Q 19.921875 44.875 22.5625 43.546875 
Q 25.203125 42.234375 28.65625 41.359375 
Q 32.125 40.484375 36.03125 39.59375 
Q 39.203125 38.875 42.359375 38.109375 
Q 45.515625 37.359375 48.390625 36.296875 
Q 51.265625 35.25 53.78125 33.828125 
Q 56.296875 32.421875 58.15625 30.375 
Q 60.015625 28.328125 61.0625 25.53125 
Q 62.109375 22.75 62.109375 19 
" id="LiberationSans-53"/>
      <path d="M 13.421875 26.65625 
Q 13.421875 22.125 14.078125 18.3125 
Q 14.75 14.5 16.3125 11.734375 
Q 17.875 8.984375 20.4375 7.46875 
Q 23 5.953125 26.765625 5.953125 
Q 31.453125 5.953125 34.59375 8.484375 
Q 37.75 11.03125 38.484375 16.3125 
L 47.359375 15.71875 
Q 46.921875 12.453125 45.453125 9.421875 
Q 44 6.390625 41.484375 4.09375 
Q 38.96875 1.8125 35.34375 0.40625 
Q 31.734375 -0.984375 27 -0.984375 
Q 20.796875 -0.984375 16.453125 1.109375 
Q 12.109375 3.21875 9.390625 6.90625 
Q 6.6875 10.59375 5.46875 15.59375 
Q 4.25 20.609375 4.25 26.46875 
Q 4.25 31.78125 5.125 35.859375 
Q 6 39.9375 7.59375 42.984375 
Q 9.1875 46.046875 11.328125 48.125 
Q 13.484375 50.203125 15.984375 51.4375 
Q 18.5 52.6875 21.28125 53.25 
Q 24.078125 53.8125 26.90625 53.8125 
Q 31.34375 53.8125 34.8125 52.59375 
Q 38.28125 51.375 40.796875 49.25 
Q 43.3125 47.125 44.875 44.234375 
Q 46.4375 41.359375 47.078125 38.03125 
L 38.03125 37.359375 
Q 37.359375 41.75 34.5625 44.328125 
Q 31.78125 46.921875 26.65625 46.921875 
Q 22.90625 46.921875 20.390625 45.671875 
Q 17.875 44.4375 16.3125 41.921875 
Q 14.75 39.40625 14.078125 35.59375 
Q 13.421875 31.78125 13.421875 26.65625 
" id="LiberationSans-63"/>
     </defs>
     <g style="fill:#262626;" transform="translate(278.391484375 391.6934375)scale(0.11 -0.11)">
      <use xlink:href="#LiberationSans-53"/>
      <use x="66.69921875" xlink:href="#LiberationSans-61"/>
      <use x="122.314453125" xlink:href="#LiberationSans-63"/>
      <use x="172.314453125" xlink:href="#LiberationSans-63"/>
      <use x="222.314453125" xlink:href="#LiberationSans-4d"/>
     </g>
    </g>
   </g>
   <g id="matplotlib.axis_2">
    <g id="ytick_1">
     <g id="line2d_13">
      <defs>
       <path d="M 0 0 
L -6 0 
" id="ma80b4f2ba7" style="stroke:#262626;"/>
      </defs>
      <g>
       <use style="fill:#262626;stroke:#262626;" x="72.0" xlink:href="#ma80b4f2ba7" y="356.4"/>
      </g>
     </g>
     <g id="line2d_14">
      <defs>
       <path d="M 0 0 
L 6 0 
" id="md5215efa20" style="stroke:#262626;"/>
      </defs>
      <g>
       <use style="fill:#262626;stroke:#262626;" x="518.4" xlink:href="#md5215efa20" y="356.4"/>
      </g>
     </g>
     <g id="text_8">
      <!-- 0 -->
      <g style="fill:#262626;" transform="translate(53.4390625 358.9859375)scale(0.1 -0.1)">
       <use xlink:href="#LiberationSans-30"/>
      </g>
     </g>
    </g>
    <g id="ytick_2">
     <g id="line2d_15">
      <g>
       <use style="fill:#262626;stroke:#262626;" x="72.0" xlink:href="#ma80b4f2ba7" y="293.04"/>
      </g>
     </g>
     <g id="line2d_16">
      <g>
       <use style="fill:#262626;stroke:#262626;" x="518.4" xlink:href="#md5215efa20" y="293.04"/>
      </g>
     </g>
     <g id="text_9">
      <!-- 5 -->
      <defs>
       <path d="M 51.421875 22.40625 
Q 51.421875 17.234375 49.859375 12.9375 
Q 48.296875 8.640625 45.21875 5.53125 
Q 42.140625 2.4375 37.578125 0.71875 
Q 33.015625 -0.984375 27 -0.984375 
Q 21.578125 -0.984375 17.546875 0.28125 
Q 13.53125 1.5625 10.734375 3.78125 
Q 7.953125 6 6.3125 8.984375 
Q 4.6875 11.96875 4 15.375 
L 12.890625 16.40625 
Q 13.421875 14.453125 14.390625 12.625 
Q 15.375 10.796875 17.0625 9.34375 
Q 18.75 7.90625 21.21875 7.046875 
Q 23.6875 6.203125 27.203125 6.203125 
Q 30.609375 6.203125 33.390625 7.25 
Q 36.1875 8.296875 38.15625 10.34375 
Q 40.140625 12.40625 41.203125 15.375 
Q 42.28125 18.359375 42.28125 22.21875 
Q 42.28125 25.390625 41.25 28.046875 
Q 40.234375 30.71875 38.328125 32.640625 
Q 36.421875 34.578125 33.65625 35.640625 
Q 30.90625 36.71875 27.390625 36.71875 
Q 25.203125 36.71875 23.34375 36.328125 
Q 21.484375 35.9375 19.890625 35.25 
Q 18.3125 34.578125 17.015625 33.671875 
Q 15.71875 32.765625 14.59375 31.78125 
L 6 31.78125 
L 8.296875 68.796875 
L 47.40625 68.796875 
L 47.40625 61.328125 
L 16.3125 61.328125 
L 14.984375 39.5 
Q 17.328125 41.3125 20.84375 42.59375 
Q 24.359375 43.890625 29.203125 43.890625 
Q 34.328125 43.890625 38.421875 42.328125 
Q 42.53125 40.765625 45.40625 37.90625 
Q 48.296875 35.0625 49.859375 31.109375 
Q 51.421875 27.15625 51.421875 22.40625 
" id="LiberationSans-35"/>
      </defs>
      <g style="fill:#262626;" transform="translate(53.4390625 295.6259375)scale(0.1 -0.1)">
       <use xlink:href="#LiberationSans-35"/>
      </g>
     </g>
    </g>
    <g id="ytick_3">
     <g id="line2d_17">
      <g>
       <use style="fill:#262626;stroke:#262626;" x="72.0" xlink:href="#ma80b4f2ba7" y="229.68"/>
      </g>
     </g>
     <g id="line2d_18">
      <g>
       <use style="fill:#262626;stroke:#262626;" x="518.4" xlink:href="#md5215efa20" y="229.68"/>
      </g>
     </g>
     <g id="text_10">
      <!-- 10 -->
      <g style="fill:#262626;" transform="translate(47.878125 232.2659375)scale(0.1 -0.1)">
       <use xlink:href="#LiberationSans-31"/>
       <use x="55.615234375" xlink:href="#LiberationSans-30"/>
      </g>
     </g>
    </g>
    <g id="ytick_4">
     <g id="line2d_19">
      <g>
       <use style="fill:#262626;stroke:#262626;" x="72.0" xlink:href="#ma80b4f2ba7" y="166.32"/>
      </g>
     </g>
     <g id="line2d_20">
      <g>
       <use style="fill:#262626;stroke:#262626;" x="518.4" xlink:href="#md5215efa20" y="166.32"/>
      </g>
     </g>
     <g id="text_11">
      <!-- 15 -->
      <g style="fill:#262626;" transform="translate(47.878125 168.9059375)scale(0.1 -0.1)">
       <use xlink:href="#LiberationSans-31"/>
       <use x="55.615234375" xlink:href="#LiberationSans-35"/>
      </g>
     </g>
    </g>
    <g id="ytick_5">
     <g id="line2d_21">
      <g>
       <use style="fill:#262626;stroke:#262626;" x="72.0" xlink:href="#ma80b4f2ba7" y="102.96"/>
      </g>
     </g>
     <g id="line2d_22">
      <g>
       <use style="fill:#262626;stroke:#262626;" x="518.4" xlink:href="#md5215efa20" y="102.96"/>
      </g>
     </g>
     <g id="text_12">
      <!-- 20 -->
      <g style="fill:#262626;" transform="translate(47.878125 105.5459375)scale(0.1 -0.1)">
       <use xlink:href="#LiberationSans-32"/>
       <use x="55.615234375" xlink:href="#LiberationSans-30"/>
      </g>
     </g>
    </g>
    <g id="ytick_6">
     <g id="line2d_23">
      <g>
       <use style="fill:#262626;stroke:#262626;" x="72.0" xlink:href="#ma80b4f2ba7" y="39.6"/>
      </g>
     </g>
     <g id="line2d_24">
      <g>
       <use style="fill:#262626;stroke:#262626;" x="518.4" xlink:href="#md5215efa20" y="39.6"/>
      </g>
     </g>
     <g id="text_13">
      <!-- 25 -->
      <g style="fill:#262626;" transform="translate(47.878125 42.1859375)scale(0.1 -0.1)">
       <use xlink:href="#LiberationSans-32"/>
       <use x="55.615234375" xlink:href="#LiberationSans-35"/>
      </g>
     </g>
    </g>
   </g>
   <g id="patch_3">
    <path clip-path="url(#p19a2cc271d)" d="M 72 356.4 
L 89.666982 356.4 
L 89.666982 318.384 
L 72 318.384 
z
" style="fill:#ff0000;opacity:0.4;stroke:#1a1a1a;stroke-linejoin:miter;stroke-width:0.3;"/>
   </g>
   <g id="patch_4">
    <path clip-path="url(#p19a2cc271d)" d="M 89.666982 356.4 
L 107.333964 356.4 
L 107.333964 356.4 
L 89.666982 356.4 
z
" style="fill:#ff0000;opacity:0.4;stroke:#1a1a1a;stroke-linejoin:miter;stroke-width:0.3;"/>
   </g>
   <g id="patch_5">
    <path clip-path="url(#p19a2cc271d)" d="M 107.333964 356.4 
L 125.000946 356.4 
L 125.000946 356.4 
L 107.333964 356.4 
z
" style="fill:#ff0000;opacity:0.4;stroke:#1a1a1a;stroke-linejoin:miter;stroke-width:0.3;"/>
   </g>
   <g id="patch_6">
    <path clip-path="url(#p19a2cc271d)" d="M 125.000946 356.4 
L 142.667928 356.4 
L 142.667928 356.4 
L 125.000946 356.4 
z
" style="fill:#ff0000;opacity:0.4;stroke:#1a1a1a;stroke-linejoin:miter;stroke-width:0.3;"/>
   </g>
   <g id="patch_7">
    <path clip-path="url(#p19a2cc271d)" d="M 142.667928 356.4 
L 160.33491 356.4 
L 160.33491 356.4 
L 142.667928 356.4 
z
" style="fill:#ff0000;opacity:0.4;stroke:#1a1a1a;stroke-linejoin:miter;stroke-width:0.3;"/>
   </g>
   <g id="patch_8">
    <path clip-path="url(#p19a2cc271d)" d="M 160.33491 356.4 
L 178.001891 356.4 
L 178.001891 356.4 
L 160.33491 356.4 
z
" style="fill:#ff0000;opacity:0.4;stroke:#1a1a1a;stroke-linejoin:miter;stroke-width:0.3;"/>
   </g>
   <g id="patch_9">
    <path clip-path="url(#p19a2cc271d)" d="M 178.001891 356.4 
L 195.668873 356.4 
L 195.668873 356.4 
L 178.001891 356.4 
z
" style="fill:#ff0000;opacity:0.4;stroke:#1a1a1a;stroke-linejoin:miter;stroke-width:0.3;"/>
   </g>
   <g id="patch_10">
    <path clip-path="url(#p19a2cc271d)" d="M 195.668873 356.4 
L 213.335855 356.4 
L 213.335855 356.4 
L 195.668873 356.4 
z
" style="fill:#ff0000;opacity:0.4;stroke:#1a1a1a;stroke-linejoin:miter;stroke-width:0.3;"/>
   </g>
   <g id="patch_11">
    <path clip-path="url(#p19a2cc271d)" d="M 213.335855 356.4 
L 231.002837 356.4 
L 231.002837 356.4 
L 213.335855 356.4 
z
" style="fill:#ff0000;opacity:0.4;stroke:#1a1a1a;stroke-linejoin:miter;stroke-width:0.3;"/>
   </g>
   <g id="patch_12">
    <path clip-path="url(#p19a2cc271d)" d="M 231.002837 356.4 
L 248.669819 356.4 
L 248.669819 356.4 
L 231.002837 356.4 
z
" style="fill:#ff0000;opacity:0.4;stroke:#1a1a1a;stroke-linejoin:miter;stroke-width:0.3;"/>
   </g>
   <g id="patch_13">
    <path clip-path="url(#p19a2cc271d)" d="M 248.669819 356.4 
L 266.336801 356.4 
L 266.336801 356.4 
L 248.669819 356.4 
z
" style="fill:#ff0000;opacity:0.4;stroke:#1a1a1a;stroke-linejoin:miter;stroke-width:0.3;"/>
   </g>
   <g id="patch_14">
    <path clip-path="url(#p19a2cc271d)" d="M 266.336801 356.4 
L 284.003783 356.4 
L 284.003783 356.4 
L 266.336801 356.4 
z
" style="fill:#ff0000;opacity:0.4;stroke:#1a1a1a;stroke-linejoin:miter;stroke-width:0.3;"/>
   </g>
   <g id="patch_15">
    <path clip-path="url(#p19a2cc271d)" d="M 284.003783 356.4 
L 301.670765 356.4 
L 301.670765 356.4 
L 284.003783 356.4 
z
" style="fill:#ff0000;opacity:0.4;stroke:#1a1a1a;stroke-linejoin:miter;stroke-width:0.3;"/>
   </g>
   <g id="patch_16">
    <path clip-path="url(#p19a2cc271d)" d="M 301.670765 356.4 
L 319.337747 356.4 
L 319.337747 343.728 
L 301.670765 343.728 
z
" style="fill:#ff0000;opacity:0.4;stroke:#1a1a1a;stroke-linejoin:miter;stroke-width:0.3;"/>
   </g>
   <g id="patch_17">
    <path clip-path="url(#p19a2cc271d)" d="M 319.337747 356.4 
L 337.004729 356.4 
L 337.004729 356.4 
L 319.337747 356.4 
z
" style="fill:#ff0000;opacity:0.4;stroke:#1a1a1a;stroke-linejoin:miter;stroke-width:0.3;"/>
   </g>
   <g id="patch_18">
    <path clip-path="url(#p19a2cc271d)" d="M 337.004729 356.4 
L 354.671711 356.4 
L 354.671711 356.4 
L 337.004729 356.4 
z
" style="fill:#ff0000;opacity:0.4;stroke:#1a1a1a;stroke-linejoin:miter;stroke-width:0.3;"/>
   </g>
   <g id="patch_19">
    <path clip-path="url(#p19a2cc271d)" d="M 354.671711 356.4 
L 372.338693 356.4 
L 372.338693 356.4 
L 354.671711 356.4 
z
" style="fill:#ff0000;opacity:0.4;stroke:#1a1a1a;stroke-linejoin:miter;stroke-width:0.3;"/>
   </g>
   <g id="patch_20">
    <path clip-path="url(#p19a2cc271d)" d="M 372.338693 356.4 
L 390.005674 356.4 
L 390.005674 356.4 
L 372.338693 356.4 
z
" style="fill:#ff0000;opacity:0.4;stroke:#1a1a1a;stroke-linejoin:miter;stroke-width:0.3;"/>
   </g>
   <g id="patch_21">
    <path clip-path="url(#p19a2cc271d)" d="M 390.005674 356.4 
L 407.672656 356.4 
L 407.672656 343.728 
L 390.005674 343.728 
z
" style="fill:#ff0000;opacity:0.4;stroke:#1a1a1a;stroke-linejoin:miter;stroke-width:0.3;"/>
   </g>
   <g id="patch_22">
    <path clip-path="url(#p19a2cc271d)" d="M 407.672656 356.4 
L 425.339638 356.4 
L 425.339638 356.4 
L 407.672656 356.4 
z
" style="fill:#ff0000;opacity:0.4;stroke:#1a1a1a;stroke-linejoin:miter;stroke-width:0.3;"/>
   </g>
   <g id="patch_23">
    <path clip-path="url(#p19a2cc271d)" d="M 425.339638 356.4 
L 443.00662 356.4 
L 443.00662 178.992 
L 425.339638 178.992 
z
" style="fill:#ff0000;opacity:0.4;stroke:#1a1a1a;stroke-linejoin:miter;stroke-width:0.3;"/>
   </g>
   <g id="patch_24">
    <path clip-path="url(#p19a2cc271d)" d="M 443.00662 356.4 
L 460.673602 356.4 
L 460.673602 64.944 
L 443.00662 64.944 
z
" style="fill:#ff0000;opacity:0.4;stroke:#1a1a1a;stroke-linejoin:miter;stroke-width:0.3;"/>
   </g>
   <g id="patch_25">
    <path clip-path="url(#p19a2cc271d)" d="M 460.673602 356.4 
L 478.340584 356.4 
L 478.340584 217.008 
L 460.673602 217.008 
z
" style="fill:#ff0000;opacity:0.4;stroke:#1a1a1a;stroke-linejoin:miter;stroke-width:0.3;"/>
   </g>
   <g id="patch_26">
    <path clip-path="url(#p19a2cc271d)" d="M 478.340584 356.4 
L 496.007566 356.4 
L 496.007566 115.632 
L 478.340584 115.632 
z
" style="fill:#ff0000;opacity:0.4;stroke:#1a1a1a;stroke-linejoin:miter;stroke-width:0.3;"/>
   </g>
   <g id="patch_27">
    <path clip-path="url(#p19a2cc271d)" d="M 496.007566 356.4 
L 513.674548 356.4 
L 513.674548 229.68 
L 496.007566 229.68 
z
" style="fill:#ff0000;opacity:0.4;stroke:#1a1a1a;stroke-linejoin:miter;stroke-width:0.3;"/>
   </g>
   <g id="line2d_25">
    <path clip-path="url(#p19a2cc271d)" d="M 457.413789 356.4 
L 457.413789 340.56 
" style="fill:none;stroke:#ff0000;stroke-linecap:round;"/>
   </g>
   <g id="line2d_26">
    <path clip-path="url(#p19a2cc271d)" d="M 489.627865 356.4 
L 489.627865 340.56 
" style="fill:none;stroke:#ff0000;stroke-linecap:round;"/>
   </g>
   <g id="line2d_27">
    <path clip-path="url(#p19a2cc271d)" d="M 482.372394 356.4 
L 482.372394 340.56 
" style="fill:none;stroke:#ff0000;stroke-linecap:round;"/>
   </g>
   <g id="line2d_28">
    <path clip-path="url(#p19a2cc271d)" d="M 473.447275 356.4 
L 473.447275 340.56 
" style="fill:none;stroke:#ff0000;stroke-linecap:round;"/>
   </g>
   <g id="line2d_29">
    <path clip-path="url(#p19a2cc271d)" d="M 441.006848 356.4 
L 441.006848 340.56 
" style="fill:none;stroke:#ff0000;stroke-linecap:round;"/>
   </g>
   <g id="line2d_30">
    <path clip-path="url(#p19a2cc271d)" d="M 500.573673 356.4 
L 500.573673 340.56 
" style="fill:none;stroke:#ff0000;stroke-linecap:round;"/>
   </g>
   <g id="line2d_31">
    <path clip-path="url(#p19a2cc271d)" d="M 487.839272 356.4 
L 487.839272 340.56 
" style="fill:none;stroke:#ff0000;stroke-linecap:round;"/>
   </g>
   <g id="line2d_32">
    <path clip-path="url(#p19a2cc271d)" d="M 505.85857 356.4 
L 505.85857 340.56 
" style="fill:none;stroke:#ff0000;stroke-linecap:round;"/>
   </g>
   <g id="line2d_33">
    <path clip-path="url(#p19a2cc271d)" d="M 72 356.4 
L 72 340.56 
" style="fill:none;stroke:#ff0000;stroke-linecap:round;"/>
   </g>
   <g id="line2d_34">
    <path clip-path="url(#p19a2cc271d)" d="M 498.949933 356.4 
L 498.949933 340.56 
" style="fill:none;stroke:#ff0000;stroke-linecap:round;"/>
   </g>
   <g id="line2d_35">
    <path clip-path="url(#p19a2cc271d)" d="M 435.085215 356.4 
L 435.085215 340.56 
" style="fill:none;stroke:#ff0000;stroke-linecap:round;"/>
   </g>
   <g id="line2d_36">
    <path clip-path="url(#p19a2cc271d)" d="M 449.623138 356.4 
L 449.623138 340.56 
" style="fill:none;stroke:#ff0000;stroke-linecap:round;"/>
   </g>
   <g id="line2d_37">
    <path clip-path="url(#p19a2cc271d)" d="M 475.971239 356.4 
L 475.971239 340.56 
" style="fill:none;stroke:#ff0000;stroke-linecap:round;"/>
   </g>
   <g id="line2d_38">
    <path clip-path="url(#p19a2cc271d)" d="M 481.532457 356.4 
L 481.532457 340.56 
" style="fill:none;stroke:#ff0000;stroke-linecap:round;"/>
   </g>
   <g id="line2d_39">
    <path clip-path="url(#p19a2cc271d)" d="M 72 356.4 
L 72 340.56 
" style="fill:none;stroke:#ff0000;stroke-linecap:round;"/>
   </g>
   <g id="line2d_40">
    <path clip-path="url(#p19a2cc271d)" d="M 72 356.4 
L 72 340.56 
" style="fill:none;stroke:#ff0000;stroke-linecap:round;"/>
   </g>
   <g id="line2d_41">
    <path clip-path="url(#p19a2cc271d)" d="M 497.511204 356.4 
L 497.511204 340.56 
" style="fill:none;stroke:#ff0000;stroke-linecap:round;"/>
   </g>
   <g id="line2d_42">
    <path clip-path="url(#p19a2cc271d)" d="M 446.069087 356.4 
L 446.069087 340.56 
" style="fill:none;stroke:#ff0000;stroke-linecap:round;"/>
   </g>
   <g id="line2d_43">
    <path clip-path="url(#p19a2cc271d)" d="M 440.708763 356.4 
L 440.708763 340.56 
" style="fill:none;stroke:#ff0000;stroke-linecap:round;"/>
   </g>
   <g id="line2d_44">
    <path clip-path="url(#p19a2cc271d)" d="M 440.708763 356.4 
L 440.708763 340.56 
" style="fill:none;stroke:#ff0000;stroke-linecap:round;"/>
   </g>
   <g id="line2d_45">
    <path clip-path="url(#p19a2cc271d)" d="M 444.250329 356.4 
L 444.250329 340.56 
" style="fill:none;stroke:#ff0000;stroke-linecap:round;"/>
   </g>
   <g id="line2d_46">
    <path clip-path="url(#p19a2cc271d)" d="M 481.388191 356.4 
L 481.388191 340.56 
" style="fill:none;stroke:#ff0000;stroke-linecap:round;"/>
   </g>
   <g id="line2d_47">
    <path clip-path="url(#p19a2cc271d)" d="M 450.736809 356.4 
L 450.736809 340.56 
" style="fill:none;stroke:#ff0000;stroke-linecap:round;"/>
   </g>
   <g id="line2d_48">
    <path clip-path="url(#p19a2cc271d)" d="M 306.17899 356.4 
L 306.17899 340.56 
" style="fill:none;stroke:#ff0000;stroke-linecap:round;"/>
   </g>
   <g id="line2d_49">
    <path clip-path="url(#p19a2cc271d)" d="M 405.010903 356.4 
L 405.010903 340.56 
" style="fill:none;stroke:#ff0000;stroke-linecap:round;"/>
   </g>
   <g id="line2d_50">
    <path clip-path="url(#p19a2cc271d)" d="M 449.009522 356.4 
L 449.009522 340.56 
" style="fill:none;stroke:#ff0000;stroke-linecap:round;"/>
   </g>
   <g id="line2d_51">
    <path clip-path="url(#p19a2cc271d)" d="M 489.22576 356.4 
L 489.22576 340.56 
" style="fill:none;stroke:#ff0000;stroke-linecap:round;"/>
   </g>
   <g id="line2d_52">
    <path clip-path="url(#p19a2cc271d)" d="M 465.592089 356.4 
L 465.592089 340.56 
" style="fill:none;stroke:#ff0000;stroke-linecap:round;"/>
   </g>
   <g id="line2d_53">
    <path clip-path="url(#p19a2cc271d)" d="M 484.681677 356.4 
L 484.681677 340.56 
" style="fill:none;stroke:#ff0000;stroke-linecap:round;"/>
   </g>
   <g id="line2d_54">
    <path clip-path="url(#p19a2cc271d)" d="M 466.32757 356.4 
L 466.32757 340.56 
" style="fill:none;stroke:#ff0000;stroke-linecap:round;"/>
   </g>
   <g id="line2d_55">
    <path clip-path="url(#p19a2cc271d)" d="M 513.674548 356.4 
L 513.674548 340.56 
" style="fill:none;stroke:#ff0000;stroke-linecap:round;"/>
   </g>
   <g id="line2d_56">
    <path clip-path="url(#p19a2cc271d)" d="M 480.430184 356.4 
L 480.430184 340.56 
" style="fill:none;stroke:#ff0000;stroke-linecap:round;"/>
   </g>
   <g id="line2d_57">
    <path clip-path="url(#p19a2cc271d)" d="M 466.478879 356.4 
L 466.478879 340.56 
" style="fill:none;stroke:#ff0000;stroke-linecap:round;"/>
   </g>
   <g id="line2d_58">
    <path clip-path="url(#p19a2cc271d)" d="M 462.463343 356.4 
L 462.463343 340.56 
" style="fill:none;stroke:#ff0000;stroke-linecap:round;"/>
   </g>
   <g id="line2d_59">
    <path clip-path="url(#p19a2cc271d)" d="M 483.441443 356.4 
L 483.441443 340.56 
" style="fill:none;stroke:#ff0000;stroke-linecap:round;"/>
   </g>
   <g id="line2d_60">
    <path clip-path="url(#p19a2cc271d)" d="M 479.455813 356.4 
L 479.455813 340.56 
" style="fill:none;stroke:#ff0000;stroke-linecap:round;"/>
   </g>
   <g id="line2d_61">
    <path clip-path="url(#p19a2cc271d)" d="M 449.824202 356.4 
L 449.824202 340.56 
" style="fill:none;stroke:#ff0000;stroke-linecap:round;"/>
   </g>
   <g id="line2d_62">
    <path clip-path="url(#p19a2cc271d)" d="M 471.17848 356.4 
L 471.17848 340.56 
" style="fill:none;stroke:#ff0000;stroke-linecap:round;"/>
   </g>
   <g id="line2d_63">
    <path clip-path="url(#p19a2cc271d)" d="M 452.574999 356.4 
L 452.574999 340.56 
" style="fill:none;stroke:#ff0000;stroke-linecap:round;"/>
   </g>
   <g id="line2d_64">
    <path clip-path="url(#p19a2cc271d)" d="M 463.352719 356.4 
L 463.352719 340.56 
" style="fill:none;stroke:#ff0000;stroke-linecap:round;"/>
   </g>
   <g id="line2d_65">
    <path clip-path="url(#p19a2cc271d)" d="M 474.955354 356.4 
L 474.955354 340.56 
" style="fill:none;stroke:#ff0000;stroke-linecap:round;"/>
   </g>
   <g id="line2d_66">
    <path clip-path="url(#p19a2cc271d)" d="M 509.172325 356.4 
L 509.172325 340.56 
" style="fill:none;stroke:#ff0000;stroke-linecap:round;"/>
   </g>
   <g id="line2d_67">
    <path clip-path="url(#p19a2cc271d)" d="M 508.719415 356.4 
L 508.719415 340.56 
" style="fill:none;stroke:#ff0000;stroke-linecap:round;"/>
   </g>
   <g id="line2d_68">
    <path clip-path="url(#p19a2cc271d)" d="M 492.196063 356.4 
L 492.196063 340.56 
" style="fill:none;stroke:#ff0000;stroke-linecap:round;"/>
   </g>
   <g id="line2d_69">
    <path clip-path="url(#p19a2cc271d)" d="M 482.037776 356.4 
L 482.037776 340.56 
" style="fill:none;stroke:#ff0000;stroke-linecap:round;"/>
   </g>
   <g id="line2d_70">
    <path clip-path="url(#p19a2cc271d)" d="M 480.843841 356.4 
L 480.843841 340.56 
" style="fill:none;stroke:#ff0000;stroke-linecap:round;"/>
   </g>
   <g id="line2d_71">
    <path clip-path="url(#p19a2cc271d)" d="M 432.650343 356.4 
L 432.650343 340.56 
" style="fill:none;stroke:#ff0000;stroke-linecap:round;"/>
   </g>
   <g id="line2d_72">
    <path clip-path="url(#p19a2cc271d)" d="M 484.580949 356.4 
L 484.580949 340.56 
" style="fill:none;stroke:#ff0000;stroke-linecap:round;"/>
   </g>
   <g id="line2d_73">
    <path clip-path="url(#p19a2cc271d)" d="M 438.08014 356.4 
L 438.08014 340.56 
" style="fill:none;stroke:#ff0000;stroke-linecap:round;"/>
   </g>
   <g id="line2d_74">
    <path clip-path="url(#p19a2cc271d)" d="M 481.981637 356.4 
L 481.981637 340.56 
" style="fill:none;stroke:#ff0000;stroke-linecap:round;"/>
   </g>
   <g id="line2d_75">
    <path clip-path="url(#p19a2cc271d)" d="M 460.137047 356.4 
L 460.137047 340.56 
" style="fill:none;stroke:#ff0000;stroke-linecap:round;"/>
   </g>
   <g id="line2d_76">
    <path clip-path="url(#p19a2cc271d)" d="M 434.175626 356.4 
L 434.175626 340.56 
" style="fill:none;stroke:#ff0000;stroke-linecap:round;"/>
   </g>
   <g id="line2d_77">
    <path clip-path="url(#p19a2cc271d)" d="M 454.221331 356.4 
L 454.221331 340.56 
" style="fill:none;stroke:#ff0000;stroke-linecap:round;"/>
   </g>
   <g id="line2d_78">
    <path clip-path="url(#p19a2cc271d)" d="M 446.716911 356.4 
L 446.716911 340.56 
" style="fill:none;stroke:#ff0000;stroke-linecap:round;"/>
   </g>
   <g id="line2d_79">
    <path clip-path="url(#p19a2cc271d)" d="M 447.385709 356.4 
L 447.385709 340.56 
" style="fill:none;stroke:#ff0000;stroke-linecap:round;"/>
   </g>
   <g id="line2d_80">
    <path clip-path="url(#p19a2cc271d)" d="M 428.020083 356.4 
L 428.020083 340.56 
" style="fill:none;stroke:#ff0000;stroke-linecap:round;"/>
   </g>
   <g id="line2d_81">
    <path clip-path="url(#p19a2cc271d)" d="M 491.767671 356.4 
L 491.767671 340.56 
" style="fill:none;stroke:#ff0000;stroke-linecap:round;"/>
   </g>
   <g id="line2d_82">
    <path clip-path="url(#p19a2cc271d)" d="M 502.10868 356.4 
L 502.10868 340.56 
" style="fill:none;stroke:#ff0000;stroke-linecap:round;"/>
   </g>
   <g id="line2d_83">
    <path clip-path="url(#p19a2cc271d)" d="M 507.455431 356.4 
L 507.455431 340.56 
" style="fill:none;stroke:#ff0000;stroke-linecap:round;"/>
   </g>
   <g id="line2d_84">
    <path clip-path="url(#p19a2cc271d)" d="M 487.694359 356.4 
L 487.694359 340.56 
" style="fill:none;stroke:#ff0000;stroke-linecap:round;"/>
   </g>
   <g id="line2d_85">
    <path clip-path="url(#p19a2cc271d)" d="M 510.579209 356.4 
L 510.579209 340.56 
" style="fill:none;stroke:#ff0000;stroke-linecap:round;"/>
   </g>
   <g id="line2d_86">
    <path clip-path="url(#p19a2cc271d)" d="M 436.570783 356.4 
L 436.570783 340.56 
" style="fill:none;stroke:#ff0000;stroke-linecap:round;"/>
   </g>
   <g id="line2d_87">
    <path clip-path="url(#p19a2cc271d)" d="M 447.344051 356.4 
L 447.344051 340.56 
" style="fill:none;stroke:#ff0000;stroke-linecap:round;"/>
   </g>
   <g id="line2d_88">
    <path clip-path="url(#p19a2cc271d)" d="M 443.88458 356.4 
L 443.88458 340.56 
" style="fill:none;stroke:#ff0000;stroke-linecap:round;"/>
   </g>
   <g id="line2d_89">
    <path clip-path="url(#p19a2cc271d)" d="M 485.995721 356.4 
L 485.995721 340.56 
" style="fill:none;stroke:#ff0000;stroke-linecap:round;"/>
   </g>
   <g id="line2d_90">
    <path clip-path="url(#p19a2cc271d)" d="M 495.572601 356.4 
L 495.572601 340.56 
" style="fill:none;stroke:#ff0000;stroke-linecap:round;"/>
   </g>
   <g id="line2d_91">
    <path clip-path="url(#p19a2cc271d)" d="M 429.939619 356.4 
L 429.939619 340.56 
" style="fill:none;stroke:#ff0000;stroke-linecap:round;"/>
   </g>
   <g id="line2d_92">
    <path clip-path="url(#p19a2cc271d)" d="M 444.519244 356.4 
L 444.519244 340.56 
" style="fill:none;stroke:#ff0000;stroke-linecap:round;"/>
   </g>
   <g id="line2d_93">
    <path clip-path="url(#p19a2cc271d)" d="M 471.360616 356.4 
L 471.360616 340.56 
" style="fill:none;stroke:#ff0000;stroke-linecap:round;"/>
   </g>
   <g id="line2d_94">
    <path clip-path="url(#p19a2cc271d)" d="M 452.291353 356.4 
L 452.291353 340.56 
" style="fill:none;stroke:#ff0000;stroke-linecap:round;"/>
   </g>
   <g id="line2d_95">
    <path clip-path="url(#p19a2cc271d)" d="M 441.118079 356.4 
L 441.118079 340.56 
" style="fill:none;stroke:#ff0000;stroke-linecap:round;"/>
   </g>
   <g id="line2d_96">
    <path clip-path="url(#p19a2cc271d)" d="M 452.172912 356.4 
L 452.172912 340.56 
" style="fill:none;stroke:#ff0000;stroke-linecap:round;"/>
   </g>
   <g id="line2d_97">
    <path clip-path="url(#p19a2cc271d)" d="M 440.263514 356.4 
L 440.263514 340.56 
" style="fill:none;stroke:#ff0000;stroke-linecap:round;"/>
   </g>
   <g id="line2d_98">
    <path clip-path="url(#p19a2cc271d)" d="M 454.000073 356.4 
L 454.000073 340.56 
" style="fill:none;stroke:#ff0000;stroke-linecap:round;"/>
   </g>
   <g id="line2d_99">
    <path clip-path="url(#p19a2cc271d)" d="M 444.994553 356.4 
L 444.994553 340.56 
" style="fill:none;stroke:#ff0000;stroke-linecap:round;"/>
   </g>
   <g id="line2d_100">
    <path clip-path="url(#p19a2cc271d)" d="M 458.862114 356.4 
L 458.862114 340.56 
" style="fill:none;stroke:#ff0000;stroke-linecap:round;"/>
   </g>
   <g id="line2d_101">
    <path clip-path="url(#p19a2cc271d)" d="M 436.735919 356.4 
L 436.735919 340.56 
" style="fill:none;stroke:#ff0000;stroke-linecap:round;"/>
   </g>
   <g id="line2d_102">
    <path clip-path="url(#p19a2cc271d)" d="M 443.30356 356.4 
L 443.30356 340.56 
" style="fill:none;stroke:#ff0000;stroke-linecap:round;"/>
   </g>
   <g id="line2d_103">
    <path clip-path="url(#p19a2cc271d)" d="M 452.967011 356.4 
L 452.967011 340.56 
" style="fill:none;stroke:#ff0000;stroke-linecap:round;"/>
   </g>
   <g id="line2d_104">
    <path clip-path="url(#p19a2cc271d)" d="M 468.805243 356.4 
L 468.805243 340.56 
" style="fill:none;stroke:#ff0000;stroke-linecap:round;"/>
   </g>
   <g id="line2d_105">
    <path clip-path="url(#p19a2cc271d)" d="M 436.904591 356.4 
L 436.904591 340.56 
" style="fill:none;stroke:#ff0000;stroke-linecap:round;"/>
   </g>
   <g id="line2d_106">
    <path clip-path="url(#p19a2cc271d)" d="M 454.819926 356.4 
L 454.819926 340.56 
" style="fill:none;stroke:#ff0000;stroke-linecap:round;"/>
   </g>
   <g id="patch_28">
    <path d="M 72 39.6 
L 518.4 39.6 
" style="fill:none;stroke:#262626;stroke-linecap:square;stroke-linejoin:miter;stroke-width:1.25;"/>
   </g>
   <g id="patch_29">
    <path d="M 518.4 356.4 
L 518.4 39.6 
" style="fill:none;stroke:#262626;stroke-linecap:square;stroke-linejoin:miter;stroke-width:1.25;"/>
   </g>
   <g id="patch_30">
    <path d="M 72 356.4 
L 518.4 356.4 
" style="fill:none;stroke:#262626;stroke-linecap:square;stroke-linejoin:miter;stroke-width:1.25;"/>
   </g>
   <g id="patch_31">
    <path d="M 72 356.4 
L 72 39.6 
" style="fill:none;stroke:#262626;stroke-linecap:square;stroke-linejoin:miter;stroke-width:1.25;"/>
   </g>
   <g id="text_14">
    <!-- Histograme for Feature SaccM -->
    <defs>
     <path d="M 46.390625 14.59375 
Q 46.390625 10.890625 44.9375 7.984375 
Q 43.5 5.078125 40.765625 3.09375 
Q 38.03125 1.125 34.046875 0.0625 
Q 30.078125 -0.984375 24.953125 -0.984375 
Q 20.359375 -0.984375 16.671875 -0.265625 
Q 12.984375 0.4375 10.203125 2 
Q 7.421875 3.5625 5.53125 6.125 
Q 3.65625 8.6875 2.78125 12.40625 
L 10.546875 13.921875 
Q 11.671875 9.671875 15.1875 7.6875 
Q 18.703125 5.71875 24.953125 5.71875 
Q 27.78125 5.71875 30.140625 6.109375 
Q 32.515625 6.5 34.21875 7.453125 
Q 35.9375 8.40625 36.890625 9.984375 
Q 37.84375 11.578125 37.84375 13.921875 
Q 37.84375 16.3125 36.71875 17.84375 
Q 35.59375 19.390625 33.59375 20.40625 
Q 31.59375 21.4375 28.734375 22.1875 
Q 25.875 22.953125 22.46875 23.875 
Q 19.28125 24.703125 16.15625 25.734375 
Q 13.03125 26.765625 10.515625 28.4375 
Q 8.015625 30.125 6.453125 32.609375 
Q 4.890625 35.109375 4.890625 38.875 
Q 4.890625 46.09375 10.03125 49.875 
Q 15.1875 53.65625 25.046875 53.65625 
Q 33.796875 53.65625 38.9375 50.578125 
Q 44.09375 47.515625 45.453125 40.71875 
L 37.546875 39.75 
Q 37.109375 41.796875 35.9375 43.1875 
Q 34.765625 44.578125 33.109375 45.4375 
Q 31.453125 46.296875 29.375 46.65625 
Q 27.296875 47.015625 25.046875 47.015625 
Q 19.09375 47.015625 16.25 45.203125 
Q 13.421875 43.40625 13.421875 39.75 
Q 13.421875 37.59375 14.46875 36.203125 
Q 15.53125 34.8125 17.40625 33.859375 
Q 19.28125 32.90625 21.921875 32.203125 
Q 24.5625 31.5 27.734375 30.71875 
Q 29.828125 30.171875 32.03125 29.5625 
Q 34.234375 28.953125 36.296875 28.09375 
Q 38.375 27.25 40.203125 26.09375 
Q 42.046875 24.953125 43.40625 23.34375 
Q 44.78125 21.734375 45.578125 19.578125 
Q 46.390625 17.4375 46.390625 14.59375 
" id="LiberationSans-73"/>
     <path d="M 6.9375 0 
L 6.9375 40.53125 
Q 6.9375 42.1875 6.90625 43.921875 
Q 6.890625 45.65625 6.828125 47.265625 
Q 6.78125 48.875 6.734375 50.28125 
Q 6.6875 51.703125 6.640625 52.828125 
L 14.9375 52.828125 
Q 14.984375 51.703125 15.0625 50.265625 
Q 15.140625 48.828125 15.203125 47.3125 
Q 15.28125 45.796875 15.296875 44.40625 
Q 15.328125 43.015625 15.328125 42.046875 
L 15.53125 42.046875 
Q 16.453125 45.0625 17.5 47.28125 
Q 18.5625 49.515625 19.96875 50.953125 
Q 21.390625 52.390625 23.34375 53.09375 
Q 25.296875 53.8125 28.078125 53.8125 
Q 29.15625 53.8125 30.125 53.640625 
Q 31.109375 53.46875 31.640625 53.328125 
L 31.640625 45.265625 
Q 30.765625 45.515625 29.59375 45.625 
Q 28.421875 45.75 26.953125 45.75 
Q 23.921875 45.75 21.796875 44.375 
Q 19.671875 43.015625 18.328125 40.59375 
Q 17 38.1875 16.359375 34.84375 
Q 15.71875 31.5 15.71875 27.546875 
L 15.71875 0 
z
" id="LiberationSans-72"/>
     <path d="M 17.625 46.4375 
L 17.625 0 
L 8.84375 0 
L 8.84375 46.4375 
L 1.421875 46.4375 
L 1.421875 52.828125 
L 8.84375 52.828125 
L 8.84375 58.796875 
Q 8.84375 61.671875 9.375 64.140625 
Q 9.90625 66.609375 11.34375 68.4375 
Q 12.796875 70.265625 15.28125 71.3125 
Q 17.78125 72.359375 21.734375 72.359375 
Q 23.296875 72.359375 24.96875 72.21875 
Q 26.65625 72.078125 27.9375 71.78125 
L 27.9375 65.09375 
Q 27.09375 65.234375 26 65.359375 
Q 24.90625 65.484375 24.03125 65.484375 
Q 22.078125 65.484375 20.828125 64.9375 
Q 19.578125 64.40625 18.875 63.40625 
Q 18.171875 62.40625 17.890625 60.9375 
Q 17.625 59.46875 17.625 57.5625 
L 17.625 52.828125 
L 27.9375 52.828125 
L 27.9375 46.4375 
z
" id="LiberationSans-66"/>
     <path d="M 26.765625 -20.75 
Q 22.21875 -20.75 18.703125 -19.8125 
Q 15.1875 -18.890625 12.6875 -17.15625 
Q 10.203125 -15.4375 8.640625 -13.03125 
Q 7.078125 -10.640625 6.390625 -7.71875 
L 15.234375 -6.453125 
Q 16.109375 -10.109375 19.109375 -12.078125 
Q 22.125 -14.0625 27 -14.0625 
Q 29.984375 -14.0625 32.421875 -13.234375 
Q 34.859375 -12.40625 36.5625 -10.5625 
Q 38.28125 -8.734375 39.203125 -5.796875 
Q 40.140625 -2.875 40.140625 1.3125 
L 40.140625 9.8125 
L 40.046875 9.8125 
Q 39.0625 7.8125 37.625 5.984375 
Q 36.1875 4.15625 34.109375 2.734375 
Q 32.03125 1.3125 29.296875 0.453125 
Q 26.5625 -0.390625 23.046875 -0.390625 
Q 18.015625 -0.390625 14.421875 1.296875 
Q 10.84375 2.984375 8.5625 6.34375 
Q 6.296875 9.71875 5.25 14.71875 
Q 4.203125 19.734375 4.203125 26.3125 
Q 4.203125 32.671875 5.25 37.75 
Q 6.296875 42.828125 8.65625 46.359375 
Q 11.03125 49.90625 14.8125 51.78125 
Q 18.609375 53.65625 24.03125 53.65625 
Q 29.640625 53.65625 33.765625 51.09375 
Q 37.890625 48.53125 40.140625 43.796875 
L 40.234375 43.796875 
Q 40.234375 45.015625 40.296875 46.53125 
Q 40.375 48.046875 40.453125 49.390625 
Q 40.53125 50.734375 40.625 51.703125 
Q 40.71875 52.6875 40.828125 52.828125 
L 49.171875 52.828125 
Q 49.125 52.390625 49.078125 51.34375 
Q 49.03125 50.296875 48.96875 48.828125 
Q 48.921875 47.359375 48.890625 45.578125 
Q 48.875 43.796875 48.875 41.890625 
L 48.875 1.515625 
Q 48.875 -9.578125 43.421875 -15.15625 
Q 37.984375 -20.75 26.765625 -20.75 
M 40.140625 26.421875 
Q 40.140625 31.9375 38.9375 35.859375 
Q 37.75 39.796875 35.796875 42.28125 
Q 33.84375 44.78125 31.328125 45.953125 
Q 28.8125 47.125 26.171875 47.125 
Q 22.796875 47.125 20.375 45.953125 
Q 17.96875 44.78125 16.375 42.265625 
Q 14.796875 39.75 14.03125 35.8125 
Q 13.28125 31.890625 13.28125 26.421875 
Q 13.28125 20.703125 14.03125 16.8125 
Q 14.796875 12.9375 16.359375 10.546875 
Q 17.921875 8.15625 20.3125 7.125 
Q 22.703125 6.109375 26.03125 6.109375 
Q 28.65625 6.109375 31.171875 7.21875 
Q 33.6875 8.34375 35.6875 10.78125 
Q 37.703125 13.234375 38.921875 17.09375 
Q 40.140625 20.953125 40.140625 26.421875 
" id="LiberationSans-67"/>
     <path d="M 15.328125 52.828125 
L 15.328125 19.34375 
Q 15.328125 15.484375 15.890625 12.890625 
Q 16.453125 10.296875 17.71875 8.703125 
Q 19 7.125 21.0625 6.46875 
Q 23.140625 5.8125 26.21875 5.8125 
Q 29.34375 5.8125 31.859375 6.90625 
Q 34.375 8.015625 36.15625 10.078125 
Q 37.9375 12.15625 38.90625 15.203125 
Q 39.890625 18.265625 39.890625 22.21875 
L 39.890625 52.828125 
L 48.6875 52.828125 
L 48.6875 11.28125 
Q 48.6875 9.625 48.703125 7.78125 
Q 48.734375 5.953125 48.78125 4.3125 
Q 48.828125 2.6875 48.875 1.515625 
Q 48.921875 0.34375 48.96875 0 
L 40.671875 0 
Q 40.625 0.25 40.578125 1.3125 
Q 40.53125 2.390625 40.453125 3.78125 
Q 40.375 5.171875 40.328125 6.609375 
Q 40.28125 8.0625 40.28125 9.03125 
L 40.140625 9.03125 
Q 38.875 6.734375 37.359375 4.875 
Q 35.84375 3.03125 33.84375 1.734375 
Q 31.84375 0.4375 29.25 -0.265625 
Q 26.65625 -0.984375 23.25 -0.984375 
Q 18.84375 -0.984375 15.671875 0.09375 
Q 12.5 1.171875 10.453125 3.421875 
Q 8.40625 5.671875 7.453125 9.1875 
Q 6.5 12.703125 6.5 17.625 
L 6.5 52.828125 
z
" id="LiberationSans-75"/>
     <path d="M 27.046875 0.390625 
Q 25.046875 -0.140625 22.96875 -0.453125 
Q 20.90625 -0.78125 18.171875 -0.78125 
Q 7.625 -0.78125 7.625 11.1875 
L 7.625 46.4375 
L 1.515625 46.4375 
L 1.515625 52.828125 
L 7.953125 52.828125 
L 10.546875 64.65625 
L 16.40625 64.65625 
L 16.40625 52.828125 
L 26.171875 52.828125 
L 26.171875 46.4375 
L 16.40625 46.4375 
L 16.40625 13.09375 
Q 16.40625 9.28125 17.640625 7.734375 
Q 18.890625 6.203125 21.96875 6.203125 
Q 23.25 6.203125 24.4375 6.390625 
Q 25.640625 6.59375 27.046875 6.890625 
z
" id="LiberationSans-74"/>
     <path d="M 6.6875 64.0625 
L 6.6875 72.46875 
L 15.484375 72.46875 
L 15.484375 64.0625 
z
M 6.6875 0 
L 6.6875 52.828125 
L 15.484375 52.828125 
L 15.484375 0 
z
" id="LiberationSans-69"/>
     <path d="M 37.5 0 
L 37.5 33.5 
Q 37.5 37.359375 37.015625 39.9375 
Q 36.53125 42.53125 35.375 44.109375 
Q 34.234375 45.703125 32.375 46.359375 
Q 30.515625 47.015625 27.828125 47.015625 
Q 25.046875 47.015625 22.796875 45.921875 
Q 20.5625 44.828125 18.96875 42.75 
Q 17.390625 40.671875 16.53125 37.625 
Q 15.671875 34.578125 15.671875 30.609375 
L 15.671875 0 
L 6.9375 0 
L 6.9375 41.546875 
Q 6.9375 43.21875 6.90625 45.046875 
Q 6.890625 46.875 6.828125 48.5 
Q 6.78125 50.140625 6.734375 51.3125 
Q 6.6875 52.484375 6.640625 52.828125 
L 14.9375 52.828125 
Q 14.984375 52.59375 15.03125 51.515625 
Q 15.09375 50.4375 15.15625 49.046875 
Q 15.234375 47.65625 15.28125 46.21875 
Q 15.328125 44.78125 15.328125 43.796875 
L 15.484375 43.796875 
Q 16.65625 46.09375 18.015625 47.953125 
Q 19.390625 49.8125 21.21875 51.09375 
Q 23.046875 52.390625 25.40625 53.09375 
Q 27.78125 53.8125 30.90625 53.8125 
Q 36.921875 53.8125 40.40625 51.421875 
Q 43.890625 49.03125 45.265625 43.796875 
L 45.40625 43.796875 
Q 46.578125 46.09375 48.046875 47.953125 
Q 49.515625 49.8125 51.46875 51.09375 
Q 53.421875 52.390625 55.859375 53.09375 
Q 58.296875 53.8125 61.421875 53.8125 
Q 65.4375 53.8125 68.328125 52.734375 
Q 71.234375 51.65625 73.09375 49.40625 
Q 74.953125 47.171875 75.828125 43.625 
Q 76.703125 40.09375 76.703125 35.203125 
L 76.703125 0 
L 68.015625 0 
L 68.015625 33.5 
Q 68.015625 37.359375 67.53125 39.9375 
Q 67.046875 42.53125 65.890625 44.109375 
Q 64.75 45.703125 62.890625 46.359375 
Q 61.03125 47.015625 58.34375 47.015625 
Q 55.5625 47.015625 53.3125 45.96875 
Q 51.078125 44.921875 49.484375 42.875 
Q 47.90625 40.828125 47.046875 37.75 
Q 46.1875 34.671875 46.1875 30.609375 
L 46.1875 0 
z
" id="LiberationSans-6d"/>
     <path d="M 17.53125 61.1875 
L 17.53125 35.59375 
L 55.90625 35.59375 
L 55.90625 27.875 
L 17.53125 27.875 
L 17.53125 0 
L 8.203125 0 
L 8.203125 68.796875 
L 57.078125 68.796875 
L 57.078125 61.1875 
z
" id="LiberationSans-46"/>
     <path d="M 51.421875 26.46875 
Q 51.421875 12.59375 45.3125 5.796875 
Q 39.203125 -0.984375 27.59375 -0.984375 
Q 22.078125 -0.984375 17.71875 0.671875 
Q 13.375 2.34375 10.375 5.765625 
Q 7.375 9.1875 5.78125 14.328125 
Q 4.203125 19.484375 4.203125 26.46875 
Q 4.203125 53.8125 27.875 53.8125 
Q 34.03125 53.8125 38.5 52.09375 
Q 42.96875 50.390625 45.828125 46.96875 
Q 48.6875 43.5625 50.046875 38.421875 
Q 51.421875 33.296875 51.421875 26.46875 
M 42.1875 26.46875 
Q 42.1875 32.625 41.234375 36.625 
Q 40.28125 40.625 38.453125 43.015625 
Q 36.625 45.40625 33.984375 46.359375 
Q 31.34375 47.3125 28.03125 47.3125 
Q 24.65625 47.3125 21.9375 46.3125 
Q 19.234375 45.3125 17.328125 42.890625 
Q 15.4375 40.484375 14.421875 36.46875 
Q 13.421875 32.46875 13.421875 26.46875 
Q 13.421875 20.3125 14.5 16.28125 
Q 15.578125 12.25 17.453125 9.859375 
Q 19.34375 7.46875 21.90625 6.484375 
Q 24.46875 5.515625 27.484375 5.515625 
Q 30.859375 5.515625 33.59375 6.46875 
Q 36.328125 7.421875 38.234375 9.8125 
Q 40.140625 12.203125 41.15625 16.25 
Q 42.1875 20.3125 42.1875 26.46875 
" id="LiberationSans-6f"/>
     <path d="M 13.484375 24.5625 
Q 13.484375 20.40625 14.328125 16.90625 
Q 15.1875 13.421875 16.96875 10.90625 
Q 18.75 8.40625 21.53125 7 
Q 24.3125 5.609375 28.21875 5.609375 
Q 33.9375 5.609375 37.375 7.90625 
Q 40.828125 10.203125 42.046875 13.71875 
L 49.75 11.53125 
Q 48.921875 9.328125 47.4375 7.109375 
Q 45.953125 4.890625 43.453125 3.09375 
Q 40.96875 1.3125 37.234375 0.15625 
Q 33.5 -0.984375 28.21875 -0.984375 
Q 16.5 -0.984375 10.375 6 
Q 4.25 12.984375 4.25 26.765625 
Q 4.25 34.1875 6.09375 39.328125 
Q 7.953125 44.484375 11.171875 47.703125 
Q 14.40625 50.921875 18.703125 52.359375 
Q 23 53.8125 27.875 53.8125 
Q 34.515625 53.8125 38.984375 51.65625 
Q 43.453125 49.515625 46.15625 45.71875 
Q 48.875 41.9375 50.015625 36.8125 
Q 51.171875 31.6875 51.171875 25.734375 
L 51.171875 24.5625 
z
M 42.09375 31.296875 
Q 41.359375 39.65625 37.84375 43.484375 
Q 34.328125 47.3125 27.734375 47.3125 
Q 25.53125 47.3125 23.109375 46.609375 
Q 20.703125 45.90625 18.65625 44.09375 
Q 16.609375 42.28125 15.1875 39.171875 
Q 13.765625 36.078125 13.578125 31.296875 
z
" id="LiberationSans-65"/>
     <path d="M 54.734375 0 
L 54.734375 31.890625 
L 17.53125 31.890625 
L 17.53125 0 
L 8.203125 0 
L 8.203125 68.796875 
L 17.53125 68.796875 
L 17.53125 39.703125 
L 54.734375 39.703125 
L 54.734375 68.796875 
L 64.0625 68.796875 
L 64.0625 0 
z
" id="LiberationSans-48"/>
     <path id="LiberationSans-20"/>
    </defs>
    <g style="fill:#262626;" transform="translate(213.5109375 34.6)scale(0.12 -0.12)">
     <use xlink:href="#LiberationSans-48"/>
     <use x="72.216796875" xlink:href="#LiberationSans-69"/>
     <use x="94.43359375" xlink:href="#LiberationSans-73"/>
     <use x="144.43359375" xlink:href="#LiberationSans-74"/>
     <use x="172.216796875" xlink:href="#LiberationSans-6f"/>
     <use x="227.83203125" xlink:href="#LiberationSans-67"/>
     <use x="283.447265625" xlink:href="#LiberationSans-72"/>
     <use x="316.748046875" xlink:href="#LiberationSans-61"/>
     <use x="372.36328125" xlink:href="#LiberationSans-6d"/>
     <use x="455.6640625" xlink:href="#LiberationSans-65"/>
     <use x="511.279296875" xlink:href="#LiberationSans-20"/>
     <use x="539.0625" xlink:href="#LiberationSans-66"/>
     <use x="566.845703125" xlink:href="#LiberationSans-6f"/>
     <use x="622.4609375" xlink:href="#LiberationSans-72"/>
     <use x="655.76171875" xlink:href="#LiberationSans-20"/>
     <use x="683.544921875" xlink:href="#LiberationSans-46"/>
     <use x="744.62890625" xlink:href="#LiberationSans-65"/>
     <use x="800.244140625" xlink:href="#LiberationSans-61"/>
     <use x="855.859375" xlink:href="#LiberationSans-74"/>
     <use x="883.642578125" xlink:href="#LiberationSans-75"/>
     <use x="939.2578125" xlink:href="#LiberationSans-72"/>
     <use x="972.55859375" xlink:href="#LiberationSans-65"/>
     <use x="1028.17382812" xlink:href="#LiberationSans-20"/>
     <use x="1055.95703125" xlink:href="#LiberationSans-53"/>
     <use x="1122.65625" xlink:href="#LiberationSans-61"/>
     <use x="1178.27148438" xlink:href="#LiberationSans-63"/>
     <use x="1228.27148438" xlink:href="#LiberationSans-63"/>
     <use x="1278.27148438" xlink:href="#LiberationSans-4d"/>
    </g>
   </g>
   <g id="legend_1">
    <g id="patch_32">
     <path d="M 450.839062 55.846875 
L 470.839062 55.846875 
L 470.839062 48.846875 
L 450.839062 48.846875 
z
" style="fill:#ff0000;opacity:0.4;stroke:#1a1a1a;stroke-linejoin:miter;stroke-width:0.3;"/>
    </g>
    <g id="text_15">
     <!-- SaccM -->
     <g style="fill:#262626;" transform="translate(478.8390625 55.846875)scale(0.1 -0.1)">
      <use xlink:href="#LiberationSans-53"/>
      <use x="66.69921875" xlink:href="#LiberationSans-61"/>
      <use x="122.314453125" xlink:href="#LiberationSans-63"/>
      <use x="172.314453125" xlink:href="#LiberationSans-63"/>
      <use x="222.314453125" xlink:href="#LiberationSans-4d"/>
     </g>
    </g>
   </g>
  </g>
 </g>
 <defs>
  <clipPath id="p19a2cc271d">
   <rect height="316.8" width="446.4" x="72.0" y="39.6"/>
  </clipPath>
 </defs>
</svg>
